<svg width="160" height="160" viewBox="0 0 160 160" fill="none" xmlns="http://www.w3.org/2000/svg">
<circle cx="80" cy="80" r="80" fill="#1F4C50"/>
<circle cx="80" cy="80" r="42" fill="#D9D9D9"/>
<path d="M82 67C82 65.8954 81.1046 65 80 65C78.8954 65 78 65.8954 78 67L82 67ZM78.5858 94.4142C79.3668 95.1953 80.6332 95.1953 81.4142 94.4142L94.1421 81.6863C94.9232 80.9052 94.9232 79.6389 94.1421 78.8579C93.3611 78.0768 92.0948 78.0768 91.3137 78.8579L80 90.1716L68.6863 78.8579C67.9052 78.0768 66.6389 78.0768 65.8579 78.8579C65.0768 79.6389 65.0768 80.9052 65.8579 81.6863L78.5858 94.4142ZM78 67L78 93L82 93L82 67L78 67Z" fill="#1C2F34"/>
</svg>
