<svg width="1920" height="768" viewBox="0 0 1920 768" fill="none" xmlns="http://www.w3.org/2000/svg">
<path d="M0 0H160V135.281C160 140.804 155.523 145.281 150 145.281H10C4.47715 145.281 0 140.804 0 135.281V0Z" fill="#EAEAE7"/>
<path d="M1759 0H1920V135.281C1920 140.804 1915.52 145.281 1910 145.281H1769C1763.48 145.281 1759 140.804 1759 135.281V0Z" fill="#EAEAE7"/>
<path d="M1759 156.281C1759 150.758 1763.48 146.281 1769 146.281H1910C1915.52 146.281 1920 150.758 1920 156.281V766.932H1759V156.281Z" fill="#EAEAE7"/>
<path d="M0 156.281C0 150.758 4.47715 146.281 10 146.281H150C155.523 146.281 160 150.758 160 156.281V766.932H0V156.281Z" fill="#EAEAE7"/>
<path d="M161 156.932C161 151.409 165.477 146.932 171 146.932H1748C1753.52 146.932 1758 151.409 1758 156.932V767.932H161V156.932Z" fill="#EAEAE7"/>
<path d="M161 0H1758V135.281C1758 140.804 1753.52 145.281 1748 145.281H171C165.477 145.281 161 140.804 161 135.281V0Z" fill="#EAEAE7"/>
</svg>
