<svg width="28" height="28" viewBox="0 0 28 28" fill="none" xmlns="http://www.w3.org/2000/svg">
<path d="M7.76066 10.4018H10.4359V18.9953H7.76066V10.4018ZM9.09826 6.12744C9.40493 6.12818 9.7045 6.21984 9.95908 6.39084C10.2137 6.56183 10.4118 6.80448 10.5285 7.08809C10.6452 7.3717 10.6751 7.68354 10.6146 7.98418C10.554 8.28481 10.4057 8.56075 10.1883 8.77707C9.97092 8.9934 9.69428 9.14041 9.39336 9.19952C9.09243 9.25862 8.78074 9.22716 8.49769 9.10912C8.21464 8.99108 7.97296 8.79176 7.80319 8.53636C7.63343 8.28096 7.54321 7.98096 7.54395 7.67428C7.54494 7.26369 7.70874 6.87026 7.99942 6.58027C8.2901 6.29029 8.68393 6.12744 9.09452 6.12744M12.1097 19.0028H14.7849V14.7471C14.7849 13.6262 14.9979 12.539 16.3878 12.539C17.7777 12.539 17.7777 13.8243 17.7777 14.8219V19.0028H20.4492V14.2876C20.4492 11.9673 19.9523 10.1776 17.2434 10.1776C16.7342 10.1611 16.23 10.2831 15.7846 10.5305C15.3391 10.7779 14.9691 11.1414 14.714 11.5825H14.6803V10.4055H12.1135L12.1097 19.0028Z" fill="white"/>
<path d="M14 0C11.2311 0 8.52431 0.82108 6.22202 2.35942C3.91973 3.89776 2.12532 6.08427 1.06569 8.64243C0.00606623 11.2006 -0.271181 14.0155 0.269012 16.7313C0.809205 19.447 2.14258 21.9416 4.10051 23.8995C6.05844 25.8574 8.553 27.1908 11.2687 27.731C13.9845 28.2712 16.7994 27.9939 19.3576 26.9343C21.9157 25.8747 24.1022 24.0803 25.6406 21.778C27.1789 19.4757 28 16.7689 28 14C27.996 10.2882 26.5198 6.72952 23.8951 4.10487C21.2705 1.48022 17.7118 0.00395611 14 0ZM14 26.2066C11.5856 26.2073 9.22523 25.492 7.21738 24.1512C5.20953 22.8104 3.6444 20.9042 2.71995 18.6738C1.79549 16.4434 1.55322 13.989 2.02379 11.6209C2.49436 9.25282 3.65663 7.07746 5.3636 5.36997C7.07057 3.66248 9.24557 2.49955 11.6135 2.02825C13.9815 1.55695 16.436 1.79847 18.6667 2.72224C20.8973 3.64602 22.804 5.21057 24.1454 7.218C25.4868 9.22544 26.2028 11.5856 26.2028 14C26.1969 17.2342 24.9092 20.3342 22.6219 22.6208C20.3346 24.9074 17.2342 26.1941 14 26.1991V26.2066Z" fill="white"/>
</svg>
