<svg width="353" height="249" viewBox="0 0 353 249" fill="none" xmlns="http://www.w3.org/2000/svg">
<path d="M313.895 36.9049C316.291 31.7948 317.253 26.1485 316.681 20.5507C316.607 19.9871 316.415 19.4446 316.116 18.958C315.818 18.4713 315.419 18.051 314.946 17.7239C314.473 17.3968 313.936 17.17 313.369 17.0579C312.802 16.9459 312.218 16.951 311.653 17.0731C307.326 18.0547 303.149 24.3834 299.726 28.8844C295.963 33.8868 300.789 38.346 306.221 41.4164C303.212 44.9358 298.652 48.2985 290.595 52.5385C276.84 59.7757 275.447 69.4879 275.447 69.4879C283.143 59.8488 288.905 59.2013 300.778 51.5986C304.288 49.385 307.387 46.5983 309.941 43.3588C312.136 44.717 313.853 46.7034 314.863 49.0504L317.744 45.176C319.848 42.4085 317.456 39.4113 313.895 36.9049ZM309.155 34.0956C303.563 31.2551 302.692 27.4433 305.445 24.7907C308.198 22.1381 313.949 26.0752 310.951 33.3751C310.76 33.8346 310.568 34.2836 310.366 34.7327C309.962 34.5134 309.527 34.2941 309.155 34.0956Z" fill="#D0A860"/>
<path d="M299.141 202.015C292.645 205.207 275.026 194.914 268.615 190.931C268.398 190.798 268.149 190.727 267.893 190.725C267.638 190.723 267.387 190.791 267.168 190.921C266.95 191.052 266.772 191.239 266.656 191.463C266.539 191.687 266.487 191.938 266.506 192.189C267.076 198.792 268.183 214.971 265.705 216.707C259.726 220.866 248.317 227.843 242.433 224.453C236.845 221.241 225.278 210.531 223.348 208.732C223.313 208.697 223.271 208.67 223.225 208.651C223.179 208.632 223.129 208.622 223.079 208.622C223.029 208.622 222.98 208.632 222.934 208.651C222.888 208.67 222.846 208.697 222.811 208.732C220.501 211.113 203.272 228.436 191.81 227.666C179.505 226.845 177.175 208.441 161.474 212.777C145.774 217.113 113.382 241.599 57.6974 224.952C12.5257 211.436 0.9375 223.393 0.9375 223.393C28.2367 183.383 72.9761 240.154 154.979 206.757C154.979 206.757 181.962 196.671 195.237 209.751C208.512 222.831 214.491 209.002 221.123 202.473C227.756 195.943 250.247 213.806 256.078 217.279C256.14 217.319 256.213 217.34 256.288 217.34C256.362 217.339 256.435 217.317 256.497 217.276C256.559 217.235 256.607 217.177 256.636 217.109C256.664 217.041 256.672 216.966 256.658 216.894C255.941 212.995 252.63 188.311 262.394 179.951C267.982 175.169 299.373 192.273 304.687 191.69C304.776 191.68 304.858 191.639 304.918 191.574C304.978 191.509 305.012 191.425 305.014 191.337C305.084 184.546 303.708 177.816 300.975 171.581C296.252 160.383 295.271 151.909 295.904 143.061C296.557 133.921 311.72 118.335 311.72 118.335C301.545 133.495 314.419 160.851 316.992 172.985C319.565 185.119 305.404 198.896 299.141 202.015Z" fill="white"/>
<path d="M340.249 60.0014C340.249 60.0014 336.183 52.4165 330.165 58.2766C324.146 64.1367 314.158 75.3374 328.511 79.1299C328.511 79.1299 321.244 83.286 318.533 90.2475C318.533 90.2475 330.133 78.1532 343.258 79.3065L353.001 69.1344C353.001 69.1344 344.208 72.9269 335.767 72.2515C327.326 71.5762 326.462 65.6329 327.348 63.7731C328.233 61.9132 333.153 66.8901 333.153 66.8901L340.249 60.0014Z" fill="white"/>
<path d="M296.259 85.7439L286.839 95.7912C286.726 95.9116 286.64 96.0557 286.587 96.2134C286.534 96.3712 286.515 96.5387 286.531 96.7047C286.548 96.8706 286.599 97.0309 286.682 97.1746C286.765 97.3182 286.878 97.4418 287.012 97.5367C289.813 99.5316 296.86 105.132 295.291 109.787C300.334 106.492 304.479 101.949 307.338 96.5808C307.441 96.3636 307.475 96.1194 307.437 95.8814C307.399 95.6435 307.29 95.4233 307.124 95.2509L297.888 85.6919C297.779 85.5833 297.65 85.4983 297.508 85.4419C297.366 85.3855 297.215 85.359 297.063 85.3638C296.91 85.3687 296.761 85.4049 296.623 85.4702C296.485 85.5355 296.361 85.6286 296.259 85.7439Z" fill="white"/>
<path d="M336.398 90.2471C336.398 90.2471 318.381 98.6439 326.603 138.529C335.15 180.041 336.566 181.51 323.457 217.249C323.457 217.249 346.529 197.191 344.222 167.298C341.537 131.895 325.513 104.837 336.398 90.2471Z" fill="white"/>
</svg>
