<svg width="136" height="83" viewBox="0 0 136 83" fill="none" xmlns="http://www.w3.org/2000/svg">
<g clip-path="url(#clip0_518_2862)">
<path d="M119.892 7.7178C120.804 5.73956 121.17 3.55374 120.952 1.38668C120.924 1.16848 120.851 0.958494 120.737 0.770091C120.624 0.581688 120.472 0.418994 120.292 0.292358C120.112 0.165722 119.908 0.077912 119.692 0.034534C119.476 -0.00884393 119.254 -0.00684736 119.039 0.0403945C117.392 0.420424 115.802 2.8704 114.5 4.61287C113.068 6.5494 114.904 8.27571 116.971 9.46431C115.827 10.8268 114.091 12.1286 111.025 13.77C105.79 16.5717 105.26 20.3315 105.26 20.3315C108.189 16.6 110.381 16.3493 114.9 13.4061C116.236 12.5492 117.415 11.4704 118.387 10.2163C119.222 10.7421 119.876 11.5111 120.26 12.4196L121.357 10.9197C122.158 9.84838 121.247 8.68809 119.892 7.7178ZM118.088 6.63027C115.96 5.53061 115.628 4.05496 116.676 3.02808C117.724 2.00119 119.912 3.52535 118.772 6.35131C118.699 6.5292 118.626 6.70304 118.549 6.87688C118.395 6.79198 118.23 6.70708 118.088 6.63027Z" fill="#D0A860"/>
<path d="M114.41 71.8417C111.918 73.0828 105.158 69.0804 102.698 67.532C102.615 67.4801 102.519 67.4523 102.421 67.4516C102.324 67.4509 102.227 67.4774 102.143 67.5281C102.06 67.5788 101.992 67.6517 101.947 67.7387C101.902 67.8258 101.882 67.9235 101.889 68.0212C102.108 70.5884 102.533 76.8791 101.582 77.5542C99.2881 79.1714 94.9109 81.8841 92.6535 80.5662C90.5094 79.3169 86.0715 75.1528 85.3312 74.4534C85.3177 74.4398 85.3016 74.429 85.2839 74.4217C85.2662 74.4143 85.2472 74.4105 85.228 74.4105C85.2089 74.4105 85.1899 74.4143 85.1722 74.4217C85.1545 74.429 85.1384 74.4398 85.1249 74.4534C84.2389 75.3792 77.6286 82.1146 73.2312 81.8154C68.5101 81.496 67.6161 74.3402 61.5924 76.026C55.5686 77.7119 43.1409 87.2328 21.7768 80.7602C4.44598 75.5045 0 80.1538 0 80.1538C10.4737 64.5968 27.6387 86.6709 59.1003 73.6852C59.1003 73.6852 69.4527 69.7636 74.546 74.8496C79.6392 79.9355 81.933 74.5585 84.4776 72.0196C87.0222 69.4806 95.6512 76.4263 97.8884 77.7766C97.9123 77.7922 97.9403 77.8004 97.9689 77.8002C97.9975 77.8 98.0254 77.7914 98.0491 77.7754C98.0729 77.7595 98.0914 77.7369 98.1024 77.7105C98.1133 77.6841 98.1163 77.6551 98.1108 77.627C97.8358 76.1109 96.5655 66.5132 100.312 63.2627C102.456 61.403 114.499 68.0535 116.538 67.8271C116.572 67.8232 116.603 67.8071 116.626 67.7819C116.65 67.7566 116.663 67.7238 116.663 67.6896C116.69 65.0491 116.162 62.4322 115.114 60.0082C113.302 55.654 112.925 52.3591 113.168 48.9186C113.419 45.3649 119.236 39.3047 119.236 39.3047C115.332 45.1992 120.272 55.836 121.259 60.554C122.246 65.272 116.813 70.6288 114.41 71.8417Z" fill="#1F4C50"/>
<path d="M130.195 16.5879C130.195 16.5879 128.654 13.6366 126.372 15.9168C124.091 18.197 120.304 22.5552 125.745 24.0308C125.745 24.0308 122.99 25.648 121.963 28.3567C121.963 28.3567 126.36 23.6508 131.336 24.0996L135.03 20.1416C135.03 20.1416 131.696 21.6172 128.496 21.3544C125.296 21.0917 124.969 18.7791 125.304 18.0555C125.64 17.3318 127.505 19.2683 127.505 19.2683L130.195 16.5879Z" fill="#1F4C50"/>
<path d="M113.306 26.7921L109.564 30.7016C109.519 30.7485 109.485 30.8045 109.464 30.8659C109.443 30.9273 109.435 30.9925 109.442 31.057C109.448 31.1216 109.469 31.184 109.502 31.2399C109.535 31.2958 109.579 31.3438 109.633 31.3808C110.745 32.157 113.545 34.3361 112.922 36.1473C114.925 34.8653 116.572 33.0976 117.708 31.0088C117.748 30.9243 117.762 30.8293 117.747 30.7367C117.732 30.6441 117.688 30.5584 117.623 30.4913L113.953 26.7719C113.91 26.7297 113.859 26.6966 113.802 26.6746C113.746 26.6527 113.686 26.6424 113.625 26.6443C113.565 26.6461 113.506 26.6602 113.451 26.6856C113.396 26.711 113.347 26.7473 113.306 26.7921Z" fill="#1F4C50"/>
<path d="M128.788 28.6235C128.788 28.6235 121.838 31.8578 125.01 47.2207C128.307 63.2102 128.853 63.7762 123.796 77.5422C123.796 77.5422 132.696 69.8163 131.806 58.3022C130.77 44.6656 124.589 34.2431 128.788 28.6235Z" fill="#1F4C50"/>
</g>
<defs>
<clipPath id="clip0_518_2862">
<rect width="135.03" height="83" fill="white"/>
</clipPath>
</defs>
</svg>
