<svg width="309" height="239" viewBox="0 0 309 239" fill="none" xmlns="http://www.w3.org/2000/svg">
<g clip-path="url(#clip0_518_2817)">
<path d="M274.359 17.667C276.446 13.1385 277.283 8.13485 276.785 3.17411C276.721 2.67462 276.554 2.19393 276.293 1.76265C276.033 1.33137 275.686 0.958933 275.275 0.669043C274.863 0.379153 274.395 0.178143 273.901 0.0788437C273.407 -0.0204553 272.898 -0.0158848 272.406 0.0922592C268.638 0.962206 265 6.57058 262.019 10.5594C258.742 14.9924 262.945 18.9442 267.676 21.6651C265.056 24.7839 261.084 27.764 254.067 31.5214C242.088 37.9349 240.875 46.5419 240.875 46.5419C247.577 37.9997 252.595 37.4259 262.936 30.6885C265.992 28.7268 268.691 26.2573 270.916 23.3865C272.827 24.59 274.323 26.3504 275.202 28.4303L277.711 24.9968C279.544 22.5443 277.461 19.8882 274.359 17.667ZM270.231 15.1775C265.361 12.6602 264.602 9.28224 267 6.93153C269.397 4.58083 274.406 8.06987 271.795 14.5389C271.628 14.9461 271.462 15.3441 271.286 15.742C270.934 15.5477 270.555 15.3534 270.231 15.1775Z" fill="#D0A860"/>
<path d="M261.814 164.457C256.111 167.298 240.642 158.136 235.013 154.591C234.823 154.473 234.604 154.409 234.38 154.407C234.155 154.406 233.935 154.466 233.743 154.582C233.551 154.698 233.396 154.865 233.293 155.065C233.19 155.264 233.145 155.488 233.162 155.711C233.662 161.588 234.634 175.988 232.458 177.534C227.209 181.236 217.192 187.446 212.027 184.429C207.12 181.569 196.965 172.037 195.27 170.435C195.239 170.404 195.203 170.38 195.162 170.363C195.122 170.346 195.078 170.337 195.034 170.337C194.991 170.337 194.947 170.346 194.907 170.363C194.866 170.38 194.829 170.404 194.798 170.435C192.771 172.555 177.644 187.973 167.581 187.288C156.777 186.557 154.731 170.176 140.947 174.036C127.162 177.895 98.723 199.69 49.8336 184.873C10.1741 172.842 0 183.485 0 183.485C23.9679 147.872 63.2479 198.403 135.244 168.677C135.244 168.677 158.934 159.7 170.59 171.342C182.245 182.985 187.494 170.676 193.317 164.864C199.14 159.052 218.887 174.952 224.006 178.043C224.061 178.079 224.125 178.097 224.19 178.097C224.256 178.096 224.32 178.077 224.374 178.04C224.428 178.004 224.471 177.952 224.496 177.892C224.521 177.831 224.528 177.765 224.515 177.7C223.886 174.23 220.979 152.259 229.551 144.818C234.458 140.561 262.018 155.785 266.684 155.267C266.761 155.258 266.833 155.221 266.886 155.163C266.939 155.106 266.969 155.031 266.971 154.952C267.032 148.908 265.824 142.917 263.425 137.368C259.277 127.401 258.417 119.858 258.972 111.982C259.546 103.848 272.858 89.9747 272.858 89.9747C263.925 103.468 275.228 127.817 277.487 138.618C279.746 149.418 267.313 161.68 261.814 164.457Z" fill="#F0EDE4"/>
<path d="M297.937 37.9722C297.937 37.9722 294.41 31.2163 289.189 36.436C283.967 41.6556 275.302 51.6322 287.754 55.0102C287.754 55.0102 281.449 58.7121 279.098 64.9128C279.098 64.9128 289.161 54.1403 300.548 55.1676L309 46.1072C309 46.1072 301.372 49.4851 294.049 48.8836C286.726 48.282 285.976 42.9883 286.745 41.3317C287.513 39.6751 291.781 44.1081 291.781 44.1081L297.937 37.9722Z" fill="#F0EDE4"/>
<path d="M259.288 61.3313L250.725 70.2806C250.622 70.388 250.544 70.5163 250.496 70.6568C250.447 70.7972 250.43 70.9465 250.445 71.0943C250.46 71.2421 250.507 71.3849 250.582 71.5129C250.658 71.6408 250.76 71.7509 250.882 71.8354C253.428 73.6124 259.834 78.6006 258.409 82.7468C262.993 79.812 266.761 75.7656 269.36 70.984C269.454 70.7905 269.485 70.573 269.45 70.361C269.415 70.1491 269.316 69.953 269.166 69.7994L260.769 61.285C260.67 61.1883 260.553 61.1126 260.424 61.0623C260.295 61.0121 260.157 60.9885 260.019 60.9928C259.881 60.9971 259.745 61.0293 259.619 61.0875C259.493 61.1457 259.381 61.2286 259.288 61.3313Z" fill="#F0EDE4"/>
<path d="M294.716 65.5237C294.716 65.5237 278.812 72.9275 286.07 108.096C293.615 144.698 294.864 145.994 283.292 177.506C283.292 177.506 303.659 159.82 301.623 133.463C299.253 102.247 285.107 78.3878 294.716 65.5237Z" fill="#F0EDE4"/>
</g>
<path d="M0.4 238.96C0.133333 238.96 0 238.827 0 238.56V236.24C0 235.973 0.133333 235.84 0.4 235.84H1.32C3.48 235.84 4.56 234.707 4.56 232.44V215.04C4.56 214.773 4.69333 214.64 4.96 214.64H7.52C7.78667 214.64 7.92 214.773 7.92 215.04V225.16C7.92 226.067 8.24 226.747 8.88 227.2C9.54667 227.653 10.4267 227.88 11.52 227.88H11.96C12.4933 227.88 12.8933 228 13.16 228.24C13.4267 228.453 13.56 228.827 13.56 229.36C13.56 230.053 13.4267 230.507 13.16 230.72C12.92 230.907 12.52 231 11.96 231H11.12C9.73333 231 8.66667 230.573 7.92 229.72V232.36C7.92 234.52 7.37333 236.16 6.28 237.28C5.18667 238.4 3.58667 238.96 1.48 238.96H0.4ZM11.9531 231C11.4198 231 11.0198 230.907 10.7531 230.72C10.4865 230.533 10.3531 230.16 10.3531 229.6C10.3531 228.933 10.4865 228.48 10.7531 228.24C10.9931 228 11.3931 227.88 11.9531 227.88H14.7131C15.3798 227.88 15.8598 227.733 16.1531 227.44C16.4731 227.12 16.6331 226.56 16.6331 225.76V215.04C16.6331 214.773 16.7665 214.64 17.0331 214.64H19.5931C19.8598 214.64 19.9931 214.773 19.9931 215.04V225.96C19.9931 227.693 19.6331 228.973 18.9131 229.8C18.1931 230.6 16.9931 231 15.3131 231H11.9531ZM18.5531 238.44C18.2865 238.44 18.1531 238.307 18.1531 238.04V235.12C18.1531 234.853 18.2865 234.72 18.5531 234.72H21.2731C21.5398 234.72 21.6731 234.853 21.6731 235.12V238.04C21.6731 238.307 21.5398 238.44 21.2731 238.44H18.5531ZM13.6731 238.44C13.4065 238.44 13.2731 238.307 13.2731 238.04V235.12C13.2731 234.853 13.4065 234.72 13.6731 234.72H16.3931C16.6598 234.72 16.7931 234.853 16.7931 235.12V238.04C16.7931 238.307 16.6598 238.44 16.3931 238.44H13.6731ZM40.3278 225.16C40.3278 226.067 40.6478 226.747 41.2878 227.2C41.9545 227.653 42.8345 227.88 43.9278 227.88H44.3678C44.9011 227.88 45.3011 228 45.5678 228.24C45.8345 228.453 45.9678 228.827 45.9678 229.36C45.9678 230.053 45.8345 230.507 45.5678 230.72C45.3278 230.907 44.9278 231 44.3678 231H43.5278C42.6211 231 41.8078 230.813 41.0878 230.44C40.3678 230.04 39.8611 229.453 39.5678 228.68C39.1145 229.56 38.4878 230.173 37.6878 230.52C36.8878 230.84 35.8478 231 34.5678 231H25.6878C25.4211 231 25.2878 230.867 25.2878 230.6V228.28C25.2878 228.013 25.4211 227.88 25.6878 227.88H33.3278C34.0745 227.88 34.6745 227.827 35.1278 227.72C35.5811 227.587 35.9278 227.387 36.1678 227.12C36.4078 226.827 36.5678 226.453 36.6478 226C36.7278 225.547 36.7678 224.973 36.7678 224.28V221.08C36.7678 218.387 35.2478 217.04 32.2078 217.04H27.5678C27.3011 217.04 27.1678 216.907 27.1678 216.64V214.32C27.1678 214.053 27.3011 213.92 27.5678 213.92H33.4478C35.4745 213.92 37.1278 214.493 38.4078 215.64C39.6878 216.787 40.3278 218.587 40.3278 221.04V225.16ZM44.655 231C44.1217 231 43.7217 230.907 43.455 230.72C43.1883 230.533 43.055 230.16 43.055 229.6C43.055 228.933 43.1883 228.48 43.455 228.24C43.695 228 44.095 227.88 44.655 227.88H47.375C48.0417 227.88 48.5217 227.733 48.815 227.44C49.135 227.12 49.295 226.56 49.295 225.76V215.04C49.295 214.773 49.4283 214.64 49.695 214.64H52.255C52.5217 214.64 52.655 214.773 52.655 215.04V225.16C52.655 226.067 52.975 226.747 53.615 227.2C54.2817 227.653 55.1617 227.88 56.255 227.88H56.735C57.2683 227.88 57.6683 228 57.935 228.24C58.2017 228.453 58.335 228.827 58.335 229.36C58.335 230.053 58.2017 230.507 57.935 230.72C57.695 230.907 57.295 231 56.735 231H55.855C55.0017 231 54.255 230.827 53.615 230.48C52.975 230.133 52.4817 229.613 52.135 228.92C51.4683 230.307 50.0817 231 47.975 231H44.655ZM51.575 238.44C51.3083 238.44 51.175 238.307 51.175 238.04V235.12C51.175 234.853 51.3083 234.72 51.575 234.72H54.295C54.5617 234.72 54.695 234.853 54.695 235.12V238.04C54.695 238.307 54.5617 238.44 54.295 238.44H51.575ZM46.695 238.44C46.4283 238.44 46.295 238.307 46.295 238.04V235.12C46.295 234.853 46.4283 234.72 46.695 234.72H49.415C49.6817 234.72 49.815 234.853 49.815 235.12V238.04C49.815 238.307 49.6817 238.44 49.415 238.44H46.695ZM56.7188 231C56.1854 231 55.7854 230.907 55.5187 230.72C55.2521 230.533 55.1187 230.16 55.1187 229.6C55.1187 228.933 55.2521 228.48 55.5187 228.24C55.7587 228 56.1587 227.88 56.7188 227.88H59.2388C59.9054 227.88 60.3854 227.733 60.6788 227.44C60.9988 227.12 61.1588 226.56 61.1588 225.76V204.2C61.1588 203.933 61.2921 203.8 61.5588 203.8H64.1188C64.3854 203.8 64.5188 203.933 64.5188 204.2V225.96C64.5188 227.693 64.1588 228.973 63.4388 229.8C62.7188 230.6 61.5188 231 59.8388 231H56.7188ZM72.9047 238.96C72.638 238.96 72.5047 238.827 72.5047 238.56V236.24C72.5047 235.973 72.638 235.84 72.9047 235.84H77.7047C78.238 235.84 78.7314 235.773 79.1847 235.64C79.638 235.533 80.0247 235.333 80.3447 235.04C80.6914 234.773 80.958 234.387 81.1447 233.88C81.3314 233.4 81.4247 232.787 81.4247 232.04V231H77.1447C75.9714 231 74.9047 230.867 73.9447 230.6C73.0114 230.307 72.2114 229.853 71.5447 229.24C70.878 228.6 70.3714 227.76 70.0247 226.72C69.678 225.68 69.5047 224.4 69.5047 222.88C69.5047 221.36 69.7047 220.04 70.1047 218.92C70.5314 217.773 71.0914 216.84 71.7847 216.12C72.5047 215.373 73.3314 214.827 74.2647 214.48C75.198 214.107 76.1847 213.92 77.2247 213.92C79.598 213.92 81.4514 214.613 82.7847 216C84.118 217.36 84.7847 219.573 84.7847 222.64V227.88H87.5447C88.078 227.88 88.478 228 88.7447 228.24C89.0114 228.453 89.1447 228.827 89.1447 229.36C89.1447 230.053 89.0114 230.507 88.7447 230.72C88.5047 230.907 88.1047 231 87.5447 231H84.7847V231.96C84.7847 233.213 84.6114 234.28 84.2647 235.16C83.9447 236.04 83.478 236.76 82.8647 237.32C82.278 237.88 81.558 238.293 80.7047 238.56C79.8514 238.827 78.9047 238.96 77.8647 238.96H72.9047ZM77.2247 217.04C75.8914 217.04 74.8247 217.573 74.0247 218.64C73.2514 219.707 72.8647 221.12 72.8647 222.88C72.8647 224.773 73.238 226.08 73.9847 226.8C74.758 227.52 75.8914 227.88 77.3847 227.88H81.4247V222.64C81.4247 220.88 81.0914 219.507 80.4247 218.52C79.7847 217.533 78.718 217.04 77.2247 217.04ZM99.7781 231C98.9248 231 98.1781 230.827 97.5381 230.48C96.8981 230.133 96.4048 229.613 96.0581 228.92C95.3915 230.307 94.0048 231 91.8981 231H87.5781C87.0448 231 86.6448 230.907 86.3781 230.72C86.1115 230.533 85.9781 230.16 85.9781 229.6C85.9781 228.933 86.1115 228.48 86.3781 228.24C86.6181 228 87.0181 227.88 87.5781 227.88H91.2981C91.9648 227.88 92.4448 227.733 92.7381 227.44C93.0581 227.12 93.2181 226.56 93.2181 225.76V218.48C93.2181 218.213 93.3515 218.08 93.6181 218.08H96.1781C96.4448 218.08 96.5781 218.213 96.5781 218.48V225.16C96.5781 226.067 96.8981 226.747 97.5381 227.2C98.1781 227.653 99.0315 227.88 100.098 227.88H101.098C101.765 227.88 102.245 227.733 102.538 227.44C102.858 227.12 103.018 226.56 103.018 225.76V218.48C103.018 218.213 103.151 218.08 103.418 218.08H105.978C106.245 218.08 106.378 218.213 106.378 218.48V225.32C106.378 226.173 106.711 226.813 107.378 227.24C108.045 227.667 108.911 227.88 109.978 227.88H110.898C111.565 227.88 112.045 227.733 112.338 227.44C112.658 227.12 112.818 226.56 112.818 225.76V215.04C112.818 214.773 112.951 214.64 113.218 214.64H115.778C116.045 214.64 116.178 214.773 116.178 215.04V225.16C116.178 226.067 116.498 226.747 117.138 227.2C117.805 227.653 118.685 227.88 119.778 227.88H120.218C120.751 227.88 121.151 228 121.418 228.24C121.685 228.453 121.818 228.827 121.818 229.36C121.818 230.053 121.685 230.507 121.418 230.72C121.178 230.907 120.778 231 120.218 231H119.378C118.525 231 117.778 230.827 117.138 230.48C116.498 230.133 116.005 229.613 115.658 228.92C114.991 230.307 113.605 231 111.498 231H109.578C108.725 231 107.978 230.827 107.338 230.48C106.698 230.133 106.205 229.613 105.858 228.92C105.191 230.307 103.805 231 101.698 231H99.7781ZM120.234 231C119.701 231 119.301 230.907 119.034 230.72C118.768 230.533 118.634 230.16 118.634 229.6C118.634 228.933 118.768 228.48 119.034 228.24C119.274 228 119.674 227.88 120.234 227.88H122.754C123.421 227.88 123.901 227.733 124.194 227.44C124.514 227.12 124.674 226.56 124.674 225.76V204.2C124.674 203.933 124.808 203.8 125.074 203.8H127.634C127.901 203.8 128.034 203.933 128.034 204.2V225.96C128.034 227.693 127.674 228.973 126.954 229.8C126.234 230.6 125.034 231 123.354 231H120.234ZM136.98 230.6C136.98 230.867 136.847 231 136.58 231H134.02C133.754 231 133.62 230.867 133.62 230.6V204.2C133.62 203.933 133.754 203.8 134.02 203.8H136.58C136.847 203.8 136.98 203.933 136.98 204.2V230.6ZM152.175 204.2C152.175 203.933 152.308 203.8 152.575 203.8H155.135C155.402 203.8 155.535 203.933 155.535 204.2V225.76C155.535 226.56 155.682 227.12 155.975 227.44C156.295 227.733 156.788 227.88 157.455 227.88H159.215C160.282 227.88 160.815 228.413 160.815 229.48C160.815 230.147 160.682 230.573 160.415 230.76C160.175 230.92 159.775 231 159.215 231H156.855C155.175 231 153.975 230.6 153.255 229.8C152.535 228.973 152.175 227.693 152.175 225.96V204.2ZM169.499 213.92C170.859 213.92 172.032 214.107 173.019 214.48C174.005 214.827 174.819 215.32 175.459 215.96C176.125 216.6 176.619 217.373 176.939 218.28C177.259 219.16 177.419 220.133 177.419 221.2C177.419 222.56 177.099 223.827 176.459 225C175.845 226.173 174.979 227.147 173.859 227.92C173.992 227.893 174.192 227.88 174.459 227.88H180.019C180.552 227.88 180.952 227.973 181.219 228.16C181.485 228.347 181.619 228.72 181.619 229.28C181.619 229.947 181.485 230.4 181.219 230.64C180.979 230.88 180.579 231 180.019 231H174.699C173.739 231 172.832 230.96 171.979 230.88C171.125 230.8 170.312 230.52 169.539 230.04C168.659 230.52 167.712 230.8 166.699 230.88C165.712 230.96 164.832 231 164.059 231H159.219C158.152 231 157.619 230.467 157.619 229.4C157.619 228.733 157.752 228.32 158.019 228.16C158.259 227.973 158.659 227.88 159.219 227.88H165.099C164.005 227.107 163.139 226.147 162.499 225C161.885 223.827 161.579 222.56 161.579 221.2C161.579 220.133 161.739 219.16 162.059 218.28C162.379 217.373 162.859 216.6 163.499 215.96C164.165 215.32 164.992 214.827 165.979 214.48C166.965 214.107 168.139 213.92 169.499 213.92ZM169.499 217.04C168.219 217.04 167.165 217.413 166.339 218.16C165.512 218.907 165.099 219.987 165.099 221.4C165.099 222.84 165.525 224.053 166.379 225.04C167.232 226 168.272 226.72 169.499 227.2C170.725 226.72 171.765 226 172.619 225.04C173.472 224.053 173.899 222.84 173.899 221.4C173.899 219.987 173.485 218.907 172.659 218.16C171.832 217.413 170.779 217.04 169.499 217.04ZM170.579 210.68C170.312 210.68 170.179 210.547 170.179 210.28V207.36C170.179 207.093 170.312 206.96 170.579 206.96H173.299C173.565 206.96 173.699 207.093 173.699 207.36V210.28C173.699 210.547 173.565 210.68 173.299 210.68H170.579ZM165.699 210.68C165.432 210.68 165.299 210.547 165.299 210.28V207.36C165.299 207.093 165.432 206.96 165.699 206.96H168.419C168.685 206.96 168.819 207.093 168.819 207.36V210.28C168.819 210.547 168.685 210.68 168.419 210.68H165.699ZM180 231C179.467 231 179.067 230.907 178.8 230.72C178.533 230.533 178.4 230.16 178.4 229.6C178.4 228.933 178.533 228.48 178.8 228.24C179.04 228 179.44 227.88 180 227.88H182.52C183.187 227.88 183.667 227.733 183.96 227.44C184.28 227.12 184.44 226.56 184.44 225.76V204.2C184.44 203.933 184.573 203.8 184.84 203.8H187.4C187.667 203.8 187.8 203.933 187.8 204.2V225.16C187.8 226.067 188.12 226.747 188.76 227.2C189.427 227.653 190.307 227.88 191.4 227.88H191.88C192.413 227.88 192.813 228 193.08 228.24C193.347 228.453 193.48 228.827 193.48 229.36C193.48 230.053 193.347 230.507 193.08 230.72C192.84 230.907 192.44 231 191.88 231H191C190.147 231 189.4 230.827 188.76 230.48C188.12 230.133 187.627 229.613 187.28 228.92C186.613 230.307 185.227 231 183.12 231H180ZM203.916 231.28C202.663 231.28 201.556 231.107 200.596 230.76C199.636 230.387 198.823 229.813 198.156 229.04C197.596 229.893 196.876 230.44 195.996 230.68C195.116 230.893 194.303 231 193.556 231H191.836C190.769 231 190.236 230.467 190.236 229.4C190.236 228.733 190.369 228.32 190.636 228.16C190.876 227.973 191.276 227.88 191.836 227.88H193.836C194.129 227.88 194.423 227.827 194.716 227.72C195.009 227.587 195.276 227.387 195.516 227.12C195.756 226.827 195.943 226.453 196.076 226C196.236 225.52 196.316 224.933 196.316 224.24C196.289 223.973 196.276 223.72 196.276 223.48C196.276 223.213 196.276 222.933 196.276 222.64C196.276 219.573 196.956 217.36 198.316 216C199.676 214.613 201.543 213.92 203.916 213.92C206.289 213.92 208.156 214.613 209.516 216C210.876 217.36 211.556 219.573 211.556 222.64C211.556 224.16 211.369 225.467 210.996 226.56C210.649 227.653 210.143 228.547 209.476 229.24C208.836 229.933 208.036 230.453 207.076 230.8C206.143 231.12 205.089 231.28 203.916 231.28ZM203.916 217.04C202.423 217.04 201.329 217.533 200.636 218.52C199.969 219.507 199.636 220.88 199.636 222.64C199.636 224.56 199.969 225.96 200.636 226.84C201.329 227.72 202.423 228.16 203.916 228.16C205.409 228.16 206.489 227.72 207.156 226.84C207.849 225.96 208.196 224.56 208.196 222.64C208.196 220.88 207.849 219.507 207.156 218.52C206.489 217.533 205.409 217.04 203.916 217.04Z" fill="#D0A860"/>
<defs>
<clipPath id="clip0_518_2817">
<rect width="309" height="190" fill="white"/>
</clipPath>
</defs>
</svg>
