<svg width="28" height="29" viewBox="0 0 28 29" fill="none" xmlns="http://www.w3.org/2000/svg">
<mask id="mask0_27_491" style="mask-type:luminance" maskUnits="userSpaceOnUse" x="0" y="0" width="28" height="29">
<path d="M0 0.914062H28V28.9141H0V0.914062Z" fill="white"/>
</mask>
<g mask="url(#mask0_27_491)">
<path fill-rule="evenodd" clip-rule="evenodd" d="M18.4496 3.3262C18.1171 3.32608 17.7881 3.39083 17.4818 3.51662C17.1755 3.64241 16.8983 3.8267 16.6664 4.05858C16.4345 4.29047 16.2527 4.56525 16.1318 4.86669C16.0108 5.16813 15.9532 5.49011 15.9622 5.81361C15.9657 5.92632 15.9461 6.03857 15.9046 6.14385C15.8632 6.24914 15.8007 6.34536 15.7207 6.42695L15.4652 6.68591C15.3851 6.7673 15.2892 6.8324 15.1831 6.87743C15.0769 6.92247 14.9627 6.94655 14.8469 6.94828C14.6167 6.95213 14.3895 7.00011 14.1783 7.08948C13.9671 7.17886 13.7761 7.30788 13.6162 7.46916C13.4563 7.63045 13.3306 7.82083 13.2463 8.02944C13.162 8.23805 13.1207 8.46079 13.1249 8.68493C13.1257 8.73821 13.1214 8.79144 13.1121 8.84394L13.0619 9.12335C13.0379 9.25833 12.9809 9.3857 12.8956 9.49465C12.8103 9.60359 12.6992 9.6909 12.5719 9.74918C12.1152 9.95858 11.7298 10.291 11.4612 10.707C11.1925 11.1231 11.052 11.6054 11.0562 12.0968C11.0603 12.5881 11.2091 13.0681 11.4847 13.4798C11.7604 13.8914 12.1514 14.2176 12.6116 14.4196C12.7477 14.4792 12.866 14.5718 12.955 14.6885C13.044 14.8052 13.1009 14.9422 13.1202 15.0863L13.1599 15.3873C13.2524 16.0272 13.5767 16.6139 14.0742 17.0416C14.5717 17.4694 15.2099 17.71 15.8736 17.7203C16.5194 17.7171 17.142 17.485 17.6247 17.0672C17.676 17.023 17.7323 16.9849 17.7927 16.9536V15.2612C17.7927 15.0353 17.8849 14.8186 18.049 14.6589C18.2131 14.4991 18.4357 14.4094 18.6677 14.4094C18.8998 14.4094 19.1223 14.4991 19.2864 14.6589C19.4505 14.8186 19.5427 15.0353 19.5427 15.2612V17.2762C19.979 17.5624 20.4947 17.7191 21.0256 17.7191C21.6969 17.7092 22.342 17.4635 22.8421 17.0273C23.3422 16.5912 23.6637 15.9939 23.7474 15.3453L23.8081 15.0329C23.8337 14.8989 23.892 14.7729 23.9781 14.6654C24.0642 14.5578 24.1755 14.472 24.3027 14.4151C24.7436 14.2181 25.1203 13.9069 25.3917 13.5154C25.6631 13.124 25.8187 12.6675 25.8414 12.1957C25.8642 11.724 25.7533 11.2553 25.5208 10.8408C25.2883 10.4263 24.9432 10.0821 24.5232 9.84572C24.4182 9.78702 24.3268 9.70774 24.2549 9.61288L23.9469 9.20399C23.8333 9.05379 23.7734 8.87144 23.7766 8.68493C23.7807 8.46036 23.7393 8.2372 23.6548 8.02823C23.5702 7.81927 23.4441 7.6286 23.2837 7.46717C23.1233 7.30573 22.9317 7.1767 22.72 7.08747C22.5083 6.99823 22.2806 6.95055 22.0499 6.94715C21.9341 6.94542 21.8198 6.92134 21.7137 6.8763C21.6076 6.83126 21.5117 6.76616 21.4316 6.68477L21.1772 6.42581C21.0971 6.34432 21.0343 6.24814 20.9927 6.14285C20.951 6.03756 20.9313 5.92526 20.9346 5.81248C20.9434 5.48911 20.8857 5.16729 20.7648 4.86599C20.6438 4.5647 20.4622 4.29003 20.2304 4.0582C19.9987 3.82636 19.7216 3.64205 19.4156 3.51613C19.1095 3.39022 18.7807 3.32525 18.4484 3.32506L18.4496 3.3262ZM15.8701 19.424C16.536 19.4226 17.193 19.2742 17.7915 18.9901V24.3477C17.7915 24.5736 17.8837 24.7903 18.0478 24.95C18.2119 25.1098 18.4345 25.1995 18.6665 25.1995C18.8986 25.1995 19.1212 25.1098 19.2853 24.95C19.4494 24.7903 19.5415 24.5736 19.5415 24.3477V19.1707C20.0152 19.3365 20.5181 19.4228 21.0302 19.424H21.0419C22.1025 19.4098 23.1246 19.0343 23.9303 18.3626C24.736 17.6909 25.2744 16.7655 25.4519 15.7474C26.0959 15.3736 26.6309 14.8456 27.006 14.2136C27.381 13.5817 27.5837 12.8667 27.5947 12.1369C27.6057 11.4071 27.4246 10.6867 27.0688 10.0443C26.7129 9.40186 26.194 8.85882 25.5616 8.46685L25.5161 8.40779C25.4592 7.65613 25.1484 6.94392 24.6322 6.38222C24.116 5.82051 23.4234 5.44087 22.6624 5.3025C22.5907 4.66319 22.3666 4.04902 22.0079 3.50899C21.6492 2.96896 21.1658 2.518 20.5963 2.19209C20.0269 1.86617 19.387 1.67432 18.7279 1.63182C18.0687 1.58933 17.4085 1.69737 16.7999 1.94733C16.104 2.23325 15.4994 2.69508 15.0485 3.285C14.5976 3.87492 14.3169 4.57147 14.2355 5.3025C13.4679 5.44146 12.7699 5.82603 12.2523 6.39517C11.7346 6.96432 11.4271 7.68545 11.3784 8.44414C10.7382 8.83105 10.211 9.37184 9.84754 10.0145C9.4841 10.6571 9.29665 11.38 9.30322 12.1136C9.30978 12.8472 9.51013 13.5668 9.88501 14.2032C10.2599 14.8396 10.7967 15.3714 11.4437 15.7474C11.6211 16.7658 12.1596 17.6914 12.9656 18.3632C13.7715 19.035 14.794 19.4103 15.8549 19.424H15.8701ZM6.99872 9.04043H6.98705C6.30676 9.05076 5.65063 9.28771 5.12799 9.71179C4.60534 10.1359 4.24772 10.7215 4.11472 11.3711C3.64815 11.5012 3.23072 11.761 2.91364 12.1188C2.59657 12.4765 2.39363 12.9165 2.32972 13.3849C1.92518 13.6611 1.59589 14.0291 1.37036 14.4572C1.14482 14.8852 1.02983 15.3602 1.03535 15.8412C1.04086 16.3223 1.16671 16.7947 1.40201 17.2177C1.6373 17.6407 1.97495 18.0015 2.38572 18.2688C2.53759 18.9395 2.91801 19.5404 3.46513 19.9738C4.01225 20.4073 4.69388 20.6478 5.39922 20.6563H5.41088C5.65238 20.6563 5.89272 20.6279 6.12488 20.5734V24.3477C6.12488 24.5736 6.21707 24.7903 6.38117 24.95C6.54526 25.1098 6.76782 25.1995 6.99988 25.1995C7.23195 25.1995 7.45451 25.1098 7.6186 24.95C7.7827 24.7903 7.87488 24.5736 7.87488 24.3477V20.5734C8.10822 20.6279 8.34738 20.6563 8.59005 20.6563H8.60288C9.34652 20.6469 10.0624 20.3798 10.622 19.9029C11.1815 19.426 11.5482 18.7705 11.6561 18.0542L11.6887 17.8793C11.7128 17.7682 11.7138 17.6536 11.6917 17.5422C11.6696 17.4308 11.6248 17.3247 11.5601 17.2304C11.4953 17.136 11.4118 17.0552 11.3146 16.9927C11.2173 16.9302 11.1081 16.8872 10.9936 16.8663C10.879 16.8454 10.7613 16.847 10.6473 16.8711C10.5334 16.8951 10.4256 16.941 10.3301 17.0062C10.2347 17.0713 10.1536 17.1544 10.0916 17.2505C10.0296 17.3466 9.98791 17.4538 9.96905 17.5658L9.93172 17.7589C9.89513 18.0831 9.73833 18.3833 9.49069 18.603C9.24305 18.8228 8.92158 18.9471 8.58655 18.9526C8.33331 18.9508 8.08607 18.8774 7.87488 18.7413V16.397C7.87488 16.1711 7.7827 15.9544 7.6186 15.7947C7.45451 15.6349 7.23195 15.5452 6.99988 15.5452C6.76782 15.5452 6.54526 15.6349 6.38117 15.7947C6.21707 15.9544 6.12488 16.1711 6.12488 16.397V18.7436C5.91489 18.8776 5.66872 18.9515 5.41438 18.9526C5.08694 18.9468 4.77233 18.8276 4.52707 18.6163C4.28181 18.405 4.12196 18.1155 4.07622 17.7998L4.05055 17.6158C4.03098 17.4721 3.97411 17.3357 3.8853 17.2195C3.7965 17.1032 3.6787 17.0109 3.54305 16.9513C3.31881 16.8525 3.12831 16.6933 2.99407 16.4924C2.85982 16.2916 2.78744 16.0575 2.78548 15.8179C2.78351 15.5783 2.85205 15.3431 2.98299 15.1402C3.11393 14.9373 3.30179 14.7752 3.52438 14.6729C3.65144 14.6148 3.76229 14.5279 3.84757 14.4193C3.93285 14.3108 3.99007 14.1839 4.01438 14.0493L4.04355 13.8812C4.05361 13.8273 4.0583 13.7725 4.05755 13.7177C4.05585 13.6227 4.0734 13.5283 4.10918 13.4398C4.14497 13.3514 4.19829 13.2707 4.26611 13.2024C4.33393 13.134 4.41492 13.0794 4.50445 13.0415C4.59397 13.0036 4.69029 12.9833 4.78788 12.9817C5.01959 12.9779 5.24029 12.8847 5.40155 12.7227L5.56138 12.5637C5.64125 12.4831 5.70401 12.3879 5.74605 12.2836C5.78809 12.1794 5.80859 12.068 5.80639 11.956C5.80138 11.6404 5.92501 11.3357 6.15021 11.1086C6.37542 10.8814 6.68386 10.7504 7.00805 10.7441C7.12822 10.7441 7.24838 10.7634 7.36155 10.7998C7.47064 10.835 7.58577 10.8489 7.70039 10.8408C7.81501 10.8327 7.92686 10.8027 8.02956 10.7525C8.13227 10.7023 8.22381 10.6329 8.29896 10.5482C8.37411 10.4636 8.43139 10.3654 8.46755 10.2592C8.50371 10.153 8.51803 10.0409 8.50969 9.92928C8.50135 9.81769 8.47051 9.7088 8.41894 9.60881C8.36738 9.50883 8.29609 9.41971 8.20914 9.34655C8.1222 9.27338 8.0213 9.21761 7.91222 9.18241C7.61754 9.08756 7.30908 9.03962 6.99872 9.04043ZM2.54555 26.3353C2.31349 26.3353 2.09093 26.4251 1.92683 26.5848C1.76274 26.7446 1.67055 26.9613 1.67055 27.1872C1.67055 27.4131 1.76274 27.6298 1.92683 27.7895C2.09093 27.9493 2.31349 28.039 2.54555 28.039H26.7271C26.9591 28.039 27.1817 27.9493 27.3458 27.7895C27.5099 27.6298 27.6021 27.4131 27.6021 27.1872C27.6021 26.9613 27.5099 26.7446 27.3458 26.5848C27.1817 26.4251 26.9591 26.3353 26.7271 26.3353H2.54555Z" fill="#2D3739"/>
</g>
</svg>
