<svg width="309" height="239" viewBox="0 0 309 239" fill="none" xmlns="http://www.w3.org/2000/svg">
<g clip-path="url(#clip0_518_2843)">
<path d="M274.359 17.667C276.446 13.1385 277.283 8.13485 276.785 3.17411C276.721 2.67462 276.554 2.19393 276.293 1.76265C276.033 1.33137 275.686 0.958933 275.275 0.669043C274.863 0.379153 274.395 0.178143 273.901 0.0788437C273.407 -0.0204553 272.898 -0.0158848 272.406 0.0922592C268.638 0.962206 265 6.57058 262.019 10.5594C258.742 14.9924 262.945 18.9442 267.676 21.6651C265.056 24.7839 261.084 27.764 254.067 31.5214C242.088 37.9349 240.875 46.5419 240.875 46.5419C247.577 37.9997 252.595 37.4259 262.936 30.6885C265.992 28.7268 268.691 26.2573 270.916 23.3865C272.827 24.59 274.323 26.3504 275.202 28.4303L277.711 24.9968C279.544 22.5443 277.461 19.8882 274.359 17.667ZM270.231 15.1775C265.361 12.6602 264.602 9.28224 267 6.93153C269.397 4.58083 274.406 8.06987 271.795 14.5389C271.628 14.9461 271.462 15.3441 271.286 15.742C270.934 15.5477 270.555 15.3534 270.231 15.1775Z" fill="#D0A860"/>
<path d="M261.814 164.457C256.111 167.298 240.642 158.136 235.013 154.591C234.823 154.473 234.604 154.409 234.38 154.407C234.155 154.406 233.935 154.466 233.743 154.582C233.551 154.698 233.396 154.865 233.293 155.065C233.19 155.264 233.145 155.488 233.162 155.711C233.662 161.588 234.634 175.988 232.458 177.534C227.209 181.236 217.192 187.446 212.027 184.429C207.12 181.569 196.965 172.037 195.27 170.435C195.239 170.404 195.203 170.38 195.162 170.363C195.122 170.346 195.078 170.337 195.034 170.337C194.991 170.337 194.947 170.346 194.907 170.363C194.866 170.38 194.829 170.404 194.798 170.435C192.771 172.555 177.644 187.973 167.581 187.288C156.777 186.557 154.731 170.176 140.947 174.036C127.162 177.895 98.723 199.69 49.8336 184.873C10.1741 172.842 0 183.485 0 183.485C23.9679 147.872 63.2479 198.403 135.244 168.677C135.244 168.677 158.934 159.7 170.59 171.342C182.245 182.985 187.494 170.676 193.317 164.864C199.14 159.052 218.887 174.952 224.006 178.043C224.061 178.079 224.125 178.097 224.19 178.097C224.256 178.096 224.32 178.077 224.374 178.04C224.428 178.004 224.471 177.952 224.496 177.892C224.521 177.831 224.528 177.765 224.515 177.7C223.886 174.23 220.979 152.259 229.551 144.818C234.458 140.561 262.018 155.785 266.684 155.267C266.761 155.258 266.833 155.221 266.886 155.163C266.939 155.106 266.969 155.031 266.971 154.952C267.032 148.908 265.824 142.917 263.425 137.368C259.277 127.401 258.417 119.858 258.972 111.982C259.546 103.848 272.858 89.9747 272.858 89.9747C263.925 103.468 275.228 127.817 277.487 138.618C279.746 149.418 267.313 161.68 261.814 164.457Z" fill="#F0EDE4"/>
<path d="M297.937 37.9722C297.937 37.9722 294.41 31.2163 289.189 36.436C283.967 41.6556 275.302 51.6322 287.754 55.0102C287.754 55.0102 281.449 58.7121 279.098 64.9128C279.098 64.9128 289.161 54.1403 300.548 55.1676L309 46.1072C309 46.1072 301.372 49.4851 294.049 48.8836C286.726 48.282 285.976 42.9883 286.745 41.3317C287.513 39.6751 291.781 44.1081 291.781 44.1081L297.937 37.9722Z" fill="#F0EDE4"/>
<path d="M259.288 61.3313L250.725 70.2806C250.622 70.388 250.544 70.5163 250.496 70.6568C250.447 70.7972 250.43 70.9465 250.445 71.0943C250.46 71.2421 250.507 71.3849 250.582 71.5129C250.658 71.6408 250.76 71.7509 250.882 71.8354C253.428 73.6124 259.834 78.6006 258.409 82.7468C262.993 79.812 266.761 75.7656 269.36 70.984C269.454 70.7905 269.485 70.573 269.45 70.361C269.415 70.1491 269.316 69.953 269.166 69.7994L260.769 61.285C260.67 61.1883 260.553 61.1126 260.424 61.0623C260.295 61.0121 260.157 60.9885 260.019 60.9928C259.881 60.9971 259.745 61.0293 259.619 61.0875C259.493 61.1457 259.381 61.2286 259.288 61.3313Z" fill="#F0EDE4"/>
<path d="M294.716 65.5237C294.716 65.5237 278.812 72.9275 286.07 108.096C293.615 144.698 294.864 145.994 283.292 177.506C283.292 177.506 303.659 159.82 301.623 133.463C299.253 102.247 285.107 78.3878 294.716 65.5237Z" fill="#F0EDE4"/>
</g>
<path d="M4.54453 222C4.6512 221.813 4.83786 221.8 5.10453 221.96L7.30453 223.16C7.51786 223.293 7.55786 223.467 7.42453 223.68C6.94453 224.427 6.47786 225.347 6.02453 226.44C5.59786 227.533 5.38453 228.68 5.38453 229.88C5.38453 231.027 5.5712 231.973 5.94453 232.72C6.34453 233.493 6.8512 234.093 7.46453 234.52C8.07787 234.973 8.74453 235.293 9.46453 235.48C10.1845 235.667 10.8912 235.76 11.5845 235.76C13.2912 235.76 14.6912 235.32 15.7845 234.44C16.8779 233.56 17.4245 232.133 17.4245 230.16V204.2C17.4245 203.933 17.5579 203.8 17.8245 203.8H20.3845C20.6512 203.8 20.7845 203.933 20.7845 204.2V230.2C20.7845 232.947 19.9712 235.093 18.3445 236.64C16.7445 238.187 14.4245 238.96 11.3845 238.96C9.94453 238.96 8.63787 238.76 7.46453 238.36C6.31786 237.987 5.3312 237.427 4.50453 236.68C3.70453 235.933 3.07786 235.013 2.62453 233.92C2.1712 232.853 1.94453 231.613 1.94453 230.2C1.94453 228.627 2.19786 227.12 2.70453 225.68C3.23786 224.213 3.8512 222.987 4.54453 222ZM26.382 204.2C26.382 203.933 26.5154 203.8 26.782 203.8H29.342C29.6087 203.8 29.742 203.933 29.742 204.2V225.76C29.742 226.56 29.8887 227.12 30.182 227.44C30.502 227.733 30.9954 227.88 31.662 227.88H33.422C34.4887 227.88 35.022 228.413 35.022 229.48C35.022 230.147 34.8887 230.573 34.622 230.76C34.382 230.92 33.982 231 33.422 231H31.062C29.382 231 28.182 230.6 27.462 229.8C26.742 228.973 26.382 227.693 26.382 225.96V204.2ZM45.5058 231.28C44.2524 231.28 43.1458 231.107 42.1858 230.76C41.2258 230.387 40.4124 229.813 39.7458 229.04C39.1858 229.893 38.4658 230.44 37.5858 230.68C36.7058 230.893 35.8924 231 35.1458 231H33.4258C32.3591 231 31.8258 230.467 31.8258 229.4C31.8258 228.733 31.9591 228.32 32.2258 228.16C32.4658 227.973 32.8658 227.88 33.4258 227.88H35.4258C35.7191 227.88 36.0124 227.827 36.3058 227.72C36.5991 227.587 36.8658 227.387 37.1058 227.12C37.3458 226.827 37.5324 226.453 37.6658 226C37.8258 225.52 37.9058 224.933 37.9058 224.24C37.8791 223.973 37.8658 223.72 37.8658 223.48C37.8658 223.213 37.8658 222.933 37.8658 222.64C37.8658 219.573 38.5458 217.36 39.9058 216C41.2658 214.613 43.1324 213.92 45.5058 213.92C47.8791 213.92 49.7458 214.613 51.1058 216C52.4658 217.36 53.1458 219.573 53.1458 222.64C53.1458 222.933 53.1324 223.227 53.1058 223.52C53.1058 223.813 53.0924 224.093 53.0658 224.36C53.0924 225.72 53.3591 226.653 53.8658 227.16C54.3991 227.64 54.9591 227.88 55.5458 227.88H56.7058C57.2391 227.88 57.6391 228 57.9058 228.24C58.1724 228.453 58.3058 228.827 58.3058 229.36C58.3058 230.053 58.1724 230.507 57.9058 230.72C57.6658 230.907 57.2658 231 56.7058 231H55.8258C55.4524 231 55.0524 230.987 54.6258 230.96C54.1991 230.907 53.7724 230.813 53.3458 230.68C52.9458 230.547 52.5591 230.36 52.1858 230.12C51.8124 229.853 51.4924 229.507 51.2258 229.08C50.5591 229.853 49.7458 230.413 48.7858 230.76C47.8258 231.107 46.7324 231.28 45.5058 231.28ZM45.5058 217.04C44.0124 217.04 42.9191 217.533 42.2258 218.52C41.5591 219.507 41.2258 220.88 41.2258 222.64C41.2258 224.56 41.5591 225.96 42.2258 226.84C42.9191 227.72 44.0124 228.16 45.5058 228.16C46.9991 228.16 48.0791 227.72 48.7458 226.84C49.4391 225.96 49.7858 224.56 49.7858 222.64C49.7858 220.88 49.4391 219.507 48.7458 218.52C48.0791 217.533 46.9991 217.04 45.5058 217.04ZM69.148 231C68.2946 231 67.548 230.827 66.908 230.48C66.268 230.133 65.7746 229.613 65.428 228.92C64.7613 230.307 63.3746 231 61.268 231H56.948C56.4146 231 56.0146 230.907 55.748 230.72C55.4813 230.533 55.348 230.16 55.348 229.6C55.348 228.933 55.4813 228.48 55.748 228.24C55.988 228 56.388 227.88 56.948 227.88H60.668C61.3346 227.88 61.8146 227.733 62.108 227.44C62.428 227.12 62.588 226.56 62.588 225.76V218.48C62.588 218.213 62.7213 218.08 62.988 218.08H65.548C65.8146 218.08 65.948 218.213 65.948 218.48V225.16C65.948 226.067 66.268 226.747 66.908 227.2C67.548 227.653 68.4013 227.88 69.468 227.88H70.468C71.1346 227.88 71.6146 227.733 71.908 227.44C72.228 227.12 72.388 226.56 72.388 225.76V218.48C72.388 218.213 72.5213 218.08 72.788 218.08H75.348C75.6146 218.08 75.748 218.213 75.748 218.48V225.32C75.748 226.173 76.0813 226.813 76.748 227.24C77.4146 227.667 78.2813 227.88 79.348 227.88H80.268C80.9346 227.88 81.4146 227.733 81.708 227.44C82.028 227.12 82.188 226.56 82.188 225.76V215.04C82.188 214.773 82.3213 214.64 82.588 214.64H85.148C85.4146 214.64 85.548 214.773 85.548 215.04V225.16C85.548 226.067 85.868 226.747 86.508 227.2C87.1746 227.653 88.0546 227.88 89.148 227.88H89.588C90.1213 227.88 90.5213 228 90.788 228.24C91.0546 228.453 91.188 228.827 91.188 229.36C91.188 230.053 91.0546 230.507 90.788 230.72C90.548 230.907 90.148 231 89.588 231H88.748C87.8946 231 87.148 230.827 86.508 230.48C85.868 230.133 85.3746 229.613 85.028 228.92C84.3613 230.307 82.9746 231 80.868 231H78.948C78.0946 231 77.348 230.827 76.708 230.48C76.068 230.133 75.5746 229.613 75.228 228.92C74.5613 230.307 73.1746 231 71.068 231H69.148ZM75.068 210.68C74.8013 210.68 74.668 210.547 74.668 210.28V207.36C74.668 207.093 74.8013 206.96 75.068 206.96H77.788C78.0546 206.96 78.188 207.093 78.188 207.36V210.28C78.188 210.547 78.0546 210.68 77.788 210.68H75.068ZM70.188 210.68C69.9213 210.68 69.788 210.547 69.788 210.28V207.36C69.788 207.093 69.9213 206.96 70.188 206.96H72.908C73.1746 206.96 73.308 207.093 73.308 207.36V210.28C73.308 210.547 73.1746 210.68 72.908 210.68H70.188ZM72.668 206C72.4013 206 72.268 205.867 72.268 205.6V202.68C72.268 202.413 72.4013 202.28 72.668 202.28H75.388C75.6546 202.28 75.788 202.413 75.788 202.68V205.6C75.788 205.867 75.6546 206 75.388 206H72.668ZM89.3242 231C88.7909 231 88.3909 230.907 88.1242 230.72C87.8576 230.533 87.7242 230.16 87.7242 229.6C87.7242 228.933 87.8576 228.48 88.1242 228.24C88.3642 228 88.7642 227.88 89.3242 227.88H91.8442C92.5109 227.88 92.9909 227.733 93.2842 227.44C93.6042 227.12 93.7642 226.56 93.7642 225.76V204.2C93.7642 203.933 93.8976 203.8 94.1642 203.8H96.7242C96.9909 203.8 97.1242 203.933 97.1242 204.2V225.96C97.1242 227.693 96.7642 228.973 96.0442 229.8C95.3242 230.6 94.1242 231 92.4442 231H89.3242ZM106.07 230.6C106.07 230.867 105.937 231 105.67 231H103.11C102.843 231 102.71 230.867 102.71 230.6V204.2C102.71 203.933 102.843 203.8 103.11 203.8H105.67C105.937 203.8 106.07 203.933 106.07 204.2V230.6Z" fill="#D0A860"/>
<defs>
<clipPath id="clip0_518_2843">
<rect width="309" height="190" fill="white"/>
</clipPath>
</defs>
</svg>
