<svg width="28" height="29" viewBox="0 0 28 29" fill="none" xmlns="http://www.w3.org/2000/svg">
<mask id="mask0_27_499" style="mask-type:luminance" maskUnits="userSpaceOnUse" x="0" y="0" width="28" height="29">
<path d="M0 0.914062H28V28.9141H0V0.914062Z" fill="white"/>
</mask>
<g mask="url(#mask0_27_499)">
<path fill-rule="evenodd" clip-rule="evenodd" d="M1.55685 1.29939C1.42354 1.23283 1.27544 1.20142 1.12658 1.20814C0.977732 1.21485 0.833061 1.25947 0.706282 1.33776C0.579502 1.41604 0.474816 1.52541 0.402143 1.65549C0.32947 1.78557 0.291219 1.93205 0.291016 2.08105V27.7477C0.291016 28.2307 0.683016 28.6227 1.16602 28.6227H10.4993C10.7314 28.6227 10.954 28.5305 11.1181 28.3664C11.2822 28.2023 11.3743 27.9798 11.3743 27.7477C11.3743 27.5157 11.2822 27.2931 11.1181 27.129C10.954 26.9649 10.7314 26.8727 10.4993 26.8727H9.04102V23.0811C9.04102 22.6943 8.88737 22.3233 8.61388 22.0499C8.34039 21.7764 7.96946 21.6227 7.58268 21.6227H5.24935C4.86258 21.6227 4.49164 21.7764 4.21815 22.0499C3.94466 22.3233 3.79102 22.6943 3.79102 23.0811V26.8727H2.04102V12.8727H6.99935C7.23141 12.8727 7.45397 12.7805 7.61807 12.6164C7.78216 12.4523 7.87435 12.2298 7.87435 11.9977C7.87435 11.7657 7.78216 11.5431 7.61807 11.379C7.45397 11.2149 7.23141 11.1227 6.99935 11.1227H2.04102V9.37272H5.83268C6.06475 9.37272 6.28731 9.28053 6.4514 9.11644C6.6155 8.95234 6.70768 8.72978 6.70768 8.49772C6.70768 8.26566 6.6155 8.0431 6.4514 7.879C6.28731 7.71491 6.06475 7.62272 5.83268 7.62272H2.04102V3.49739L13.1243 9.03905V14.9144C13.1243 15.1465 13.2165 15.369 13.3806 15.5331C13.5447 15.6972 13.7673 15.7894 13.9993 15.7894C14.2314 15.7894 14.454 15.6972 14.6181 15.5331C14.7822 15.369 14.8743 15.1465 14.8743 14.9144V8.49772C14.8741 8.33533 14.8287 8.17621 14.7432 8.03817C14.6577 7.90012 14.5355 7.78859 14.3902 7.71605L12.5398 6.78972L12.541 6.74772V2.08105C12.541 1.84899 12.4488 1.62643 12.2847 1.46234C12.1206 1.29824 11.8981 1.20605 11.666 1.20605C11.434 1.20605 11.2114 1.29824 11.0473 1.46234C10.8832 1.62643 10.791 1.84899 10.791 2.08105V5.91472L1.55685 1.29939ZM5.54102 26.8727H7.29102V23.3727H5.54102V26.8727ZM19.2493 15.5677C19.18 15.5679 19.113 15.5927 19.0604 15.6377L14.8743 19.1797V26.8727H23.6244V19.1797L19.4384 15.6377C19.3857 15.5927 19.3187 15.5679 19.2493 15.5677ZM12.2307 21.4162L13.1243 20.6602V27.1796C13.1243 27.5704 13.2842 27.9402 13.5595 28.2086C13.8349 28.4769 14.2035 28.6227 14.5827 28.6227H23.916C24.2952 28.6227 24.6627 28.4769 24.9392 28.2086C25.0768 28.0748 25.1863 27.9149 25.261 27.7381C25.3358 27.5614 25.3743 27.3715 25.3744 27.1796V20.6602L26.268 21.4162C26.3558 21.4904 26.4573 21.5465 26.5668 21.5814C26.6763 21.6163 26.7916 21.6293 26.9061 21.6197C27.0206 21.6101 27.1321 21.578 27.2342 21.5252C27.3363 21.4725 27.427 21.4002 27.5012 21.3124C27.5753 21.2246 27.6315 21.1231 27.6664 21.0136C27.7013 20.9041 27.7143 20.7888 27.7047 20.6743C27.695 20.5598 27.6629 20.4483 27.6102 20.3462C27.5575 20.2441 27.4851 20.1534 27.3974 20.0792L20.5677 14.3007C20.1991 13.989 19.732 13.818 19.2493 13.818C18.7667 13.818 18.2996 13.989 17.931 14.3007L11.1013 20.0792C10.9241 20.229 10.8135 20.443 10.794 20.6743C10.7844 20.7888 10.7974 20.9041 10.8323 21.0136C10.8672 21.1231 10.9234 21.2246 10.9975 21.3124C11.0717 21.4002 11.1624 21.4725 11.2645 21.5252C11.3666 21.578 11.4781 21.6101 11.5926 21.6197C11.8239 21.6392 12.0534 21.566 12.2307 21.4162Z" fill="#2D3739"/>
</g>
</svg>
