<svg width="29" height="30" viewBox="0 0 29 30" fill="none" xmlns="http://www.w3.org/2000/svg">
<path d="M26.6815 0.914062H2.31741C1.752 0.914062 1.20976 1.13867 0.809954 1.53847C0.410153 1.93827 0.185547 2.48052 0.185547 3.04592V27.41C0.185547 27.9754 0.410153 28.5177 0.809954 28.9175C1.20976 29.3173 1.752 29.5419 2.31741 29.5419H26.6815C27.2469 29.5419 27.7892 29.3173 28.189 28.9175C28.5888 28.5177 28.8134 27.9754 28.8134 27.41V3.04592C28.8134 2.48052 28.5888 1.93827 28.189 1.53847C27.7892 1.13867 27.2469 0.914062 26.6815 0.914062ZM22.1133 12.487V27.7146H15.4131V12.487H22.1133ZM13.5858 27.7146H6.88568V12.487H13.5858V27.7146ZM26.9861 27.41C26.9861 27.4908 26.954 27.5683 26.8969 27.6254C26.8398 27.6825 26.7623 27.7146 26.6815 27.7146H23.9406V11.5734C23.9406 11.331 23.8443 11.0987 23.673 10.9273C23.5016 10.756 23.2692 10.6597 23.0269 10.6597H5.97202C5.72971 10.6597 5.49732 10.756 5.32597 10.9273C5.15463 11.0987 5.05837 11.331 5.05837 11.5734V27.7146H2.31741C2.23664 27.7146 2.15917 27.6825 2.10206 27.6254C2.04494 27.5683 2.01286 27.4908 2.01286 27.41V3.04592C2.01286 2.96515 2.04494 2.88769 2.10206 2.83057C2.15917 2.77346 2.23664 2.74137 2.31741 2.74137H26.6815C26.7623 2.74137 26.8398 2.77346 26.8969 2.83057C26.954 2.88769 26.9861 2.96515 26.9861 3.04592V27.41ZM17.8495 6.70054C17.8495 6.94286 17.7533 7.17525 17.5819 7.34659C17.4106 7.51793 17.1782 7.61419 16.9359 7.61419H12.0631C11.8207 7.61419 11.5883 7.51793 11.417 7.34659C11.2457 7.17525 11.1494 6.94286 11.1494 6.70054C11.1494 6.45822 11.2457 6.22583 11.417 6.05449C11.5883 5.88315 11.8207 5.78689 12.0631 5.78689H16.9359C17.1782 5.78689 17.4106 5.88315 17.5819 6.05449C17.7533 6.22583 17.8495 6.45822 17.8495 6.70054Z" fill="#2D3739"/>
</svg>
