<svg width="24" height="24" viewBox="0 0 24 24" fill="none" xmlns="http://www.w3.org/2000/svg">
<path d="M2.59375 0.320312L2.10112 0.784937L0.870875 2.01519L0.40625 2.50781L0.7615 3.08181L2.59375 6.14431L2.83962 6.58181H5.41125L8.91125 10.0547C5.784 13.1959 1.80537 17.1877 1.66537 17.3286C0.29425 18.6988 0.291625 20.9441 1.69162 22.2504C3.05925 23.5997 5.28787 23.6347 6.58725 22.2504L6.6135 22.2224L12 16.8088L17.4145 22.2496L17.4959 22.3047C18.8696 23.5997 21.0545 23.6172 22.3364 22.2496V22.2233H22.3626C23.7031 20.8522 23.7171 18.6236 22.3364 17.3277L22.3084 17.3014L17.7426 12.7619C20.8147 12.4749 23.221 9.88056 23.2656 6.74631H23.2927C23.2962 6.72881 23.2927 6.70869 23.2927 6.69119V6.66406C23.3785 5.65256 23.1597 4.68481 22.6365 3.84744L22.0362 2.91906L17.9614 6.99306L16.7311 5.70769L20.8874 1.55144L19.6842 1.05969C18.9168 0.722061 18.0884 0.544892 17.25 0.539062C13.8865 0.539062 11.125 3.30056 11.125 6.66406C11.125 7.02981 11.2037 7.34744 11.2615 7.67556C10.8791 8.05881 10.5921 8.37294 10.1406 8.82444L6.66775 5.35156V2.75369L6.23025 2.50781L3.16775 0.675562L2.59375 0.320312ZM17.25 2.28906C17.3725 2.28906 17.4582 2.36081 17.5781 2.37131L14.2697 5.67969L14.8709 6.30881L17.3322 8.85156L17.9334 9.48069L21.4062 6.00781C21.4237 6.20906 21.5672 6.35606 21.5427 6.58181V6.66406C21.5427 9.07381 19.5775 11.0391 17.1677 11.0391C16.8466 11.0391 16.4572 10.9638 16.0197 10.8746L15.5542 10.7932L15.2261 11.1213L5.35612 21.0193H5.32812V21.0473C4.70687 21.7272 3.61925 21.7438 2.89475 21.0193V20.9922H2.86675C2.18687 20.3709 2.17025 19.2833 2.89475 18.5588C3.22637 18.2263 9.648 11.7496 12.7927 8.60569L13.1489 8.25044L13.0115 7.75781C12.9285 7.3989 12.8827 7.03237 12.875 6.66406C12.875 4.25431 14.8402 2.28906 17.25 2.28906ZM2.86675 2.50781L4.91775 3.76606V4.64106L4.727 4.83181H3.852L2.59375 2.78169L2.86675 2.50781ZM15.6636 13.1443L21.1061 18.5588V18.5859H21.1324C21.8131 19.2072 21.8297 20.2948 21.1061 21.0193H21.0781V21.0473C20.4569 21.7272 19.3692 21.7438 18.6447 21.0193L13.2302 15.5786L15.6636 13.1443Z" fill="#2D3739"/>
</svg>
