<svg width="29" height="30" viewBox="0 0 29 30" fill="none" xmlns="http://www.w3.org/2000/svg">
<path d="M25.2347 15.1974H25.2062L22.946 10.1119C22.7348 9.63765 22.3908 9.23479 21.9555 8.95198C21.5202 8.66918 21.0123 8.51855 20.4932 8.51831H8.50534C7.98628 8.51859 7.47842 8.66923 7.04317 8.95204C6.60793 9.23484 6.26393 9.63768 6.05279 10.1119L3.79242 15.1974H3.76385C3.28948 15.198 2.83469 15.3866 2.49925 15.7221C2.16382 16.0575 1.97514 16.5123 1.97461 16.9867V23.249C1.97514 23.7234 2.16382 24.1782 2.49925 24.5136C2.83469 24.849 3.28948 25.0377 3.76385 25.0383V27.3053C3.76426 27.6611 3.90578 28.0022 4.15735 28.2538C4.40892 28.5053 4.75 28.6468 5.10578 28.6473H8.23695C8.59272 28.6468 8.93381 28.5053 9.18538 28.2538C9.43695 28.0022 9.57846 27.6611 9.57888 27.3053V25.0383H19.4197V27.3053C19.4201 27.6611 19.5616 28.0022 19.8132 28.2538C20.0648 28.5053 20.4059 28.6468 20.7616 28.6473H23.8928C24.2486 28.6468 24.5897 28.5053 24.8412 28.2538C25.0928 28.0022 25.2343 27.6611 25.2347 27.3053V25.0383C25.7091 25.0377 26.1639 24.849 26.4993 24.5136C26.8348 24.1782 27.0234 23.7234 27.024 23.249V16.9867C27.0234 16.5123 26.8348 16.0575 26.4993 15.7221C26.1639 15.3866 25.7091 15.198 25.2347 15.1974ZM7.6876 10.8387C7.75799 10.6806 7.87268 10.5463 8.01781 10.4521C8.16294 10.3578 8.33228 10.3076 8.50534 10.3076H20.4932C20.6663 10.3076 20.8356 10.3579 20.9806 10.4521C21.1257 10.5464 21.2404 10.6807 21.3108 10.8387L23.2479 15.1974H5.75041L7.6876 10.8387ZM7.78964 26.858H5.55309V25.0383H7.78964V26.858ZM23.4455 26.858H21.2089V25.0383H23.4455V26.858ZM25.2347 23.249H3.76385V16.9867H25.2347V23.249Z" fill="#2D3739"/>
<path d="M5.55318 19.2538H10.0263V21.043H5.55318V19.2538ZM18.9725 19.2538H23.4456V21.043H18.9725V19.2538ZM14.4994 1.73926L1.08008 7.12727V9.05535L14.4994 3.66739L27.9187 9.05535V7.12727L14.4994 1.73926Z" fill="#2D3739"/>
</svg>
