<svg width="437" height="342" viewBox="0 0 437 342" fill="none" xmlns="http://www.w3.org/2000/svg">
<path d="M54.2421 302.672V299.92C54.2421 299.493 54.4555 299.28 54.8821 299.28H58.9781C59.4048 299.28 59.6181 299.493 59.6181 299.92V321.616C59.6181 322.896 59.8528 323.792 60.3221 324.304C60.8341 324.773 61.6235 325.008 62.6901 325.008H65.5061C67.2128 325.008 68.0661 325.861 68.0661 327.568C68.0661 328.635 67.8528 329.317 67.4261 329.616C67.0421 329.872 66.4021 330 65.5061 330H61.7301C59.6395 330 57.9968 329.616 56.8021 328.848C55.6501 328.037 54.8821 326.715 54.4981 324.88C53.6448 325.648 52.6208 326.224 51.4261 326.608C50.2315 326.992 48.9301 327.184 47.5221 327.184C45.8581 327.184 44.3008 326.949 42.8501 326.48C41.4421 326.011 40.2048 325.307 39.1381 324.368C38.1141 323.387 37.3035 322.171 36.7061 320.72C36.1088 319.227 35.8101 317.477 35.8101 315.472C35.8101 313.083 36.1515 311.077 36.8341 309.456C37.5168 307.835 38.4128 306.533 39.5221 305.552C40.6315 304.528 41.9115 303.803 43.3621 303.376C44.8555 302.907 46.3915 302.672 47.9701 302.672H54.2421ZM47.5861 322.192C50.0181 322.192 51.7248 321.488 52.7061 320.08C53.7301 318.629 54.2421 316.624 54.2421 314.064V307.664H47.9701C45.9648 307.664 44.3221 308.24 43.0421 309.392C41.8048 310.501 41.1861 312.528 41.1861 315.472C41.1861 317.691 41.7408 319.376 42.8501 320.528C43.9595 321.637 45.5381 322.192 47.5861 322.192ZM49.8261 294.928C49.3995 294.928 49.1861 294.715 49.1861 294.288V289.616C49.1861 289.189 49.3995 288.976 49.8261 288.976H54.1781C54.6048 288.976 54.8181 289.189 54.8181 289.616V294.288C54.8181 294.715 54.6048 294.928 54.1781 294.928H49.8261ZM42.0181 294.928C41.5915 294.928 41.3781 294.715 41.3781 294.288V289.616C41.3781 289.189 41.5915 288.976 42.0181 288.976H46.3701C46.7968 288.976 47.0101 289.189 47.0101 289.616V294.288C47.0101 294.715 46.7968 294.928 46.3701 294.928H42.0181ZM65.5046 330C64.6513 330 64.0113 329.851 63.5846 329.552C63.158 329.253 62.9446 328.656 62.9446 327.76C62.9446 326.693 63.158 325.968 63.5846 325.584C63.9686 325.2 64.6086 325.008 65.5046 325.008H69.9206C70.9873 325.008 71.7553 324.773 72.2246 324.304C72.7366 323.792 72.9926 322.896 72.9926 321.616V304.464C72.9926 304.037 73.206 303.824 73.6326 303.824H77.7286C78.1553 303.824 78.3686 304.037 78.3686 304.464V321.936C78.3686 324.709 77.7926 326.757 76.6406 328.08C75.4886 329.36 73.5686 330 70.8806 330H65.5046ZM76.0646 341.904C75.638 341.904 75.4246 341.691 75.4246 341.264V336.592C75.4246 336.165 75.638 335.952 76.0646 335.952H80.4166C80.8433 335.952 81.0566 336.165 81.0566 336.592V341.264C81.0566 341.691 80.8433 341.904 80.4166 341.904H76.0646ZM68.2566 341.904C67.83 341.904 67.6166 341.691 67.6166 341.264V336.592C67.6166 336.165 67.83 335.952 68.2566 335.952H72.6086C73.0353 335.952 73.2486 336.165 73.2486 336.592V341.264C73.2486 341.691 73.0353 341.904 72.6086 341.904H68.2566ZM110.904 320.656C110.904 322.107 111.416 323.195 112.44 323.92C113.507 324.645 114.915 325.008 116.664 325.008H117.368C118.221 325.008 118.861 325.2 119.288 325.584C119.715 325.925 119.928 326.523 119.928 327.376C119.928 328.485 119.715 329.211 119.288 329.552C118.904 329.851 118.264 330 117.368 330H116.024C114.573 330 113.272 329.701 112.12 329.104C110.968 328.464 110.157 327.525 109.688 326.288C108.963 327.696 107.96 328.677 106.68 329.232C105.4 329.744 103.736 330 101.688 330H87.4801C87.0535 330 86.8401 329.787 86.8401 329.36V325.648C86.8401 325.221 87.0535 325.008 87.4801 325.008H99.7041C100.899 325.008 101.859 324.923 102.584 324.752C103.309 324.539 103.864 324.219 104.248 323.792C104.632 323.323 104.888 322.725 105.016 322C105.144 321.275 105.208 320.357 105.208 319.248V314.128C105.208 309.819 102.776 307.664 97.9121 307.664H90.4881C90.0615 307.664 89.8481 307.451 89.8481 307.024V303.312C89.8481 302.885 90.0615 302.672 90.4881 302.672H99.8961C103.139 302.672 105.784 303.589 107.832 305.424C109.88 307.259 110.904 310.139 110.904 314.064V320.656ZM136.708 330.448C134.702 330.448 132.932 330.171 131.396 329.616C129.86 329.019 128.558 328.101 127.492 326.864C126.596 328.229 125.444 329.104 124.036 329.488C122.628 329.829 121.326 330 120.132 330H117.38C115.673 330 114.82 329.147 114.82 327.44C114.82 326.373 115.033 325.712 115.46 325.456C115.844 325.157 116.484 325.008 117.38 325.008H120.58C121.049 325.008 121.518 324.923 121.988 324.752C122.457 324.539 122.884 324.219 123.268 323.792C123.652 323.323 123.95 322.725 124.164 322C124.42 321.232 124.548 320.293 124.548 319.184C124.505 318.757 124.484 318.352 124.484 317.968C124.484 317.541 124.484 317.093 124.484 316.624C124.484 311.717 125.572 308.176 127.748 306C129.924 303.781 132.91 302.672 136.708 302.672C140.505 302.672 143.492 303.781 145.668 306C147.844 308.176 148.932 311.717 148.932 316.624C148.932 317.093 148.91 317.563 148.868 318.032C148.868 318.501 148.846 318.949 148.804 319.376C148.846 321.552 149.273 323.045 150.084 323.856C150.937 324.624 151.833 325.008 152.772 325.008H154.628C155.481 325.008 156.121 325.2 156.548 325.584C156.974 325.925 157.188 326.523 157.188 327.376C157.188 328.485 156.974 329.211 156.548 329.552C156.164 329.851 155.524 330 154.628 330H153.22C152.622 330 151.982 329.979 151.3 329.936C150.617 329.851 149.934 329.701 149.252 329.488C148.612 329.275 147.993 328.976 147.396 328.592C146.798 328.165 146.286 327.611 145.86 326.928C144.793 328.165 143.492 329.061 141.956 329.616C140.42 330.171 138.67 330.448 136.708 330.448ZM136.708 307.664C134.318 307.664 132.569 308.453 131.46 310.032C130.393 311.611 129.86 313.808 129.86 316.624C129.86 319.696 130.393 321.936 131.46 323.344C132.569 324.752 134.318 325.456 136.708 325.456C139.097 325.456 140.825 324.752 141.892 323.344C143.001 321.936 143.556 319.696 143.556 316.624C143.556 313.808 143.001 311.611 141.892 310.032C140.825 308.453 139.097 307.664 136.708 307.664ZM169.543 307.664C168.092 307.664 166.748 307.963 165.511 308.56C164.316 309.157 163.25 309.968 162.311 310.992C162.055 311.291 161.756 311.312 161.415 311.056L158.599 308.752C158.215 308.453 158.151 308.155 158.407 307.856C159.602 306.363 161.074 305.125 162.823 304.144C164.615 303.163 166.791 302.672 169.351 302.672C172.295 302.672 174.706 303.141 176.583 304.08C178.46 304.976 179.932 306.171 180.999 307.664C182.108 309.157 182.876 310.885 183.303 312.848C183.73 314.811 183.943 316.837 183.943 318.928C183.943 319.312 183.922 319.675 183.879 320.016C183.879 320.357 183.879 320.699 183.879 321.04C183.964 322.363 184.519 323.365 185.543 324.048C186.61 324.688 187.975 325.008 189.639 325.008H190.343C191.196 325.008 191.836 325.2 192.263 325.584C192.69 325.925 192.903 326.523 192.903 327.376C192.903 328.485 192.69 329.211 192.263 329.552C191.879 329.851 191.239 330 190.343 330H188.999C187.548 330 186.247 329.701 185.095 329.104C183.943 328.464 183.132 327.525 182.663 326.288C181.938 327.653 180.914 328.613 179.591 329.168C178.311 329.723 176.69 330 174.727 330H154.567C152.86 330 152.007 329.147 152.007 327.44C152.007 326.373 152.22 325.712 152.647 325.456C153.031 325.157 153.671 325.008 154.567 325.008H172.743C173.938 325.008 174.898 324.923 175.623 324.752C176.348 324.539 176.903 324.197 177.287 323.728C177.671 323.259 177.927 322.64 178.055 321.872C178.183 321.061 178.247 320.08 178.247 318.928C178.247 317.264 178.098 315.749 177.799 314.384C177.5 312.976 177.01 311.781 176.327 310.8C175.687 309.776 174.812 309.008 173.703 308.496C172.594 307.941 171.207 307.664 169.543 307.664ZM209.645 330.448C207.64 330.448 205.869 330.171 204.333 329.616C202.797 329.019 201.496 328.101 200.429 326.864C199.533 328.229 198.381 329.104 196.973 329.488C195.565 329.829 194.264 330 193.069 330H190.317C188.61 330 187.757 329.147 187.757 327.44C187.757 326.373 187.97 325.712 188.397 325.456C188.781 325.157 189.421 325.008 190.317 325.008H193.517C193.986 325.008 194.456 324.923 194.925 324.752C195.394 324.539 195.821 324.219 196.205 323.792C196.589 323.323 196.888 322.725 197.101 322C197.357 321.232 197.485 320.293 197.485 319.184C197.442 318.757 197.421 318.352 197.421 317.968C197.421 317.541 197.421 317.093 197.421 316.624C197.421 311.717 198.509 308.176 200.685 306C202.861 303.781 205.848 302.672 209.645 302.672C213.442 302.672 216.429 303.781 218.605 306C220.781 308.176 221.869 311.717 221.869 316.624C221.869 317.093 221.848 317.563 221.805 318.032C221.805 318.501 221.784 318.949 221.741 319.376C221.784 321.552 222.21 323.045 223.021 323.856C223.874 324.624 224.77 325.008 225.709 325.008H227.565C228.418 325.008 229.058 325.2 229.485 325.584C229.912 325.925 230.125 326.523 230.125 327.376C230.125 328.485 229.912 329.211 229.485 329.552C229.101 329.851 228.461 330 227.565 330H226.157C225.56 330 224.92 329.979 224.237 329.936C223.554 329.851 222.872 329.701 222.189 329.488C221.549 329.275 220.93 328.976 220.333 328.592C219.736 328.165 219.224 327.611 218.797 326.928C217.73 328.165 216.429 329.061 214.893 329.616C213.357 330.171 211.608 330.448 209.645 330.448ZM209.645 307.664C207.256 307.664 205.506 308.453 204.397 310.032C203.33 311.611 202.797 313.808 202.797 316.624C202.797 319.696 203.33 321.936 204.397 323.344C205.506 324.752 207.256 325.456 209.645 325.456C212.034 325.456 213.762 324.752 214.829 323.344C215.938 321.936 216.493 319.696 216.493 316.624C216.493 313.808 215.938 311.611 214.829 310.032C213.762 308.453 212.034 307.664 209.645 307.664ZM227.505 330C226.651 330 226.011 329.851 225.585 329.552C225.158 329.253 224.945 328.656 224.945 327.76C224.945 326.693 225.158 325.968 225.585 325.584C225.969 325.2 226.609 325.008 227.505 325.008H231.537C232.603 325.008 233.371 324.773 233.841 324.304C234.353 323.792 234.609 322.896 234.609 321.616V287.12C234.609 286.693 234.822 286.48 235.249 286.48H239.345C239.771 286.48 239.985 286.693 239.985 287.12V321.936C239.985 324.709 239.409 326.757 238.257 328.08C237.105 329.36 235.185 330 232.497 330H227.505ZM254.298 329.36C254.298 329.787 254.085 330 253.658 330H249.562C249.135 330 248.922 329.787 248.922 329.36V287.12C248.922 286.693 249.135 286.48 249.562 286.48H253.658C254.085 286.48 254.298 286.693 254.298 287.12V329.36Z" fill="#D0A860"/>
<g clip-path="url(#clip0_668_925)">
<path d="M388.01 25.0128C390.96 18.6014 392.145 11.5173 391.44 4.49389C391.35 3.78672 391.113 3.10617 390.745 2.49556C390.377 1.88496 389.887 1.35767 389.304 0.947247C388.722 0.536824 388.06 0.252236 387.362 0.111649C386.663 -0.0289372 385.943 -0.0224663 385.247 0.130643C379.919 1.3623 374.773 9.30258 370.558 14.9499C365.923 21.2261 371.867 26.821 378.557 30.6732C374.852 35.0888 369.235 39.3079 359.311 44.6277C342.37 53.7079 340.655 65.8935 340.655 65.8935C350.133 53.7996 357.23 52.9872 371.854 43.4484C376.177 40.6711 379.994 37.1748 383.14 33.1104C385.842 34.8143 387.958 37.3067 389.201 40.2513L392.749 35.3902C395.342 31.918 392.396 28.1575 388.01 25.0128ZM382.171 21.4882C375.284 17.9242 374.211 13.1417 377.601 9.81361C380.992 6.48551 388.075 11.4253 384.383 20.5841C384.148 21.1606 383.912 21.724 383.663 22.2874C383.166 22.0123 382.629 21.7371 382.171 21.4882Z" fill="#D0A860"/>
<path d="M370.268 232.836C362.203 236.859 340.325 223.887 332.365 218.869C332.096 218.701 331.786 218.611 331.469 218.608C331.152 218.606 330.84 218.692 330.569 218.856C330.298 219.02 330.077 219.257 329.932 219.539C329.787 219.821 329.723 220.138 329.747 220.454C330.454 228.774 331.828 249.162 328.752 251.351C321.328 256.592 307.162 265.384 299.857 261.112C292.918 257.063 278.555 243.568 276.159 241.301C276.115 241.257 276.063 241.222 276.006 241.198C275.949 241.174 275.887 241.162 275.825 241.162C275.763 241.162 275.702 241.174 275.645 241.198C275.587 241.222 275.535 241.257 275.491 241.301C272.624 244.301 251.231 266.13 237 265.161C221.721 264.126 218.827 240.934 199.333 246.398C179.838 251.862 139.618 282.719 70.4767 261.741C14.3886 244.707 0 259.776 0 259.776C33.8964 209.356 89.4477 280.897 191.268 238.811C191.268 238.811 224.771 226.102 241.255 242.585C257.738 259.068 265.162 241.641 273.397 233.413C281.632 225.184 309.558 247.695 316.798 252.071C316.876 252.122 316.966 252.148 317.059 252.148C317.152 252.147 317.242 252.119 317.319 252.067C317.395 252.016 317.455 251.943 317.491 251.857C317.526 251.771 317.536 251.677 317.518 251.586C316.628 246.673 312.517 215.567 324.641 205.032C331.58 199.005 370.556 220.559 377.154 219.825C377.264 219.813 377.366 219.761 377.441 219.679C377.515 219.597 377.558 219.491 377.56 219.38C377.647 210.822 375.939 202.341 372.546 194.485C366.68 180.373 365.463 169.694 366.248 158.544C367.06 147.026 385.887 127.385 385.887 127.385C373.253 146.489 389.239 180.962 392.433 196.253C395.628 211.544 378.045 228.906 370.268 232.836Z" fill="#F0EDE4"/>
<path d="M421.355 53.7607C421.355 53.7607 416.366 44.1957 408.982 51.5857C401.598 58.9756 389.343 73.1004 406.953 77.8829C406.953 77.8829 398.037 83.124 394.711 91.9029C394.711 91.9029 408.943 76.6513 425.047 78.1057L437 65.2781C437 65.2781 426.212 70.0606 415.856 69.2089C405.5 68.3572 404.439 60.8624 405.526 58.517C406.612 56.1716 412.648 62.4478 412.648 62.4478L421.355 53.7607Z" fill="#F0EDE4"/>
<path d="M366.695 86.8322L354.585 99.5026C354.44 99.6546 354.329 99.8363 354.261 100.035C354.192 100.234 354.168 100.445 354.189 100.655C354.21 100.864 354.276 101.066 354.383 101.247C354.49 101.428 354.635 101.584 354.808 101.704C358.408 104.22 367.468 111.282 365.452 117.152C371.935 112.997 377.263 107.268 380.94 100.498C381.072 100.224 381.116 99.9165 381.067 99.6164C381.018 99.3164 380.877 99.0387 380.665 98.8213L368.79 86.7667C368.65 86.6298 368.484 86.5225 368.302 86.4515C368.119 86.3804 367.925 86.3469 367.729 86.353C367.533 86.3591 367.341 86.4047 367.163 86.4871C366.986 86.5694 366.827 86.6868 366.695 86.8322Z" fill="#F0EDE4"/>
<path d="M416.799 92.7677C416.799 92.7677 394.307 103.25 404.571 153.04C415.241 204.862 417.009 206.696 400.643 251.311C400.643 251.311 429.447 226.272 426.566 188.955C423.215 144.76 403.209 110.981 416.799 92.7677Z" fill="#F0EDE4"/>
</g>
<defs>
<clipPath id="clip0_668_925">
<rect width="437" height="269" fill="white"/>
</clipPath>
</defs>
</svg>
