<svg width="230" height="142" viewBox="0 0 230 142" fill="none" xmlns="http://www.w3.org/2000/svg">
<g clip-path="url(#clip0_27_443)">
<path d="M203.945 13.1802C205.496 9.80183 206.119 6.06896 205.748 2.36813C205.701 1.99551 205.576 1.6369 205.383 1.31516C205.19 0.993408 204.932 0.715565 204.626 0.4993C204.319 0.283036 203.972 0.133077 203.605 0.0589982C203.238 -0.015081 202.859 -0.0116714 202.493 0.0690065C199.693 0.718006 196.988 4.90198 194.772 7.87771C192.336 11.1849 195.46 14.133 198.977 16.1628C197.029 18.4895 194.077 20.7127 188.861 23.5158C179.956 28.3005 179.055 34.7215 179.055 34.7215C184.037 28.3488 187.767 27.9208 195.454 22.8945C197.726 21.431 199.732 19.5887 201.385 17.447C202.806 18.3449 203.918 19.6582 204.572 21.2098L206.437 18.6484C207.799 16.8187 206.251 14.8372 203.945 13.1802ZM200.876 11.323C197.257 9.44499 196.692 6.92494 198.475 5.17126C200.257 3.41758 203.98 6.02048 202.039 10.8466C201.915 11.1503 201.791 11.4472 201.661 11.7441C201.399 11.5991 201.117 11.4541 200.876 11.323Z" fill="#D0A860"/>
<path d="M194.619 122.688C190.379 124.808 178.88 117.973 174.696 115.329C174.555 115.24 174.392 115.193 174.225 115.191C174.059 115.19 173.895 115.235 173.752 115.322C173.61 115.408 173.494 115.533 173.417 115.682C173.341 115.83 173.307 115.997 173.32 116.164C173.692 120.548 174.414 131.291 172.797 132.444C168.895 135.206 161.449 139.839 157.609 137.588C153.962 135.454 146.413 128.343 145.154 127.149C145.131 127.125 145.103 127.107 145.073 127.095C145.043 127.082 145.011 127.076 144.978 127.076C144.946 127.076 144.913 127.082 144.883 127.095C144.853 127.107 144.826 127.125 144.803 127.149C143.296 128.73 132.051 140.232 124.571 139.721C116.54 139.176 115.019 126.955 104.772 129.834C94.5257 132.713 73.3854 148.973 37.0437 137.919C7.56288 128.944 0 136.884 0 136.884C17.8165 110.316 47.0151 148.013 100.533 125.837C100.533 125.837 118.143 119.14 126.807 127.825C135.471 136.511 139.373 127.328 143.702 122.992C148.03 118.656 162.709 130.518 166.514 132.824C166.555 132.851 166.603 132.865 166.651 132.864C166.7 132.864 166.747 132.849 166.788 132.822C166.828 132.795 166.859 132.756 166.878 132.711C166.897 132.666 166.902 132.616 166.893 132.568C166.425 129.979 164.264 113.589 170.636 108.038C174.283 104.862 194.77 116.219 198.238 115.833C198.296 115.826 198.35 115.798 198.389 115.755C198.428 115.712 198.45 115.656 198.452 115.598C198.497 111.088 197.599 106.619 195.816 102.48C192.733 95.0439 192.093 89.4169 192.506 83.5414C192.933 77.4725 202.828 67.123 202.828 67.123C196.188 77.1894 204.59 95.3545 206.269 103.412C207.948 111.469 198.706 120.617 194.619 122.688Z" fill="#F0EDE4"/>
<path d="M221.471 28.3281C221.471 28.3281 218.849 23.288 214.968 27.182C211.087 31.076 204.645 38.5188 213.901 41.0388C213.901 41.0388 209.215 43.8005 207.467 48.4264C207.467 48.4264 214.947 40.3898 223.411 41.1562L229.694 34.3969C229.694 34.3969 224.024 36.917 218.581 36.4682C213.137 36.0194 212.58 32.0702 213.151 30.8344C213.722 29.5985 216.895 32.9056 216.895 32.9056L221.471 28.3281Z" fill="#F0EDE4"/>
<path d="M192.742 45.7546L186.376 52.431C186.3 52.5111 186.242 52.6068 186.206 52.7116C186.17 52.8164 186.157 52.9278 186.168 53.038C186.179 53.1483 186.214 53.2548 186.27 53.3503C186.326 53.4457 186.402 53.5278 186.493 53.5909C188.385 54.9166 193.148 58.6379 192.088 61.731C195.496 59.5417 198.296 56.5229 200.229 52.9557C200.298 52.8114 200.321 52.6491 200.295 52.491C200.27 52.3329 200.196 52.1866 200.084 52.072L193.843 45.7201C193.769 45.6479 193.682 45.5914 193.586 45.554C193.49 45.5165 193.388 45.4989 193.285 45.5021C193.182 45.5053 193.081 45.5293 192.987 45.5727C192.894 45.6161 192.81 45.678 192.742 45.7546Z" fill="#F0EDE4"/>
<path d="M219.078 48.8823C219.078 48.8823 207.255 54.4057 212.65 80.6419C218.259 107.948 219.188 108.915 210.586 132.424C210.586 132.424 225.725 119.23 224.211 99.5664C222.45 76.2784 211.935 58.4792 219.078 48.8823Z" fill="#F0EDE4"/>
</g>
<defs>
<clipPath id="clip0_27_443">
<rect width="229.694" height="141.744" fill="white"/>
</clipPath>
</defs>
</svg>
