<svg width="30" height="30" viewBox="0 0 30 30" fill="none" xmlns="http://www.w3.org/2000/svg">
<g clip-path="url(#clip0_27_480)">
<path d="M26.2471 1.93652H3.75383C2.62449 1.93652 1.70898 2.85203 1.70898 3.98137V14.2056C1.70898 15.3349 2.62449 16.2504 3.75383 16.2504H26.2471C27.3765 16.2504 28.292 15.3349 28.292 14.2056V3.98137C28.292 2.85203 27.3765 1.93652 26.2471 1.93652Z" stroke="#2D3739" stroke-width="1.78924" stroke-linecap="round" stroke-linejoin="round"/>
<path d="M23.18 16.2507V12.1611C23.18 11.6187 22.9646 11.0986 22.5811 10.7151C22.1976 10.3316 21.6775 10.1162 21.1352 10.1162H8.8661C8.32377 10.1162 7.80366 10.3316 7.42017 10.7151C7.03669 11.0986 6.82125 11.6187 6.82125 12.1611V16.2507M6.82125 22.3853L5.79883 28.5198M15.0006 22.3853V28.5198M23.18 22.3853L24.2024 28.5198" stroke="#2D3739" stroke-width="1.78924" stroke-linecap="round" stroke-linejoin="round"/>
</g>
<defs>
<clipPath id="clip0_27_480">
<rect width="28.6278" height="28.6278" fill="white" transform="translate(0.685547 0.914062)"/>
</clipPath>
</defs>
</svg>
