<svg width="279" height="103" viewBox="0 0 279 103" fill="none" xmlns="http://www.w3.org/2000/svg">
<path d="M7.77119 90.8134L7.13637 90.8816C6.60543 90.609 6.18991 90.1774 5.84365 89.5982C5.47429 88.9622 5.27808 88.2353 5.27808 87.4517C5.27808 86.2251 5.60126 85.2938 6.22454 84.6805C6.84782 84.0672 7.79428 83.7605 9.04084 83.7605C10.1027 83.7605 11.2108 84.0444 12.3188 84.6123L12.8959 84.9076L13.9925 81.2846L13.6346 81.0802C12.365 80.3533 10.7953 79.9785 8.97159 79.9785C7.40184 79.9785 6.00524 80.2624 4.7933 80.8417C3.55829 81.4209 2.60028 82.2727 1.93083 83.363C1.26138 84.4419 0.92666 85.7594 0.92666 87.2699C0.92666 88.3716 1.16905 89.4051 1.64228 90.3478C1.91929 90.8929 2.23093 91.3586 2.60028 91.7561L1.58457 91.9378C1.34218 92.006 0.984372 92.0741 0.499599 92.1309L0.0263672 92.1877V95.8561L0.684273 95.7198C1.86158 95.47 4.20465 95.1292 7.63269 94.6977C11.0607 94.2661 13.3807 94.0503 14.5465 94.0503H15.089V90.1547H14.5465C13.6924 90.1206 11.4185 90.3591 7.77119 90.8134Z" fill="#888B8D"/>
<path d="M65.8855 91.5988H57.2173V81.116L53.0506 82.5129V91.5988H51.377C50.3612 91.5988 49.5302 91.4171 48.9069 91.065C48.3067 90.7243 47.7412 90.1223 47.2102 89.2705L47.2333 83.0808L43.0781 84.4777V88.0553C43.0781 89.1343 42.7896 90.0088 42.224 90.6675C41.6815 91.2922 40.9197 91.5988 39.9155 91.5988H36.5452V84.614L32.3785 86.011V91.5988H23.3756V72.2231L19.0703 73.6201V95.4035H40.2272C41.543 95.4035 42.6972 95.1537 43.6552 94.6539C44.417 94.2564 45.0634 93.7681 45.5828 93.2002C46.4715 93.9725 47.3372 94.529 48.1682 94.847C49.1378 95.2218 50.2227 95.4035 51.3654 95.4035H70.1677V81.8883L65.8624 83.2852V91.5988H65.8855Z" fill="#888B8D"/>
<path d="M90.1481 88.0553C90.1481 90.4744 89.0978 91.5988 86.8471 91.5988H86.2815L82.0801 74.3129L78.0288 76.0279L81.8146 91.5988H74.6123V95.3922H87.2049C89.3863 95.3922 91.1523 94.7562 92.4681 93.4955C93.7839 92.2348 94.4534 90.5426 94.4534 88.4642V72.2231L90.1481 73.6201V88.0553Z" fill="#888B8D"/>
<path d="M100.258 95.3922H104.563V72.2231L100.258 73.6088V95.3922Z" fill="#888B8D"/>
<path d="M136.131 91.5974H120.03V81.8868L115.886 83.2838V95.0387C115.886 96.3334 115.609 97.3783 115.067 98.1392C114.559 98.8547 113.866 99.2068 112.955 99.2068C112.551 99.2068 112.17 99.1728 111.824 99.1046C111.477 99.0365 111.027 98.8888 110.485 98.6503L109.965 98.4232L108.649 101.717L109.076 101.933C110.462 102.637 111.789 102.989 113.024 102.989C115.275 102.989 117.029 102.239 118.241 100.763C119.338 99.4226 119.938 97.6168 120.018 95.3794H140.425V81.8755L136.12 83.2724V91.5974H136.131Z" fill="#888B8D"/>
<path d="M139.204 77.0824C138.303 77.196 137.865 77.2755 137.622 77.3209C137.461 77.2187 137.322 77.0937 137.195 76.9347C137.045 76.7417 136.976 76.5145 136.976 76.2192C136.976 75.7649 137.091 75.4469 137.334 75.2539C137.599 75.0381 137.922 74.9359 138.338 74.9359C138.961 74.9359 139.469 75.0494 139.862 75.2879L140.439 75.6286L141.35 73.0165L140.958 72.8007C140.231 72.4032 139.342 72.1987 138.303 72.1987C137.068 72.1987 136.041 72.5167 135.268 73.1414C134.46 73.7888 134.056 74.7087 134.056 75.8785C134.056 76.594 134.264 77.23 134.679 77.7525L133.617 77.9001V80.5805L136.26 80.1829C138.049 79.9558 139.273 79.8082 139.931 79.7514C140.577 79.6946 140.981 79.6605 141.166 79.6605H141.708V76.9007H141.166C140.796 76.9007 140.162 76.9688 139.204 77.0824Z" fill="#888B8D"/>
<path d="M177.569 89.7126C177.569 87.2026 176.657 85.2378 174.857 83.8749C173.091 82.5575 170.54 81.876 167.274 81.876H161.075C161.895 80.5359 163.188 79.1503 164.907 77.7647C165.796 77.0492 166.696 76.4018 167.585 75.8453L167.966 75.6068L166.396 71.9497L165.854 72.2904C165.461 72.5403 165.069 72.8015 164.665 73.0854C162.922 74.3234 161.352 75.7204 159.979 77.2536C158.582 78.8096 157.463 80.4223 156.666 82.035L156.609 85.6467H167.251C169.397 85.6467 170.979 86.0215 171.971 86.7711C172.929 87.4979 173.391 88.6223 173.391 90.2237V91.5979H150.837V72.2109L146.532 73.6079V95.3913H155.073H177.546V89.7126H177.569Z" fill="#888B8D"/>
<path d="M182.834 83.2723V95.0385C182.834 96.3333 182.557 97.3782 182.014 98.1391C181.506 98.8546 180.814 99.2067 179.902 99.2067C179.498 99.2067 179.117 99.1726 178.771 99.1045C178.425 99.0363 177.974 98.8887 177.432 98.6502L176.912 98.423L175.597 101.728L176.024 101.944C177.409 102.648 178.736 103 179.971 103C182.222 103 183.976 102.25 185.188 100.774C186.377 99.3316 186.966 97.3441 186.966 94.8682V81.8867L182.834 83.2723Z" fill="#888B8D"/>
<path d="M45.7324 77.6035C45.7324 78.8073 46.7481 79.7841 47.9832 79.7841C49.2182 79.7841 50.2339 78.8073 50.2339 77.6035C50.2339 76.3996 49.2297 75.4229 47.9832 75.4229C46.7481 75.4229 45.7324 76.3996 45.7324 77.6035Z" fill="#888B8D"/>
<path d="M67.9861 74.6646C66.7511 74.6646 65.7354 75.6413 65.7354 76.8452C65.7354 78.0491 66.7511 79.0258 67.9861 79.0258C69.2211 79.0258 70.2368 78.0491 70.2368 76.8452C70.2368 75.6413 69.2211 74.6646 67.9861 74.6646Z" fill="#888B8D"/>
<path d="M117.931 79.0145C119.166 79.0145 120.182 78.0378 120.182 76.8339C120.182 75.63 119.178 74.6533 117.931 74.6533C116.696 74.6533 115.681 75.63 115.681 76.8339C115.681 78.0378 116.696 79.0145 117.931 79.0145Z" fill="#888B8D"/>
<path d="M45.1667 75.3891C46.4018 75.3891 47.4175 74.4123 47.4175 73.2085C47.4175 72.0046 46.4133 71.0278 45.1667 71.0278C43.9317 71.0278 42.916 72.0046 42.916 73.2085C42.916 74.4123 43.9202 75.3891 45.1667 75.3891Z" fill="#888B8D"/>
<path d="M42.3503 79.7748C43.5854 79.7748 44.6011 78.7981 44.6011 77.5942C44.6011 76.3903 43.5969 75.4136 42.3503 75.4136C41.1153 75.4136 40.0996 76.3903 40.0996 77.5942C40.0996 78.7981 41.1038 79.7748 42.3503 79.7748Z" fill="#888B8D"/>
<path d="M236.652 95.3068H211.517V59.8652L236.652 44.819V59.132L244.597 54.3816V31.0327L236.652 35.7727L211.517 50.8189L203.572 55.5692V103H244.597V85.1349L236.652 89.8955V95.3068Z" fill="#BD9A5F"/>
<path d="M227.387 14.0031L253.855 29.8341V48.8457L261.79 44.0954V25.5485L253.855 20.7981L227.387 4.96713L219.453 0.216797V40.6359L227.387 35.8959V14.0031Z" fill="#BD9A5F"/>
<path d="M271.057 49.4144L227.387 75.5309V55.786L219.453 60.5364V89.3275L227.387 84.5669L271.057 58.4504V95.3068H261.79V74.839L253.855 79.5997V103H279.001V44.6641L271.057 49.4144Z" fill="#BD9A5F"/>
</svg>
