<svg width="105" height="42" viewBox="0 0 105 42" fill="none" xmlns="http://www.w3.org/2000/svg">
<path d="M13.3009 38.856H3.19441V24.3736L13.3009 18.2253V24.074L16.4953 22.1328V12.5918L13.3009 14.5287L3.19441 20.677L0 22.6181V41.9998H16.4953V34.6995L13.3009 36.6448V38.856Z" fill="#D0A860"/>
<path d="M9.57471 5.63347L20.2171 12.1025V19.8712L23.4073 17.9301V10.3512L20.2171 8.41013L9.57471 1.94112L6.38452 0V16.5164L9.57471 14.5795V5.63347Z" fill="#D0A860"/>
<path d="M27.1334 20.1032L9.57471 30.7752V22.7069L6.38452 24.648V36.4129L9.57471 34.4675L27.1334 23.7956V38.8562H23.4073V30.4925L20.2171 32.4378V41.9999H30.3279V18.1621L27.1334 20.1032Z" fill="#D0A860"/>
<path d="M39.1594 22.4115L38.9273 22.4368C38.7332 22.3355 38.5813 22.1752 38.4547 21.9599C38.3196 21.7236 38.2479 21.4536 38.2479 21.1624C38.2479 20.7066 38.3661 20.3606 38.5939 20.1328C38.8218 19.9049 39.1678 19.7909 39.6236 19.7909C40.0118 19.7909 40.4169 19.8964 40.822 20.1074L41.033 20.2172L41.4339 18.871L41.3031 18.7951C40.8389 18.525 40.265 18.3857 39.5983 18.3857C39.0244 18.3857 38.5138 18.4912 38.0707 18.7064C37.6191 18.9217 37.2689 19.2381 37.0242 19.6432C36.7794 20.0441 36.657 20.5336 36.657 21.0949C36.657 21.5042 36.7456 21.8882 36.9187 22.2384C37.0199 22.441 37.1339 22.614 37.2689 22.7617L36.8976 22.8292C36.8089 22.8545 36.6781 22.8799 36.5009 22.901L36.3279 22.9221V24.2851L36.5684 24.2344C36.9988 24.1416 37.8555 24.015 39.1088 23.8546C40.362 23.6943 41.2102 23.6141 41.6364 23.6141H41.8348V22.1667H41.6364C41.3242 22.1541 40.4929 22.2427 39.1594 22.4115Z" fill="#F0EDE4"/>
<path d="M60.4062 22.7029H57.2371V18.808L55.7137 19.3271V22.7029H55.1018C54.7305 22.7029 54.4267 22.6354 54.1988 22.5046C53.9794 22.378 53.7726 22.1544 53.5785 21.8379L53.5869 19.5381L52.0678 20.0571V21.3864C52.0678 21.7872 51.9623 22.1122 51.7555 22.3569C51.5572 22.589 51.2787 22.7029 50.9115 22.7029H49.6794V20.1077L48.156 20.6268V22.7029H44.8645V15.5039L43.2905 16.0229V24.1166H51.0255C51.5065 24.1166 51.9285 24.0237 52.2788 23.8381C52.5573 23.6904 52.7936 23.5089 52.9835 23.2979C53.3084 23.5849 53.6249 23.7917 53.9287 23.9098C54.2832 24.0491 54.6799 24.1166 55.0976 24.1166H61.9717V19.095L60.3977 19.614V22.7029H60.4062Z" fill="#F0EDE4"/>
<path d="M69.2763 21.3864C69.2763 22.2852 68.8923 22.7029 68.0695 22.7029H67.8627L66.3267 16.2804L64.8455 16.9176L66.2296 22.7029H63.5964V24.1124H68.2003C68.9978 24.1124 69.6435 23.8761 70.1245 23.4077C70.6056 22.9393 70.8503 22.3105 70.8503 21.5383V15.5039L69.2763 16.0229V21.3864Z" fill="#F0EDE4"/>
<path d="M72.9729 24.1124H74.5469V15.5039L72.9729 16.0187V24.1124Z" fill="#F0EDE4"/>
<path d="M86.0882 22.703H80.2015V19.095L78.6866 19.6141V23.9816C78.6866 24.4627 78.5853 24.8509 78.387 25.1336C78.2013 25.3995 77.9481 25.5303 77.6148 25.5303C77.4671 25.5303 77.3278 25.5176 77.2012 25.4923C77.0746 25.467 76.9101 25.4121 76.7117 25.3235L76.5218 25.2391L76.0408 26.4629L76.1969 26.543C76.7033 26.8047 77.1886 26.9355 77.6401 26.9355C78.463 26.9355 79.1044 26.657 79.5475 26.1084C79.9483 25.6105 80.1678 24.9395 80.1973 24.1082H87.658V19.0908L86.084 19.6099V22.703H86.0882Z" fill="#F0EDE4"/>
<path d="M87.2106 17.3096C86.8815 17.3518 86.7211 17.3814 86.6325 17.3983C86.5734 17.3603 86.5228 17.3139 86.4764 17.2548C86.4215 17.183 86.3962 17.0987 86.3962 16.9889C86.3962 16.8201 86.4384 16.702 86.527 16.6303C86.6241 16.5501 86.7422 16.5121 86.8941 16.5121C87.122 16.5121 87.3077 16.5543 87.4511 16.6429L87.6621 16.7695L87.9955 15.7989L87.852 15.7188C87.5862 15.5711 87.2612 15.4951 86.8815 15.4951C86.4299 15.4951 86.0544 15.6133 85.7717 15.8454C85.4763 16.0859 85.3286 16.4277 85.3286 16.8623C85.3286 17.1282 85.4045 17.3645 85.5564 17.5586L85.1682 17.6135V18.6094L86.1346 18.4617C86.7886 18.3773 87.2359 18.3224 87.4765 18.3013C87.7128 18.2802 87.8605 18.2675 87.928 18.2675H88.1263V17.2421H87.928C87.793 17.2421 87.5609 17.2674 87.2106 17.3096Z" fill="#F0EDE4"/>
<path d="M101.237 22.0022C101.237 21.0696 100.904 20.3395 100.246 19.8332C99.6 19.3437 98.6674 19.0905 97.4732 19.0905H95.2071C95.5067 18.5925 95.9794 18.0777 96.6081 17.5629C96.933 17.2971 97.2622 17.0565 97.5871 16.8497L97.7264 16.7611L97.1525 15.4023L96.9541 15.5289C96.8107 15.6218 96.6672 15.7188 96.5195 15.8243C95.8823 16.2843 95.3084 16.8033 94.8062 17.373C94.2956 17.9511 93.8863 18.5503 93.5952 19.1496L93.5741 20.4915H97.4647C98.2496 20.4915 98.8277 20.6307 99.1907 20.9092C99.5409 21.1793 99.7097 21.5971 99.7097 22.1921V22.7027H91.4641V15.4994L89.8901 16.0184V24.1121H93.0128H101.229V22.0022H101.237Z" fill="#F0EDE4"/>
<path d="M103.161 19.6095V23.9813C103.161 24.4624 103.06 24.8506 102.862 25.1333C102.676 25.3992 102.423 25.53 102.09 25.53C101.942 25.53 101.803 25.5173 101.676 25.492C101.549 25.4667 101.385 25.4118 101.187 25.3232L100.997 25.2388L100.516 26.4668L100.672 26.547C101.178 26.8086 101.663 26.9394 102.115 26.9394C102.938 26.9394 103.579 26.6609 104.022 26.1123C104.457 25.5764 104.672 24.8379 104.672 23.918V19.0947L103.161 19.6095Z" fill="#F0EDE4"/>
<path d="M53.0386 17.5036C53.0386 17.9509 53.4099 18.3138 53.8614 18.3138C54.313 18.3138 54.6843 17.9509 54.6843 17.5036C54.6843 17.0563 54.3172 16.6934 53.8614 16.6934C53.4099 16.6934 53.0386 17.0563 53.0386 17.5036Z" fill="#F0EDE4"/>
<path d="M61.1742 16.4111C60.7227 16.4111 60.3513 16.774 60.3513 17.2213C60.3513 17.6686 60.7227 18.0315 61.1742 18.0315C61.6257 18.0315 61.9971 17.6686 61.9971 17.2213C61.9971 16.774 61.6257 16.4111 61.1742 16.4111Z" fill="#F0EDE4"/>
<path d="M79.4335 18.0272C79.885 18.0272 80.2563 17.6642 80.2563 17.2169C80.2563 16.7696 79.8892 16.4067 79.4335 16.4067C78.9819 16.4067 78.6106 16.7696 78.6106 17.2169C78.6106 17.6642 78.9819 18.0272 79.4335 18.0272Z" fill="#F0EDE4"/>
<path d="M52.8317 16.681C53.2832 16.681 53.6545 16.3181 53.6545 15.8708C53.6545 15.4235 53.2874 15.0605 52.8317 15.0605C52.3801 15.0605 52.0088 15.4235 52.0088 15.8708C52.0088 16.3181 52.3759 16.681 52.8317 16.681Z" fill="#F0EDE4"/>
<path d="M51.8019 18.3099C52.2534 18.3099 52.6247 17.947 52.6247 17.4997C52.6247 17.0524 52.2576 16.6895 51.8019 16.6895C51.3503 16.6895 50.979 17.0524 50.979 17.4997C50.979 17.947 51.3461 18.3099 51.8019 18.3099Z" fill="#F0EDE4"/>
</svg>
