<svg width="105" height="42" viewBox="0 0 105 42" fill="none" xmlns="http://www.w3.org/2000/svg">
<path d="M87.3422 38.8563H77.2357V24.3738L87.3422 18.2255V24.0742L90.5366 22.1331V12.592L87.3422 14.5289L77.2357 20.6772L74.0413 22.6184V42.0001H90.5366V34.6997L87.3422 36.6451V38.8563Z" fill="#D0A860"/>
<path d="M83.616 5.63347L94.2584 12.1025V19.8712L97.4486 17.9301V10.3512L94.2584 8.41013L83.616 1.94112L80.4258 0V16.5164L83.616 14.5795V5.63347Z" fill="#D0A860"/>
<path d="M101.175 20.1032L83.616 30.7752V22.7069L80.4258 24.648V36.4129L83.616 34.4675L101.175 23.7956V38.8562H97.4486V30.4925L94.2584 32.4378V41.9999H104.369V18.1621L101.175 20.1032Z" fill="#D0A860"/>
<path d="M2.83151 22.3509L2.59942 22.3762C2.40531 22.275 2.25339 22.1146 2.1268 21.8994C1.99176 21.6631 1.92002 21.393 1.92002 21.1018C1.92002 20.6461 2.03818 20.3001 2.26605 20.0722C2.49392 19.8443 2.83995 19.7304 3.29569 19.7304C3.68391 19.7304 4.08902 19.8359 4.49412 20.0469L4.70511 20.1566L5.106 18.8105L4.97518 18.7345C4.511 18.4644 3.9371 18.3252 3.27037 18.3252C2.69647 18.3252 2.18587 18.4307 1.74279 18.6459C1.29127 18.8611 0.941023 19.1776 0.696272 19.5827C0.451522 19.9836 0.329147 20.4731 0.329147 21.0343C0.329147 21.4436 0.417763 21.8277 0.590777 22.1779C0.692053 22.3805 0.805988 22.5535 0.941023 22.7012L0.569677 22.7687C0.481061 22.794 0.350246 22.8193 0.173013 22.8404L0 22.8615V24.2245L0.24053 24.1739C0.670953 24.081 1.52758 23.9545 2.78087 23.7941C4.03416 23.6337 4.88235 23.5536 5.30855 23.5536H5.50688V22.1062H5.30855C4.99628 22.0935 4.16498 22.1821 2.83151 22.3509Z" fill="#F0EDE4"/>
<path d="M24.0783 22.6421H20.9092V18.7472L19.3858 19.2663V22.6421H18.774C18.4026 22.6421 18.0988 22.5746 17.8709 22.4438C17.6515 22.3172 17.4447 22.0936 17.2506 21.7771L17.259 19.4773L15.7399 19.9963V21.3256C15.7399 21.7264 15.6344 22.0514 15.4276 22.2961C15.2293 22.5282 14.9508 22.6421 14.5837 22.6421H13.3515V20.047L11.8281 20.566V22.6421H8.53664V15.4431L6.96265 15.9622V24.0558H14.6976C15.1787 24.0558 15.6006 23.963 15.9509 23.7773C16.2294 23.6296 16.4657 23.4481 16.6556 23.2371C16.9805 23.5241 17.297 23.7309 17.6008 23.849C17.9553 23.9883 18.352 24.0558 18.7697 24.0558H25.6438V19.0342L24.0698 19.5532V22.6421H24.0783Z" fill="#F0EDE4"/>
<path d="M32.9484 21.3256C32.9484 22.2244 32.5644 22.6421 31.7416 22.6421H31.5348L29.9988 16.2196L28.5176 16.8568L29.9017 22.6421H27.2686V24.0516H31.8724C32.6699 24.0516 33.3156 23.8153 33.7966 23.3469C34.2777 22.8785 34.5224 22.2497 34.5224 21.4775V15.4431L32.9484 15.9622V21.3256Z" fill="#F0EDE4"/>
<path d="M36.645 24.0516H38.219V15.4431L36.645 15.9579V24.0516Z" fill="#F0EDE4"/>
<path d="M49.7603 22.6422H43.8736V19.0342L42.3587 19.5533V23.9208C42.3587 24.4019 42.2574 24.7901 42.0591 25.0728C41.8734 25.3387 41.6203 25.4695 41.2869 25.4695C41.1392 25.4695 40.9999 25.4568 40.8733 25.4315C40.7467 25.4062 40.5822 25.3513 40.3838 25.2627L40.1939 25.1783L39.7129 26.4021L39.869 26.4823C40.3754 26.7439 40.8607 26.8747 41.3122 26.8747C42.1351 26.8747 42.7765 26.5962 43.2196 26.0476C43.6205 25.5497 43.8399 24.8787 43.8694 24.0474H51.3301V19.03L49.7561 19.5491V22.6422H49.7603Z" fill="#F0EDE4"/>
<path d="M50.8827 17.2491C50.5536 17.2913 50.3932 17.3208 50.3046 17.3377C50.2455 17.2997 50.1949 17.2533 50.1485 17.1942C50.0936 17.1225 50.0683 17.0381 50.0683 16.9284C50.0683 16.7596 50.1105 16.6414 50.1991 16.5697C50.2962 16.4895 50.4143 16.4515 50.5662 16.4515C50.7941 16.4515 50.9798 16.4937 51.1233 16.5824L51.3343 16.709L51.6676 15.7384L51.5241 15.6582C51.2583 15.5105 50.9334 15.4346 50.5536 15.4346C50.1021 15.4346 49.7265 15.5527 49.4438 15.7848C49.1484 16.0253 49.0007 16.3672 49.0007 16.8018C49.0007 17.0676 49.0766 17.304 49.2286 17.4981L48.8403 17.5529V18.5488L49.8067 18.4011C50.4607 18.3167 50.9081 18.2619 51.1486 18.2408C51.3849 18.2197 51.5326 18.207 51.6001 18.207H51.7984V17.1816H51.6001C51.4651 17.1816 51.233 17.2069 50.8827 17.2491Z" fill="#F0EDE4"/>
<path d="M64.9094 21.9416C64.9094 21.009 64.576 20.279 63.9177 19.7726C63.2721 19.2831 62.3395 19.0299 61.1453 19.0299H58.8792C59.1789 18.532 59.6515 18.0172 60.2802 17.5024C60.6052 17.2365 60.9343 16.996 61.2592 16.7892L61.3985 16.7006L60.8246 15.3418L60.6263 15.4684C60.4828 15.5612 60.3393 15.6583 60.1916 15.7638C59.5544 16.2237 58.9805 16.7428 58.4784 17.3125C57.9678 17.8906 57.5584 18.4898 57.2673 19.089L57.2462 20.4309H61.1369C61.9217 20.4309 62.4999 20.5702 62.8628 20.8487C63.213 21.1187 63.3818 21.5365 63.3818 22.1315V22.6421H55.1363V15.4389L53.5623 15.9579V24.0515H56.6849H64.9009V21.9416H64.9094Z" fill="#F0EDE4"/>
<path d="M66.8338 19.549V23.9207C66.8338 24.4018 66.7325 24.79 66.5342 25.0728C66.3485 25.3386 66.0953 25.4694 65.762 25.4694C65.6143 25.4694 65.475 25.4568 65.3484 25.4315C65.2218 25.4061 65.0573 25.3513 64.8589 25.2627L64.669 25.1783L64.188 26.4062L64.3441 26.4864C64.8505 26.748 65.3358 26.8789 65.7873 26.8789C66.6102 26.8789 67.2516 26.6003 67.6947 26.0518C68.1293 25.5158 68.3445 24.7774 68.3445 23.8575V19.0342L66.8338 19.549Z" fill="#F0EDE4"/>
<path d="M16.7104 17.4433C16.7104 17.8906 17.0818 18.2535 17.5333 18.2535C17.9848 18.2535 18.3562 17.8906 18.3562 17.4433C18.3562 16.996 17.9891 16.6331 17.5333 16.6331C17.0818 16.6331 16.7104 16.996 16.7104 17.4433Z" fill="#F0EDE4"/>
<path d="M24.8463 16.3503C24.3948 16.3503 24.0234 16.7133 24.0234 17.1606C24.0234 17.6079 24.3948 17.9708 24.8463 17.9708C25.2978 17.9708 25.6692 17.6079 25.6692 17.1606C25.6692 16.7133 25.2978 16.3503 24.8463 16.3503Z" fill="#F0EDE4"/>
<path d="M43.1056 17.9666C43.5571 17.9666 43.9284 17.6037 43.9284 17.1564C43.9284 16.7091 43.5613 16.3462 43.1056 16.3462C42.6541 16.3462 42.2827 16.7091 42.2827 17.1564C42.2827 17.6037 42.6541 17.9666 43.1056 17.9666Z" fill="#F0EDE4"/>
<path d="M16.5038 16.6204C16.9553 16.6204 17.3266 16.2575 17.3266 15.8102C17.3266 15.3629 16.9595 15 16.5038 15C16.0523 15 15.6809 15.3629 15.6809 15.8102C15.6809 16.2575 16.048 16.6204 16.5038 16.6204Z" fill="#F0EDE4"/>
<path d="M15.4742 18.2493C15.9258 18.2493 16.2971 17.8864 16.2971 17.4391C16.2971 16.9918 15.93 16.6289 15.4742 16.6289C15.0227 16.6289 14.6514 16.9918 14.6514 17.4391C14.6514 17.8864 15.0185 18.2493 15.4742 18.2493Z" fill="#F0EDE4"/>
</svg>
