<svg width="160" height="160" viewBox="0 0 160 160" fill="none" xmlns="http://www.w3.org/2000/svg">
<circle cx="80" cy="80" r="80" fill="#1C2F34"/>
<circle cx="80" cy="80" r="42" fill="#D9D9D9"/>
<path d="M72.3225 142.947C72.2328 143.456 72.0267 143.881 71.7043 144.221C71.3819 144.562 70.9721 144.799 70.4749 144.931C69.9695 145.062 69.4132 145.074 68.8059 144.967C68.2396 144.867 67.7653 144.678 67.3829 144.399C66.9909 144.126 66.7085 143.785 66.5356 143.373C66.3545 142.961 66.2931 142.493 66.3515 141.97L67.5702 142.185C67.5249 142.634 67.6282 143.008 67.8802 143.306C68.1323 143.604 68.5086 143.797 69.0092 143.886C69.5672 143.984 70.0377 143.932 70.4204 143.728C70.8018 143.533 71.0315 143.214 71.1096 142.771C71.1733 142.41 71.1221 142.101 70.956 141.843C70.7885 141.593 70.5041 141.382 70.1029 141.21L68.6988 140.607C67.9974 140.314 67.5016 139.935 67.2114 139.469C66.9115 139.01 66.8166 138.469 66.9266 137.845C67.0206 137.311 67.2337 136.871 67.5658 136.523C67.8896 136.174 68.3084 135.935 68.822 135.806C69.3274 135.675 69.896 135.665 70.5279 135.776C71.127 135.882 71.639 136.074 72.0638 136.352C72.479 136.637 72.7854 136.987 72.9828 137.402C73.1707 137.825 73.2369 138.289 73.1814 138.796L71.9505 138.578C72.0175 138.15 71.9052 137.779 71.6136 137.466C71.3205 137.16 70.895 136.958 70.3369 136.86C69.746 136.755 69.2551 136.804 68.8641 137.006C68.4649 137.207 68.227 137.524 68.1503 137.959C68.0881 138.312 68.1359 138.617 68.2938 138.873C68.4517 139.129 68.7353 139.344 69.1447 139.518L70.551 140.109C71.2442 140.4 71.7434 140.784 72.0486 141.261C72.3441 141.745 72.4354 142.307 72.3225 142.947Z" fill="#D9D9D9"/>
<path d="M60.4651 133.057C61.2717 133.351 61.9109 133.788 62.3827 134.367C62.8517 134.955 63.1363 135.635 63.2365 136.407C63.3338 137.188 63.2228 138.016 62.9036 138.893C62.5844 139.77 62.1328 140.475 61.5488 141.007C60.9649 141.54 60.3005 141.879 59.5558 142.025C58.8032 142.168 58.0236 142.092 57.2171 141.799C56.575 141.565 56.0397 141.233 55.6112 140.802C55.1799 140.379 54.8703 139.889 54.6825 139.333C54.4947 138.777 54.4554 138.191 54.5645 137.574L55.7978 138.023C55.7521 138.636 55.8954 139.18 56.2277 139.656C56.5601 140.132 57.0356 140.482 57.6542 140.707C58.2258 140.915 58.7769 140.961 59.3073 140.843C59.8271 140.731 60.2942 140.471 60.7087 140.063C61.1203 139.663 61.4472 139.13 61.6895 138.465C61.9289 137.807 62.0209 137.189 61.9656 136.61C61.9102 136.031 61.7171 135.526 61.3861 135.095C61.0523 134.672 60.6036 134.358 60.0397 134.153C59.4133 133.925 58.8174 133.881 58.2521 134.021C57.676 134.166 57.2143 134.473 56.8667 134.94L55.6451 134.496C55.9678 133.975 56.3862 133.568 56.9003 133.276C57.4066 132.982 57.9687 132.814 58.5867 132.773C59.1969 132.729 59.823 132.824 60.4651 133.057Z" fill="#D9D9D9"/>
<path d="M53.4442 130.064L54.505 130.677L49.9863 138.503L47.0311 136.797C46.1939 136.314 45.6616 135.727 45.4342 135.038C45.1954 134.352 45.2885 133.641 45.7135 132.904C46.026 132.363 46.4241 131.982 46.9077 131.761C47.3842 131.536 47.91 131.483 48.4852 131.604L48.8002 127.383L49.9801 128.064L49.654 132.004L51.6567 133.16L53.4442 130.064ZM49.4755 136.938L51.1129 134.102L49.2077 133.002C48.717 132.719 48.2652 132.626 47.8523 132.725C47.4322 132.819 47.093 133.09 46.8347 133.537C46.5722 133.992 46.5129 134.42 46.6569 134.82C46.7895 135.224 47.0975 135.565 47.581 135.845L49.4755 136.938Z" fill="#D9D9D9"/>
<path d="M37.5171 124.146C38.1063 123.444 38.7722 122.942 39.5147 122.64C40.2456 122.34 40.9917 122.248 41.7531 122.365C42.5028 122.482 43.2064 122.817 43.8639 123.369C44.5086 123.91 44.9573 124.542 45.2098 125.265C45.4506 125.989 45.4865 126.737 45.3174 127.509C45.1484 128.281 44.7666 129.021 44.172 129.73C43.5828 130.432 42.9228 130.934 42.1919 131.234C41.4547 131.529 40.7086 131.621 39.9536 131.51C39.1985 131.398 38.4954 131.07 37.8443 130.523C37.1868 129.972 36.7376 129.334 36.4968 128.609C36.256 127.885 36.2201 127.137 36.3892 126.365C36.5519 125.588 36.9278 124.848 37.5171 124.146ZM38.5033 124.973C38.0534 125.51 37.7586 126.062 37.6191 126.63C37.4731 127.193 37.4846 127.73 37.6536 128.242C37.8172 128.76 38.1352 129.217 38.6076 129.614C39.0736 130.005 39.5759 130.236 40.1145 130.307C40.6477 130.384 41.182 130.305 41.7173 130.069C42.2463 129.828 42.7358 129.439 43.1857 128.902C43.6357 128.366 43.9336 127.817 44.0796 127.254C44.2191 126.686 44.2071 126.143 44.0435 125.624C43.8799 125.106 43.565 124.652 43.099 124.261C42.6267 123.865 42.1212 123.631 41.5826 123.56C41.0387 123.495 40.5022 123.583 39.9732 123.825C39.4379 124.061 38.9479 124.444 38.5033 124.973Z" fill="#D9D9D9"/>
<path d="M30.2546 122.789L37.1776 116.98L37.965 117.918L31.042 123.727L30.2546 122.789ZM37.8284 117.755L36.9571 118.486L33.7512 114.666L34.6226 113.935L37.8284 117.755Z" fill="#D9D9D9"/>
<path d="M23.5672 113.445L31.3938 108.927L32.0063 109.987L24.1797 114.506L23.5672 113.445ZM31.9 109.803L30.915 110.372L28.4212 106.053L29.4063 105.484L31.9 109.803Z" fill="#D9D9D9"/>
<path d="M24.3276 89.9366L24.8464 92.8787L15.9463 94.448L15.4362 91.5552C15.2799 90.6688 15.3319 89.86 15.5922 89.1287C15.8429 88.3907 16.2721 87.7777 16.8799 87.2897C17.4781 86.795 18.2203 86.4695 19.1067 86.3132C19.9848 86.1584 20.7928 86.2063 21.5309 86.4569C22.2608 86.709 22.873 87.1341 23.3678 87.7323C23.8528 88.3237 24.1728 89.0585 24.3276 89.9366ZM16.2998 93.1418L24.0797 91.77L23.6133 92.4361L23.2226 90.2203C23.1054 89.5556 22.8694 89.0091 22.5147 88.5808C22.1585 88.1444 21.711 87.8383 21.1723 87.6625C20.624 87.4799 20.0092 87.4487 19.3281 87.5688C18.6387 87.6904 18.0676 87.9307 17.6147 88.2898C17.1604 88.6407 16.8413 89.0862 16.6573 89.6263C16.4719 90.1583 16.4392 90.7648 16.5593 91.446L16.9413 93.6125L16.2998 93.1418Z" fill="#D9D9D9"/>
<path d="M18.5819 75.5288C19.4803 75.5288 20.2767 75.7266 20.9709 76.1221C21.657 76.5089 22.196 77.0495 22.5881 77.7439C22.9719 78.4296 23.1639 79.2251 23.1639 80.1305C23.1639 81.0183 22.9719 81.8094 22.5881 82.5039C22.196 83.1895 21.657 83.7257 20.9709 84.1125C20.2848 84.4992 19.4885 84.6926 18.5819 84.6926C17.6835 84.6926 16.8913 84.4992 16.2052 84.1125C15.5191 83.7169 14.9801 83.1763 14.5881 82.4907C14.196 81.805 14 81.0139 14 80.1173C14 79.2119 14.196 78.4164 14.5881 77.7307C14.9801 77.0451 15.5191 76.5089 16.2052 76.1221C16.8913 75.7266 17.6835 75.5288 18.5819 75.5288ZM18.5819 76.8869C17.8959 76.8869 17.2956 77.0231 16.781 77.2956C16.2665 77.5593 15.8703 77.9329 15.5926 78.4164C15.3068 78.8998 15.1639 79.4668 15.1639 80.1173C15.1639 80.759 15.3068 81.3216 15.5926 81.805C15.8703 82.2885 16.2665 82.6665 16.781 82.939C17.2956 83.2027 17.8959 83.3345 18.5819 83.3345C19.268 83.3345 19.8683 83.2027 20.3828 82.939C20.8974 82.6665 21.2976 82.2885 21.5835 81.805C21.8693 81.3216 22.0122 80.759 22.0122 80.1173C22.0122 79.4668 21.8693 78.8998 21.5835 78.4164C21.2894 77.9329 20.8851 77.5593 20.3706 77.2956C19.856 77.0231 19.2598 76.8869 18.5819 76.8869Z" fill="#D9D9D9"/>
<path d="M23.7623 73.0721L14.3955 74.1494L14.6169 72.8938L20.3444 72.2283C20.5858 72.2031 20.8387 72.1843 21.1033 72.1717C21.3678 72.1591 21.6741 72.1497 22.0221 72.1433C21.6741 72.0058 21.3868 71.8832 21.1604 71.7756C20.9354 71.6598 20.7097 71.5481 20.4833 71.4404L15.3397 68.7946L15.5698 67.4897L21.306 66.775C21.557 66.7431 21.8155 66.7167 22.0815 66.6959C22.3475 66.6751 22.6504 66.6609 22.9902 66.6531C22.6272 66.5045 22.3276 66.3797 22.0916 66.2789C21.8569 66.1698 21.6462 66.0692 21.4594 65.977L16.2948 63.3782L16.5118 62.1472L24.9387 66.4001L24.7347 67.5572L17.3135 68.4699L23.9706 71.8903L23.7623 73.0721Z" fill="#D9D9D9"/>
<path d="M26.1809 62.3319L25.7619 63.4831L17.2695 60.3921L17.6885 59.241L26.4334 57.1429L26.3179 57.4601L19.2703 54.895L19.6893 53.7438L28.1817 56.8348L27.7627 57.9859L19.0178 60.084L19.1333 59.7668L26.1809 62.3319Z" fill="#D9D9D9"/>
<path d="M29.7049 41.4632C29.3091 41.1311 29.0442 40.7402 28.9102 40.2905C28.7762 39.8409 28.7762 39.3677 28.9102 38.8709C29.0496 38.3678 29.3174 37.88 29.7138 37.4077C30.0834 36.9672 30.4846 36.6511 30.9174 36.4595C31.3491 36.2561 31.7863 36.1823 32.2289 36.2383C32.6768 36.2878 33.1126 36.4685 33.5362 36.7805L32.7408 37.7284C32.3746 37.4647 31.9994 37.3674 31.615 37.4365C31.2307 37.5056 30.8752 37.7349 30.5484 38.1243C30.1842 38.5584 29.9944 38.992 29.979 39.4251C29.9573 39.8529 30.1188 40.2114 30.4635 40.5007C30.7444 40.7364 31.038 40.8467 31.3443 40.8318C31.6441 40.8114 31.969 40.6706 32.3188 40.4093L33.543 39.4948C34.1474 39.0338 34.7238 38.7941 35.2723 38.7757C35.8198 38.7455 36.3361 38.934 36.8212 39.3411C37.2362 39.6893 37.5112 40.0941 37.6462 40.5555C37.7865 41.0105 37.7844 41.4927 37.6397 42.0022C37.5003 42.5054 37.2244 43.0027 36.812 43.4942C36.4209 43.9603 35.9988 44.3077 35.5457 44.5366C35.0915 44.7538 34.635 44.844 34.1764 44.8073C33.7167 44.7588 33.2814 44.5839 32.8706 44.2827L33.674 43.3252C34.0114 43.5973 34.3888 43.6855 34.8063 43.5899C35.2174 43.4888 35.6051 43.2213 35.9693 42.7872C36.355 42.3276 36.5582 41.878 36.5789 41.4385C36.6049 40.9926 36.4488 40.6277 36.1104 40.3438C35.836 40.1135 35.5482 40.0026 35.2473 40.0112C34.9464 40.0197 34.6184 40.1579 34.2633 40.4255L33.0486 41.3481C32.4495 41.8027 31.8672 42.0429 31.3016 42.0688C30.735 42.0828 30.2028 41.881 29.7049 41.4632Z" fill="#D9D9D9"/>
<path d="M44.1982 36.1388C43.5407 36.6905 42.843 37.0258 42.105 37.1446C41.3617 37.257 40.6306 37.1635 39.9115 36.864C39.187 36.5581 38.5248 36.0476 37.9249 35.3327C37.325 34.6177 36.9405 33.8743 36.7714 33.1024C36.6024 32.3305 36.6409 31.5856 36.8871 30.8677C37.1396 30.1445 37.5947 29.5071 38.2522 28.9554C38.7756 28.5161 39.331 28.2187 39.9184 28.0631C40.5004 27.9011 41.0792 27.8777 41.6547 27.9932C42.2302 28.1086 42.7576 28.3677 43.2369 28.7704L42.2315 29.6141C41.7235 29.268 41.1805 29.1199 40.6024 29.1699C40.0242 29.2198 39.483 29.4564 38.9787 29.8796C38.5127 30.2706 38.1979 30.7251 38.0343 31.2432C37.8717 31.7495 37.8634 32.284 38.0093 32.8469C38.1499 33.4034 38.4478 33.9529 38.9032 34.4955C39.3531 35.0317 39.8426 35.4206 40.3715 35.6621C40.9005 35.9035 41.4343 35.9887 41.9728 35.9175C42.5061 35.8399 43.0025 35.6083 43.4621 35.2227C43.9728 34.7941 44.3088 34.3001 44.4702 33.7404C44.6325 33.169 44.5981 32.6159 44.3669 32.0811L45.3627 31.2455C45.6527 31.7855 45.7954 32.351 45.791 32.9421C45.793 33.5279 45.6573 34.0986 45.3839 34.6544C45.1169 35.2048 44.7217 35.6996 44.1982 36.1388Z" fill="#D9D9D9"/>
<path d="M50.3012 31.5547L49.2404 32.1672L44.7217 24.3406L47.677 22.6343C48.5141 22.151 49.2881 21.9832 49.9988 22.131C50.7126 22.2673 51.282 22.7036 51.707 23.4397C52.0195 23.9809 52.1506 24.5163 52.1002 25.0457C52.0571 25.571 51.8396 26.0526 51.4477 26.4905L54.9452 28.8735L53.7653 29.5547L50.5164 27.3025L48.5138 28.4587L50.3012 31.5547ZM46.3325 24.6807L47.97 27.5169L49.8753 26.4169C50.366 26.1336 50.672 25.7885 50.7931 25.3818C50.9216 24.9709 50.8566 24.5417 50.5983 24.0942C50.3358 23.6396 49.995 23.3744 49.5761 23.2988C49.1602 23.2117 48.7105 23.3078 48.2269 23.587L46.3325 24.6807Z" fill="#D9D9D9"/>
<path d="M63.3903 20.7208C63.7038 21.5822 63.8055 22.4098 63.6954 23.2037C63.5903 23.9869 63.2968 24.679 62.815 25.28C62.3382 25.8703 61.6965 26.3123 60.8899 26.6059C60.099 26.8937 59.3273 26.9662 58.5747 26.8233C57.8271 26.6698 57.1613 26.3268 56.5773 25.7944C55.9934 25.2621 55.5432 24.5613 55.2269 23.6921C54.9133 22.8307 54.8092 22.0084 54.9143 21.2252C55.0273 20.4392 55.3207 19.7471 55.7947 19.1489C56.2687 18.5507 56.9051 18.1063 57.7038 17.8156C58.5104 17.522 59.2874 17.452 60.035 17.6056C60.7826 17.7591 61.4484 18.1021 62.0324 18.6345C62.6242 19.164 63.0768 19.8594 63.3903 20.7208ZM62.1805 21.1612C61.9411 20.5034 61.6102 19.972 61.1879 19.567C60.7734 19.1592 60.3024 18.9005 59.7748 18.7911C59.2444 18.6737 58.6894 18.7205 58.1099 18.9314C57.5383 19.1395 57.087 19.459 56.7561 19.8898C56.4223 20.3128 56.2238 20.8151 56.1606 21.3968C56.1053 21.9757 56.1973 22.594 56.4367 23.2517C56.6761 23.9095 57.003 24.4423 57.4175 24.8501C57.8398 25.2551 58.3162 25.5163 58.8467 25.6336C59.3771 25.7509 59.9281 25.7055 60.4998 25.4975C61.0792 25.2866 61.5344 24.9657 61.8654 24.5349C62.1935 24.0962 62.3852 23.5874 62.4405 23.0086C62.5037 22.4269 62.4171 21.8111 62.1805 21.1612Z" fill="#D9D9D9"/>
<path d="M68.1966 15.1103L69.7659 24.0104L68.5596 24.2231L66.9902 15.323L68.1966 15.1103ZM68.7688 24.1862L68.5713 23.066L73.483 22.1999L73.6805 23.3201L68.7688 24.1862Z" fill="#D9D9D9"/>
<path d="M79.3811 14V23.1639H78.1475V14H79.3811ZM78.3615 23.1639V22.0105H83.3839V23.1639H78.3615Z" fill="#D9D9D9"/>
<path d="M99.6109 26.4031L96.8036 25.3813L99.8945 16.8889L102.655 17.8936C103.501 18.2014 104.175 18.6508 104.678 19.2419C105.192 19.828 105.508 20.5062 105.627 21.2766C105.756 22.042 105.667 22.8476 105.359 23.6933C105.054 24.5311 104.609 25.207 104.023 25.7209C103.439 26.2269 102.765 26.5446 102 26.6739C101.245 26.7983 100.449 26.708 99.6109 26.4031ZM100.849 17.8482L98.1471 25.2717L97.8034 24.5347L99.9177 25.3042C100.552 25.5351 101.143 25.604 101.691 25.5109C102.248 25.4206 102.736 25.1862 103.158 24.8075C103.59 24.4239 103.925 23.9071 104.161 23.2572C104.401 22.5994 104.478 21.9847 104.393 21.4129C104.317 20.8441 104.09 20.3449 103.715 19.9155C103.347 19.4889 102.838 19.1574 102.188 18.9208L100.121 18.1684L100.849 17.8482Z" fill="#D9D9D9"/>
<path d="M114.769 28.8991C114.311 29.693 113.742 30.3029 113.063 30.7288C112.396 31.1517 111.677 31.3718 110.907 31.389C110.148 31.4032 109.397 31.1957 108.654 30.7665C107.925 30.3457 107.373 29.8011 106.999 29.1328C106.636 28.4614 106.471 27.7309 106.503 26.9414C106.536 26.1518 106.783 25.3565 107.246 24.5555C107.704 23.7616 108.267 23.1532 108.934 22.7304C109.609 22.3117 110.328 22.0916 111.091 22.0702C111.854 22.0488 112.603 22.2506 113.339 22.6756C114.083 23.1047 114.636 23.655 114.999 24.3264C115.362 24.9978 115.527 25.7283 115.494 26.5178C115.469 27.3115 115.227 28.1053 114.769 28.8991ZM113.654 28.2554C114.004 27.6492 114.198 27.0542 114.237 26.4704C114.283 25.8907 114.179 25.3636 113.923 24.8891C113.672 24.4073 113.28 24.0123 112.746 23.704C112.219 23.3998 111.684 23.2594 111.141 23.2828C110.603 23.299 110.09 23.4699 109.604 23.7954C109.125 24.1251 108.711 24.593 108.361 25.1992C108.011 25.8054 107.813 26.3983 107.767 26.978C107.728 27.5618 107.834 28.0946 108.085 28.5764C108.336 29.0581 108.725 29.4511 109.252 29.7552C109.786 30.0636 110.324 30.206 110.867 30.1826C111.414 30.1519 111.927 29.9718 112.406 29.6421C112.892 29.3166 113.308 28.8544 113.654 28.2554Z" fill="#D9D9D9"/>
<path d="M114.499 34.3461L118.249 25.6956L119.226 26.5151L116.938 31.808C116.839 32.0296 116.729 32.2581 116.608 32.4935C116.487 32.7289 116.342 32.9989 116.173 33.3035C116.466 33.0708 116.716 32.8833 116.922 32.741C117.135 32.6041 117.345 32.4645 117.551 32.3223L122.414 29.1907L123.429 30.0424L121.18 35.3674C121.082 35.6008 120.976 35.8378 120.861 36.0785C120.746 36.3193 120.607 36.5888 120.444 36.8869C120.754 36.6469 121.012 36.4498 121.217 36.2958C121.429 36.1471 121.621 36.015 121.795 35.8993L126.628 32.726L127.585 33.5294L119.689 38.7009L118.788 37.9456L121.709 31.0624L115.418 35.1174L114.499 34.3461Z" fill="#D9D9D9"/>
<path d="M122.591 41.8105L121.804 40.8721L128.727 35.063L129.514 36.0014L126.959 44.6237L126.742 44.3651L132.487 39.5443L133.274 40.4827L126.351 46.2918L125.564 45.3534L128.119 36.7311L128.336 36.9897L122.591 41.8105Z" fill="#D9D9D9"/>
<path d="M138.901 55.2967C139.387 55.12 139.858 55.0861 140.314 55.1949C140.771 55.3037 141.18 55.5403 141.544 55.9047C141.91 56.2769 142.198 56.7528 142.409 57.3323C142.606 57.8726 142.679 58.378 142.628 58.8487C142.589 59.3243 142.434 59.7397 142.164 60.0951C141.897 60.4582 141.523 60.7453 141.041 60.9562L140.618 59.7933C141.029 59.6081 141.301 59.3318 141.433 58.9643C141.566 58.5969 141.545 58.1744 141.371 57.6967C141.177 57.1642 140.897 56.7831 140.529 56.5532C140.17 56.3205 139.778 56.2811 139.356 56.435C139.011 56.5604 138.769 56.7595 138.628 57.0322C138.496 57.3021 138.456 57.6538 138.507 58.0874L138.687 59.6048C138.784 60.3588 138.703 60.9778 138.445 61.4621C138.197 61.9512 137.776 62.3041 137.181 62.5207C136.672 62.706 136.184 62.7417 135.717 62.628C135.253 62.522 134.836 62.279 134.467 61.8989C134.101 61.5267 133.808 61.0391 133.589 60.4361C133.381 59.8645 133.291 59.3252 133.319 58.8183C133.358 58.3164 133.508 57.876 133.77 57.4971C134.041 57.1233 134.41 56.8338 134.877 56.6286L135.304 57.8032C134.9 57.9592 134.635 58.2419 134.509 58.6513C134.391 59.0579 134.429 59.5274 134.622 60.0599C134.828 60.6237 135.115 61.0245 135.486 61.2622C135.859 61.5077 136.253 61.5549 136.668 61.4038C137.005 61.2813 137.245 61.0876 137.388 60.8227C137.531 60.5578 137.575 60.2046 137.521 59.7632L137.329 58.25C137.235 57.5039 137.318 56.8795 137.578 56.3768C137.85 55.8791 138.291 55.5191 138.901 55.2967Z" fill="#D9D9D9"/>
<path d="M136.265 70.511C136.116 69.6657 136.175 68.8938 136.441 68.1954C136.715 67.4954 137.162 66.909 137.781 66.436C138.408 65.9616 139.181 65.6433 140.1 65.4812C141.019 65.3192 141.855 65.3579 142.608 65.5974C143.361 65.837 143.987 66.2428 144.486 66.8149C144.986 67.3952 145.31 68.108 145.459 68.9533C145.578 69.6262 145.558 70.256 145.399 70.8425C145.248 71.4275 144.979 71.9404 144.592 72.381C144.204 72.8217 143.716 73.1489 143.127 73.3627L142.899 72.0702C143.453 71.8033 143.853 71.407 144.099 70.8814C144.344 70.3557 144.41 69.7687 144.296 69.1204C144.19 68.5213 143.954 68.0214 143.587 67.6207C143.23 67.2267 142.771 66.9522 142.211 66.7972C141.659 66.6407 141.034 66.624 140.336 66.747C139.647 66.8685 139.065 67.098 138.592 67.4354C138.118 67.7727 137.777 68.1924 137.57 68.6944C137.37 69.195 137.323 69.7407 137.427 70.3316C137.543 70.9881 137.803 71.5261 138.206 71.9457C138.62 72.372 139.116 72.6188 139.695 72.6859L139.921 73.9662C139.308 73.9473 138.747 73.7881 138.237 73.4888C137.729 73.1976 137.303 72.7947 136.958 72.2801C136.615 71.7736 136.384 71.1839 136.265 70.511Z" fill="#D9D9D9"/>
<path d="M137.058 78.0551V76.8379H146.222V80.2287C146.222 81.1892 145.977 81.9386 145.487 82.4768C145.005 83.0233 144.333 83.2966 143.471 83.2966C142.838 83.2966 142.301 83.1434 141.862 82.837C141.422 82.5389 141.11 82.1125 140.924 81.5577L137.058 83.3835V82.0297L140.683 80.3529V78.0551H137.058ZM145.106 78.0551H141.786V80.2411C141.786 80.8042 141.933 81.2389 142.229 81.5453C142.525 81.8599 142.935 82.0172 143.459 82.0172C143.991 82.0172 144.397 81.8558 144.675 81.5328C144.963 81.2182 145.106 80.7835 145.106 80.2287V78.0551Z" fill="#D9D9D9"/>
<path d="M140.022 94.84C139.12 94.6809 138.352 94.3551 137.72 93.8628C137.094 93.3802 136.641 92.78 136.362 92.0622C136.089 91.3541 136.027 90.5774 136.176 89.7321C136.322 88.9032 136.645 88.1986 137.145 87.6183C137.652 87.0477 138.282 86.6426 139.035 86.403C139.788 86.1635 140.62 86.124 141.531 86.2846C142.434 86.4438 143.198 86.7647 143.823 87.2474C144.448 87.7382 144.9 88.3384 145.181 89.048C145.462 89.7576 145.529 90.5309 145.382 91.368C145.233 92.2133 144.905 92.9212 144.398 93.4919C143.891 94.0626 143.261 94.4677 142.508 94.7072C141.754 94.9549 140.925 94.9992 140.022 94.84ZM140.246 93.5721C140.935 93.6937 141.561 93.6728 142.123 93.5096C142.683 93.3546 143.143 93.076 143.501 92.6738C143.868 92.2731 144.105 91.7691 144.212 91.1618C144.318 90.5627 144.267 90.0121 144.059 89.5101C143.86 89.0096 143.524 88.5865 143.052 88.2409C142.578 87.9036 141.997 87.6741 141.307 87.5526C140.618 87.431 139.993 87.4478 139.433 87.6028C138.871 87.766 138.406 88.048 138.04 88.4487C137.673 88.8494 137.437 89.3493 137.331 89.9484C137.224 90.5557 137.274 91.1104 137.482 91.6124C137.698 92.1158 138.042 92.5362 138.516 92.8736C138.988 93.2192 139.565 93.452 140.246 93.5721Z" fill="#D9D9D9"/>
<path d="M142.478 101.808L133.986 98.7174L134.405 97.5663L142.897 100.657L142.478 101.808ZM134.332 97.7659L135.401 98.155L133.696 102.842L132.627 102.453L134.332 97.7659Z" fill="#D9D9D9"/>
<path d="M137.73 112.271L129.904 107.752L130.516 106.691L138.343 111.21L137.73 112.271ZM130.41 106.875L131.395 107.444L128.901 111.763L127.916 111.195L130.41 106.875Z" fill="#D9D9D9"/>
<path d="M116.991 123.367L119.28 121.447L125.089 128.37L122.839 130.258C122.149 130.837 121.423 131.196 120.659 131.336C119.895 131.488 119.149 131.423 118.423 131.14C117.695 130.87 117.042 130.39 116.464 129.7C115.891 129.017 115.528 128.293 115.376 127.529C115.229 126.771 115.292 126.028 115.562 125.301C115.832 124.585 116.308 123.94 116.991 123.367ZM123.781 128.717L118.703 122.665L119.513 122.736L117.789 124.182C117.272 124.616 116.917 125.094 116.724 125.615C116.524 126.142 116.482 126.682 116.599 127.237C116.716 127.803 116.996 128.351 117.44 128.881C117.89 129.417 118.384 129.791 118.921 130.004C119.453 130.222 119.998 130.276 120.558 130.165C121.111 130.06 121.653 129.785 122.183 129.34L123.868 127.926L123.781 128.717Z" fill="#D9D9D9"/>
<path d="M107.249 135.247C106.791 134.453 106.547 133.656 106.518 132.855C106.485 132.065 106.654 131.333 107.024 130.657C107.391 129.993 107.947 129.446 108.69 129.017C109.419 128.596 110.166 128.391 110.932 128.401C111.695 128.422 112.41 128.644 113.078 129.067C113.745 129.49 114.31 130.102 114.773 130.903C115.231 131.697 115.477 132.489 115.509 133.278C115.534 134.072 115.365 134.805 115.003 135.476C114.64 136.147 114.09 136.696 113.354 137.121C112.611 137.55 111.858 137.754 111.095 137.732C110.332 137.711 109.617 137.489 108.949 137.066C108.274 136.647 107.708 136.041 107.249 135.247ZM108.364 134.603C108.714 135.209 109.132 135.675 109.619 136.001C110.098 136.33 110.606 136.503 111.145 136.52C111.688 136.543 112.226 136.401 112.76 136.092C113.287 135.788 113.676 135.395 113.927 134.913C114.182 134.439 114.291 133.91 114.252 133.326C114.206 132.746 114.008 132.153 113.658 131.547C113.308 130.941 112.893 130.473 112.414 130.143C111.928 129.818 111.414 129.643 110.871 129.62C110.328 129.596 109.793 129.737 109.267 130.041C108.733 130.349 108.34 130.744 108.089 131.226C107.842 131.715 107.741 132.249 107.787 132.829C107.826 133.413 108.019 134.004 108.364 134.603Z" fill="#D9D9D9"/>
<path d="M102.668 132.289L108.284 139.862L107.086 140.298L103.646 135.671C103.504 135.474 103.361 135.265 103.218 135.042C103.074 134.819 102.913 134.559 102.734 134.26C102.788 134.63 102.826 134.94 102.846 135.19C102.858 135.443 102.874 135.694 102.894 135.944L103.175 141.722L101.93 142.175L98.4425 137.565C98.2894 137.363 98.1373 137.153 97.9863 136.933C97.8353 136.713 97.6715 136.457 97.4948 136.167C97.5476 136.556 97.5894 136.877 97.6201 137.132C97.6429 137.39 97.6611 137.623 97.6747 137.831L98.0064 143.603L96.8318 144.03L96.3015 134.606L97.4056 134.204L101.907 140.175L101.54 132.699L102.668 132.289Z" fill="#D9D9D9"/>
<path d="M92.1579 135.565L93.3643 135.352L94.9336 144.252L93.7272 144.465L87.5378 137.94L87.8702 137.882L89.1725 145.268L87.9662 145.48L86.3968 136.58L87.6032 136.368L93.7926 142.892L93.4602 142.951L92.1579 135.565Z" fill="#D9D9D9"/>
<path d="M82 67C82 65.8954 81.1046 65 80 65C78.8954 65 78 65.8954 78 67L82 67ZM78.5858 94.4142C79.3668 95.1953 80.6332 95.1953 81.4142 94.4142L94.1421 81.6863C94.9232 80.9052 94.9232 79.6389 94.1421 78.8579C93.3611 78.0768 92.0948 78.0768 91.3137 78.8579L80 90.1716L68.6863 78.8579C67.9052 78.0768 66.6389 78.0768 65.8579 78.8579C65.0768 79.6389 65.0768 80.9052 65.8579 81.6863L78.5858 94.4142ZM78 67L78 93L82 93L82 67L78 67Z" fill="#1C2F34"/>
</svg>
