<svg width="40" height="40" viewBox="0 0 40 40" fill="none" xmlns="http://www.w3.org/2000/svg">
<path d="M33.3332 11.5833V28.4166C33.0665 28.3666 32.7832 28.3333 32.4998 28.3333C30.1998 28.3333 28.3332 30.2 28.3332 32.5C28.3332 32.7833 28.3665 33.0666 28.4165 33.3333H11.5832C11.6332 33.0666 11.6665 32.7833 11.6665 32.5C11.6665 30.2 9.79984 28.3333 7.49984 28.3333C7.2165 28.3333 6.93317 28.3666 6.6665 28.4166V11.5833C6.93317 11.6333 7.2165 11.6666 7.49984 11.6666C9.79984 11.6666 11.6665 9.79996 11.6665 7.49996C11.6665 7.21663 11.6332 6.93329 11.5832 6.66663H28.4165C28.3665 6.93329 28.3332 7.21663 28.3332 7.49996C28.3332 9.79996 30.1998 11.6666 32.4998 11.6666C32.7832 11.6666 33.0665 11.6333 33.3332 11.5833Z" stroke="#F0EDE4" stroke-width="2.5" stroke-linecap="round" stroke-linejoin="round"/>
<path d="M11.6668 7.50004C11.6668 9.80004 9.80016 11.6667 7.50016 11.6667C7.21683 11.6667 6.9335 11.6334 6.66683 11.5834C4.76683 11.2 3.3335 9.51671 3.3335 7.50004C3.3335 5.20004 5.20016 3.33337 7.50016 3.33337C9.51683 3.33337 11.2002 4.76671 11.5835 6.66671C11.6335 6.93337 11.6668 7.21671 11.6668 7.50004Z" stroke="#F0EDE4" stroke-width="2.5" stroke-linecap="round" stroke-linejoin="round"/>
<path d="M36.6668 7.50004C36.6668 9.51671 35.2335 11.2 33.3335 11.5834C33.0668 11.6334 32.7835 11.6667 32.5002 11.6667C30.2002 11.6667 28.3335 9.80004 28.3335 7.50004C28.3335 7.21671 28.3668 6.93337 28.4168 6.66671C28.8002 4.76671 30.4835 3.33337 32.5002 3.33337C34.8002 3.33337 36.6668 5.20004 36.6668 7.50004Z" stroke="#F0EDE4" stroke-width="2.5" stroke-linecap="round" stroke-linejoin="round"/>
<path d="M11.6668 32.5C11.6668 32.7834 11.6335 33.0667 11.5835 33.3334C11.2002 35.2334 9.51683 36.6667 7.50016 36.6667C5.20016 36.6667 3.3335 34.8 3.3335 32.5C3.3335 30.4834 4.76683 28.8 6.66683 28.4167C6.9335 28.3667 7.21683 28.3334 7.50016 28.3334C9.80016 28.3334 11.6668 30.2 11.6668 32.5Z" stroke="#F0EDE4" stroke-width="2.5" stroke-linecap="round" stroke-linejoin="round"/>
<path d="M36.6668 32.5C36.6668 34.8 34.8002 36.6667 32.5002 36.6667C30.4835 36.6667 28.8002 35.2334 28.4168 33.3334C28.3668 33.0667 28.3335 32.7834 28.3335 32.5C28.3335 30.2 30.2002 28.3334 32.5002 28.3334C32.7835 28.3334 33.0668 28.3667 33.3335 28.4167C35.2335 28.8 36.6668 30.4834 36.6668 32.5Z" stroke="#F0EDE4" stroke-width="2.5" stroke-linecap="round" stroke-linejoin="round"/>
</svg>
