<svg width="40" height="40" viewBox="0 0 40 40" fill="none" xmlns="http://www.w3.org/2000/svg">
<path d="M3.33301 36.6666H36.6663" stroke="#F0EDE4" stroke-width="2.5" stroke-miterlimit="10" stroke-linecap="round" stroke-linejoin="round"/>
<path d="M25.0167 36.6497L5.01668 36.6831L5 11.7831C5 10.6664 5.56669 9.63304 6.48336 9.01638L13.15 4.56641C14.2667 3.81641 15.7333 3.81641 16.85 4.56641L23.5166 9.01638C24.45 9.63304 25 10.6664 25 11.7831L25.0167 36.6497Z" stroke="#F0EDE4" stroke-width="2.5" stroke-miterlimit="10" stroke-linecap="round" stroke-linejoin="round"/>
<path d="M33.2998 36.6833V30" stroke="#F0EDE4" stroke-width="2.5" stroke-miterlimit="10" stroke-linecap="round" stroke-linejoin="round"/>
<path d="M33.3333 20C31.5 20 30 21.5 30 23.3333V26.6667C30 28.5 31.5 30 33.3333 30C35.1667 30 36.6667 28.5 36.6667 26.6667V23.3333C36.6667 21.5 35.1667 20 33.3333 20Z" stroke="#F0EDE4" stroke-width="2.5" stroke-miterlimit="10" stroke-linecap="round" stroke-linejoin="round"/>
<path d="M5 23.3334H25" stroke="#F0EDE4" stroke-width="2.5" stroke-miterlimit="10" stroke-linecap="round" stroke-linejoin="round"/>
<path d="M15 36.6666V30.4166" stroke="#F0EDE4" stroke-width="2.5" stroke-miterlimit="10" stroke-linecap="round" stroke-linejoin="round"/>
<path d="M15 17.5C16.3807 17.5 17.5 16.3807 17.5 15C17.5 13.6193 16.3807 12.5 15 12.5C13.6193 12.5 12.5 13.6193 12.5 15C12.5 16.3807 13.6193 17.5 15 17.5Z" stroke="#F0EDE4" stroke-width="2.5" stroke-miterlimit="10" stroke-linecap="round" stroke-linejoin="round"/>
</svg>
