<svg width="28" height="28" viewBox="0 0 28 28" fill="none" xmlns="http://www.w3.org/2000/svg">
<path d="M21.1367 9.4909C20.6653 9.69012 20.1707 9.82945 19.6646 9.90563C19.9 9.86827 20.2363 9.44233 20.3745 9.27046C20.5881 9.00873 20.7515 8.70979 20.8565 8.38868C20.8565 8.36253 20.8752 8.33264 20.8565 8.31396C20.8445 8.30742 20.831 8.30399 20.8173 8.30399C20.8036 8.30399 20.7901 8.30742 20.778 8.31396C20.2322 8.60499 19.6524 8.82714 19.0519 8.97529C19.0308 8.98209 19.0083 8.98253 18.987 8.97655C18.9657 8.97056 18.9467 8.95842 18.9323 8.94166C18.885 8.88696 18.8338 8.83576 18.7791 8.78847C18.5305 8.57258 18.2476 8.39959 17.9422 8.27659C17.5364 8.11048 17.0981 8.03892 16.6606 8.06736C16.2355 8.09825 15.8211 8.21519 15.4426 8.4111C15.0646 8.61045 14.7304 8.88361 14.4599 9.21441C14.1808 9.55919 13.9806 9.96091 13.8733 10.3914C13.7812 10.7988 13.771 11.2204 13.8434 11.6318C13.8434 11.6991 13.8434 11.7103 13.7836 11.6991C11.4111 11.3479 9.44204 10.496 7.84663 8.67638C7.77564 8.59792 7.73828 8.59792 7.68223 8.67638C6.98354 9.72255 7.3086 11.4076 8.19411 12.2334C8.31367 12.3417 8.43324 12.4538 8.56774 12.5547C8.168 12.5239 7.77823 12.4148 7.42069 12.2334C7.35344 12.1885 7.31981 12.2334 7.31234 12.2931C7.30768 12.4068 7.31393 12.5207 7.33102 12.6331C7.40073 13.1667 7.61024 13.6723 7.93832 14.0988C8.26639 14.5253 8.70137 14.8575 9.19918 15.0618C9.31933 15.1133 9.44456 15.1522 9.57281 15.1776C9.20354 15.2501 8.82487 15.2614 8.45191 15.2112C8.36971 15.2112 8.33982 15.2374 8.36971 15.3158C8.86664 16.6609 9.9315 17.0644 10.7311 17.2923C10.8394 17.311 10.944 17.311 11.0524 17.3372C11.0524 17.3372 11.0524 17.3372 11.0524 17.3559C10.7871 17.7594 9.86798 18.0583 9.44204 18.2077C8.65732 18.4883 7.82111 18.5953 6.99102 18.5216C6.86024 18.5029 6.83409 18.5029 6.79673 18.5216C6.75936 18.5403 6.79673 18.5776 6.83409 18.6113C7.00223 18.7196 7.17036 18.8168 7.34597 18.9139C7.86559 19.1917 8.41446 19.411 8.98248 19.5678C11.923 20.3785 15.2371 19.7845 17.4452 17.5875C19.1789 15.8651 19.7879 13.4776 19.7879 11.1087C19.7879 11.0153 19.8963 10.9667 19.9635 10.9144C20.4112 10.5745 20.8076 10.1718 21.1405 9.71881C21.1947 9.65233 21.2296 9.57218 21.2413 9.48716C21.2189 9.45353 21.1928 9.46474 21.1367 9.4909Z" fill="white"/>
<path d="M14 0C11.2311 0 8.52431 0.821086 6.22202 2.35943C3.91974 3.89776 2.12532 6.08427 1.06569 8.64243C0.0060673 11.2006 -0.271181 14.0155 0.269012 16.7313C0.809205 19.447 2.14258 21.9416 4.10051 23.8995C6.05845 25.8574 8.55301 27.1908 11.2687 27.731C13.9845 28.2712 16.7994 27.9939 19.3576 26.9343C21.9157 25.8747 24.1022 24.0803 25.6406 21.778C27.1789 19.4757 28 16.7689 28 14C27.996 10.2882 26.5198 6.72953 23.8951 4.10487C21.2705 1.48022 17.7118 0.00395611 14 0ZM14 26.2028C11.5856 26.2028 9.22545 25.4868 7.21801 24.1454C5.21057 22.8039 3.64603 20.8973 2.72226 18.6666C1.79848 16.436 1.55697 13.9814 2.02826 11.6135C2.49956 9.24556 3.66249 7.07057 5.36998 5.3636C7.07748 3.65663 9.25283 2.49436 11.6209 2.02379C13.989 1.55322 16.4435 1.79548 18.6738 2.71994C20.9042 3.6444 22.8104 5.20953 24.1512 7.21738C25.492 9.22523 26.2073 11.5856 26.2066 14C26.2026 17.2358 24.9152 20.3379 22.6268 22.6256C20.3383 24.9134 17.2358 26.1999 14 26.2028Z" fill="white"/>
</svg>
