<svg width="28" height="28" viewBox="0 0 28 28" fill="none" xmlns="http://www.w3.org/2000/svg">
<path d="M16.7126 14.8967C16.5713 14.7833 16.406 14.7035 16.2293 14.6634C16.0526 14.6232 15.869 14.6238 15.6926 14.665C15.4273 14.7734 15.2592 15.1881 15.0873 15.4123C15.0512 15.4619 14.9982 15.4965 14.9383 15.5096C14.8784 15.5227 14.8157 15.5133 14.7622 15.4833C13.7946 15.1039 12.9836 14.4087 12.4607 13.5105C12.4191 13.4551 12.3995 13.3862 12.4057 13.3172C12.4119 13.2482 12.4435 13.184 12.4943 13.1368C12.6919 12.9515 12.8363 12.7167 12.9128 12.4568C12.9271 12.1768 12.8623 11.8985 12.726 11.6535C12.6206 11.3025 12.4155 10.9897 12.1356 10.7531C11.9911 10.6874 11.8307 10.6649 11.6736 10.6881C11.5165 10.7113 11.3695 10.7792 11.2501 10.8838C11.0476 11.0594 10.8868 11.278 10.7795 11.5236C10.6722 11.7693 10.6211 12.0357 10.6299 12.3036C10.6336 12.4558 10.6523 12.6073 10.6859 12.7557C10.7827 13.1035 10.9286 13.4357 11.1193 13.7421C11.2576 13.9775 11.407 14.2092 11.5677 14.4296C12.098 15.1513 12.7612 15.7651 13.5218 16.238C13.9059 16.4764 14.3158 16.6707 14.7436 16.8171C15.1882 17.0178 15.6786 17.0952 16.1634 17.0413C16.4393 16.9985 16.7006 16.8891 16.9246 16.7224C17.1486 16.5557 17.3285 16.3368 17.4487 16.0848C17.518 15.9315 17.5388 15.7608 17.5084 15.5953C17.4412 15.2591 16.9854 15.0573 16.7126 14.8967Z" fill="white"/>
<path d="M14.0678 6.79957C12.8315 6.79817 11.6163 7.11964 10.5425 7.73216C9.46863 8.34469 8.57334 9.22702 7.94525 10.2918C7.31715 11.3567 6.97802 12.567 6.96141 13.8032C6.9448 15.0393 7.2513 16.2584 7.85056 17.3397L6.81934 21.1881L10.6902 20.1532C11.6412 20.6638 12.6962 20.9508 13.7748 20.9923C14.8535 21.0339 15.9274 20.8289 16.9149 20.393C17.9024 19.9571 18.7775 19.3017 19.4737 18.4767C20.1698 17.6517 20.6686 16.6789 20.9322 15.6321C21.1958 14.5853 21.2172 13.4922 20.9948 12.436C20.7724 11.3797 20.3121 10.388 19.6488 9.5364C18.9855 8.68479 18.1367 7.99565 17.1671 7.5214C16.1974 7.04715 15.1323 6.80028 14.0529 6.79957H14.0678ZM14.0678 19.6712C13.0312 19.6683 12.0143 19.387 11.1236 18.8567L10.8807 18.7109L8.72112 19.2901L9.29652 17.1417L9.14706 16.8951C8.48796 15.8063 8.20822 14.5297 8.35156 13.2651C8.49491 12.0004 9.05327 10.8188 9.93934 9.90515C10.8254 8.99147 11.9893 8.39714 13.249 8.21506C14.5086 8.03299 15.7932 8.27345 16.9017 8.89884C18.0102 9.52423 18.8803 10.4993 19.3759 11.6716C19.8715 12.844 19.9646 14.1475 19.6408 15.3784C19.317 16.6092 18.5945 17.6982 17.5861 18.4749C16.5778 19.2515 15.3406 19.6722 14.0678 19.6712Z" fill="white"/>
<path d="M14 0C11.2311 0 8.52431 0.82108 6.22202 2.35942C3.91973 3.89776 2.12532 6.08427 1.06569 8.64243C0.00606623 11.2006 -0.271181 14.0155 0.269012 16.7313C0.809205 19.447 2.14258 21.9416 4.10051 23.8995C6.05844 25.8574 8.553 27.1908 11.2687 27.731C13.9845 28.2712 16.7994 27.9939 19.3576 26.9343C21.9157 25.8747 24.1022 24.0803 25.6406 21.778C27.1789 19.4757 28 16.7689 28 14C27.996 10.2882 26.5198 6.72952 23.8951 4.10487C21.2705 1.48022 17.7118 0.00395611 14 0ZM14 26.2066C11.5856 26.2073 9.22523 25.492 7.21738 24.1512C5.20953 22.8104 3.6444 20.9042 2.71995 18.6738C1.79549 16.4434 1.55322 13.989 2.02379 11.6209C2.49436 9.25282 3.65663 7.07746 5.3636 5.36997C7.07057 3.66248 9.24557 2.49955 11.6135 2.02825C13.9815 1.55695 16.436 1.79847 18.6667 2.72224C20.8973 3.64602 22.804 5.21057 24.1454 7.218C25.4868 9.22544 26.2028 11.5856 26.2028 14C26.1989 17.2355 24.9121 20.3374 22.6246 22.6257C20.3371 24.9139 17.2355 26.2016 14 26.2066Z" fill="white"/>
</svg>
