<?xml version="1.0" encoding="utf-8"?>
<!-- Generator: Adobe Illustrator 28.0.0, SVG Export Plug-In . SVG Version: 6.00 Build 0)  -->
<svg version="1.1" id="レイヤー_1" xmlns="http://www.w3.org/2000/svg" xmlns:xlink="http://www.w3.org/1999/xlink" x="0px"
	 y="0px" viewBox="0 0 161 57.1" style="enable-background:new 0 0 161 57.1;" xml:space="preserve">
<style type="text/css">
	.st0{fill:#FFFFFF;}
</style>
<g>
	<path class="st0" d="M34,30.1l-6.1-14.2h-1.5h-8.9h-0.2L7.6,42h10.5l2.2-7h5l3.3,7.7h10.6l0.2-0.6h0l0.2-0.5l0,0v0L49,16.2H38.6
		L34,30.1z M17.5,41.2H8.8L17.4,18l4.4,9.5L17.5,41.2z M20.6,34.1l1.8-5.9l2.5,5.9H20.6z M47.7,17l-8.6,23.4l-4.5-9.7L39.2,17H47.7z
		"/>
	<path class="st0" d="M28.6,0C20.9,0,13.8,3,8.4,8.4C3,13.8,0,20.9,0,28.6s3,14.8,8.4,20.2c5.4,5.4,12.6,8.4,20.2,8.4
		s14.8-3,20.2-8.4c5.4-5.4,8.4-12.6,8.4-20.2s-3-14.8-8.4-20.2C43.3,3,36.2,0,28.6,0z M48.1,48.1c-5.2,5.2-12.2,8.1-19.6,8.1
		S14.2,53.4,9,48.1c-5.2-5.2-8.1-12.2-8.1-19.6S3.7,14.2,9,9c5.2-5.2,12.2-8.1,19.6-8.1S42.9,3.7,48.1,9c5.2,5.2,8.1,12.2,8.1,19.6
		S53.4,42.9,48.1,48.1z"/>
	<path class="st0" d="M108,26.8c0-1.1,0-2.1,0-3.2c-0.4,0-0.7,0-1.1,0c-0.1-0.2-0.1-0.4-0.1-0.5c-0.2-0.9-0.6-1.8-1.2-2.5
		c-0.5-0.6-1.1-1-2-0.9c-2.2,0.1-4.5,0-6.7,0c-0.2,0-0.4-0.1-0.6,0.1c0,0.9,0,1.9,0,2.9c2.2,0,4.3,0,6.4,0c0.3,0.3,0.6,0.6,0.7,1
		c-2.8,0-5.5,0-8.3,0c0-1.3,0-2.7,0-4c-1.3,0-2.5,0-3.8,0c0,1.3,0,2.6,0,3.9c-0.2,0.1-0.4,0.1-0.7,0c0-1.3,0-2.6,0-4
		c-1.3,0-2.5,0-3.8,0c0,1.3,0,2.6,0,4c-0.2,0.1-0.4,0.1-0.6,0c0-1.3,0-2.6,0-3.9c-1.3,0-2.5,0-3.8,0c0,1.3,0,2.6,0,4
		c-0.4,0-0.7,0-1.2,0c0-1.3,0-2.7,0-4c-1.3,0-2.5,0-3.8,0c0,1.3,0,2.7,0,4c-0.7,0-1.4,0-2.1,0c-0.9-1.1-1.7-2.2-2.9-3.1
		c-1,0.7-1.7,1.6-1.7,3c0.6,0.4,1.1,0.7,1.4,1.4c0.8,1.7-0.4,3.9-2.3,4.2c-1.3,0.2-2.3,0-3.3-0.7c-0.6-0.4-1-1-1.1-1.6
		c-0.1-0.8,0-1.7,0.3-2.5c0.2-0.4,0.4-0.7,0.6-1c0.8-1.5,0.9-3,0.5-4.6c-0.2-0.9-1-1.6-1.8-1.6c-0.1,0.5,0.1,0.9,0.2,1.3
		c0.2,0.7,0.3,1.5,0.2,2.2C65.1,21.8,64.7,23,64,24c-1.8,2.8,0.3,6.9,2.7,7.7c1.2,0.4,2.4,0.5,3.6,0.4c2-0.1,3.6-1,4.7-2.8
		c0.5-0.8,0.7-1.6,0.7-2.6C86.4,26.8,97.2,26.8,108,26.8z"/>
	<path class="st0" d="M157.6,19.8c0,1.3,0,2.6,0,3.9c-1.2,0-2.3,0-3.4,0c-0.1-0.3-0.2-0.7-0.3-1c-0.3-1-0.8-1.9-1.7-2.6
		c-0.4-0.3-0.7-0.4-1.2-0.4c-2.3,0-4.6,0-6.9,0c-0.2,0-0.4,0-0.6,0c0,0.9,0,1.9,0,2.9c2.2,0,4.3,0,6.4,0c0.3,0.3,0.6,0.6,0.7,1.1
		c-2.7,0-5.3,0-7.9,0c-0.7-2-2.4-2.8-4.4-2.8c-2.1,0-3.8,0.8-4.7,2.8c-1.2,0-2.3,0-3.5,0c-0.9,0-1.9,1-1.9,1.9c0,1.3,0,2.6,0,3.9
		c0,0.9,0,1.8,0,2.8c1.3,0,2.6,0,4,0c0-1.8,0-3.6,0-5.4c0.6,0,1.2,0,1.7,0c0.7,2,2.4,2.8,4.3,2.8c2.1,0,3.8-0.7,4.8-2.9
		c6,0,11.9,0,17.9,0c0-2.4,0-4.8,0-7.1C159.9,19.8,158.8,19.8,157.6,19.8z M138.2,26.4c-0.7,0-1.2-0.6-1.2-1.2
		c0-0.7,0.6-1.2,1.2-1.2c0.6,0,1.2,0.6,1.2,1.2C139.4,25.8,138.8,26.4,138.2,26.4z"/>
	<path class="st0" d="M120,19.6c-1.3,0-2.5,0-3.8,0c0,1.2,0,2.4,0,3.6c-0.7,0-1.4,0-2.2,0c0-3.2,0-6.4,0-9.6c-1.3,0-2.5,0-3.7,0
		c0,4.5,0,9,0,13.4c3.3,0,6.5,0,9.7,0C120,24.5,120,22,120,19.6z"/>
	<path class="st0" d="M122.2,27.1c1.3,0,2.5,0,3.7,0c0-4.5,0-9,0-13.5c-1.2,0-2.5,0-3.7,0C122.2,18.2,122.2,22.7,122.2,27.1z"/>
	<path class="st0" d="M68.9,28.2c1.1,0,2-0.9,2.1-2c0-1.1-0.9-2.1-2-2.1c-1.1,0-2,0.9-2,2C67,27.3,67.8,28.1,68.9,28.2z"/>
	<path class="st0" d="M88.3,39.9c0,2.3,0,4.7,0,7c0.2,0.1,0.4,0,0.7,0c0-2.4,0-4.7,0-7C88.7,39.8,88.5,39.8,88.3,39.9z"/>
	<path class="st0" d="M92.9,42.1c-0.8-0.2-1.7,0.1-2.2,0.8c-0.4,0.6-0.4,1.3-0.4,1.9c0,1.2,0.9,2,2,2c0.4,0,0.9,0,1.4,0
		c-0.2,1.6-1.3,1.3-2.3,1.3c-0.1,0.3-0.1,0.5,0,0.7c0.5,0,0.9,0,1.3,0c1-0.1,1.7-0.9,1.7-1.9c0-1,0-2.1,0-3.1
		C94.4,43.1,93.8,42.3,92.9,42.1z M93.7,46.2c-0.5,0-0.9,0-1.4,0c-0.7,0-1.2-0.5-1.3-1.2c-0.1-0.4-0.1-0.8,0-1.1
		c0.1-0.7,0.7-1.1,1.4-1.1c0.7,0,1.2,0.5,1.3,1.2c0,0.1,0,0.2,0,0.3C93.7,44.9,93.7,45.5,93.7,46.2z"/>
	<path class="st0" d="M86.7,39.8c-0.2-0.1-0.4-0.1-0.7,0.1c0,2,0,4,0,6.2c-0.9,0.1-1.7,0.2-2.5-0.1c0-1.3,0-2.5,0-3.8
		c-0.3,0-0.5-0.1-0.8,0.1c0,1.2,0,2.4,0,3.7c-1,0.1-1.8,0.2-2.8-0.1c0-2.1,0-4.1,0-6.1c-0.3-0.1-0.5-0.1-0.8,0c0,0.2,0,0.4,0,0.6
		c0,1.5,0,3,0,4.5c0,1-0.2,1.2-1.2,1.2c-0.4,0-0.8,0-1.1,0c-0.5,0-1.1,0-1.7,0c0,0.3,0,0.5,0.1,0.7c0.9,0,1.8,0,2.8,0
		c0.6,0,1.1-0.1,1.4-0.4c1.3,0.7,2.5,0.5,3.8,0.2c0.5,0.4,1.3,0.2,2,0.2c1.1,0,1.5-0.4,1.5-1.5c0-1.7,0-3.3,0-5
		C86.8,40.2,86.8,40,86.7,39.8z"/>
	<path class="st0" d="M100.3,40.3c0,0.3-0.1,0.5,0,0.8c0.2,0,0.4,0.1,0.7-0.1c0.1-0.2,0.1-0.5,0-0.7
		C100.8,40.2,100.5,40.2,100.3,40.3z"/>
	<path class="st0" d="M71.3,42.1c-0.4,0.1-0.7,0.3-1,0.6c-0.2,0.2-0.5,0.4-0.8,0.6c0-1.2,0-2.3,0-3.4c-0.3-0.1-0.4-0.1-0.7,0
		c0,2.1,0,4.2,0,6.3c-0.4,0-0.8,0-1.2,0c0,0.3-0.1,0.5,0,0.7c1.7,0,3.3,0,5,0c0.8,0,1.3-0.6,1.4-1.3c0.1-0.6,0.1-1.3,0-1.9
		C73.6,42.4,72.5,41.7,71.3,42.1z M73.2,45.3c0,0.5-0.3,0.8-0.8,0.8c-1,0-1.9,0-2.9,0c0-0.6,0-1.2,0-1.8c0.5-0.6,1.1-1.1,1.8-1.4
		c1.1-0.5,1.9,0,2,1.2C73.2,44.5,73.2,44.9,73.2,45.3z"/>
	<path class="st0" d="M82.8,47.8c-0.1,0.2-0.1,0.5,0,0.8c0.2,0.1,0.5,0.1,0.7,0c0-0.3,0.1-0.5,0-0.7C83.2,47.7,83,47.7,82.8,47.8z"
		/>
	<path class="st0" d="M99,40.2c-0.1,0.3-0.1,0.5,0,0.8c0.2,0,0.4,0.1,0.7,0c0-0.2,0-0.5,0-0.7C99.5,40.2,99.3,40.2,99,40.2z"/>
	<path class="st0" d="M76.7,45.3c0.3,0.1,0.5,0.1,0.7,0c0-1.5,0-3.1,0-4.6c-0.3-0.1-0.5-0.1-0.7,0C76.7,42.2,76.7,43.8,76.7,45.3z"
		/>
	<path class="st0" d="M104.2,47.9c0,0.3-0.1,0.5,0,0.8c0.2,0,0.4,0.1,0.6,0c0.1-0.2,0-0.5,0-0.7C104.7,47.8,104.4,47.8,104.2,47.9z"
		/>
	<path class="st0" d="M142,42c-1.2,0-2,0.9-2.1,2.1c0,0.3,0,0.5,0,0.8c0,1.2,0.9,2,2,2c0.4,0,0.9,0,1.4,0c-0.2,1.6-1.4,1.3-2.3,1.3
		c-0.1,0.3-0.1,0.5,0,0.7c0.4,0.1,0.8,0.1,1.2,0c1.1-0.1,1.8-0.9,1.9-2c0-1,0-1.9,0-2.9C144.1,42.9,143.1,42,142,42z M143.4,46.2
		c-0.5,0-0.9,0-1.3,0c-0.7,0-1.2-0.4-1.3-1.1c-0.1-0.4-0.1-0.9,0-1.4c0.2-0.6,0.7-1,1.4-0.9c0.6,0,1.1,0.4,1.2,1
		C143.4,44.6,143.3,45.4,143.4,46.2z"/>
	<path class="st0" d="M138,39.9c0,2.3,0,4.7,0,7c0.2,0,0.5,0.1,0.7,0c0-2.3,0-4.6,0-7C138.5,39.8,138.2,39.8,138,39.9z"/>
	<path class="st0" d="M158.3,39.8c-0.2,0-0.4-0.1-0.7,0.1c0,2,0,4,0,6.2c-0.9,0.1-1.7,0.2-2.5-0.1c0-2.1,0-4.1,0-6.1
		c-0.3-0.1-0.5-0.1-0.8,0c0,1.4,0,2.8,0,4.1c0,2.1,0.2,2.2-2.1,2.1c-0.6,0-1.2,0-1.8,0c-0.1,0.3-0.1,0.5,0,0.7c1,0,1.9,0,2.9,0
		c0.5,0,1-0.1,1.4-0.5c0.4,0.4,0.8,0.5,1.3,0.5c0.3,0,0.6,0,0.8,0c1.1,0,1.5-0.4,1.5-1.5c0-1.7,0-3.4,0-5.1
		C158.4,40.1,158.5,40,158.3,39.8z"/>
	<path class="st0" d="M148.1,42.1c-0.7-0.3-1.7-0.1-2.2,0.5c0.1,0.2,0.2,0.4,0.4,0.5c0.1-0.1,0.3-0.2,0.4-0.2c1-0.4,1.9,0,1.8,1.1
		c0,0.3,0,0.7,0,1c0,1-0.2,1.1-1.1,1.1c-0.7,0-1.3,0-2,0c0,0.3-0.1,0.5,0.1,0.7c0.8,0,1.6,0,2.4,0c0.9,0,1.4-0.6,1.4-1.5
		c0-0.5,0-1,0-1.5C149.2,43.1,148.8,42.4,148.1,42.1z"/>
	<path class="st0" d="M105.5,47.9c0,0.3-0.1,0.5,0.1,0.8c0.2,0,0.4,0.1,0.7-0.1c0-0.2,0.1-0.5,0-0.7C106,47.8,105.8,47.8,105.5,47.9
		z"/>
	<path class="st0" d="M152.5,38.7c0.2,0.1,0.3,0.6,0.6,0.2c-0.1-0.4-0.4-0.7-0.8-0.6c-0.7,0.1-0.6,0.7-0.6,1.2
		c-0.2,0.1-0.5,0.1-0.3,0.4c0.6,0,1.2,0,1.8,0c0-0.1,0.1-0.3-0.1-0.4c-0.3,0-0.6,0-0.8,0C152,38.9,152.1,38.9,152.5,38.7z"/>
	<path class="st0" d="M123.6,39.8c-0.2,0-0.4-0.1-0.7,0.1c0,2,0,4,0,6.2c-0.9,0-1.7,0.2-2.6-0.2c0-0.7,0-1.4,0-2.1
		c-0.1-1.3-1.3-2.1-2.5-1.8c-0.4,0.1-0.8,0.3-1.2,0.6c-0.2,0.2-0.5,0.4-0.8,0.6c0-0.3,0-0.6-0.1-0.9c-0.3-0.1-0.5-0.1-0.7,0.1
		c0,1.2,0,2.5,0,3.7c-1.6,0.1-1.9,0.1-2.4-0.2c0-0.6,0-1.2,0-1.8c-0.1-1-0.9-1.9-1.8-2c-1-0.2-2.3,0.3-2.7,1.3
		c0.1,0.2,0.3,0.3,0.6,0.3c0-0.1,0.1-0.1,0.1-0.2c0.5-0.7,1.4-0.9,2.1-0.7c0.7,0.2,1,0.8,1,1.8c0,0.2,0,0.3,0,0.5
		c0,0.9-0.3,1.1-1.1,1.1c-1.3,0-2.7,0-4,0c-0.3,0-0.5,0-0.8-0.3c0-1.2,0-2.4,0-3.6c-0.3-0.1-0.5-0.1-0.7,0c-0.1,1.3,0.1,2.5-0.1,3.8
		c-1,0-2,0-3,0c0-0.7,0-1.4,0-2.1c0-1-0.7-1.8-1.6-2c-0.9-0.2-1.8,0.2-2.3,1c-0.3,0.5-0.2,1.1-0.2,1.6c0,1.3,0.9,2.2,2.2,2.2
		c1.4,0,2.7,0,4.1,0c0.5,0,1,0,1.4-0.3c0.4,0.3,0.7,0.3,1.1,0.3c1.3,0,2.7,0,4,0c0.5,0,1-0.1,1.4-0.4c0.4,0.3,0.8,0.4,1.3,0.4
		c1.6,0,3.2,0,4.8,0c0.6,0,1.1,0,1.6-0.5c0.6,0.7,1.4,0.5,2.2,0.5c1.2,0,1.6-0.4,1.6-1.5c0-1.7,0-3.3,0-5
		C123.7,40.2,123.7,40,123.6,39.8z M101.5,46.2c-0.5,0-0.9,0-1.4,0c-0.1,0-0.2,0-0.3-0.1c-0.6-0.2-1-0.7-1-1.3
		c-0.1-1.1,0.2-1.7,0.8-1.9c0.9-0.3,1.8,0.2,1.8,1.2C101.5,44.7,101.5,45.4,101.5,46.2z M119.6,45.3c0,0.6-0.3,0.9-0.8,0.9
		c-1,0-1.9,0-2.9,0c0-0.6,0-1.2,0-1.8c0.4-0.5,1-1,1.6-1.3c1.2-0.7,2.2-0.1,2.2,1.2C119.6,44.6,119.6,45,119.6,45.3z"/>
	<path class="st0" d="M125.2,39.9c0,2.4,0,4.7,0,7c0.2,0,0.5,0,0.7,0c0-2.4,0-4.7,0-7C125.6,39.8,125.4,39.8,125.2,39.9z"/>
	<path class="st0" d="M151.9,45.4c0.2,0,0.5,0.1,0.7,0c0-1.6,0-3.1,0-4.7c-0.3,0-0.5-0.1-0.7,0C151.9,42.2,151.9,43.8,151.9,45.4z"
		/>
	<path class="st0" d="M135.7,42.3c-0.1,1.3,0.1,2.5-0.1,3.7c-0.1,0.1-0.2,0.1-0.3,0.1c-1.3,0.1-2.5,0.1-3.8,0c-0.6,0-1-0.5-1.2-1.1
		c-0.1-0.5,0.1-1.1,0.6-1.4c0.1-0.1,0.3-0.1,0.4-0.3c-0.1-0.2-0.1-0.4-0.3-0.5c-1,0.4-1.6,1.3-1.5,2.4c0.1,0.9,0.9,1.7,1.9,1.8
		c1.3,0,2.5,0,3.8,0c0.6,0,1.1-0.4,1.1-0.9c0-1.2,0-2.5,0-3.7C136.1,42.2,135.9,42.2,135.7,42.3z"/>
	<path class="st0" d="M133.2,41.9c0-0.2,0.1-0.5-0.1-0.7c-0.2,0-0.4,0-0.6,0c-0.1,0.3-0.1,0.5,0,0.7
		C132.7,41.9,132.9,41.9,133.2,41.9z"/>
	<path class="st0" d="M134.5,41.9c0-0.3,0.1-0.5-0.1-0.7c-0.2,0-0.4,0-0.7,0.1c0,0.2-0.1,0.5,0,0.7C134,41.9,134.2,41.9,134.5,41.9z
		"/>
	<circle class="st0" cx="77.8" cy="29.1" r="2"/>
	<circle class="st0" cx="82.1" cy="29.1" r="2"/>
	<circle class="st0" cx="115" cy="29.4" r="1.8"/>
	<circle class="st0" cx="150.9" cy="29.1" r="1.8"/>
	<circle class="st0" cx="156.1" cy="17.3" r="1.8"/>
</g>
</svg>
