<?xml version="1.0" encoding="utf-8"?>
<!-- Generator: Adobe Illustrator 28.0.0, SVG Export Plug-In . SVG Version: 6.00 Build 0)  -->
<svg version="1.1" id="レイヤー_1" xmlns="http://www.w3.org/2000/svg" xmlns:xlink="http://www.w3.org/1999/xlink" x="0px"
	 y="0px" viewBox="0 0 132.1 29.6" style="enable-background:new 0 0 132.1 29.6;" xml:space="preserve">
<style type="text/css">
	.st0{fill:#FFFFFF;}
</style>
<g>
	<path class="st0" d="M24.4,28.5v-3.4h-3.9c-0.9,0-1.8-0.5-1.8-1.6V4.8h2.1c3.9,0,5.7,3,5.7,6.6v0.5h3.9V1.1H0v10.5h3.9v-0.2
		c0-3.6,1.8-6.6,5.7-6.6h2.3v18.9c0,1.1-0.9,1.6-1.8,1.6H5.9v3.4h18.5V28.5z"/>
	<path class="st0" d="M59.2,2.7C56.5,0.7,51.5,0,48.5,0c-3,0-7.7,0.7-10.7,2.7c-2.7,2.1-5.5,5.9-5.5,12.1s2.7,9.8,5.5,12.1
		c2.7,2.1,7.7,2.7,10.7,2.7c3,0,7.7-0.7,10.7-2.7c2.7-2.1,5.7-5.9,5.7-12.1C64.7,8.7,62,5,59.2,2.7 M54.9,23.2c-1.4,1.8-3.9,3-6.2,3
		s-4.8-0.9-6.2-3c-1.4-1.8-2.1-5.5-2.1-8.4s0.7-6.6,2.1-8.4c1.4-1.8,3.9-3,6.2-3c2.5,0,4.8,0.9,6.2,3c1.4,1.8,2.1,5.5,2.1,8.4
		C56.9,17.5,56.3,21.4,54.9,23.2"/>
	<path class="st0" d="M91.6,28.5v-3.4h-3.9c-0.9,0-1.8-0.5-1.8-1.6V4.8h2.1c3.9,0,5.7,3,5.7,6.6v0.5h3.9V1.1H67.4v10.5h3.9v-0.2
		c0-3.6,1.8-6.6,5.7-6.6H79v18.9c0,1.1-0.9,1.6-1.8,1.6h-3.9v3.4h18.2V28.5z"/>
	<path class="st0" d="M126.7,2.7c-2.7-2.1-7.7-2.7-10.7-2.7c-3,0-7.7,0.7-10.7,2.7c-2.7,2.1-5.5,5.9-5.5,12.1s2.7,9.8,5.5,12.1
		c2.7,2.1,7.7,2.7,10.7,2.7c3,0,7.7-0.7,10.7-2.7c2.7-2.1,5.5-5.9,5.5-12.1C132.1,8.7,129.4,5,126.7,2.7 M122.1,23.2
		c-1.4,1.8-3.6,2.7-6.2,2.7c-2.5,0-4.8-0.9-6.2-3c-1.4-1.8-2.1-5.5-2.1-8.4s0.7-6.6,2.1-8.4s3.9-3,6.2-3s4.8,0.9,6.2,3
		c1.4,1.8,2.1,5.5,2.1,8.4C124.4,17.5,123.7,21.4,122.1,23.2"/>
</g>
</svg>
