<?xml version="1.0" encoding="utf-8"?>
<!-- Generator: Adobe Illustrator 28.0.0, SVG Export Plug-In . SVG Version: 6.00 Build 0)  -->
<svg version="1.1" id="レイヤー_1" xmlns="http://www.w3.org/2000/svg" xmlns:xlink="http://www.w3.org/1999/xlink" x="0px"
	 y="0px" viewBox="0 0 181.5 28.9" style="enable-background:new 0 0 181.5 28.9;" xml:space="preserve">
<style type="text/css">
	.st0{clip-path:url(#SVGID_00000036966876547597013960000015559379976724617909_);}
	
		.st1{clip-path:url(#SVGID_00000056386577986888481100000010230332156935864724_);fill-rule:evenodd;clip-rule:evenodd;fill:#FFFFFF;}
	.st2{clip-path:url(#SVGID_00000056386577986888481100000010230332156935864724_);}
	
		.st3{clip-path:url(#SVGID_00000043428211982700655940000010048844996291155084_);fill-rule:evenodd;clip-rule:evenodd;fill:#FFFFFF;}
</style>
<g>
	<defs>
		<rect id="SVGID_1_" width="181.5" height="28.9"/>
	</defs>
	<clipPath id="SVGID_00000005972093982388051760000009298531099350778240_">
		<use xlink:href="#SVGID_1_"  style="overflow:visible;"/>
	</clipPath>
	<g style="clip-path:url(#SVGID_00000005972093982388051760000009298531099350778240_);">
		<defs>
			<rect id="SVGID_00000128453503320886378660000000289845061898238099_" y="0" width="181.5" height="28.9"/>
		</defs>
		<clipPath id="SVGID_00000083076448822005948010000016081860244386760611_">
			<use xlink:href="#SVGID_00000128453503320886378660000000289845061898238099_"  style="overflow:visible;"/>
		</clipPath>
		
			<path style="clip-path:url(#SVGID_00000083076448822005948010000016081860244386760611_);fill-rule:evenodd;clip-rule:evenodd;fill:#FFFFFF;" d="
			M0.7,27.7v-5.4c3.1,1,5.9,1.5,8.2,1.5c3.3,0,4.9-0.9,4.9-2.6c0-0.6-0.2-1.2-0.7-1.6c-0.5-0.5-1.8-1.1-3.8-1.9
			c-3.6-1.5-6-2.8-7.1-3.8c-1.4-1.4-2.1-3.1-2.1-5.2c0-2.7,1-4.8,3.1-6.2c2.1-1.4,4.7-2.1,8-2.1c1.8,0,4.5,0.3,7.9,1v5.2
			c-2.6-1-4.9-1.5-7.1-1.5C9,4.8,7.4,5.7,7.4,7.4c0,0.6,0.3,1.2,0.9,1.6c0.5,0.3,2,1,4.3,2.1c3.4,1.5,5.6,2.8,6.7,3.9
			c1.3,1.3,2,3,2,5.1c0,3-1.3,5.3-3.9,6.8c-2.1,1.3-4.8,1.9-8.2,1.9C6.4,28.7,3.6,28.4,0.7,27.7z"/>
		
			<polygon style="clip-path:url(#SVGID_00000083076448822005948010000016081860244386760611_);fill-rule:evenodd;clip-rule:evenodd;fill:#FFFFFF;" points="
			25.7,0.6 25.7,0.6 33.4,0.6 33.4,28.1 25.7,28.1 		"/>
		
			<polygon style="clip-path:url(#SVGID_00000083076448822005948010000016081860244386760611_);fill-rule:evenodd;clip-rule:evenodd;fill:#FFFFFF;" points="
			40.5,28.1 40.5,0.6 60.3,0.6 60.3,5.6 47.9,5.6 47.9,11.8 58.7,11.8 58.7,16.3 47.9,16.3 47.9,22.9 60.6,22.9 60.6,28.1 		"/>
		
			<polygon style="clip-path:url(#SVGID_00000083076448822005948010000016081860244386760611_);fill-rule:evenodd;clip-rule:evenodd;fill:#FFFFFF;" points="
			65.6,28.1 65.6,0.6 75.6,0.6 82.6,18.2 89.7,0.6 99.2,0.6 99.2,28.1 91.9,28.1 91.9,8.7 83.8,28.4 79,28.4 71.1,8.7 71.1,28.1 		
			"/>
		
			<polygon style="clip-path:url(#SVGID_00000083076448822005948010000016081860244386760611_);fill-rule:evenodd;clip-rule:evenodd;fill:#FFFFFF;" points="
			106.3,28.1 106.3,0.6 126.1,0.6 126.1,5.6 113.7,5.6 113.7,11.8 124.5,11.8 124.5,16.3 113.7,16.3 113.7,22.9 126.4,22.9 
			126.4,28.1 		"/>
		
			<polygon style="clip-path:url(#SVGID_00000083076448822005948010000016081860244386760611_);fill-rule:evenodd;clip-rule:evenodd;fill:#FFFFFF;" points="
			131.5,28.1 131.5,0.6 140.4,0.6 149.9,19 149.9,0.6 155.3,0.6 155.3,28.1 146.6,28.1 136.9,9.5 136.9,28.1 		"/>
		<g style="clip-path:url(#SVGID_00000083076448822005948010000016081860244386760611_);">
			<defs>
				<rect id="SVGID_00000140729052920842998990000014977022382396216251_" x="0.1" y="0.1" width="181.3" height="28.7"/>
			</defs>
			<clipPath id="SVGID_00000093143609973115932570000001020290506641339804_">
				<use xlink:href="#SVGID_00000140729052920842998990000014977022382396216251_"  style="overflow:visible;"/>
			</clipPath>
			
				<path style="clip-path:url(#SVGID_00000093143609973115932570000001020290506641339804_);fill-rule:evenodd;clip-rule:evenodd;fill:#FFFFFF;" d="
				M160.8,27.7v-5.4c3.1,1,5.8,1.5,8.3,1.5c3.3,0,4.9-0.9,4.9-2.6c0-0.6-0.2-1.2-0.7-1.6c-0.5-0.5-1.8-1.1-3.8-1.9
				c-3.6-1.5-6-2.7-7.1-3.8c-1.4-1.4-2.1-3.1-2.1-5.3c0-2.7,1-4.8,3.1-6.2c2.1-1.4,4.7-2.1,8-2.1c1.9,0,4.3,0.3,7.2,0.9l0.7,0.1v5.2
				c-2.6-1-5-1.5-7.2-1.5c-3.1,0-4.6,0.8-4.6,2.5c0,0.6,0.3,1.2,0.9,1.6c0.5,0.3,1.9,1,4.3,2.1c3.3,1.5,5.6,2.8,6.7,3.9
				c1.3,1.3,2,3,2,5.1c0,3-1.3,5.3-3.9,6.8c-2.1,1.3-4.9,1.9-8.2,1.9C166.5,28.7,163.7,28.4,160.8,27.7z"/>
		</g>
	</g>
</g>
</svg>
