<?xml version="1.0" encoding="utf-8"?>
<!-- Generator: Adobe Illustrator 28.0.0, SVG Export Plug-In . SVG Version: 6.00 Build 0)  -->
<svg version="1.1" id="レイヤー_1" xmlns="http://www.w3.org/2000/svg" xmlns:xlink="http://www.w3.org/1999/xlink" x="0px"
	 y="0px" viewBox="0 0 97.9 97.9" style="enable-background:new 0 0 97.9 97.9;" xml:space="preserve">
<style type="text/css">
	.st0{fill:#FFFFFF;}
</style>
<path class="st0" d="M21.3,57c0,2-1.1,3.4-2.9,3.4c-1.8,0-3-1.5-3-3.6c0-2,1.1-3.5,2.9-3.5C20.1,53.5,21.3,55,21.3,57z M63.2,59.4
	c0-3.1-1.5-5.1-3.8-5.1c-2.7,0-5.6,2.5-7.1,5.9h10.9L63.2,59.4z M79.3,37.5c1.7,0,2.9-1.4,2.9-3.5c0-2.1-1.3-3.6-3.1-3.6
	c-1.7,0-2.9,1.4-2.9,3.5C76.2,35.9,77.5,37.5,79.3,37.5z M73.6,73.8c0-0.7-0.5-1-1.2-0.9H71v2h1.5C73.2,74.8,73.6,74.5,73.6,73.8z
	 M66.2,72.6c-0.8,0-1.6,0.3-1.6,1v2.6c0,0.7,0.8,1,1.6,1s1.6-0.4,1.6-1v-2.6C67.7,72.9,67,72.6,66.2,72.6z M97.9,0v97.9H0V0H97.9z
	 M56.7,23h3v-3h-3V23z M41.3,32.9c-0.1,1.3,0.3,2.5,1.1,3.5c0.8,1,2.1,1.5,3.4,1.4h28.6c1.1,1.6,3,2.5,4.9,2.4
	c3.3,0.1,6-2.5,6.1-5.8c0-0.2,0-0.3,0-0.5c0.2-3.3-2.4-6.2-5.7-6.4c-0.1,0-0.2,0-0.4,0c-3.3-0.1-6.1,2.5-6.2,5.8c0,0.2,0,0.3,0,0.5
	c0,0.2,0,0.5,0.1,0.7l0,0.1h-5.8c-0.2-3.8-1.6-6.4-4.1-8c-1.5-0.9-3.2-1.3-5-1.3c-1.2,0-2.5,0.3-3.6,0.8c-1.1,0.5-2.1,1.1-2.9,1.9
	c0.7,1,1.2,1.8,1.5,2.4c0.7-0.8,1.5-1.3,2.4-1.7c0.7-0.3,1.5-0.5,2.3-0.5c1.8-0.1,3.5,0.7,4.7,2.1c1,1.2,1.5,2.8,1.4,4.3H47.5
	c-0.8,0.1-1.6-0.1-2.3-0.5c-0.7-0.7-1-1.7-0.9-2.6V20.3h-3V32.9z M58,46.9v2.7h2.7v-2.7H58z M39.1,58.5c-0.1,1.1,0.3,2.3,1,3.2
	c0.8,0.9,1.9,1.3,3,1.3h22.8c0.1-0.9,0.1-1.7,0.1-2.5c0-5.7-2.1-8.6-6.3-8.6c-2.6,0-5.3,1.6-7.4,4.6V53h-2.7v4.2
	c0,1.9-0.7,2.9-2.1,2.9h-2.8c-0.7,0.1-1.5-0.1-2.1-0.4c-0.6-0.6-0.9-1.5-0.8-2.3V47.2h-2.7V58.5z M35.5,23h3v-3h-3V23z M19.6,23h3
	v-3h-3V23z M12.4,33.1c-0.1,2.5,0.9,4.9,2.6,6.7c1.5,1.7,3.7,2.7,6.1,2.7c2.3,0,4.6-1,6.1-2.8c1.6-1.8,2.5-4.1,2.5-6.5v-7.6h-3.1
	l0,7.2c0,1.6-0.4,3.2-1.3,4.6c-1.6,2.3-4.8,2.9-7.1,1.3c-0.5-0.3-0.9-0.8-1.3-1.3c-0.9-1.3-1.4-2.9-1.4-4.6v-7.2h-3.1V33.1z
	 M30.7,58.3c0-0.6,0.1-1.1,0.4-1.6c0.3-0.5,0.9-0.8,1.4-0.8c0.8,0,1.6,0.5,1.7,1.3l2-1.3c-0.6-1.5-2.1-2.5-3.8-2.5
	c-1.2,0-2.4,0.5-3.2,1.4c-0.8,0.9-1.3,2.1-1.2,3.3c0,0.7,0.1,1.4,0.4,2h-2.2v2.8h10.3v-2.8h-5.2C30.9,59.6,30.7,59,30.7,58.3z
	 M19.2,46.1v2.7h2.7v-2.7H19.2z M14.6,46.1v2.7h2.7v-2.7H14.6z M16.5,77.1h-2.9v-5.4h-1.1v6.5h4V77.1z M18.2,71.7h-1.1v6.5h1.1V71.7
	z M18.3,62.9c3.1,0.1,5.7-2.4,5.8-5.5c0-0.1,0-0.3,0-0.4c0.2-3.1-2.2-5.8-5.3-6c-0.1,0-0.3,0-0.4,0c-3.1-0.1-5.7,2.4-5.8,5.5
	c0,0.1,0,0.3,0,0.4c-0.2,3.2,2.3,5.8,5.4,6C18.1,62.9,18.2,62.9,18.3,62.9z M24.2,74.7h-2.9v1h1.8v0.5c0,0.7-0.7,1-1.5,1
	c-0.7,0-1.4-0.3-1.4-1v-2.5c0-0.7,0.7-1,1.4-1c0.6,0,1.2,0.3,1.4,0.8l0.9-0.4c-0.4-0.9-1.4-1.5-2.4-1.4c0,0-0.1,0-0.1,0
	c-1.2-0.1-2.3,0.9-2.4,2.1l0,2.5c0.2,1.1,1,1.9,2.1,2.1c1.4,0.2,2.7-0.7,2.9-2.1V74.7z M30.2,71.7h-1.1v2.7h-2.9v-2.7h-1.1v6.5h1.1
	v-2.7h2.9l0,2.7h1.1V71.7z M35.9,71.7h-5v1.1h2v5.4h1.1v-5.4h2V71.7z M37.5,71.7h-1.1v6.5h1.1V71.7z M38.5,25.5h-3.1l0,10.4
	c0,2.6-1.3,3.9-3.8,3.9v2.6c4.7,0,6.8-2,6.8-6.9V25.5z M43.8,71.7h-1.1v3.7l0.2,1.4l-0.1,0l-0.7-1.3l-2.2-3.8h-1.1v6.5h1.1v-3.6
	l-0.2-1.4l0.1,0l0.6,1.2l2.2,3.7h1.2V71.7z M49.9,74.7H47v1h1.8v0.5c0,0.7-0.7,1-1.5,1c-0.7,0-1.4-0.3-1.4-1v-2.5c0-0.7,0.7-1,1.4-1
	c0.6,0,1.2,0.3,1.4,0.8l1-0.4c-0.4-0.9-1.4-1.5-2.4-1.4c0,0-0.1,0-0.1,0c-1.2-0.1-2.3,0.9-2.4,2.1l0,2.5c0.2,1.1,1,1.9,2.1,2.1
	c1.4,0.2,2.7-0.7,2.9-2.1V74.7z M58,76.5c0.1-1.5-1.2-1.9-2.3-2.1c-0.7-0.1-1.4-0.3-1.4-0.9c0-0.5,0.6-0.8,1.3-0.8
	c0.6,0,1.1,0.3,1.4,0.8l1-0.4c-0.4-0.9-1.3-1.5-2.3-1.4c-1.1-0.1-2.2,0.7-2.3,1.8c0,1.3,1.1,1.8,2.2,2c0.8,0.1,1.5,0.3,1.5,1
	c0,0.6-0.7,0.8-1.3,0.8c-0.6,0-1.2-0.4-1.5-1l-1,0.4c0.4,1,1.4,1.6,2.4,1.6C56.8,78.3,58,77.7,58,76.5z M63.4,71.7h-5v1.1h2v5.4h1.1
	v-5.4h2V71.7z M68.8,73.7c0-1.4-1.3-2.1-2.6-2.1c-1.3,0-2.6,0.7-2.6,2.1v2.6c0,1.4,1.3,2.1,2.6,2.1c1.3,0,2.6-0.7,2.6-2.1V73.7z
	 M69.8,66.8h-1v1.1H73v-1.1h-2c-0.3-0.2-0.5-0.6-0.4-0.9c0-0.5,0.3-0.9,0.8-1c0.3,0,0.6,0.2,0.7,0.5l0.9-0.4
	c-0.2-0.7-0.8-1.1-1.5-1.1c-1.1,0-1.9,0.9-1.9,2c0,0,0,0,0,0C69.6,66.3,69.7,66.5,69.8,66.8z M75,78.2l-2-2.5c0,0,0,0,0.1,0
	c1-0.1,1.7-0.9,1.6-1.9c0-1.4-1-2-2.3-2h-2.5v6.5H71v-2.5h0.8l1.9,2.5H75z M79.9,71.7h-4.3v6.5h4.3v-1.1h-3.2v-1.6h2.9v-1.1h-2.9
	v-1.7h3.2V71.7z M80.3,47.2h-2.7v10.1c0.1,0.8-0.2,1.7-0.7,2.3c-0.5,0.4-1.1,0.6-1.7,0.5l-3-11.2h-2.9l3.1,11.2h-3.7v2.8H76
	c2.6,0,4.3-1.5,4.3-3.8V47.2z M85.4,76.5c0.1-1.5-1.2-1.9-2.3-2.1c-0.7-0.1-1.4-0.3-1.4-0.9c0-0.5,0.6-0.8,1.3-0.8
	c0.6,0,1.1,0.3,1.4,0.8l1-0.4c-0.4-0.9-1.3-1.5-2.3-1.4c-1.1-0.1-2.2,0.7-2.3,1.8c0,1.3,1.1,1.8,2.2,2c0.8,0.1,1.5,0.3,1.5,1
	c0,0.6-0.7,0.8-1.3,0.8c-0.6,0-1.2-0.4-1.5-1l-1,0.4c0.4,1,1.4,1.6,2.4,1.6C84.1,78.3,85.3,77.7,85.4,76.5z M85.5,47.2h-2.7v15.7
	h2.7V47.2z"/>
</svg>
