<svg width="185" height="69" viewBox="0 0 185 69" fill="none" xmlns="http://www.w3.org/2000/svg">
<g clip-path="url(#clip0_243_838)">
<path d="M12.8053 0.73584L0.152143 18.7394H0V0.73584H12.8053Z" fill="white"/>
<path d="M12.8053 49.5226L0.152143 31.519H0V49.5226H12.8053Z" fill="white"/>
<path d="M133.479 0H127.875C120.572 0 114.664 5.2616 114.664 11.753V37.7694C114.664 44.2608 120.585 49.5224 127.875 49.5224H133.479C140.782 49.5224 146.69 44.2608 146.69 37.7694V29.5664H134.214V37.1228C134.214 38.695 132.782 39.9628 131.019 39.9628H130.322C128.56 39.9628 127.127 38.695 127.127 37.1228V12.4123C127.127 10.8402 128.56 9.57231 130.322 9.57231H131.019C132.782 9.57231 134.214 10.8402 134.214 12.4123V18.7643H146.69V11.753C146.69 5.2616 140.769 0 133.479 0Z" fill="white"/>
<path d="M81.6992 0.73584V10.3589V20.844V30.4671V49.5229H94.1622V30.4671H106.651V20.844H94.1622V10.3589H110.429V0.73584H94.1622H81.6992Z" fill="white"/>
<path d="M22.7459 0.73584L5.61719 25.1294L23.2531 49.5229H38.1123L20.4765 25.1294L38.1123 0.73584H22.7459Z" fill="white"/>
<path d="M58.2828 0.73584H50.4855L39.5059 49.5229H51.766L53.6932 40.6226H62.8978L64.8249 49.5229H77.0724L66.0801 0.73584H58.2828ZM55.5569 31.8997L58.2828 19.2846L61.0087 31.8997H55.5696H55.5569Z" fill="white"/>
<path d="M171.21 0H165.606C158.303 0 152.395 5.2616 152.395 11.753V37.7694C152.395 44.2608 158.315 49.5224 165.606 49.5224H171.21C178.512 49.5224 184.421 44.2608 184.421 37.7694V11.753C184.421 5.2616 178.5 0 171.21 0ZM171.958 37.1228C171.958 38.695 170.525 39.9628 168.763 39.9628H168.065C166.303 39.9628 164.87 38.695 164.87 37.1228V12.4123C164.87 10.8402 166.303 9.57231 168.065 9.57231H168.763C170.525 9.57231 171.958 10.8402 171.958 12.4123V37.1228Z" fill="white"/>
<path d="M0.988281 68.1856V58.2837H2.12935V64.9019L5.67935 60.8574H7.15006L4.23399 64.1158L7.6572 68.1856H6.18649L3.52399 64.9273L2.12935 66.4867V68.1856H0.988281Z" fill="white"/>
<path d="M8.57031 58.8793C8.57031 58.6638 8.64638 58.4863 8.78585 58.3342C8.92531 58.182 9.10281 58.106 9.31835 58.106C9.53388 58.106 9.71138 58.182 9.85085 58.3342C9.99031 58.4863 10.0664 58.6638 10.0664 58.8793C10.0664 59.0949 9.99031 59.2597 9.85085 59.4118C9.6987 59.564 9.5212 59.6401 9.31835 59.6401C9.11549 59.6401 8.92531 59.564 8.78585 59.4118C8.6337 59.2597 8.57031 59.0822 8.57031 58.8793ZM8.73513 68.1727V60.8445H9.8762V68.1727H8.73513Z" fill="white"/>
<path d="M12.1714 65.9923V61.8337H11.0684V60.8575H12.1714V59.2346L13.3125 59.0571V60.8575H15.8228V61.8337H13.3125V65.7768C13.3125 66.8037 13.6548 67.3109 14.3521 67.3109C14.555 67.3109 14.7578 67.2728 14.948 67.2094C15.1382 67.146 15.303 67.07 15.4044 67.0193L15.5566 66.9178L15.9369 67.8053C15.4044 68.173 14.8466 68.3505 14.2507 68.3505C13.6041 68.3505 13.0969 68.1603 12.7293 67.7673C12.3616 67.3869 12.1714 66.791 12.1714 66.005V65.9923Z" fill="white"/>
<path d="M17.8257 67.2219C17.0776 66.4865 16.6973 65.5863 16.6973 64.534C16.6973 63.4817 17.0776 62.5815 17.8257 61.8335C18.5737 61.0855 19.4865 60.7178 20.5515 60.7178C21.5532 60.7178 22.428 61.0601 23.1887 61.7194L22.4533 62.5308C21.9462 62.0617 21.3249 61.8208 20.5769 61.8208C19.8289 61.8208 19.1823 62.0871 18.6624 62.6069C18.1426 63.1267 17.8764 63.7733 17.8764 64.534C17.8764 65.2947 18.1426 65.9287 18.6624 66.4485C19.1823 66.9683 19.8289 67.2345 20.6023 67.2345C21.4517 67.2345 22.149 66.9556 22.6815 66.3978L23.3535 67.2345C22.5928 67.9826 21.6546 68.3503 20.5515 68.3503C19.4485 68.3503 18.5864 67.9826 17.8257 67.2345V67.2219Z" fill="white"/>
<path d="M24.7109 68.1856V58.2837H25.852V62.0365C26.3972 61.149 27.2213 60.718 28.3497 60.718C29.2372 60.718 29.8965 60.9842 30.3529 61.5167C30.8093 62.0492 31.0375 62.7846 31.0375 63.7355V68.1983H29.8965V63.913C29.8965 63.2283 29.7443 62.7085 29.4654 62.3662C29.1738 62.0112 28.692 61.8337 28.02 61.8337C27.3481 61.8337 26.8409 62.0492 26.4479 62.493C26.0549 62.924 25.852 63.4565 25.852 64.0651V68.1983H24.7109V68.1856Z" fill="white"/>
<path d="M32.4961 64.534C32.4961 63.4817 32.8511 62.5815 33.5611 61.8335C34.2711 61.0855 35.1459 60.7178 36.1602 60.7178C37.1238 60.7178 37.9479 61.0855 38.6452 61.8335C39.3425 62.5815 39.6848 63.4563 39.6848 64.4833L39.6595 64.9651H33.7006C33.7893 65.6624 34.0809 66.2329 34.5881 66.664C35.0952 67.0951 35.6784 67.3106 36.3631 67.3106C37.2506 67.3106 37.9986 67.0317 38.6198 66.4612L39.165 67.2853C38.3282 67.9826 37.4027 68.3376 36.3631 68.3376C35.3234 68.3376 34.3725 67.9826 33.6245 67.2726C32.8765 66.5626 32.4961 65.6497 32.4961 64.534ZM33.6879 64.0522H38.5311C38.455 63.3803 38.2014 62.8224 37.745 62.3913C37.2886 61.9603 36.7434 61.7321 36.1222 61.7321C35.5009 61.7321 34.9684 61.9476 34.512 62.3913C34.0556 62.8351 33.7766 63.3803 33.6879 64.0522Z" fill="white"/>
<path d="M41.3066 68.1854V60.8572H42.4477V62.0363C42.9929 61.1488 43.8297 60.7178 44.9454 60.7178C45.8329 60.7178 46.5048 60.984 46.9613 61.5038C47.4177 62.0363 47.6332 62.7717 47.6332 63.7226V68.1854H46.4922V63.9001C46.4922 63.2155 46.3527 62.6956 46.0611 62.3533C45.7695 61.9983 45.3004 61.8208 44.6411 61.8208C44.0452 61.8208 43.5254 62.0363 43.0943 62.4547C42.6632 62.8858 42.4477 63.4183 42.4477 64.0776V68.1854H41.3066Z" fill="white"/>
<path d="M53.1996 68.1852V61.8333H52.0078V60.857H53.1996V60.3752C53.1996 59.5004 53.4151 58.8792 53.8335 58.5115C54.2519 58.1438 54.7337 57.9536 55.2789 57.9536C55.6466 57.9536 55.9762 58.0043 56.2805 58.1058C56.5848 58.2072 56.8003 58.3086 56.9398 58.41L57.1173 58.5749L56.5848 59.3609C56.1791 59.0947 55.7987 58.9552 55.4057 58.9552C54.7083 58.9552 54.3533 59.437 54.3533 60.4133V60.8697H56.6735V61.8459H54.3407V68.1979H53.1996V68.1852Z" fill="white"/>
<path d="M57.5986 65.3836V60.8574H58.7397V65.1428C58.7397 66.5247 59.3609 67.222 60.6161 67.222C61.212 67.222 61.7191 67.0192 62.0995 66.6008C62.4799 66.1824 62.6827 65.6372 62.6827 64.9272V60.8447H63.8238V68.1729H62.6827V67.0445C62.1629 67.894 61.3768 68.3251 60.3245 68.3251C59.437 68.3251 58.7524 68.0461 58.2833 67.501C57.8142 66.9558 57.5859 66.2458 57.5859 65.371L57.5986 65.3836Z" fill="white"/>
<path d="M65.8281 68.1854V60.8572H66.9692V62.404C67.1847 61.8969 67.5397 61.4911 68.0215 61.1742C68.5033 60.8572 69.0992 60.7051 69.7965 60.7051V61.9729C68.9724 61.9729 68.3004 62.2138 67.7679 62.6829C67.2354 63.1647 66.9692 63.9128 66.9692 64.9524V68.1854H65.8281Z" fill="white"/>
<path d="M71.0898 68.1854V60.8572H72.2309V62.0363C72.7761 61.1488 73.6129 60.7178 74.7286 60.7178C75.6161 60.7178 76.2881 60.984 76.7445 61.5038C77.2009 62.0363 77.4164 62.7717 77.4164 63.7226V68.1854H76.2754V63.9001C76.2754 63.2155 76.1359 62.6956 75.8443 62.3533C75.5527 61.9983 75.0836 61.8208 74.4243 61.8208C73.8284 61.8208 73.3086 62.0363 72.8775 62.4547C72.4464 62.8858 72.2309 63.4183 72.2309 64.0776V68.1854H71.0898Z" fill="white"/>
<path d="M79.1016 58.8793C79.1016 58.6638 79.1776 58.4863 79.3171 58.3342C79.4692 58.182 79.6467 58.106 79.8496 58.106C80.0525 58.106 80.2426 58.182 80.3821 58.3342C80.5342 58.4863 80.5976 58.6638 80.5976 58.8793C80.5976 59.0949 80.5216 59.2597 80.3821 59.4118C80.2426 59.564 80.0651 59.6401 79.8496 59.6401C79.6341 59.6401 79.4566 59.564 79.3171 59.4118C79.1776 59.2597 79.1016 59.0822 79.1016 58.8793ZM79.2664 68.1727V60.8445H80.4075V68.1727H79.2664Z" fill="white"/>
<path d="M82.689 65.9923V61.8337H81.5859V60.8575H82.689V59.2346L83.83 59.0571V60.8575H86.3404V61.8337H83.83V65.7768C83.83 66.8037 84.1724 67.3109 84.8697 67.3109C85.0725 67.3109 85.2754 67.2728 85.4656 67.2094C85.6558 67.146 85.8206 67.07 85.922 67.0193L86.0741 66.9178L86.4545 67.8053C85.922 68.173 85.3641 68.3505 84.7683 68.3505C84.1217 68.3505 83.6145 68.1603 83.2468 67.7673C82.8792 67.3869 82.689 66.791 82.689 66.005V65.9923Z" fill="white"/>
<path d="M87.6484 65.3836V60.8574H88.7895V65.1428C88.7895 66.5247 89.4234 67.222 90.6659 67.222C91.2745 67.222 91.769 67.0192 92.162 66.6008C92.555 66.1824 92.7452 65.6372 92.7452 64.9272V60.8447H93.8863V68.1729H92.7452V67.0445C92.2254 67.894 91.4393 68.3251 90.387 68.3251C89.4868 68.3251 88.8149 68.0461 88.3458 67.501C87.8767 66.9558 87.6484 66.2458 87.6484 65.371V65.3836Z" fill="white"/>
<path d="M95.875 68.1854V60.8572H97.0161V62.404C97.2316 61.8969 97.5866 61.4911 98.0684 61.1742C98.5502 60.8572 99.1461 60.7051 99.8434 60.7051V61.9729C99.0193 61.9729 98.3473 62.2138 97.8148 62.6829C97.2823 63.1647 97.0161 63.9128 97.0161 64.9524V68.1854H95.875Z" fill="white"/>
<path d="M100.555 64.534C100.555 63.4817 100.91 62.5815 101.62 61.8335C102.33 61.0855 103.205 60.7178 104.219 60.7178C105.182 60.7178 106.006 61.0855 106.704 61.8335C107.401 62.5815 107.743 63.4563 107.743 64.4833L107.718 64.9651H101.759C101.848 65.6624 102.14 66.2329 102.647 66.664C103.154 67.0951 103.737 67.3106 104.422 67.3106C105.309 67.3106 106.057 67.0317 106.678 66.4612L107.224 67.2853C106.387 67.9826 105.461 68.3376 104.422 68.3376C103.382 68.3376 102.431 67.9826 101.683 67.2726C100.935 66.5626 100.555 65.6497 100.555 64.534ZM101.746 64.0522H106.59C106.514 63.3803 106.26 62.8224 105.804 62.3913C105.347 61.9603 104.802 61.7321 104.181 61.7321C103.56 61.7321 103.027 61.9476 102.571 62.3913C102.114 62.8351 101.835 63.3803 101.746 64.0522Z" fill="white"/>
<path d="M112.521 65.4344C112.521 64.9019 112.674 64.3948 112.991 63.913C113.308 63.4312 113.764 63.0381 114.373 62.7339C113.891 62.0239 113.65 61.3519 113.65 60.718C113.65 60.084 113.878 59.5262 114.347 59.0317C114.816 58.5373 115.463 58.2837 116.312 58.2837C117.517 58.2837 118.379 58.8796 118.886 60.0714L117.897 60.6419C117.745 60.2235 117.517 59.9065 117.225 59.691C116.934 59.4755 116.629 59.3487 116.325 59.3487C115.869 59.3487 115.526 59.4882 115.26 59.7671C115.006 60.046 114.88 60.363 114.88 60.718C114.88 61.428 115.45 62.3915 116.579 63.6087L118.582 65.7006C118.873 65.2949 119.026 64.7878 119.026 64.1919H120.154C120.154 64.6483 120.078 65.1048 119.926 65.5358C119.774 65.9796 119.596 66.3092 119.393 66.5374L120.42 67.6151L119.647 68.3505L118.645 67.3108C117.846 67.9828 116.908 68.3251 115.843 68.3251C114.943 68.3251 114.157 68.0715 113.51 67.5771C112.864 67.0826 112.534 66.3599 112.534 65.4217L112.521 65.4344ZM113.726 65.371C113.726 65.9289 113.941 66.3853 114.373 66.7276C114.804 67.0699 115.323 67.2347 115.919 67.2347C116.642 67.2347 117.289 66.9939 117.872 66.5248L115.032 63.5833C114.601 63.7735 114.271 64.0271 114.056 64.3567C113.84 64.6737 113.726 65.016 113.726 65.3837V65.371Z" fill="white"/>
<path d="M124.986 67.1965L125.544 66.2837C126.153 66.9176 126.926 67.2346 127.852 67.2346C128.371 67.2346 128.815 67.1331 129.158 66.9303C129.513 66.7274 129.69 66.4612 129.69 66.1315C129.69 65.9667 129.639 65.8146 129.551 65.6751C129.449 65.5483 129.31 65.4342 129.12 65.3455C128.929 65.2567 128.739 65.1806 128.574 65.1426C128.41 65.1046 128.181 65.0285 127.902 64.9524C127.497 64.851 127.167 64.7622 126.913 64.6735C126.673 64.5847 126.406 64.4706 126.127 64.3058C125.848 64.141 125.646 63.9381 125.506 63.6973C125.379 63.4564 125.316 63.1647 125.316 62.8224C125.316 62.2012 125.582 61.694 126.127 61.3137C126.673 60.9333 127.281 60.7305 127.953 60.7305C128.841 60.7305 129.69 60.9967 130.476 61.5419L129.918 62.4294C129.348 62.0364 128.688 61.8462 127.966 61.8462C127.573 61.8462 127.23 61.9476 126.939 62.1251C126.647 62.3153 126.495 62.5435 126.495 62.8224C126.495 62.9872 126.533 63.1267 126.609 63.2535C126.685 63.3803 126.825 63.4817 127.015 63.5705C127.205 63.6592 127.37 63.7226 127.509 63.7606C127.649 63.7987 127.864 63.8621 128.143 63.9381C128.536 64.0522 128.866 64.141 129.132 64.2171C129.398 64.2931 129.69 64.4199 129.982 64.5721C130.273 64.7369 130.489 64.9397 130.641 65.206C130.793 65.4722 130.856 65.7639 130.856 66.1062C130.856 66.8415 130.552 67.3994 129.956 67.7797C129.36 68.1601 128.663 68.363 127.864 68.363C126.673 68.363 125.709 67.9826 124.986 67.2219V67.1965Z" fill="white"/>
<path d="M132.098 64.534C132.098 63.4817 132.478 62.5815 133.226 61.8335C133.974 61.0855 134.887 60.7178 135.952 60.7178C137.017 60.7178 137.917 61.0855 138.678 61.8335C139.426 62.5815 139.806 63.4817 139.806 64.534C139.806 65.5863 139.426 66.4738 138.678 67.2219C137.93 67.9699 137.017 68.3376 135.952 68.3376C134.887 68.3376 133.987 67.9699 133.226 67.2219C132.478 66.4738 132.098 65.5863 132.098 64.534ZM134.05 62.6196C133.53 63.1521 133.264 63.786 133.264 64.534C133.264 65.2821 133.53 65.916 134.05 66.4358C134.57 66.9683 135.204 67.2219 135.952 67.2219C136.7 67.2219 137.321 66.9556 137.854 66.4358C138.374 65.9033 138.64 65.2694 138.64 64.534C138.64 63.7987 138.374 63.1521 137.854 62.6196C137.334 62.0871 136.7 61.8208 135.952 61.8208C135.204 61.8208 134.583 62.0871 134.05 62.6196Z" fill="white"/>
<path d="M141.402 68.1856V58.2837H142.543V68.1856H141.402Z" fill="white"/>
<path d="M144.382 65.3836V60.8574H145.523V65.1428C145.523 66.5247 146.144 67.222 147.399 67.222C147.995 67.222 148.502 67.0192 148.883 66.6008C149.263 66.1824 149.466 65.6372 149.466 64.9272V60.8447H150.607V68.1729H149.466V67.0445C148.946 67.894 148.16 68.3251 147.108 68.3251C146.22 68.3251 145.536 68.0461 145.066 67.501C144.597 66.9558 144.369 66.2458 144.369 65.371L144.382 65.3836Z" fill="white"/>
<path d="M152.917 65.9923V61.8337H151.814V60.8575H152.917V59.2346L154.059 59.0571V60.8575H156.569V61.8337H154.059V65.7768C154.059 66.8037 154.401 67.3109 155.098 67.3109C155.301 67.3109 155.504 67.2728 155.694 67.2094C155.884 67.146 156.049 67.07 156.151 67.0193L156.303 66.9178L156.683 67.8053C156.151 68.173 155.593 68.3505 154.997 68.3505C154.35 68.3505 153.843 68.1603 153.475 67.7673C153.108 67.3869 152.917 66.791 152.917 66.005V65.9923Z" fill="white"/>
<path d="M157.848 58.8793C157.848 58.6638 157.924 58.4863 158.063 58.3342C158.203 58.182 158.38 58.106 158.596 58.106C158.811 58.106 158.989 58.182 159.128 58.3342C159.268 58.4863 159.344 58.6638 159.344 58.8793C159.344 59.0949 159.268 59.2597 159.128 59.4118C158.976 59.564 158.799 59.6401 158.596 59.6401C158.393 59.6401 158.203 59.564 158.063 59.4118C157.911 59.2597 157.848 59.0822 157.848 58.8793ZM158.012 68.1727V60.8445H159.154V68.1727H158.012Z" fill="white"/>
<path d="M160.766 64.534C160.766 63.4817 161.146 62.5815 161.894 61.8335C162.642 61.0855 163.555 60.7178 164.62 60.7178C165.685 60.7178 166.585 61.0855 167.346 61.8335C168.094 62.5815 168.474 63.4817 168.474 64.534C168.474 65.5863 168.094 66.4738 167.346 67.2219C166.598 67.9699 165.685 68.3376 164.62 68.3376C163.555 68.3376 162.655 67.9699 161.894 67.2219C161.146 66.4738 160.766 65.5863 160.766 64.534ZM162.718 62.6196C162.198 63.1521 161.932 63.786 161.932 64.534C161.932 65.2821 162.198 65.916 162.718 66.4358C163.238 66.9683 163.872 67.2219 164.62 67.2219C165.368 67.2219 165.989 66.9556 166.522 66.4358C167.042 65.9033 167.308 65.2694 167.308 64.534C167.308 63.7987 167.042 63.1521 166.522 62.6196C166.002 62.0871 165.368 61.8208 164.62 61.8208C163.872 61.8208 163.251 62.0871 162.718 62.6196Z" fill="white"/>
<path d="M170.084 68.1854V60.8572H171.225V62.0363C171.77 61.1488 172.607 60.7178 173.723 60.7178C174.61 60.7178 175.282 60.984 175.739 61.5038C176.195 62.0363 176.411 62.7717 176.411 63.7226V68.1854H175.27V63.9001C175.27 63.2155 175.13 62.6956 174.838 62.3533C174.547 61.9983 174.078 61.8208 173.418 61.8208C172.823 61.8208 172.303 62.0363 171.872 62.4547C171.441 62.8858 171.225 63.4183 171.225 64.0776V68.1854H170.084Z" fill="white"/>
<path d="M177.881 67.1965L178.439 66.2837C179.047 66.9176 179.821 67.2346 180.746 67.2346C181.266 67.2346 181.697 67.1331 182.052 66.9303C182.407 66.7274 182.585 66.4612 182.585 66.1315C182.585 65.9667 182.534 65.8146 182.445 65.6751C182.344 65.5483 182.204 65.4342 182.014 65.3455C181.824 65.2567 181.634 65.1806 181.469 65.1426C181.304 65.1046 181.076 65.0285 180.797 64.9524C180.391 64.851 180.062 64.7622 179.808 64.6735C179.567 64.5847 179.301 64.4706 179.022 64.3058C178.743 64.141 178.54 63.9381 178.401 63.6973C178.274 63.4564 178.21 63.1647 178.21 62.8224C178.21 62.2012 178.477 61.694 179.022 61.3137C179.567 60.9333 180.176 60.7305 180.848 60.7305C181.735 60.7305 182.585 60.9967 183.371 61.5419L182.813 62.4294C182.242 62.0364 181.596 61.8462 180.86 61.8462C180.467 61.8462 180.125 61.9476 179.833 62.1251C179.542 62.3153 179.39 62.5435 179.39 62.8224C179.39 62.9872 179.428 63.1267 179.504 63.2535C179.58 63.3803 179.719 63.4817 179.909 63.5705C180.1 63.6592 180.264 63.7226 180.404 63.7606C180.543 63.7987 180.759 63.8621 181.05 63.9381C181.444 64.0522 181.773 64.141 182.039 64.2171C182.306 64.2931 182.597 64.4199 182.889 64.5721C183.18 64.7369 183.396 64.9397 183.548 65.206C183.7 65.4722 183.764 65.7639 183.764 66.1062C183.764 66.8415 183.459 67.3994 182.864 67.7797C182.268 68.1601 181.57 68.363 180.772 68.363C179.58 68.363 178.616 67.9826 177.894 67.2219L177.881 67.1965Z" fill="white"/>
</g>
<defs>
<clipPath id="clip0_243_838">
<rect width="184.435" height="68.3628" fill="white"/>
</clipPath>
</defs>
</svg>
