<svg width="175" height="127" viewBox="0 0 175 127" fill="none" xmlns="http://www.w3.org/2000/svg">
<g clip-path="url(#clip0_243_873)">
<path d="M29.3246 44.5783L31.9998 42.7906V58.7402L29.3246 60.1856V44.5783ZM33.0901 80.6995C23.1882 73.8658 19.803 70.7849 18.5098 68.2999L65.3444 43.2724V1.86424L58.3965 8.71066V44.5529L56.7863 45.4151V8.45708L49.8385 15.3035V49.1552L48.1776 50.0554V16.4953L41.2297 22.7458V53.7829L38.9476 55.0127V31.6842L22.3767 42.106V63.9384L18.5098 66.0177V26.8283L11.3591 33.979V72.0908C11.3591 72.0908 13.9455 78.6456 21.6794 83.4C29.426 88.1672 40.5324 95.9011 41.3312 108.111C42.1299 120.32 27.334 126.076 20.2974 124.39C13.2482 122.704 6.19889 119.432 3.91675 106.526C1.63461 93.6189 10.0659 86.6711 15.3275 86.3795C20.5891 86.0879 25.6478 90.6522 23.5685 97.3971L24.5574 97.0041C24.5574 97.0041 26.7001 90.9311 21.578 86.8866C15.9233 82.4238 7.47942 85.2004 2.8264 92.3384C2.8264 92.3384 -3.13253 100.085 2.2305 112.586C7.59353 125.087 25.1533 129.043 33.5972 124.681C42.0412 120.32 46.5928 113.879 46.5928 104.244C46.5928 94.6079 43.0174 87.5713 33.0901 80.7248M76.1211 46.6449V6.32709L69.3001 0.000488281C69.3001 0.000488281 69.3508 36.7049 69.3508 43.2597C69.3508 49.8145 64.7611 54.0872 64.7611 54.0872C64.7611 54.0872 67.7406 57.1174 70.9483 60.3124C76.8184 57.1681 76.1338 46.6195 76.1338 46.6195M94.8093 67.3236H92.654V82.0434H101.516V79.8881H94.8093V67.3236ZM53.1095 74.3475H51.8417V69.2C52.8179 69.0859 54.4788 68.9845 56.0763 69.3268C57.2428 69.5677 57.6865 70.3665 57.8513 70.8229C58.1429 71.6217 58.0035 72.5345 57.4836 73.1938C56.7483 74.132 54.2506 74.3856 53.1095 74.3475ZM60.8561 81.9547L60.6913 81.5743C59.6263 79.1654 58.2824 77.0607 57.4076 75.7929C58.1049 75.5013 58.7515 75.0956 59.1952 74.525C60.1715 73.2825 60.4377 71.5836 59.8926 70.0875C59.3474 68.6041 58.1302 67.5518 56.5328 67.2095C53.6294 66.6009 50.6753 67.1842 50.5485 67.2095L49.6863 67.387V82.0181H51.8417V76.5156H53.0842C53.2744 76.5156 54.1365 76.5282 55.1635 76.3888C55.8481 77.327 57.3061 79.457 58.4726 81.9673H60.8435L60.8561 81.9547ZM85.9977 67.2729C84.9961 69.2888 82.8915 73.5107 81.6109 76.2366C80.3304 73.4981 78.2384 69.2888 77.2242 67.2729H74.7265L73.7756 82.0434H75.9436L76.6536 70.9877C78.4793 74.6645 80.3811 78.6202 80.5713 79.2415L80.7741 79.9515H82.435L82.6379 79.2415C82.8154 78.6075 84.7299 74.6645 86.5429 70.9877L87.2529 82.0434H89.4209L88.47 67.2729H85.9724H85.9977ZM67.3222 73.2572L66.8151 73.067C65.002 72.3697 64.4315 72.0908 64.4315 70.7341C64.4315 68.9718 66.6629 68.8831 67.1193 68.8831C68.4379 68.8831 69.8199 69.4156 70.4918 69.6818L70.5552 69.7072L71.3286 67.6913L71.2652 67.6659C70.4792 67.3616 68.8436 66.7277 67.1193 66.7277C64.7104 66.7277 62.2761 67.9702 62.2761 70.7341C62.2761 73.4981 64.2794 74.3983 66.0417 75.0829L66.5488 75.2858C68.7802 76.1479 69.8579 76.6297 69.8579 78.2652C69.8579 79.4824 68.7676 80.1797 66.6249 80.3191C64.7104 80.4586 62.8594 79.5457 62.8467 79.5331L62.3649 80.4966L61.8831 81.4602C61.9719 81.5109 63.9497 82.4872 66.2445 82.4872C66.422 82.4872 66.5995 82.4872 66.777 82.4745C70.0988 82.2463 72.0133 80.7122 72.0133 78.2652C72.0133 75.0702 69.5156 74.1066 67.3222 73.2572ZM112.039 85.6822H114.195V65.4472H112.039V85.6822ZM137.194 79.9007V75.6027V75.5647C137.194 75.552 137.194 75.1209 137.523 74.7659C137.891 74.3856 138.601 74.17 139.565 74.17C140.883 74.17 141.428 75.159 141.644 75.7422C142.062 76.9213 141.885 78.6709 140.756 79.7232C139.07 80.1924 137.891 80.0782 137.194 79.9007ZM165.733 79.7486C164.389 80.167 163.426 80.0909 162.83 79.9388V72.1288L160.674 72.6233V79.8881C159.343 80.205 158.443 80.0402 157.949 79.8627V72.1415L155.793 72.6359V79.8247C154.069 80.2557 149.048 80.1543 147.007 80.1036C146.576 80.1036 146.17 80.0909 145.815 80.0782C144.649 80.0529 143.863 79.9641 143.343 79.8754C144.091 78.43 144.256 76.617 143.685 75.0322C143.013 73.1558 141.466 72.0274 139.577 72.0274C137.954 72.0274 136.725 72.4711 135.926 73.3333C135.051 74.2715 135.038 75.3745 135.051 75.6661V79.7359C133.111 80.2811 131.818 80.0529 131.184 79.8373C131.184 79.6472 131.184 79.457 131.171 79.2795C131.171 78.9752 131.146 78.6963 131.146 78.43L131.184 65.4725L129.029 66.0431L128.991 78.43C128.991 78.709 128.991 79.0259 129.016 79.3429C129.067 80.839 129.13 82.69 128.091 83.6409C127.342 84.3129 126.404 84.4143 125.758 84.3763C124.591 84.3129 123.412 83.7677 122.727 82.9943C121.891 82.0434 122.309 79.4697 122.639 78.3793L120.572 77.7454C120.433 78.2018 119.241 82.3097 121.105 84.4143C122.157 85.6188 123.894 86.4302 125.631 86.5189C125.745 86.5189 125.872 86.5189 125.986 86.5189C127.355 86.5189 128.61 86.0625 129.536 85.2131C130.512 84.3256 130.931 83.1718 131.095 82.0054C131.577 82.1195 132.148 82.1956 132.82 82.1956C133.682 82.1956 134.709 82.0688 135.888 81.7138C136.839 82.1068 138.855 82.6013 141.809 81.6631C142.443 81.904 143.634 82.1702 145.777 82.2082C146.132 82.2082 146.538 82.2209 146.969 82.2336C148.3 82.259 149.505 82.2843 150.582 82.2843C153.65 82.2843 155.679 82.1448 156.845 81.7138C157.365 81.942 158.177 82.2082 159.292 82.2082C159.99 82.2082 160.801 82.1068 161.714 81.8406C162.234 82.0307 162.944 82.2082 163.869 82.2082C164.795 82.2082 165.911 82.0307 167.217 81.5109L167.901 81.2447V72.1288L165.746 72.6233V79.7613L165.733 79.7486ZM172.098 72.5725V82.4364C172.098 82.9943 171.882 83.5268 171.477 83.9198C171.083 84.3002 170.564 84.5031 170.019 84.5031C169.486 84.5031 169.055 84.4523 168.725 84.4016L168.345 86.5316C168.776 86.6077 169.334 86.6584 169.968 86.6711C170.006 86.6711 170.031 86.6711 170.069 86.6711C171.16 86.6711 172.199 86.2527 172.985 85.4793C173.809 84.6806 174.266 83.6029 174.266 82.4491V72.2682L172.11 72.5852L172.098 72.5725Z" fill="white"/>
</g>
<defs>
<clipPath id="clip0_243_873">
<rect width="174.254" height="126.367" fill="white"/>
</clipPath>
</defs>
</svg>
