<svg width="192" height="89" viewBox="0 0 192 89" fill="none" xmlns="http://www.w3.org/2000/svg">
<g clip-path="url(#clip0_243_788)">
<path d="M168.033 63.1228C167.736 63.6756 166.487 65.1398 164.331 65.3041C164.079 65.3191 163.841 65.334 163.588 65.334C163.588 64.0193 164.956 62.7493 166.264 62.316C166.487 62.2413 166.799 62.1666 167.127 62.1666C167.335 62.1666 167.558 62.1965 167.766 62.2712C168.048 62.3609 168.227 62.4953 168.242 62.6149C168.242 62.7045 168.108 62.9734 168.048 63.078L168.019 63.1228H168.033ZM175.259 60.6427V60.5979C174.129 60.8519 172.955 60.6577 171.959 60.0451C171.959 60.0451 171.929 60.0302 171.899 60.0451C171.765 60.1347 171.289 61.0461 171.289 61.2105C171.289 61.2403 171.304 61.2553 171.319 61.2702C171.453 61.3599 171.587 61.4346 171.735 61.5093C171.512 61.6288 171.289 61.7633 171.066 61.9127C170.561 62.2413 170.085 62.6447 169.624 63.0332C169.253 63.3469 168.866 63.6756 168.465 63.9595C168.836 63.1527 169.223 61.7035 168.375 61.1059C167.245 60.314 165.699 61.1507 165.253 61.4346C164.272 62.0322 163.558 62.9286 163.216 63.9445C163.068 64.3928 162.978 64.8709 162.949 65.349C162.547 65.334 162.161 65.2892 161.789 65.2294C161.893 65.0651 161.997 64.9007 162.086 64.7215C162.205 64.4824 162.295 64.079 162.19 63.7503C162.146 63.6159 162.057 63.5262 161.967 63.5113C161.923 63.5113 161.819 63.5113 161.744 63.6906C161.254 64.7513 160.228 65.3041 158.711 65.3639C158.741 65.3191 158.756 65.2593 158.786 65.2145C159.039 64.6468 158.92 64.1388 158.726 64.0342C158.637 63.9894 158.518 64.0043 158.444 64.1985C158.132 64.8858 157.567 65.4237 156.883 65.6776C156.273 65.9017 155.634 65.8868 155.084 65.6029C155.753 65.0501 156.02 64.2434 155.857 63.825C155.723 63.4963 155.292 63.1677 153.984 63.4515L151.664 63.9744C151.426 64.0193 151.322 64.6019 151.367 64.9605C151.397 65.2145 151.486 65.349 151.605 65.349H151.635C152.051 65.349 152.512 65.334 152.943 65.4386L152.393 65.7374C152.259 65.8121 152.125 65.8719 151.991 65.9466C151.724 66.081 151.441 66.2304 151.174 66.3948C150.029 67.1119 148.973 68.4117 149.449 69.9058C149.657 70.5482 150.237 70.9964 151.188 71.2504C151.694 71.3849 152.229 71.4446 152.809 71.4446C153.463 71.4446 154.162 71.3699 154.935 71.2056C159.187 70.3092 161.64 67.9187 161.685 67.6498C161.685 67.6348 161.685 67.605 161.67 67.59C161.64 67.5601 161.611 67.59 161.581 67.59C159.559 68.7554 157.18 69.353 155.114 69.7713C153.448 70.1149 152.17 70.1149 151.084 69.7713C150.415 69.5472 150.059 69.2783 150.044 68.9795C150.014 68.5611 150.594 68.0382 151.709 67.4705C152.348 67.1418 153.017 66.7832 153.835 66.35C153.894 66.3201 153.954 66.2902 154.013 66.2454C154.088 66.35 154.177 66.4545 154.266 66.5591C154.489 66.7982 154.786 66.9775 155.158 67.097C155.991 67.351 156.898 67.1717 157.641 66.6189C157.671 66.6488 157.715 66.6786 157.76 66.7085C158.206 66.8878 159.648 66.7085 160.496 66.3051C161.343 66.5143 162.324 66.5292 163.112 66.5292C163.35 67.5303 163.588 68.0532 163.811 68.0233C163.945 68.0083 164.004 67.7992 164.004 67.6049C164.004 67.5751 163.975 67.4406 163.93 67.1269C163.885 66.8878 163.841 66.6338 163.826 66.4994C166.547 66.2304 167.9 65.1398 169.208 64.094C169.58 63.7952 169.922 63.5262 170.308 63.2573C172.077 62.0471 172.999 61.9874 173.832 61.9276C174.114 61.9127 174.382 61.8977 174.65 61.838C174.768 61.8081 174.873 61.5989 174.977 61.3748C174.991 61.33 175.006 61.3001 175.021 61.2852C175.021 61.2553 175.066 61.1806 175.125 61.0312C175.17 60.8967 175.259 60.7025 175.274 60.6875L175.244 60.6577L175.259 60.6427ZM146.178 61.584C145.658 61.0013 145.167 60.4634 144.929 59.5969C144.885 59.4176 144.795 59.3728 144.736 59.3728C144.647 59.3728 144.558 59.4176 144.483 59.5371C143.903 60.4933 145.063 65.5133 145.628 66.3798C145.702 66.4844 145.762 66.5292 145.806 66.5143C145.896 66.4844 146.089 66.4247 145.093 61.7633C145.093 61.7483 145.093 61.7184 145.093 61.7035C145.286 61.9724 145.479 62.2413 145.673 62.4953C145.866 62.7493 146.074 63.0182 146.252 63.2872C146.654 63.8549 147.026 64.4824 147.026 65.1248C147.026 65.7673 146.609 66.35 146.252 66.7384C145.331 67.7095 144.007 68.2026 142.818 68.5611C140.93 69.1139 134.834 69.6817 134.225 69.6518C134.002 69.6518 133.897 69.7862 133.883 69.9207C133.883 70.0552 133.972 70.2046 134.18 70.2195C134.7 70.2345 135.25 70.2643 135.815 70.2942C136.871 70.354 137.971 70.4137 139.086 70.4137C140.692 70.4137 142.283 70.2942 143.695 69.846C145.286 69.353 146.609 68.1876 147.249 66.7384C147.739 65.6478 147.784 64.4973 147.382 63.4216C147.1 62.6597 146.624 62.1218 146.163 61.6138M107.136 68.7703C107.136 68.7703 107.061 68.8301 107.017 68.8599C106.303 68.5761 105.158 67.9486 105.292 66.7832C105.292 66.7683 105.292 66.7085 105.337 66.6189C105.337 66.6189 105.367 66.5591 105.411 66.4545L105.441 66.4097C105.441 66.4097 105.5 66.3051 105.53 66.2603C105.604 66.1557 105.664 66.0362 105.753 65.9167C106.11 65.3938 106.511 64.8559 106.898 64.333H106.913C107.047 64.6169 107.24 64.8709 107.433 65.1398C107.686 65.4834 107.939 65.827 108.043 66.2454C108.295 67.2165 107.939 68.2175 107.151 68.8002M137.347 64.4675C137.585 64.2434 138.075 63.8997 138.447 64.079C138.715 64.2135 138.744 64.5123 138.685 64.7215C138.581 65.1248 138.343 65.4535 137.971 65.7075C137.748 65.7523 137.555 65.7523 137.391 65.7075C137.153 65.6328 137.005 65.5133 136.975 65.334C136.916 65.0352 137.139 64.6916 137.362 64.4675M136.707 67.5751C137.213 67.4854 137.644 67.3061 138.016 67.0671C138.06 67.0671 138.09 67.0522 138.135 67.0372C141.658 66.1258 142.521 64.1388 142.625 62.6149C142.744 60.8071 141.911 58.8648 140.305 57.311C140.231 57.2363 140.172 57.2513 140.127 57.2662C139.919 57.3708 139.845 58.0431 139.83 58.1178C139.77 59.9256 139.726 61.7035 139.963 63.4665C139.963 63.5561 140.008 63.7653 140.142 63.825C140.201 63.8549 140.276 63.825 140.365 63.7802C140.588 63.6009 140.603 63.0631 140.573 62.8539C140.395 61.5391 140.395 60.2244 140.424 59.0889C141.183 59.9405 141.703 60.8818 141.941 61.823C142.015 62.1218 142.045 62.3459 142.03 62.5999C142.03 62.6447 142.03 62.7792 142 62.839C141.971 63.0182 141.956 63.078 141.867 63.2573C141.614 63.84 141.108 64.3479 140.35 64.7962C140.008 65.0053 139.636 65.1846 139.205 65.334C139.398 64.5721 139.458 63.586 139.116 63.0631C138.952 62.8091 138.729 62.6746 138.432 62.6447C137.243 62.5551 136.44 64.094 136.351 65.1846C136.321 65.4685 136.321 65.8719 136.44 66.2454C135.771 66.3201 135.072 66.2454 134.448 66.0362C133.957 65.8719 133.377 65.5432 133.199 65.08C133.184 65.0352 133.169 65.0053 133.169 64.9904C133.169 64.9157 133.169 64.841 133.169 64.7663C133.169 64.587 133.169 64.1687 132.931 64.1388H132.916C132.886 64.1537 130.627 65.9615 127.356 66.828C124.68 67.5303 121.572 67.7095 118.346 67.336C116.428 67.1119 114.822 66.6338 113.41 65.8719C113.499 65.095 113.395 64.3031 113.098 63.5262C112.979 63.2274 112.845 62.9137 112.711 62.6149C112.339 61.8081 111.968 60.9714 112.027 60.06C112.027 59.9405 111.983 59.8808 111.953 59.8509C111.834 59.7762 111.641 59.8808 111.551 59.9405C111.328 60.1049 111.091 60.4336 111.076 60.7324C111.016 61.7334 111.403 62.6149 111.789 63.4665C112.131 64.2434 112.488 65.0501 112.503 65.9466C112.503 67.5153 111.67 68.7852 110.362 69.1737C109.663 69.3829 108.816 69.353 107.835 69.0841C108.875 68.0083 109.396 66.9625 109.351 66.0063C109.321 65.0352 108.846 64.5123 108.429 64.0342C108.117 63.6756 107.82 63.332 107.76 62.8688C107.745 62.7344 107.656 62.7045 107.612 62.7045C107.047 62.7045 104.683 65.7374 104.475 66.7384C104.237 67.844 104.638 68.9197 105.471 69.5323C104.638 69.7265 101.813 70.2942 100.163 70.608C100.089 70.608 100.044 70.6827 100.059 70.7574C100.059 70.8321 100.118 70.8918 100.193 70.8918C100.297 70.8918 100.386 70.8918 100.49 70.8918C102.319 70.8918 105.263 70.7723 106.571 70.0701C107.641 70.4735 108.697 70.593 109.574 70.4137C111.076 70.1149 112.444 68.845 113.083 67.1717C116.012 68.7703 119.298 68.9197 122.137 68.8599C125.274 68.7852 127.891 68.2325 130.166 67.1567C130.983 66.7683 131.786 66.3051 132.619 65.7225C133.02 67.4257 135.25 67.7992 136.737 67.5303M103.047 66.4994C102.913 66.0661 102.497 65.3041 101.07 65.095C100.564 65.0203 99.3006 64.9456 98.364 65.7374C98.1112 65.9466 98.0815 66.335 98.0815 66.5591C98.0815 66.6189 98.1261 67.0372 98.2747 67.1119C98.3045 67.1269 98.3639 67.1418 98.4234 67.082C98.9289 66.6637 99.6872 66.4097 100.475 66.4097C101.486 66.4097 102.14 66.6488 102.348 67.0372C102.453 67.2314 102.423 67.4705 102.274 67.7245C101.754 68.6358 100.222 69.099 99.0479 69.0392C97.5462 68.9496 96.4014 68.2325 96.1189 67.2165C95.9108 66.4844 96.223 65.7225 96.9367 65.1248C97.7246 64.4675 98.7356 63.8549 99.7318 63.2573C101.531 62.1666 103.077 61.2254 102.75 60.3887C102.705 60.2991 102.646 60.2244 102.586 60.2244C102.542 60.2244 102.497 60.2244 102.438 60.314C101.992 61.0611 100.802 61.7035 99.5236 62.3758C97.3827 63.5113 94.9444 64.7962 94.9444 67.1418C94.9444 69.0093 96.7434 70.4586 99.033 70.4586C100.252 70.4586 101.397 70.0402 102.185 69.3231C102.973 68.606 103.315 67.4406 103.047 66.4844M83.2139 64.9306C84.5074 65.4984 85.1021 67.4555 83.318 68.8301C81.9799 67.4705 82.0542 65.9316 83.2139 64.9306ZM92.9819 65.4237C93.1752 64.5422 93.0116 63.5561 92.5359 62.7194C92.0601 61.8977 91.4654 61.1507 90.8856 60.4186C90.6625 60.1497 90.4395 59.8658 90.2314 59.582C90.1868 59.5073 90.1124 59.5073 90.0381 59.5521C89.6515 59.8359 89.1312 62.0172 90.3057 64.6318C90.5585 65.2145 90.6179 65.2593 90.6774 65.2444C90.7517 65.2145 90.7369 65.095 90.6477 64.4077C90.5436 63.6756 90.3949 62.5999 90.4247 61.569L90.4693 61.6288C90.9302 62.2115 91.4059 62.824 91.8371 63.4515C92.1047 63.8549 92.4466 64.3479 92.4466 64.8858C92.4466 65.5133 91.51 65.7673 91.0491 65.7972C90.1124 65.842 89.2947 65.3788 88.6108 64.4077C87.7039 63.1228 86.9902 61.6138 86.4996 59.9256C86.455 59.7911 86.3955 59.7164 86.3063 59.7015C86.2171 59.7015 86.1279 59.7463 86.0536 59.8658C85.9049 60.1049 85.8603 60.5381 85.9495 60.8369C86.4699 62.5999 87.1984 64.1687 88.1202 65.4984C88.1648 65.5581 88.2094 65.6328 88.254 65.6926C88.1499 69.2932 85.4589 69.2783 84.5074 68.8301C84.9088 68.0681 85.221 67.2165 85.0277 66.1258C84.7006 64.4077 83.0206 63.1527 83.0206 63.1527C83.0206 63.1527 80.3147 67.0671 82.6489 69.2783C81.7569 69.7713 80.5675 69.9805 79.7795 70.1299C79.0658 70.2643 78.7833 70.3092 78.7833 70.4586C78.7833 70.5034 78.8279 70.5333 78.8577 70.5482C79.051 70.6379 79.7497 70.7574 80.5972 70.7574C81.6825 70.7574 82.9909 70.5781 83.6748 69.9506C86.1279 71.1309 88.4324 70.1299 88.819 66.35C89.4731 66.9775 90.2016 67.2613 90.9896 67.2016C92.0304 67.1119 92.7589 66.4695 92.9819 65.4386M79.155 66.1408C79.0956 65.9615 79.0212 65.9167 78.9617 65.9167C78.9023 65.9167 78.8131 65.9167 78.709 66.081C78.3076 66.7235 77.6534 67.1269 77.029 67.1119C76.4194 67.097 75.9139 66.6637 75.4976 65.7822C74.7393 64.1537 74.1447 62.4057 73.5797 60.6875L73.4905 60.4186C73.431 60.2543 73.3567 60.1945 73.2972 60.1945C73.208 60.1945 73.1337 60.2393 73.0593 60.3589C72.9106 60.5979 72.866 61.0461 72.9552 61.33C73.3269 62.4505 73.7284 63.5412 74.1298 64.6019C74.2041 64.7962 74.2785 65.0053 74.3528 65.1995C74.6204 65.9466 74.9029 66.7085 75.3043 67.3659C75.7504 68.1129 76.3302 68.5014 76.9695 68.5014C77.0438 68.5014 77.1182 68.5014 77.1925 68.4864C78.0994 68.352 78.709 67.6647 79.0658 67.097C79.2145 66.8579 79.2591 66.4097 79.1699 66.1258M72.3903 65.9167C72.5389 65.6776 72.5835 65.2444 72.4943 64.9456C72.4349 64.7663 72.3605 64.7215 72.3011 64.7215C72.2416 64.7215 72.1524 64.7364 72.0483 64.8858C71.6172 65.588 70.7251 65.9764 69.952 65.7972C69.4316 65.6776 68.941 65.0053 68.9856 64.4824C68.9856 64.4376 69.0005 64.2434 68.9856 64.079C68.9559 63.825 68.8369 63.7653 68.7626 63.7503C68.4652 63.7204 68.3909 64.3479 68.3909 64.4077C68.3166 65.0501 68.4355 66.0362 68.9559 66.6637C68.4206 67.1269 67.93 67.4107 67.4394 67.5601C67.0528 67.6797 66.6514 67.7095 66.2648 67.6348C66.1162 67.6049 65.8931 67.5601 65.7593 67.4406C65.6255 67.3211 65.6255 67.3061 65.685 67.1269V67.082C65.7742 66.8579 65.8337 66.5292 65.7445 66.2603C65.7296 66.2006 65.6701 66.0511 65.5512 66.0213C65.5066 66.0213 65.4471 66.0213 65.3728 66.096C65.343 66.1259 65.3133 66.1557 65.2687 66.1856C65.2687 66.1856 65.239 66.2155 65.2241 66.2304C65.1944 66.2603 65.1498 66.2902 65.1349 66.3051C65.0606 66.3649 64.9714 66.4247 64.8673 66.4844C64.3172 66.843 63.663 67.1567 62.8304 67.4556C60.8828 68.1577 58.0877 68.8749 52.1704 68.8898C52.1555 68.8898 52.1258 68.8898 52.1109 68.8898C49.851 68.8898 47.9628 68.606 46.3423 68.0083C44.1121 67.2016 42.9971 66.2304 43.1903 65.2742C43.458 63.9147 46.4463 62.8091 50.4755 63.2872C53.6869 63.6756 59.0987 64.2882 59.3514 63.8848C59.3663 63.8549 59.3663 63.825 59.3514 63.7952C59.2325 63.5262 57.3294 63.1228 55.5156 62.839C53.0029 62.4356 50.3268 62.1965 48.171 62.1666C44.7514 62.1368 42.4767 63.0929 42.0604 64.7663C41.7482 66.0511 42.6254 67.4555 44.3946 68.5611C45.703 69.3679 47.3384 69.8908 49.3901 70.1299C50.3862 70.2494 51.3824 70.2942 52.3636 70.2942C53.9099 70.2942 55.3966 70.1747 56.6455 70.0552C58.5932 69.8759 60.2732 69.5771 61.76 69.1438C62.875 68.8301 63.7373 68.4864 64.4956 68.0681L64.5699 68.0233C64.7037 67.9486 64.8524 67.8589 65.0011 67.7693C65.0011 67.9187 65.0457 68.0681 65.0903 68.2026C65.2538 68.7105 65.685 68.9944 66.3838 69.0392C67.6624 69.1289 68.7328 68.2773 69.5208 67.5153C69.61 67.4257 69.6546 67.2613 69.6695 67.1269C70.7102 67.4705 71.8104 66.7533 72.3605 65.8569M27.2225 69.5472C27.3861 68.6807 28.2335 68.2623 29.081 67.9038C29.3189 67.7992 29.5716 67.6946 29.8095 67.6049C30.2704 67.4257 30.7462 67.2314 31.2071 67.0073C31.9653 66.6488 32.679 66.2753 33.1696 65.6627C33.6305 65.095 33.8684 64.094 33.4967 63.4067C33.1993 62.8688 32.5897 62.9286 32.0843 63.0332C31.8761 63.078 31.6531 63.1378 31.4301 63.2125C31.5639 61.3449 31.2814 60.7324 29.8095 59.6567C29.6311 59.5222 29.4378 59.5371 29.2594 59.6716C28.6498 60.1945 28.293 62.3459 28.5606 63.2125C28.6498 63.5262 28.8134 63.586 28.9175 63.586C29.0067 63.586 29.0364 63.4216 29.1553 62.7643C29.2445 62.2413 29.3783 61.4495 29.5568 61.3897C29.5568 61.3897 29.5865 61.3897 29.6311 61.4346C30.6867 62.0172 30.5975 63.1079 30.5678 63.5262C30.5678 63.5561 30.5678 63.586 30.5678 63.6009C30.4934 63.6308 30.4042 63.6756 30.3299 63.7204C29.8095 63.9744 29.1405 64.2882 28.7242 64.5571C28.5458 64.6766 28.4714 65.0501 28.4714 65.349C28.4714 65.5731 28.5012 65.8569 28.6201 65.9316C28.6498 65.9466 28.6944 65.9615 28.7688 65.9316C29.4527 65.5133 30.1217 65.1547 30.7759 64.8709C30.8502 64.8709 30.9097 64.841 30.984 64.7812C31.0881 64.7364 31.1922 64.6916 31.2963 64.6617H31.3409C31.8018 64.4675 32.3667 64.2583 32.8425 64.3928C32.902 64.4077 32.9466 64.4376 32.9763 64.4525C32.9168 64.5272 32.8425 64.6169 32.7533 64.6916C31.9207 65.4535 30.8502 65.8569 29.8095 66.2603C29.5419 66.3649 29.2594 66.4695 29.0067 66.5741C27.3118 67.2763 27.1928 67.7693 27.0441 68.4566C27.0144 68.6209 26.9698 68.7852 26.9103 68.9645C26.4792 70.2643 24.7099 70.4884 22.8366 70.7275C21.9594 70.847 21.0525 70.9516 20.2348 71.1907C20.1307 71.2355 20.0118 71.2952 20.0415 71.3849C20.101 71.6538 21.9148 71.7136 23.1042 71.7136C23.6097 71.7136 24.0112 71.7136 24.1004 71.6837C25.9291 71.4297 26.9847 71.0263 27.2672 69.5323M24.4572 66.8131C24.8289 65.349 24.6356 63.4515 23.9665 61.9724C23.6097 61.1806 23.015 60.2244 22.4055 59.9106C22.3757 59.8957 22.3162 59.8808 22.2716 59.9405C22.0189 60.2543 22.004 62.2563 22.004 63.0929C22.004 64.4376 22.0932 65.9466 22.227 66.1707C22.2568 66.2155 22.2865 66.2155 22.3014 66.2155C22.3608 66.2006 22.5244 66.1557 22.6433 61.823C22.8515 62.0172 23.0596 62.2862 23.2529 62.585C23.8922 63.6308 24.2044 65.1995 23.9814 66.2304C23.7881 67.1119 23.0745 67.9038 21.8702 68.591C20.7551 69.2335 19.3873 69.6966 17.6924 69.9954C17.6924 69.9954 15.8191 70.3042 12.0725 70.9217C14.035 70.3839 15.2244 69.338 16.2651 68.2623C16.503 68.0083 16.7409 67.7245 16.9639 67.4406C17.5438 66.7235 18.1385 65.9914 18.971 65.7225C19.4765 65.5581 19.8036 65.7822 19.9077 65.8868C19.9077 65.8868 19.9374 65.9466 19.9523 65.9466C20.0564 66.0661 20.1456 66.0511 20.205 66.0362C20.324 65.9764 20.4132 65.7374 20.3983 65.4237C20.3983 64.9904 20.205 64.4077 19.7442 64.2135C19.2833 64.0193 18.4209 64.1836 16.9342 65.9914C16.8747 66.0661 16.8004 66.1557 16.7409 66.2304C16.3543 66.7085 15.9827 67.1567 15.5218 67.5452C15.1055 67.8888 14.6446 68.1727 14.1837 68.4416C14.0945 68.5014 14.0053 68.5462 13.9012 68.606C12.013 69.7564 8.51913 70.1747 6.43766 70.4287C5.09958 70.593 4.8171 70.6379 4.8171 70.7574C4.8171 70.8321 4.87657 70.8918 5.64968 71.0114C6.88369 71.2056 7.96903 71.2803 8.93542 71.2803C10.0802 71.2803 11.0317 71.1608 11.8643 70.9516C11.8643 71.0263 11.9238 71.0711 11.9387 71.0711C12.2212 71.2654 13.4849 71.5044 15.1203 71.5044C17.2167 71.5044 19.9374 71.1309 22.0635 69.8311C23.3272 69.0542 24.1598 68.0083 24.472 66.7982M35.0578 60.6128C34.924 60.5531 34.8199 60.6128 34.7455 60.7473C34.2995 61.7035 35.251 67.4406 35.935 67.8739C35.9944 67.9038 36.0985 67.9486 36.1877 67.7842C36.3512 67.5153 36.1282 66.5442 35.8606 65.3191C35.6376 64.3181 35.3849 63.1975 35.2957 62.2264C35.8457 62.57 36.381 63.0033 36.8419 63.4963C37.4068 64.094 37.7934 64.7215 37.9867 65.3639C38.1948 66.0362 38.1502 66.6637 37.8529 67.2314C36.9906 68.9048 34.2252 69.7116 33.0655 69.9655C31.5341 70.3241 29.9879 70.5333 28.7539 70.7126C27.4902 70.8918 26.5684 71.0263 26.3008 71.2056C26.2562 71.2355 26.2562 71.2803 26.271 71.2952C26.3305 71.4745 28.0849 71.5492 29.7649 71.5492C31.0584 71.5492 32.3073 71.5044 32.7384 71.4148C33.9278 71.1608 35.4592 70.7574 36.7527 69.8161C37.7042 69.1289 38.3286 68.2474 38.5963 67.2165C38.9679 65.7822 38.6706 64.1836 37.7934 62.9435C37.0798 61.9425 36.1134 61.1059 35.0578 60.583M7.27025 65.6478C7.6122 65.6926 7.87982 65.9167 8.14744 66.1408C8.25151 66.2304 8.37045 66.3201 8.48939 66.4097C9.23277 66.9177 10.1694 67.0522 11.1358 66.7982C12.1171 66.5292 12.8159 65.7822 12.9943 64.7812C13.1578 63.8549 12.9348 62.7045 12.0576 62.4206C11.9238 62.3758 11.8049 62.5252 11.7157 62.8091C11.6116 63.1826 11.6265 63.7354 11.8941 63.825C12.1468 63.8997 12.3252 64.1089 12.3996 64.3629C12.459 64.5721 12.2806 64.7513 12.1022 64.9306C11.6265 65.3639 10.8831 65.588 10.0951 65.5282C9.69367 65.4984 9.33684 65.3938 9.02462 65.2294C8.83135 65.1248 8.63807 64.9754 8.47452 64.841C8.35558 64.7364 8.22178 64.6318 8.08797 64.5422C7.32972 64.0342 6.55661 64.3181 6.03624 64.587C5.4118 64.9007 4.83197 65.3788 4.3562 65.9764C3.7615 66.7384 3.19653 67.0223 2.7059 66.8131C2.08146 66.5442 1.70977 65.4834 1.72464 64.8709C1.75438 64.1238 2.25987 63.5262 2.7505 63.2722C3.256 63.0182 3.79123 62.8091 4.3116 62.5999C4.62382 62.4804 4.95091 62.3459 5.27799 62.2115C5.30773 62.2115 7.523 61.2254 7.62707 60.1945C8.08797 60.075 8.92055 59.8509 9.30711 59.567C9.57473 59.3877 9.58959 58.9246 9.58959 58.7453C9.58959 58.7453 9.57473 58.2971 9.41118 58.1925C9.38145 58.1776 9.32198 58.1626 9.26251 58.1925C8.40019 58.8051 7.31485 58.9096 6.27412 59.0142C6.03624 59.0441 5.79836 59.059 5.57534 59.0889C5.4564 59.0889 5.3672 59.2084 5.29286 59.3877C5.15905 59.7164 5.15905 60.2244 5.29286 60.4186C5.33746 60.4933 5.39693 60.5083 5.44154 60.4933C5.56048 60.4933 5.79836 60.4485 6.08084 60.3887C6.4228 60.329 6.79449 60.2692 7.00263 60.2543C6.72015 60.6278 6.18492 61.0162 5.39693 61.4346C4.99551 61.6437 4.50488 61.823 3.98451 62.0172C2.63156 62.5103 1.08533 63.0631 0.832585 64.4226C0.475763 66.335 1.51649 67.7992 2.6613 68.2175C2.79511 68.2623 2.92891 68.2922 3.06272 68.2922C3.34521 68.2922 3.64256 68.1727 3.89531 67.9486C4.11832 67.7544 4.29673 67.5153 4.47514 67.2912C4.57922 67.1418 4.69816 66.9924 4.8171 66.8729C5.14418 66.5143 5.53074 66.2006 5.9619 65.9764C6.36333 65.7673 6.82422 65.5581 7.27025 65.6328M11.0912 67.2016C10.2438 67.5452 9.36658 67.7095 8.45966 67.6796C8.35558 67.6796 8.28125 67.7394 8.20691 67.8739C8.04336 68.1577 8.01363 68.7105 8.13257 68.9496C8.19204 69.0542 8.26638 69.0841 8.31098 69.0841C8.35558 69.0841 8.40019 69.0841 8.44479 69.0841C9.35171 69.0841 10.2586 68.9048 11.121 68.5611C11.4034 68.4566 11.4778 67.7245 11.3588 67.3808C11.2994 67.2165 11.2102 67.1418 11.0912 67.1866M73.1634 68.6209C73.1485 68.5163 73.1188 68.337 73.0147 68.2922L72.2862 67.9336C72.2862 67.9336 72.1524 67.9038 72.0929 67.9336C71.9443 68.0083 71.8848 68.2773 71.855 68.3819C71.8104 68.591 71.8104 68.7554 71.8253 68.9048C71.8402 69.0243 71.8699 69.2036 71.974 69.2633L72.7025 69.6219C72.7025 69.6219 72.762 69.6518 72.8066 69.6518C72.8512 69.6518 72.866 69.6518 72.8958 69.6219C73.0444 69.5323 73.1188 69.2633 73.1337 69.1737C73.1783 68.9645 73.1783 68.8002 73.1634 68.6508V68.6209ZM64.005 70.1299C63.9901 70.0253 63.9604 69.846 63.8563 69.8012L63.1278 69.4426C63.1278 69.4426 62.994 69.4127 62.9345 69.4426C62.7858 69.5323 62.7115 69.8012 62.6966 69.8908C62.652 70.1 62.652 70.2643 62.6669 70.4137C62.6669 70.5333 62.7115 70.7126 62.8156 70.7723L63.5441 71.1309C63.5441 71.1309 63.6035 71.1608 63.6481 71.1608C63.6927 71.1608 63.7076 71.1608 63.7373 71.1309C63.886 71.0562 63.9604 70.7723 63.9752 70.6827C64.0198 70.4735 64.0198 70.3092 64.005 70.1598V70.1299ZM76.5383 63.0481C76.5532 63.1527 76.5829 63.332 76.687 63.3768L77.4155 63.7354C77.4155 63.7354 77.475 63.7653 77.5196 63.7653C77.5493 63.7653 77.5791 63.7653 77.6088 63.7354C77.7575 63.6457 77.8318 63.3768 77.8467 63.2872C77.8913 63.078 77.8913 62.9137 77.8764 62.7643C77.8615 62.6447 77.8318 62.4655 77.7277 62.4057L76.9992 62.0471C76.9992 62.0471 76.8654 62.0172 76.8059 62.0471C76.6573 62.1368 76.5829 62.4057 76.5681 62.4953C76.5235 62.7045 76.5235 62.8688 76.5383 63.0182V63.0481ZM69.6546 69.2932C68.8815 69.4576 68.0787 69.6219 67.2758 69.7713C67.1569 69.8012 67.0528 69.9058 66.9785 70.1149C66.8595 70.4586 66.8744 70.9516 67.0082 71.1159C67.0528 71.1608 67.0974 71.1757 67.1272 71.1757C67.1272 71.1757 67.142 71.1757 67.1569 71.1757C67.9895 71.0263 68.8369 70.847 69.6844 70.6677C69.7884 70.6528 69.8628 70.5333 69.9223 70.354C70.0115 70.0402 70.0263 69.5771 69.8777 69.3829C69.8182 69.3082 69.7438 69.2783 69.6695 69.3082M105.575 61.4196C105.575 61.4196 105.604 61.4196 105.619 61.4196C107.047 60.8668 108.459 60.2094 109.812 59.4624C109.961 59.3877 109.99 58.9694 109.916 58.8051C109.871 58.7154 109.812 58.7154 109.767 58.7453C108.414 59.4774 107.002 60.1347 105.575 60.6875C105.426 60.7473 105.381 61.1208 105.441 61.3001C105.471 61.3748 105.515 61.4196 105.56 61.4196M81.296 62.4356C81.296 62.4356 81.3257 62.4356 81.3406 62.4356C81.8163 62.2413 82.2475 61.9874 82.6192 61.6587C82.9314 61.3897 83.3477 61.0162 83.3477 60.4634C83.3477 60.314 83.3031 60.1945 83.2287 60.1348C83.0801 60.0003 82.8422 60.0152 82.6043 60.0451C82.5448 60.0451 82.4854 60.0451 82.4259 60.0451H82.3664C82.3664 60.0451 82.411 60.0152 82.4259 60.0003C82.6489 59.821 82.8571 59.6417 83.0801 59.4325C83.1693 59.3429 83.1841 59.059 83.1544 58.9096C83.1395 58.82 83.1098 58.7752 83.0652 58.7453C83.0355 58.7453 83.0057 58.7453 82.9463 58.7901C82.8273 58.8947 82.7084 58.9993 82.5597 59.1188C82.1731 59.4176 81.7569 59.7463 81.7271 60.2841C81.7123 60.568 81.7866 60.7473 81.965 60.8071C82.0393 60.8369 82.2178 60.8071 82.4259 60.7921C82.5597 60.7772 82.6935 60.7622 82.8125 60.7622C82.634 60.9415 82.3962 61.1208 82.2624 61.2105L82.2178 61.2403C81.9501 61.4346 81.6528 61.5989 81.3108 61.7334C81.2216 61.7782 81.177 61.9276 81.1622 62.0023C81.1324 62.1666 81.1622 62.3609 81.2216 62.4356C81.2365 62.4505 81.2662 62.4655 81.296 62.4655M135.488 61.6736C135.696 61.7184 135.919 61.7334 136.128 61.7334C137.079 61.7334 138.001 61.3599 138.774 60.6577C138.982 60.4634 139.027 59.6567 138.848 59.4176C138.819 59.3728 138.729 59.2831 138.581 59.4176C137.778 60.1497 136.707 60.4634 135.637 60.2841C135.429 60.2393 135.295 60.583 135.25 60.8818C135.191 61.2403 135.25 61.6437 135.473 61.6886M132.217 68.7554C131.667 68.6956 131.117 68.6807 130.523 68.7554C130.255 68.7852 129.809 69.4127 129.839 69.7265C129.839 69.7862 129.883 69.9207 130.062 69.9058C130.552 69.861 131.043 69.861 131.578 69.9207C131.578 69.9207 131.593 69.9207 131.608 69.9207C131.92 69.9207 132.336 69.3082 132.381 68.9795C132.381 68.845 132.336 68.7703 132.247 68.7554M97.5908 61.5391C97.9328 61.569 98.2747 61.584 98.6167 61.584C98.8843 61.584 99.1519 61.584 99.4195 61.5541C99.7318 61.5391 99.9548 61.2254 100.074 61.0461C100.074 61.0461 100.282 60.6427 100.193 60.4634C100.178 60.4336 100.133 60.3887 100.059 60.3887C99.4493 60.4186 98.8397 60.4186 98.245 60.3738C98.0369 60.3738 97.7841 60.6278 97.6354 60.8818C97.5165 61.076 97.4124 61.315 97.4719 61.4495C97.4868 61.4794 97.5165 61.5242 97.5908 61.5391ZM157.805 61.8828C158.295 61.8828 158.771 61.9425 159.247 62.0621C159.262 62.0621 159.276 62.0621 159.291 62.0621C159.574 62.0621 159.96 61.5392 160.035 61.2105C160.064 61.0461 160.035 60.9266 159.901 60.8967C159.425 60.7772 158.934 60.7174 158.444 60.7174C158.132 60.7174 157.879 61.076 157.79 61.2254C157.79 61.2254 157.582 61.6138 157.656 61.7931C157.671 61.823 157.715 61.8678 157.79 61.8678M93.5022 69.3231C93.5022 69.3231 93.3833 69.3231 93.309 69.3829C92.967 69.6817 92.5061 69.8161 91.9114 69.8012C91.733 69.8012 91.5546 69.7862 91.4803 69.6817C91.4505 69.6368 91.4357 69.5621 91.4505 69.4576C91.4951 69.2335 91.7627 69.0691 91.9709 68.9346C92.0006 68.9197 92.0452 68.8898 92.075 68.8749C92.2088 68.7852 92.3426 68.4715 92.2831 68.3669C92.2534 68.3221 92.1939 68.2922 92.0601 68.3819C91.7181 68.6209 91.3316 68.9048 91.0937 69.2932C90.9004 69.607 90.7815 70.0552 91.064 70.2942C91.1978 70.4137 91.4059 70.4436 91.6141 70.4436C91.8073 70.4436 92.0006 70.4137 92.1642 70.3839H92.2088C92.6399 70.3092 93.0265 70.1299 93.3536 69.861C93.4428 69.7862 93.6361 69.607 93.5915 69.4426C93.5766 69.3679 93.532 69.338 93.5022 69.3231ZM52.3934 60.5531C52.4974 60.6128 52.661 60.5381 52.7651 60.4485C53.1516 60.1198 53.7463 60.0451 54.2667 60.0302C54.5343 60.0302 54.7871 60.0302 55.0249 60.06C55.0695 60.06 55.129 60.075 55.1885 60.0899C55.2033 60.0899 55.2182 60.0899 55.2331 60.0899C55.1439 60.1497 55.0398 60.2094 54.9209 60.2841C54.2369 60.6726 53.4787 60.8668 52.7651 60.8519C52.5123 60.8519 52.438 60.9266 52.4082 60.9864C52.3785 61.0611 52.4082 61.1507 52.4974 61.2403C52.6461 61.3897 53.0029 61.569 53.5382 61.569C53.9396 61.569 54.4302 61.4644 54.9803 61.1806C55.5602 60.8818 56.4522 60.1198 56.4076 59.3429C56.3779 58.82 55.6345 58.8349 55.2479 58.8499C55.2033 58.8499 55.1587 58.8499 55.1141 58.8499C54.4451 58.8499 53.4787 58.9246 52.7799 59.5371C52.6313 59.6716 52.2893 60.0003 52.3042 60.329C52.3042 60.4634 52.3636 60.5232 52.4082 60.5381M3.68716 75.7923L0 86.1759H2.49775L3.24113 83.9498H6.43766L7.21078 86.1759H9.75314L5.9619 75.7923H3.68716ZM4.80223 79.2136L5.64968 81.7087H3.98451L4.8171 79.2136H4.80223ZM12.4293 75.867H10.0951V86.1759H16.9193V83.9348H12.4293V75.867ZM29.3635 75.7923H26.1967L22.9407 79.6917V75.7923H20.6065V86.1759H22.9407V83.0384L24.0855 81.7535L26.4346 86.1609H29.423L25.7209 79.9158L29.3783 75.7624L29.3635 75.7923ZM31.1476 80.9766C31.1476 79.9308 31.3557 79.1389 31.7572 78.6459C32.1586 78.1529 32.679 77.8989 33.348 77.8989C34.017 77.8989 34.5374 78.1379 34.9388 78.631C35.3403 79.124 35.5484 79.9009 35.5484 80.9467C35.5484 81.9926 35.3403 82.7993 34.924 83.3073C34.5077 83.8153 34.0022 84.0693 33.348 84.0693C32.6938 84.0693 32.1883 83.8153 31.772 83.3073C31.3557 82.7993 31.1327 82.0075 31.1327 80.9766M33.3331 75.6279C32.5749 75.6279 31.891 75.7624 31.3111 76.0313C30.8651 76.2405 30.4488 76.5543 30.0623 76.9726C29.6906 77.3909 29.3932 77.869 29.1851 78.4069C28.9026 79.124 28.7539 80.0055 28.7539 81.0364C28.7539 82.6649 29.1702 83.9796 30.0028 84.9059C30.8354 85.8472 31.9653 86.3253 33.3629 86.3253C34.7604 86.3253 35.8606 85.8472 36.7081 84.891C37.5407 83.9498 37.9569 82.6201 37.9569 80.9766C37.9569 79.3332 37.5258 77.9885 36.6932 77.0323C35.8606 76.0762 34.7307 75.5981 33.348 75.5981M44.0527 79.3631C43.9188 79.5125 43.7256 79.6021 43.4877 79.632C43.3836 79.632 43.0714 79.6619 42.2091 79.6619H41.3022V77.9885H42.0753C43.116 77.9885 43.4728 78.0035 43.5769 78.0184C43.8148 78.0483 43.9783 78.1379 44.0824 78.2724C44.1865 78.4069 44.2459 78.5862 44.2459 78.8103C44.2459 79.0344 44.1865 79.2286 44.0675 79.3631M41.3022 81.873H42.4916C43.4728 81.873 43.8594 81.9477 44.0081 81.9926C44.2013 82.0673 44.35 82.1719 44.4392 82.3362C44.5433 82.4856 44.5879 82.6798 44.5879 82.9189C44.5879 83.2027 44.5284 83.397 44.4095 83.5613C44.2757 83.7256 44.1121 83.8153 43.904 83.8601C43.7999 83.89 43.5026 83.9199 42.7294 83.9199H41.3319V81.888L41.3022 81.873ZM45.2718 80.5882C45.4799 80.4089 45.6584 80.1997 45.807 79.9457C46.0598 79.5125 46.1936 79.0344 46.1936 78.5264C46.1936 78.0483 46.0895 77.615 45.8814 77.2266C45.6732 76.8531 45.4205 76.5393 45.1083 76.3152C44.8109 76.0911 44.4541 75.9417 44.0675 75.867C43.6958 75.8072 43.1755 75.7624 42.447 75.7624H38.6111V86.146H41.9266C43.1011 86.146 43.8148 86.1161 44.127 86.0713C44.6474 86.0115 45.0934 85.8322 45.4651 85.5484C45.8219 85.2645 46.1193 84.891 46.3274 84.4278C46.5355 83.9647 46.6396 83.4866 46.6396 82.9936C46.6396 82.3661 46.4761 81.8133 46.149 81.3352C45.926 81.0214 45.6435 80.7525 45.2867 80.5732M49.9105 75.8222H47.5763V86.1311H54.4005V83.89H49.9105V75.8222ZM60.6895 81.6639H59.0243L59.8569 79.1688L60.7044 81.6639H60.6895ZM58.727 75.7325L55.0398 86.1161H57.5376L58.2809 83.89H61.4775L62.2506 86.1161H64.7929L61.0017 75.7325H58.727ZM70.74 81.5294L67.4988 75.7325H65.3282V86.1161H67.5434V80.4686L70.7251 86.1161H72.9552V75.7325H70.74V81.5294ZM77.2074 80.2296H79.3037V86.654H81.1473V80.2296H83.2287V78.4517H77.2074V80.2296ZM88.5365 81.2306C88.3878 81.0065 88.1648 80.8123 87.8823 80.6629C87.5998 80.5284 87.2876 80.4537 86.9456 80.4537C86.4401 80.4537 85.9941 80.633 85.5927 80.9766V78.4517H83.8234V86.654H85.5927V83.6211C85.5927 83.1729 85.6373 82.8442 85.6968 82.635C85.7562 82.4408 85.8603 82.3063 85.9941 82.2167C86.1428 82.127 86.2915 82.0673 86.4847 82.0673C86.6334 82.0673 86.7672 82.0971 86.8564 82.1718C86.9456 82.2316 87.0051 82.3213 87.0497 82.4408C87.0795 82.5155 87.1092 82.7545 87.1092 83.4866V86.6839H88.8784V83.1579C88.8784 82.635 88.8487 82.2466 88.8041 81.9926C88.7446 81.7236 88.6554 81.4697 88.5067 81.2455M91.3911 82.9189C91.4208 82.6798 91.4951 82.4856 91.6141 82.3362C91.7627 82.1569 91.956 82.0673 92.179 82.0673C92.402 82.0673 92.5805 82.1569 92.7291 82.3362C92.8481 82.4707 92.9224 82.6649 92.9521 82.9189H91.3762H91.3911ZM92.1047 80.4686C91.3762 80.4686 90.7517 80.7674 90.276 81.3352C89.8002 81.9029 89.5623 82.6948 89.5623 83.6808C89.5623 84.5025 89.7408 85.2048 90.1124 85.7426C90.5733 86.4448 91.3018 86.7884 92.2534 86.7884C92.8481 86.7884 93.3684 86.6241 93.7699 86.3253C94.1862 86.0115 94.4835 85.5633 94.6619 84.9806L94.7511 84.7267L92.967 84.398L92.9075 84.5922C92.8481 84.8312 92.7589 84.9956 92.6548 85.0852C92.5507 85.1749 92.4169 85.2197 92.2534 85.2197C92.0006 85.2197 91.7925 85.1301 91.6289 84.9209C91.4951 84.7565 91.4059 84.5474 91.3762 84.2784H94.7363V84.0543C94.766 82.8591 94.5281 81.9627 94.0523 81.3651C93.5766 80.7674 92.9075 80.4537 92.0898 80.4537M97.9774 80.4537C97.7246 80.4537 97.4868 80.5284 97.2786 80.6629C97.1894 80.7226 97.1151 80.7973 97.0259 80.9019V80.5732H95.3458V86.639H97.1151V84.6818C97.1151 83.5314 97.1745 83.0533 97.2191 82.8591C97.2935 82.5454 97.3976 82.4109 97.457 82.3511C97.5462 82.2764 97.6652 82.2316 97.8139 82.2316C97.9625 82.2316 98.1409 82.3063 98.3342 82.4408L98.5572 82.6051L99.1222 80.8571L98.9735 80.7674C98.6613 80.5583 98.3194 80.4537 97.9774 80.4537ZM106.482 80.7376C106.184 80.5583 105.827 80.4537 105.426 80.4537C105.099 80.4537 104.787 80.5433 104.504 80.7077C104.296 80.8272 104.088 80.9916 103.895 81.2007C103.746 80.9916 103.582 80.8272 103.374 80.7077C103.107 80.5433 102.78 80.4537 102.423 80.4537C101.902 80.4537 101.442 80.6479 101.04 81.0065V80.5732H99.3749V86.639H101.144V83.6808C101.144 83.0384 101.204 82.7396 101.233 82.6051C101.293 82.4258 101.382 82.2764 101.516 82.1868C101.65 82.0822 101.798 82.0374 101.962 82.0374C102.096 82.0374 102.185 82.0673 102.259 82.1121C102.319 82.1569 102.363 82.2316 102.408 82.3511C102.438 82.4258 102.467 82.6499 102.467 83.3372V86.639H104.237V83.7107C104.237 83.2027 104.266 82.8442 104.341 82.6201C104.4 82.4258 104.489 82.2764 104.623 82.1868C104.757 82.0822 104.891 82.0374 105.039 82.0374C105.233 82.0374 105.352 82.0971 105.441 82.2466C105.471 82.3063 105.545 82.5005 105.545 83.2027V86.639H107.314V82.8292C107.314 82.2615 107.27 81.8432 107.151 81.5742C107.002 81.2007 106.779 80.9169 106.482 80.7376ZM111.804 83.6061C111.804 84.1141 111.7 84.4876 111.492 84.7416C111.299 84.9806 111.061 85.1002 110.764 85.1002C110.466 85.1002 110.228 84.9806 110.035 84.7416C109.827 84.4876 109.723 84.1141 109.723 83.6211C109.723 83.128 109.827 82.7545 110.035 82.5005C110.243 82.2615 110.481 82.142 110.764 82.142C111.046 82.142 111.299 82.2615 111.492 82.5005C111.7 82.7545 111.804 83.128 111.804 83.6211M110.764 80.4686C110.228 80.4686 109.738 80.6031 109.306 80.8571C108.86 81.126 108.519 81.5145 108.281 82.0075C108.043 82.5005 107.924 83.0234 107.924 83.5464C107.924 84.2187 108.043 84.8163 108.281 85.2944C108.519 85.7874 108.875 86.1609 109.336 86.4149C109.782 86.654 110.273 86.7884 110.764 86.7884C111.581 86.7884 112.265 86.4896 112.8 85.8771C113.336 85.2794 113.603 84.5175 113.603 83.6061C113.603 82.6948 113.336 81.9477 112.8 81.3501C112.265 80.7525 111.581 80.4537 110.749 80.4537M117.811 83.5912C117.811 84.1589 117.722 84.5623 117.543 84.8014C117.38 85.0255 117.171 85.1301 116.919 85.1301C116.666 85.1301 116.443 85.0105 116.25 84.7565C116.056 84.5025 115.952 84.0842 115.952 83.5015C115.952 83.0085 116.042 82.6499 116.235 82.4109C116.413 82.1868 116.636 82.0673 116.904 82.0673C117.171 82.0673 117.365 82.1718 117.543 82.4109C117.722 82.6499 117.811 83.0384 117.811 83.5762M117.261 80.4388C116.889 80.4388 116.532 80.5433 116.22 80.7376C116.101 80.8123 115.982 80.9019 115.878 81.0065V80.5732H114.198V88.7755H115.967V86.2506C116.116 86.385 116.25 86.4747 116.383 86.5494C116.636 86.6839 116.934 86.7586 117.246 86.7586C117.9 86.7586 118.465 86.4747 118.911 85.907C119.357 85.3542 119.595 84.5623 119.595 83.5762C119.595 82.5902 119.372 81.8432 118.926 81.2904C118.465 80.7376 117.915 80.4537 117.261 80.4537M120.249 86.654H122.018V80.5882H120.249V86.654ZM120.249 80.2894H122.018V78.4517H120.249V80.2894ZM126.553 83.6061C126.553 84.1739 126.464 84.5773 126.285 84.8163C126.122 85.0404 125.914 85.145 125.661 85.145C125.408 85.145 125.185 85.0255 124.992 84.7715C124.799 84.5175 124.694 84.0992 124.694 83.5165C124.694 83.0235 124.784 82.6649 124.977 82.4258C125.155 82.2017 125.363 82.0822 125.646 82.0822C125.899 82.0822 126.107 82.1868 126.285 82.4258C126.464 82.6649 126.553 83.0533 126.553 83.5912M126.003 80.4537C125.631 80.4537 125.274 80.5583 124.977 80.7525C124.843 80.8272 124.739 80.9169 124.635 81.0214V80.5882H122.955V88.7905H124.724V86.2655C124.873 86.4 125.007 86.4896 125.14 86.5643C125.393 86.6988 125.691 86.7735 126.003 86.7735C126.657 86.7735 127.222 86.4896 127.668 85.9219C128.114 85.3691 128.352 84.5773 128.352 83.5912C128.352 82.6051 128.129 81.8581 127.683 81.3053C127.222 80.7525 126.672 80.4686 126.018 80.4686M130.463 82.9189C130.493 82.6798 130.567 82.4856 130.686 82.3362C130.835 82.1569 131.028 82.0673 131.266 82.0673C131.489 82.0673 131.667 82.1569 131.816 82.3362C131.935 82.4707 132.009 82.6649 132.039 82.9189H130.463ZM131.177 80.4686C130.448 80.4686 129.824 80.7674 129.348 81.3352C128.872 81.9029 128.634 82.6948 128.634 83.6808C128.634 84.5025 128.813 85.2048 129.184 85.7426C129.645 86.4448 130.374 86.7884 131.325 86.7884C131.935 86.7884 132.44 86.6241 132.842 86.3253C133.184 86.0564 133.451 85.6978 133.645 85.2346L133.749 84.9657L133.496 84.9059C132.857 84.7565 132.173 84.6071 132.173 84.6071L132.009 84.5623L131.935 84.7416C131.905 84.8312 131.816 84.9956 131.727 85.0703C131.623 85.1599 131.489 85.2048 131.325 85.2048C131.073 85.2048 130.865 85.1151 130.701 84.9059C130.567 84.7416 130.478 84.5324 130.448 84.2635H133.808V84.0394C133.838 82.8442 133.6 81.9477 133.124 81.3501C132.649 80.7525 131.98 80.4388 131.162 80.4388M137.243 86.639H139.086V83.3521H142.03V81.5742H139.086V80.1997H142.491V78.4218H137.228V86.6241L137.243 86.639ZM146.059 84.0245C146.059 84.4428 146.029 84.6071 146.015 84.6669C145.97 84.8163 145.896 84.9358 145.777 85.0404C145.598 85.1898 145.405 85.2645 145.197 85.2645C145.033 85.2645 144.914 85.2048 144.81 85.1002C144.706 84.9956 144.662 84.8761 144.662 84.7267C144.662 84.637 144.676 84.5175 144.825 84.398C144.885 84.3531 145.033 84.2784 145.494 84.1739C145.717 84.1141 145.91 84.0693 146.059 84.0245ZM147.858 85.6081C147.814 85.384 147.799 85.0404 147.799 84.5623V82.8292C147.799 82.142 147.739 81.6639 147.605 81.3949C147.472 81.1111 147.219 80.872 146.892 80.7077C146.565 80.5284 146.089 80.4537 145.45 80.4537C144.751 80.4537 144.201 80.6031 143.829 80.887C143.457 81.1708 143.19 81.619 143.041 82.2167L142.982 82.4557L144.617 82.7844L144.676 82.6051C144.751 82.396 144.825 82.2466 144.929 82.1718C145.033 82.0971 145.182 82.0523 145.375 82.0523C145.792 82.0523 145.925 82.142 145.97 82.1718C146.044 82.2466 146.089 82.381 146.089 82.5902C145.836 82.6798 145.464 82.7844 144.944 82.889C144.453 82.9936 144.082 83.1131 143.814 83.2476C143.532 83.397 143.309 83.6211 143.145 83.9049C142.982 84.1888 142.907 84.5175 142.907 84.8761C142.907 85.4139 143.086 85.8771 143.428 86.2356C143.77 86.5942 144.23 86.7735 144.81 86.7735C145.137 86.7735 145.45 86.6988 145.732 86.5643C145.925 86.4747 146.104 86.3552 146.282 86.2058C146.312 86.3253 146.342 86.4149 146.371 86.4896L146.431 86.639H148.245L148.096 86.3103C147.992 86.0564 147.903 85.8322 147.873 85.6081M151.932 84.2187C151.872 84.5623 151.783 84.7864 151.649 84.9209C151.53 85.0404 151.367 85.1002 151.159 85.1002C150.876 85.1002 150.668 84.9956 150.505 84.7715C150.326 84.5474 150.252 84.1141 150.252 83.5165C150.252 82.9786 150.341 82.5902 150.505 82.381C150.668 82.1718 150.876 82.0822 151.144 82.0822C151.352 82.0822 151.501 82.142 151.62 82.2466C151.739 82.3661 151.813 82.5304 151.858 82.7695L151.887 82.9936L153.656 82.6499L153.597 82.396C153.419 81.7535 153.136 81.2605 152.735 80.9318C152.333 80.618 151.798 80.4537 151.129 80.4537C150.311 80.4537 149.657 80.7376 149.166 81.3053C148.691 81.8581 148.438 82.635 148.438 83.6211C148.438 84.6071 148.676 85.3691 149.166 85.9219C149.642 86.4896 150.296 86.7735 151.114 86.7735C151.813 86.7735 152.393 86.5793 152.824 86.2058C153.255 85.8322 153.552 85.2794 153.686 84.5623L153.731 84.3233L151.976 83.9946L151.932 84.2187ZM156.913 84.9508C156.645 85.0553 156.511 85.0852 156.437 85.0852C156.392 85.0852 156.362 85.0852 156.333 85.0553C156.303 85.0404 156.303 85.0105 156.288 84.9956C156.288 84.9657 156.273 84.8462 156.273 84.2486V82.2167H157.195V80.5732H156.273V78.4218L154.489 79.5573V80.5732H153.865V82.2167H154.489V84.4278C154.489 84.9657 154.504 85.3243 154.534 85.5036C154.578 85.7725 154.653 86.0115 154.757 86.1759C154.876 86.3552 155.054 86.5046 155.277 86.6092C155.5 86.7137 155.753 86.7586 156.02 86.7586C156.452 86.7586 156.838 86.6839 157.165 86.5195L157.314 86.4448L157.15 84.8312L156.898 84.9358L156.913 84.9508ZM159.514 84.7416C159.306 84.4876 159.202 84.1141 159.202 83.6211C159.202 83.128 159.306 82.7545 159.514 82.5005C159.722 82.2615 159.96 82.127 160.243 82.127C160.525 82.127 160.778 82.2466 160.971 82.5005C161.179 82.7545 161.284 83.128 161.284 83.6211C161.284 84.1141 161.179 84.5025 160.971 84.7565C160.778 84.9956 160.54 85.1151 160.243 85.1151C159.945 85.1151 159.708 84.9956 159.514 84.7565M160.243 80.4686C159.708 80.4686 159.217 80.6031 158.786 80.8571C158.34 81.126 157.998 81.5145 157.76 82.0075C157.522 82.5005 157.403 83.0234 157.403 83.5464C157.403 84.2187 157.522 84.8163 157.76 85.2944C157.998 85.7874 158.355 86.1609 158.816 86.4149C159.262 86.654 159.752 86.7884 160.243 86.7884C161.061 86.7884 161.744 86.4896 162.28 85.8771C162.815 85.2794 163.083 84.5175 163.083 83.6061C163.083 82.6948 162.815 81.9477 162.28 81.3651C161.744 80.7674 161.061 80.4686 160.228 80.4686M166.294 80.4686C166.041 80.4686 165.803 80.5433 165.595 80.6778C165.506 80.7376 165.432 80.8123 165.342 80.9169V80.5882H163.662V86.654H165.432V84.6968C165.432 83.5464 165.491 83.0683 165.536 82.874C165.61 82.5603 165.714 82.4258 165.774 82.3661C165.863 82.2914 165.982 82.2466 166.13 82.2466C166.279 82.2466 166.457 82.3213 166.651 82.4557L166.874 82.6201L167.439 80.872L167.29 80.7824C166.978 80.5732 166.636 80.4686 166.294 80.4686ZM170.591 84.0693L169.52 80.5882H167.632L169.654 86.4448C169.58 86.6988 169.49 86.908 169.372 87.0574C169.267 87.2068 169.089 87.2815 168.836 87.2815C168.688 87.2815 168.509 87.2516 168.301 87.2217L168.019 87.1619L168.182 88.8054L168.331 88.8353C168.598 88.895 168.866 88.9249 169.134 88.9249C169.401 88.9249 169.654 88.895 169.877 88.8203C170.1 88.7606 170.293 88.656 170.457 88.5365C170.62 88.4169 170.754 88.2526 170.873 88.0584C170.992 87.8641 171.111 87.6102 171.23 87.2516L173.46 80.5732H171.602L170.561 84.0543L170.591 84.0693ZM180.537 83.5314C180.433 84.0543 180.255 84.4278 180.017 84.652C179.779 84.8761 179.511 84.9956 179.184 84.9956C178.738 84.9956 178.381 84.8163 178.099 84.4577C177.816 84.0842 177.668 83.4268 177.668 82.5155C177.668 81.6489 177.816 81.0364 178.099 80.6629C178.381 80.3043 178.753 80.125 179.214 80.125C179.541 80.125 179.823 80.2147 180.046 80.4238C180.269 80.618 180.418 80.887 180.492 81.2455L180.537 81.4697L182.366 80.9916L182.306 80.7674C182.143 80.1101 181.875 79.6021 181.533 79.2435C180.953 78.6459 180.195 78.3471 179.288 78.3471C178.247 78.3471 177.385 78.7356 176.746 79.4826C176.107 80.2296 175.779 81.3053 175.779 82.635C175.779 83.9647 176.107 84.9358 176.746 85.6679C177.385 86.4149 178.218 86.7884 179.214 86.7884C180.017 86.7884 180.686 86.5643 181.221 86.1311C181.741 85.6978 182.128 85.0105 182.351 84.129L182.41 83.9199L180.626 83.2924L180.582 83.5314H180.537ZM186.692 83.6211C186.692 84.129 186.588 84.5025 186.395 84.7565C186.202 84.9956 185.964 85.1151 185.666 85.1151C185.369 85.1151 185.131 84.9956 184.938 84.7565C184.73 84.5025 184.626 84.129 184.626 83.636C184.626 83.143 184.73 82.7695 184.938 82.5155C185.131 82.2764 185.384 82.142 185.666 82.142C185.949 82.142 186.202 82.2615 186.395 82.5155C186.603 82.7695 186.692 83.143 186.692 83.636M185.652 80.4836C185.116 80.4836 184.626 80.618 184.195 80.872C183.748 81.141 183.407 81.5294 183.169 82.0224C182.931 82.5155 182.812 83.0384 182.812 83.5613C182.812 84.2336 182.931 84.8312 183.169 85.3093C183.407 85.8024 183.763 86.1759 184.224 86.4299C184.67 86.6689 185.161 86.8034 185.652 86.8034C186.469 86.8034 187.153 86.5046 187.688 85.892C188.224 85.2944 188.491 84.5324 188.491 83.6211C188.491 82.7097 188.224 81.9627 187.688 81.3651C187.153 80.7674 186.469 80.4686 185.637 80.4686M189.131 86.6689H190.9V84.7267H189.131V86.6689ZM191.866 63.8997C191.866 63.8997 191.732 63.8997 191.703 63.9744C191.48 64.4973 191.048 65.1846 190.32 65.4685C190.513 64.9605 190.707 64.1836 190.602 64.0491C190.588 64.0193 190.558 64.0043 190.528 64.0193C190.469 64.0193 190.439 64.094 190.335 64.3031C190.067 64.8858 189.413 66.2454 188.134 65.7822C187.882 65.6926 187.792 65.4386 187.748 65.2294C187.674 64.826 187.778 64.3928 187.822 64.3479L187.778 64.2434C185.116 65.2294 184.715 66.4247 184.284 67.6796C184.254 67.7842 184.209 67.8888 184.18 67.9934C183.451 70.0851 179.809 70.5034 177.712 70.5631C177.653 70.5631 177.608 70.608 177.608 70.6528C177.608 70.7126 177.623 70.7574 177.683 70.7723C178.247 70.9815 179.511 71.3699 180.775 71.3699C181.95 71.3699 183.124 71.0263 183.778 69.8908C184.046 69.4874 184.18 69.0691 184.299 68.6508C184.611 67.6647 184.938 66.6488 187.183 65.7523C187.138 66.1557 187.138 66.6637 187.436 66.9625C187.644 67.1717 187.956 67.2613 188.372 67.2016C188.64 67.1717 188.878 67.082 189.101 66.9625C189.101 67.0223 189.116 67.0372 189.131 67.0522H189.145L189.175 67.0671C190.142 66.9476 190.84 66.5143 191.271 65.7822C191.524 65.3489 191.762 64.5721 191.896 64.0342C191.911 63.9744 191.881 63.8997 191.807 63.8848M180.314 65.2444C180.403 63.8698 179.942 62.3758 179.11 61.2553C179.095 61.2254 179.065 61.2254 179.035 61.2254C178.872 61.2702 178.619 62.3459 178.619 62.3609C178.485 63.7055 178.292 65.08 178.114 66.3649V66.4097C178.084 66.5741 178.069 66.6786 178.143 66.7235C178.218 66.7533 178.277 66.6936 178.307 66.6637C178.485 66.4994 178.56 66.0362 178.589 65.7822V65.7374C178.738 64.6617 178.857 63.825 178.946 63.0332C179.481 63.9147 179.972 65.1995 179.779 66.3201C179.63 67.1866 178.649 67.9187 177.727 67.8739C177.37 67.8589 177.058 67.7245 176.79 67.4854C176.746 67.4406 176.701 67.4107 176.672 67.3659C176.434 67.1418 176.225 66.9476 175.824 66.9027C175.408 66.8579 174.991 66.9625 174.709 67.0522C173.49 67.4556 172.628 68.4864 172.286 69.9506C172.137 70.5631 172.196 70.6229 172.226 70.6528C172.241 70.6677 172.271 70.6827 172.286 70.6827C172.375 70.6827 172.479 70.593 172.613 70.0104C172.791 69.2633 173.862 68.606 174.575 68.4117C174.873 68.337 175.304 68.2623 175.661 68.352C175.913 68.4117 176.077 68.5761 176.255 68.7554C176.359 68.8599 176.463 68.9645 176.597 69.0542C177.222 69.4725 178.233 69.353 178.931 68.7703C180.017 67.8589 180.269 66.1707 180.329 65.2444M176.85 61.5989C176.85 61.5989 176.85 61.5989 176.865 61.5989C180.953 61.0611 183.421 59.328 184.834 57.8489C183.942 59.6865 183.585 60.6726 183.778 60.7772C183.838 60.8071 183.912 60.7473 183.942 60.7025V60.6577C184.403 59.7762 185.518 57.5351 186.187 55.563C186.217 55.4883 186.187 55.4285 186.112 55.3837C186.038 55.3389 185.964 55.3688 185.919 55.4285C183.972 57.8638 180.73 59.9704 176.79 61.3599C176.731 61.3748 176.686 61.4495 176.701 61.5093C176.701 61.5541 176.761 61.6138 176.82 61.6138M187.153 62.9734H187.198L187.213 62.9435C187.213 62.9435 187.763 61.8977 188.714 61.7035C189.086 61.6288 189.413 61.7334 189.547 61.9575C189.562 61.9874 189.591 62.0023 189.621 62.0023C189.755 62.0023 189.993 61.584 190.097 61.4196C190.216 61.1955 190.424 60.8071 190.35 60.6875C190.097 60.2543 189.443 60.1945 188.774 60.5381C188.06 60.9266 187.644 61.6138 187.317 62.2413C187.064 62.7493 187.049 62.8688 187.094 62.9286C187.094 62.9585 187.138 62.9734 187.168 62.9734M172.88 65.6627C173.475 65.2145 174.322 65.588 174.873 65.0352C175.036 64.8858 175.036 64.4525 175.051 64.2583C175.051 64.1985 175.051 63.7055 174.977 63.7952C174.441 64.333 173.579 63.9744 172.984 64.4226C172.821 64.5422 172.821 65.0203 172.806 65.1995C172.806 65.2593 172.776 65.7374 172.88 65.6627ZM121.884 44.776H137.005V41.8178H120.472L116.577 46.6436H75.007L70.4575 41.8178H54.0139V44.776H69.1937L73.7432 49.6018H117.974L121.87 44.776H121.884ZM71.8253 13.0874C71.7361 13.1621 71.6766 13.2219 71.6172 13.2816C71.5131 13.3862 71.4239 13.5057 71.3198 13.6103C70.3832 14.5665 69.4465 15.5078 68.5247 16.4639C68.2422 16.7627 67.9746 17.0765 67.707 17.3902C67.4096 17.7339 67.1123 18.0924 66.8001 18.451C66.6365 18.6303 66.6365 18.6901 66.8001 18.8843C66.9933 19.0935 67.1718 19.3176 67.365 19.5417C67.6624 19.8853 67.93 20.2588 68.2422 20.5875C68.6139 20.9909 69.0153 21.3644 69.4019 21.7678C69.729 22.0965 70.0709 22.4252 70.398 22.7688C70.5764 22.9481 70.5764 23.1274 70.398 23.3066C70.3237 23.3963 70.2345 23.471 70.175 23.5606C69.9817 23.8146 69.8182 24.0835 69.6249 24.3375C69.0748 25.0696 68.5842 25.8465 68.0935 26.6384C68.0489 26.6981 68.0043 26.7579 67.9597 26.8176C67.8259 26.9521 67.7516 26.967 67.5732 26.8774C67.4691 26.8176 67.3502 26.7579 67.2312 26.7131C66.7555 26.5338 66.2946 26.3545 65.8188 26.1603C65.2241 25.9212 64.6294 25.6822 64.0347 25.4431C63.5589 25.2489 63.0832 25.0696 62.6074 24.8903C62.4736 24.8455 62.3695 24.8604 62.3101 24.9949C62.1019 25.4132 61.8938 25.8166 61.6856 26.235C61.5072 26.5935 61.3437 26.967 61.195 27.3256C61.0314 27.6991 60.8679 28.0577 60.7341 28.4312C60.63 28.7001 60.5408 28.9691 60.4516 29.223C60.3475 29.5368 60.2435 29.8356 60.1394 30.1494C59.9907 30.6125 59.8569 31.0757 59.7231 31.5388C59.6785 31.7032 59.6934 31.8077 59.842 31.9123C60.0948 32.0767 60.3475 32.241 60.6151 32.4054C61.0314 32.6593 61.4477 32.8984 61.8789 33.1374C62.2654 33.3615 62.6669 33.5707 63.0534 33.7948C63.4697 34.0339 63.886 34.3028 64.3023 34.5568C64.4807 34.6763 64.5105 34.8108 64.4212 35.005C64.3618 35.1394 64.2874 35.259 64.2428 35.3934C64.0644 35.8715 63.9009 36.3496 63.7373 36.8277C63.6927 36.9622 63.6481 37.0966 63.5887 37.2311C63.4697 37.4851 63.3062 37.5747 63.0386 37.5448C62.9196 37.5448 62.7858 37.515 62.6669 37.515C61.4775 37.515 60.2881 37.5299 59.0987 37.5448C58.2958 37.5448 57.5078 37.5448 56.705 37.5448C55.0695 37.5448 53.4341 37.5299 51.7987 37.515C51.6203 37.515 51.5311 37.6196 51.5459 37.7988C51.5459 37.9482 51.5757 38.0827 51.5757 38.2321C51.5757 38.7998 51.5757 39.3526 51.5757 39.9204C51.5757 40.1146 51.6797 40.1893 51.8581 40.1744C51.9473 40.1744 52.0365 40.1445 52.1406 40.1445C54.1031 40.1445 56.0657 40.1146 58.0282 40.1146C60.3475 40.1146 62.6669 40.1146 64.9862 40.1146C65.2092 40.1146 65.3133 40.025 65.3876 39.8158C65.462 39.5618 65.5363 39.3078 65.6255 39.0688C65.908 38.262 66.2202 37.4552 66.5027 36.6484C66.8595 35.6773 67.2015 34.7211 67.5583 33.75C67.6029 33.6454 67.6029 33.5558 67.5137 33.4811C67.4245 33.4064 67.3353 33.3317 67.2312 33.2719C66.8447 33.0478 66.4581 32.8087 66.0715 32.5846C65.6553 32.3456 65.2538 32.0916 64.8227 31.8526C64.4659 31.6434 64.0942 31.4641 63.7225 31.2549C63.4549 31.1055 63.1872 30.9263 62.9196 30.7768C62.7115 30.6424 62.652 30.493 62.7412 30.2689C62.9642 29.6862 63.2021 29.0886 63.4251 28.5059C63.4549 28.4163 63.4995 28.3266 63.5589 28.2669C63.6927 28.1025 63.8414 28.0876 64.0198 28.1922C64.109 28.237 64.1982 28.2967 64.3023 28.3416C64.6294 28.476 64.9416 28.5806 65.2687 28.7151C65.685 28.8794 66.1013 29.0587 66.5176 29.223C67.261 29.5219 68.0043 29.7908 68.7477 30.0746C68.7923 30.0896 68.8369 30.1045 68.8964 30.1045C68.9559 30.0448 69.0153 29.985 69.0599 29.9252C69.2086 29.7011 69.3424 29.4621 69.4762 29.238C69.7438 28.8047 70.0115 28.3565 70.2642 27.9232C70.4129 27.6692 70.5616 27.4302 70.7251 27.1912C70.9481 26.8625 71.186 26.5637 71.409 26.235C71.6469 25.8913 71.8699 25.5477 72.1078 25.219C72.6133 24.5168 73.1634 23.8744 73.7432 23.2319C73.9365 23.0228 73.9216 22.9481 73.7432 22.7389C73.4905 22.455 73.2377 22.1712 72.985 21.8873C72.5984 21.469 72.2416 21.0357 71.855 20.6174C71.5428 20.2737 71.2009 19.96 70.8738 19.6313C70.8292 19.5865 70.7697 19.5417 70.7251 19.4968C70.5318 19.3026 70.3237 19.1233 70.1453 18.9142C70.0115 18.7797 70.0263 18.5705 70.1453 18.4361C70.2791 18.3016 70.4277 18.1522 70.5616 18.0177C70.9333 17.6442 71.3198 17.2707 71.6766 16.8823C71.8402 16.703 72.1078 16.7179 72.2713 16.8823C72.539 17.1661 72.8363 17.4052 73.1337 17.6741C73.5053 18.0028 73.8622 18.3165 74.2339 18.6452C74.7542 19.1084 75.2895 19.5566 75.8247 20.0198C75.9882 20.1692 76.1666 20.3186 76.3302 20.453C76.3748 20.4978 76.4343 20.5277 76.4937 20.5726C76.5532 20.5277 76.6127 20.4829 76.6573 20.4381C76.7316 20.3783 76.8059 20.3036 76.8803 20.2439C77.3263 19.9002 77.7723 19.5715 78.2332 19.2279C78.8131 18.7797 79.378 18.3315 79.9579 17.8982C80.3147 17.6293 80.7013 17.3753 81.0729 17.1213C81.3406 16.942 81.5933 16.7329 81.8758 16.5835C82.307 16.3444 82.6935 16.0307 83.1693 15.8813C83.2585 15.8514 83.3477 15.8066 83.422 15.7617C83.5856 15.6721 83.6302 15.5675 83.5558 15.3882C83.5261 15.3285 83.5112 15.2538 83.4964 15.194C83.422 14.8653 83.3625 14.5366 83.2733 14.2229C83.1098 13.6402 82.9463 13.0575 82.7827 12.4749C82.634 11.9071 82.3664 11.3543 82.2772 10.7716C82.2624 10.6671 82.2029 10.5625 82.1583 10.4579C81.9947 10.1441 82.0393 9.99474 82.3516 9.86028C82.8571 9.63617 83.3774 9.42701 83.8829 9.21784C84.0167 9.15808 84.1357 9.18796 84.2249 9.32242C84.3289 9.48677 84.433 9.66605 84.5371 9.8304C84.7452 10.174 84.9683 10.5177 85.1764 10.8613C85.3994 11.2348 85.6373 11.6232 85.8454 12.0117C86.1725 12.5794 86.4996 13.1472 86.8118 13.7298C86.8564 13.8045 86.9159 13.8643 86.9605 13.9241C87.0349 13.9988 87.1092 14.0137 87.2133 13.9689C87.2876 13.9241 87.3768 13.8942 87.4511 13.8792C87.8823 13.7896 88.3283 13.685 88.7744 13.6103C89.3245 13.5057 89.8746 13.431 90.4395 13.3414C90.722 13.2966 91.0194 13.2816 91.3167 13.2518C91.6884 13.2069 92.0601 13.1322 92.4318 13.1173C93.086 13.0874 93.7401 13.0874 94.3943 13.0725C94.6471 13.0725 94.8998 13.0725 95.1377 13.0725C95.331 13.0725 95.3904 13.0127 95.4202 12.8185C95.435 12.7139 95.4499 12.6243 95.4648 12.5197C95.4945 12.1462 95.5094 11.7727 95.5391 11.3991C95.5391 11.2348 95.5688 11.0555 95.5837 10.8912C95.6134 10.5475 95.658 10.2039 95.6729 9.86028C95.7026 9.35231 95.7026 8.84433 95.7175 8.33636C95.7175 8.11225 95.7473 7.87321 95.7473 7.6491C95.7621 7.38017 95.9257 7.23077 96.1933 7.23077C96.3122 7.23077 96.4163 7.26065 96.5352 7.26065C96.9961 7.27559 97.4719 7.29053 97.9328 7.30547C98.2004 7.30547 98.364 7.46981 98.364 7.73874C98.364 7.82838 98.3491 7.91803 98.364 7.99273C98.3788 8.51564 98.4086 9.03856 98.4086 9.54653C98.4234 10.2039 98.4086 10.8762 98.5126 11.5336C98.587 11.9968 98.6018 12.4749 98.6316 12.938C98.6464 13.1621 98.7505 13.2518 98.9735 13.2816C99.5088 13.3265 100.029 13.3862 100.564 13.446C100.758 13.4609 100.951 13.4759 101.144 13.4908C101.471 13.5356 101.798 13.5804 102.125 13.6253C102.378 13.6551 102.631 13.6701 102.884 13.7149C103.374 13.8045 103.88 13.9091 104.37 14.0137C104.712 14.0884 105.054 14.1631 105.411 14.2528C105.56 14.2826 105.694 14.3424 105.827 14.4022C106.006 14.4918 106.08 14.4769 106.184 14.3125C106.333 14.1034 106.467 13.8643 106.615 13.6551C106.913 13.2069 107.225 12.7587 107.508 12.3105C107.849 11.7876 108.162 11.2647 108.504 10.7418C108.637 10.5177 108.786 10.2936 108.935 10.0844C109.069 9.89016 109.232 9.86028 109.44 9.96486C109.931 10.2039 110.422 10.428 110.912 10.6521C111.254 10.8165 111.284 11.0107 111.195 11.2796C111.076 11.6531 110.972 12.0416 110.868 12.4151C110.719 12.9978 110.585 13.5804 110.436 14.1631C110.303 14.7159 110.154 15.2836 110.005 15.8364C109.976 15.9261 109.961 16.0157 109.916 16.1054C109.857 16.2697 109.886 16.3743 110.035 16.4639C110.184 16.5536 110.332 16.6283 110.481 16.703C110.689 16.8225 110.912 16.9271 111.12 17.0466C111.373 17.196 111.611 17.3454 111.864 17.4948C112.235 17.7189 112.622 17.9132 112.949 18.1821C113.35 18.4958 113.811 18.7498 114.183 19.1084C114.555 19.4819 114.971 19.8106 115.343 20.1692C115.595 20.4082 115.833 20.6622 116.071 20.9012C116.116 20.9461 116.175 20.9909 116.235 21.0506C116.309 21.0208 116.369 21.0058 116.428 20.961C116.696 20.7817 116.948 20.6024 117.201 20.4082C117.558 20.1692 117.915 19.9301 118.257 19.6761C118.495 19.4968 118.733 19.3026 118.97 19.1233C119.461 18.7498 119.967 18.3763 120.457 17.9879C120.636 17.8534 120.799 17.704 120.978 17.5695C121.141 17.45 121.32 17.4649 121.438 17.5695C121.855 18.0177 122.256 18.4809 122.672 18.9291C122.806 19.0785 122.806 19.2429 122.672 19.4072C122.598 19.4968 122.509 19.5715 122.435 19.6612C122.152 19.9899 121.87 20.3186 121.587 20.6473C121.141 21.1552 120.71 21.6632 120.264 22.1861C119.877 22.6343 119.506 23.0825 119.119 23.5308C119.015 23.6652 119 23.725 119.119 23.8594C119.372 24.218 119.639 24.5616 119.892 24.9202C120.19 25.3535 120.487 25.8017 120.769 26.2499C120.978 26.5637 121.201 26.8774 121.394 27.2061C121.647 27.6095 121.899 28.0129 122.122 28.4312C122.375 28.9093 122.613 29.4173 122.866 29.9103C122.94 30.0597 122.985 30.2241 123.163 30.3137C123.312 30.2689 123.475 30.2091 123.639 30.1643C123.936 30.0746 124.234 29.9999 124.546 29.9103C124.843 29.8207 125.126 29.7161 125.408 29.6264C125.869 29.4621 126.345 29.3127 126.806 29.1483C127.4 28.9242 127.995 28.6703 128.59 28.4461C128.798 28.3565 128.976 28.4163 129.08 28.6254C129.214 28.8944 129.333 29.1633 129.437 29.4472C129.601 29.8655 129.764 30.2988 130.017 30.6872C130.151 30.9113 130.091 31.1055 129.853 31.24C129.735 31.2998 129.616 31.3595 129.497 31.4342C129.199 31.6135 128.917 31.7928 128.619 31.9571C128.456 32.0468 128.292 32.1364 128.129 32.2261C127.95 32.3307 127.757 32.4352 127.579 32.5398C127.415 32.6295 127.237 32.7191 127.073 32.8237C126.746 33.0478 126.404 33.2719 126.092 33.496C125.839 33.6753 125.601 33.8695 125.363 34.0488C125.17 34.1982 125.14 34.3177 125.215 34.497C125.289 34.6614 125.363 34.8108 125.423 34.9751C125.527 35.2739 125.631 35.5877 125.735 35.9014C125.824 36.1703 125.914 36.4542 126.003 36.7231C126.092 37.0369 126.151 37.3506 126.27 37.6494C126.434 38.0976 126.464 38.5608 126.568 39.024C126.627 39.2779 126.657 39.5618 126.702 39.8158C126.746 39.9951 126.821 40.0399 126.999 40.0399C127.415 40.0399 127.817 40.0698 128.233 40.0698C131.296 40.0847 134.358 40.0997 137.421 40.1146C137.689 40.1146 137.956 40.1146 138.224 40.1146C138.67 40.1146 139.116 40.1445 139.547 40.1744C139.815 40.1893 139.889 40.1445 139.889 39.8756C139.889 39.3825 139.889 38.8895 139.889 38.3965C139.889 38.2172 139.919 38.0379 139.934 37.8586C139.963 37.6345 139.889 37.5448 139.666 37.5448C139.473 37.5448 139.265 37.5448 139.071 37.5448C136.232 37.5448 133.377 37.5448 130.537 37.5448C130.418 37.5448 130.3 37.5299 130.181 37.5299C129.868 37.5299 129.556 37.515 129.244 37.5299C128.947 37.5449 128.783 37.4552 128.709 37.1713C128.56 36.6335 128.486 36.0807 128.248 35.5727C128.173 35.4084 128.203 35.259 128.352 35.1544C128.515 35.0349 128.694 34.9153 128.857 34.8108C129.303 34.5418 129.764 34.3028 130.21 34.0339C130.746 33.7052 131.281 33.3765 131.816 33.0328C132.262 32.734 132.693 32.4203 133.124 32.1065C133.333 31.9571 133.333 31.8824 133.214 31.6583C132.946 31.1205 132.663 30.5976 132.426 30.0448C132.069 29.238 131.742 28.4163 131.385 27.6095C131.147 27.0567 130.879 26.5039 130.627 25.9511C130.537 25.7569 130.448 25.5776 130.359 25.3983C130.27 25.2489 130.195 25.234 130.032 25.2937C129.943 25.3236 129.868 25.3684 129.779 25.3983C129.482 25.5029 129.17 25.5925 128.872 25.6971C128.471 25.8316 128.069 25.981 127.683 26.1304C127.371 26.2499 127.058 26.3545 126.761 26.474C126.597 26.5338 126.464 26.6234 126.3 26.6832C125.824 26.8625 125.334 27.0268 124.873 27.221C124.62 27.3107 124.427 27.2808 124.308 27.0716C124.025 26.6234 123.743 26.1752 123.46 25.727C123.133 25.2041 122.806 24.6662 122.39 24.1881C122.271 24.0537 122.286 23.8296 122.42 23.6951C122.539 23.5756 122.643 23.4561 122.747 23.3365C122.925 23.1274 123.104 22.9033 123.297 22.6941C123.654 22.2907 124.025 21.9022 124.367 21.4989C124.754 21.0506 125.126 20.6024 125.497 20.1393C125.705 19.9002 125.899 19.6462 126.107 19.4072C126.285 19.213 126.285 19.1383 126.107 18.944C125.81 18.6303 125.512 18.3166 125.215 18.0028C124.62 17.3305 124.025 16.6582 123.431 15.9858C123.163 15.687 122.895 15.3733 122.628 15.0745C122.36 14.7757 122.093 14.4918 121.825 14.2079C121.706 14.0884 121.602 14.0884 121.468 14.1781C121.305 14.2976 121.126 14.4171 120.963 14.5366C120.755 14.686 120.532 14.8056 120.323 14.955C119.996 15.194 119.684 15.448 119.372 15.687C119 15.9709 118.614 16.2398 118.227 16.5386C117.84 16.8375 117.454 17.1363 117.067 17.4351C116.963 17.5247 116.859 17.6293 116.755 17.704C116.592 17.8235 116.443 17.8086 116.309 17.6442C116.25 17.5695 116.19 17.4948 116.116 17.4351C115.789 17.1661 115.462 16.9122 115.135 16.6582C114.822 16.4191 114.495 16.21 114.168 15.9858C113.811 15.7468 113.469 15.5078 113.113 15.2836C112.845 15.1044 112.771 14.94 112.904 14.6113C112.949 14.5067 112.994 14.3872 113.023 14.2677C113.142 13.8344 113.246 13.4012 113.35 12.9679C113.514 12.3254 113.678 11.698 113.826 11.0555C113.915 10.6671 113.99 10.2786 114.079 9.9051C114.153 9.60629 114.124 9.51665 113.841 9.38219C113.707 9.30749 113.559 9.24772 113.425 9.15808C113.157 8.99374 112.904 8.81445 112.637 8.66505C112.265 8.45588 111.879 8.2766 111.477 8.09731C110.808 7.7985 110.139 7.52958 109.44 7.29053C109.054 7.15607 108.652 7.0216 108.251 6.88714C108.147 6.85726 108.058 6.85726 107.983 6.9469C107.909 7.03654 107.835 7.12619 107.775 7.21583C107.552 7.54452 107.344 7.87321 107.136 8.20189C106.838 8.65011 106.541 9.08338 106.244 9.53159C105.961 9.96486 105.694 10.428 105.411 10.8613C105.307 11.0256 105.203 11.19 105.084 11.3394C104.95 11.5187 104.846 11.5485 104.623 11.4888C104.534 11.4589 104.445 11.429 104.356 11.4141C103.88 11.3244 103.404 11.2348 102.928 11.1601C102.78 11.1302 102.616 11.1153 102.467 11.1003C102.111 11.0705 101.754 10.9509 101.397 10.9659C101.337 10.9659 101.278 10.9659 101.219 10.936C101.04 10.8912 100.936 10.7716 100.936 10.5924C100.936 10.2338 100.906 9.86028 100.906 9.50171C100.906 9.03856 100.906 8.57541 100.906 8.11225C100.906 8.03755 100.906 7.97779 100.906 7.90309C100.877 7.55946 100.832 7.20089 100.802 6.85726C100.787 6.60327 100.772 6.34928 100.743 6.0953C100.713 5.78155 100.654 5.4678 100.624 5.15405C100.594 4.94489 100.535 4.88513 100.326 4.88513C99.8358 4.88513 99.3452 4.87018 98.8546 4.8403C98.6167 4.8403 98.3788 4.81042 98.1409 4.79548C97.7692 4.7656 97.4124 4.72078 97.0407 4.70584C96.5352 4.6909 96.0297 4.70584 95.5242 4.70584C95.3012 4.70584 95.0782 4.72078 94.8552 4.7656C94.4686 4.82536 94.0969 4.90007 93.7104 4.95983C93.5469 4.98971 93.4428 5.06441 93.4279 5.22875C93.3833 5.72179 93.3536 6.22976 93.309 6.7228C93.2941 6.96184 93.2644 7.21583 93.2495 7.45487C93.2198 7.85827 93.19 8.26166 93.1603 8.66505C93.1603 8.79951 93.1603 8.93398 93.1603 9.0535C93.1603 9.36725 93.1454 9.68099 93.1306 9.99474C93.1306 10.1143 93.1157 10.2188 93.086 10.3234C93.0265 10.5027 92.8629 10.5475 92.6994 10.5475C92.3872 10.5475 92.075 10.5475 91.7627 10.5625C91.0342 10.6521 90.3057 10.7418 89.5772 10.8463C89.2799 10.8912 88.9676 10.936 88.6852 11.0107C88.3581 11.1003 88.254 11.0854 88.0756 10.8015C88.0607 10.7716 88.0458 10.7418 88.031 10.7268C87.8377 10.3981 87.6593 10.0694 87.466 9.7557C87.3322 9.51665 87.1687 9.29254 87.02 9.0535C86.8416 8.75469 86.6632 8.44094 86.4996 8.14213C86.3361 7.85827 86.1725 7.5744 86.009 7.29053C85.8306 6.96184 85.6522 6.63315 85.4589 6.30446C85.3697 6.14012 85.2805 6.12518 85.1021 6.18494C84.9683 6.2447 84.8196 6.28952 84.6858 6.33434C84.1208 6.51363 83.5558 6.66303 82.9909 6.85726C82.634 6.97678 82.2921 7.11125 81.9353 7.24571C81.4298 7.45487 80.9243 7.66404 80.4188 7.88815C80.0322 8.06743 79.6605 8.2766 79.2888 8.47082C79.1996 8.51564 79.1253 8.62023 79.0509 8.67999C79.0658 8.75469 79.0807 8.79951 79.0956 8.82939C79.1699 9.06844 79.2442 9.29254 79.3037 9.53159C79.378 9.84534 79.4375 10.174 79.5416 10.4728C79.7497 11.2049 79.9727 11.9221 80.1958 12.6541C80.3296 13.0874 80.4782 13.5057 80.6269 13.939C80.6864 14.1034 80.6567 14.2378 80.5377 14.3573C80.4782 14.4171 80.4188 14.4619 80.3444 14.5067C80.0322 14.7159 79.7051 14.9101 79.4078 15.1193C78.8279 15.5376 78.263 15.9709 77.6831 16.4042C77.4007 16.6133 77.133 16.8225 76.8654 17.0616C76.6127 17.2857 76.4937 17.2857 76.241 17.0616C75.9139 16.7627 75.5868 16.4639 75.2597 16.1651C74.9178 15.8663 74.5758 15.5675 74.2339 15.2687C73.877 14.94 73.5053 14.6263 73.1337 14.2976C72.7471 13.954 72.3457 13.6103 71.9442 13.2667C71.8996 13.2368 71.855 13.2069 71.7956 13.1472M100.654 37.1265C100.832 37.1415 100.951 37.1713 101.085 37.1713C101.843 37.1713 102.601 37.1713 103.345 37.1713C103.419 37.1713 103.508 37.1713 103.582 37.1713C103.716 37.1713 103.805 37.1116 103.85 36.9771C103.984 36.6783 105.486 33.1673 105.634 32.7938C105.813 32.3307 105.932 32.241 106.422 32.241H106.452C107.775 32.241 111.819 32.1812 112.518 32.1663C112.8 32.1663 113.068 32.1065 113.35 32.0767C113.38 32.0767 115.848 30.8665 116.265 28.3266C116.547 26.0407 115.432 23.8744 113.588 23.3963C113.291 23.2917 112.979 23.2618 112.667 23.2768C112.473 23.2768 93.6807 23.2768 91.6289 23.2768C91.4357 23.2768 91.3167 23.3664 91.2275 23.5308C91.1383 23.725 90.276 25.4431 90.1124 25.7569C90.053 25.8764 89.9786 25.981 90.0678 26.1005L90.1868 26.1304H94.5727C94.5727 26.1304 94.7363 26.1304 94.7957 26.1304C94.8849 26.2499 94.8552 26.3395 94.8106 26.4292C94.7065 26.6533 90.5733 36.4542 90.4693 36.7082C90.4395 36.7829 90.4098 36.8576 90.3949 36.9323C90.3949 37.0518 90.4544 37.1116 90.5733 37.1265C90.722 37.1265 90.8558 37.1265 91.0045 37.1265C91.7033 37.1265 92.402 37.1265 93.1008 37.1265C93.4428 37.1265 93.5617 37.0369 93.6955 36.7082C93.6955 36.6783 97.8138 26.7878 97.9477 26.4292C98.0369 26.2051 98.1558 26.1752 98.3788 26.1901C100.074 26.2051 112.131 26.1901 112.607 26.1901C112.681 26.1901 112.771 26.235 112.83 26.2648C113.142 26.4441 113.365 26.7131 113.395 27.0866C113.425 27.7888 113.291 28.4312 112.771 28.9541C112.488 29.238 112.146 29.2081 112.072 29.2081C111.522 29.2081 104.787 29.2081 104.266 29.2081C104.043 29.2081 103.939 29.3127 103.85 29.5069C103.731 29.7609 100.936 36.26 100.713 36.753C100.668 36.8427 100.668 36.9323 100.639 37.0817M72.866 37.0817C72.985 37.1116 73.0891 37.1415 73.1783 37.1415C73.6689 37.1415 75.3489 37.1415 75.7057 37.1415C75.8842 37.1415 76.0477 37.0966 76.122 36.9174C76.2707 36.6185 78.5157 31.5836 78.709 30.986C78.7387 30.8814 78.7982 30.8217 78.9172 30.8217C79.0212 30.8217 79.0807 30.8964 79.1104 31.001C79.2145 31.2848 81.3108 36.4841 81.4298 36.8277C81.519 37.0668 81.6676 37.1564 81.9204 37.1564C82.7232 37.1564 83.5261 37.1564 84.3289 37.1564C84.4182 37.1564 84.5074 37.1564 84.5817 37.1116C84.7006 37.0668 84.7155 36.9771 84.656 36.8725C84.5371 36.6484 82.0988 30.7021 82.0393 30.5677C81.9501 30.3585 81.965 30.2689 82.1137 30.1045C82.2772 29.9252 87.7039 24.4571 88.5216 23.6204C88.6703 23.471 88.7595 23.3664 88.7744 23.3664C88.7 23.217 88.5811 23.2469 88.477 23.2469C88.3581 23.2469 85.0277 23.2768 84.9237 23.2469C84.7898 23.2319 84.6858 23.2469 84.5966 23.3365C84.3289 23.6055 80.9689 27.0417 80.508 27.5198C80.4485 27.5796 80.3742 27.6543 80.2404 27.5647C80.5526 26.8774 81.8015 24.0686 82.1137 23.3813C82.0691 23.2618 81.9947 23.2319 81.8907 23.2319C81.4 23.2319 79.5713 23.2319 79.1402 23.2319C79.0807 23.2319 78.9915 23.2618 78.9617 23.3066C78.8874 23.4112 73.0147 36.6036 72.9255 36.7829C72.8809 36.8576 72.8809 36.9472 72.8512 37.0817M88.1797 36.0359C88.1797 35.5428 87.7782 35.1394 87.2876 35.1394C86.797 35.1394 86.3955 35.5428 86.3955 36.0359C86.3955 36.5289 86.797 36.9323 87.2876 36.9323C87.7782 36.9323 88.1797 36.5289 88.1797 36.0359ZM98.3193 36.0359C98.3193 35.5428 97.9179 35.1394 97.4273 35.1394C96.9367 35.1394 96.5352 35.5428 96.5352 36.0359C96.5352 36.5289 96.9367 36.9323 97.4273 36.9323C97.9179 36.9323 98.3193 36.5289 98.3193 36.0359ZM138.194 33.6753C134.12 16.2996 119.625 2.92793 101.724 0.597229L101.412 0.0444336H90.722L90.4395 0.612169C72.5984 2.98769 58.162 16.3444 54.0883 33.6753H48.8252V36.6335H56.4968C56.6752 35.6325 56.8834 34.6464 57.1361 33.6753C61.5667 16.1801 77.3858 3.19686 96.1487 3.19686C114.912 3.19686 130.731 16.1801 135.161 33.6753C135.414 34.6464 135.622 35.6325 135.786 36.6335H143.071V33.6753H138.194Z" fill="white"/>
</g>
<defs>
<clipPath id="clip0_243_788">
<rect width="192" height="89" fill="white"/>
</clipPath>
</defs>
</svg>
