<svg width="192" height="44" viewBox="0 0 192 44" fill="none" xmlns="http://www.w3.org/2000/svg">
<g clip-path="url(#clip0_243_759)">
<path d="M101.836 17.9024C101.354 17.9024 100.873 17.877 100.403 17.877C95.7124 17.877 91.034 17.877 86.3809 17.877C85.8865 17.6995 85.5188 17.2811 84.9102 17.4332C84.9102 17.6741 84.9356 17.9024 84.9102 18.1306C84.8088 18.9547 84.7961 19.8041 84.5426 20.5775C84.2002 21.5918 83.5536 22.3652 82.3999 22.6822C81.3856 22.9611 80.3967 22.9484 79.357 22.9611V20.4761C79.7754 20.4 80.1811 20.3366 80.5869 20.2606C81.5251 20.0957 81.9561 19.5632 82.0449 18.5997C82.2477 16.2668 82.1717 13.934 82.1717 11.6138C82.1717 10.9291 82.0829 10.2445 82.0702 9.55986C82.0702 8.90058 82.121 8.25397 82.1463 7.60737C83.2113 7.40451 84.1876 7.48058 84.9863 7.81022C85.0117 7.87362 85.0877 7.94969 85.0624 8.0004C84.8849 8.55826 85.1004 9.11611 85.0624 9.66129C85.037 10.2699 85.0497 10.8784 85.0497 11.4997C85.0497 12.0829 85.1004 12.6788 85.0497 13.2493C84.9356 14.3016 85.3667 14.9736 86.4697 15.3286C91.072 15.3286 95.7758 15.3286 100.492 15.3286C101.151 15.3286 101.747 15.2018 102.204 14.5045C102.242 14.0988 102.293 13.579 102.343 13.0591C102.407 12.3491 102.115 11.7279 101.849 11.1193C101.443 10.1811 100.606 9.83879 99.6427 9.73736C98.6665 9.64861 97.8424 9.99094 97.0943 10.5741C96.8915 10.739 96.6759 10.8911 96.4477 11.0559C95.8899 10.4981 95.3447 9.96558 94.7742 9.38236C94.8756 9.23022 94.9517 9.0654 95.0911 8.95129C95.8265 8.30469 96.6252 7.72147 97.5634 7.45522C98.5143 7.1763 99.5033 7.01147 100.492 7.31576C100.835 7.41719 101.202 7.39183 101.557 7.48058C102.863 7.79754 103.827 8.5329 104.549 9.63593C104.854 10.105 104.892 10.6629 105.056 11.17C105.348 12.0449 105.145 12.945 105.221 13.8706C105.492 14.4453 105.906 14.9356 106.464 15.3413C107.567 15.2145 108.746 15.5441 109.773 15.1638C110.191 14.7327 110.166 14.3143 110.166 13.8833C110.166 9.81344 110.166 5.7563 110.166 1.68648C110.166 1.53434 110.166 1.36952 110.166 1.23005C110.622 1.01452 111.015 0.951126 111.523 1.10327C111.954 1.24273 112.473 1.12863 112.993 1.12863C113.006 1.3188 113.031 1.4963 113.031 1.6738C113.031 6.13665 113.031 10.5995 113.031 15.0624C113.031 15.5568 112.968 16.0513 112.854 16.5331C112.778 16.812 112.575 17.1163 112.347 17.3065C111.903 17.6741 111.37 17.8263 110.774 17.9024C110.064 17.9911 109.367 17.9784 108.657 18.0418C107.934 18.1179 107.237 17.9657 106.553 17.8263C105.944 17.7122 105.285 17.4332 104.98 16.7613H104.537C103.953 17.6488 103.003 17.7882 102.026 17.8897C101.976 17.8897 101.912 17.8897 101.861 17.8897L101.836 17.9024ZM130.261 22.6441C130.261 22.5173 130.274 22.3779 130.274 22.2511C130.274 21.0847 130.274 19.9182 130.274 18.7391C130.274 18.1432 130.515 17.6868 131.022 17.3572C131.326 17.167 131.605 16.9388 131.91 16.7106C133.038 17.6868 134.331 18.232 135.802 18.1686C137.209 18.1052 138.604 17.915 139.606 16.6852C139.745 16.7613 139.859 16.8247 139.961 16.9007C140.747 17.522 141.596 17.8897 142.623 17.877C145.717 17.8643 148.797 17.8643 151.891 17.877C152.969 17.877 153.78 17.522 154.249 16.5584C154.313 15.8991 154.427 15.2779 154.427 14.6566C154.452 10.2699 154.439 5.89576 154.439 1.50898C154.439 1.3822 154.414 1.25541 154.401 1.12863H151.561V14.6186C151.257 15.2018 150.801 15.3159 150.256 15.3159C147.885 15.3159 145.514 15.2652 143.143 15.3413C142.014 15.3793 141.254 15.037 140.861 13.9593C140.848 13.9086 140.835 13.8579 140.823 13.8199C140.823 13.1479 140.797 12.4886 140.823 11.8166C140.848 11.3095 140.797 10.815 140.645 10.3333C140.29 9.19219 139.694 8.21594 138.528 7.73415C137.729 7.40451 136.892 7.22701 136.043 7.1763C135.498 7.13826 134.952 7.23969 134.407 7.30308C133.19 7.4679 132.239 8.01308 131.517 8.98933C130.781 9.99093 130.439 11.1066 130.426 12.3365C130.426 12.869 130.426 13.4015 130.426 13.934C130.426 14.2763 130.312 14.5172 130.021 14.72C129.45 15.1131 128.905 15.5188 128.36 15.9372C127.776 16.3936 127.421 17.0275 127.396 17.7502C127.345 19.3097 127.371 20.8818 127.358 22.454C127.358 22.6948 127.434 22.8597 127.675 22.9738C128.461 22.8977 129.285 23.1006 130.084 22.7963C130.135 22.7456 130.173 22.6948 130.223 22.6441H130.261ZM137.805 14.01C137.64 14.8849 136.981 15.4427 136.119 15.4807C135.878 15.4807 135.637 15.4807 135.396 15.4807C134.61 15.4807 134.027 15.1004 133.672 14.4411C133.254 13.655 133.216 12.8056 133.406 11.9308C133.507 11.449 133.685 11.0179 133.926 10.5741C134.572 9.38236 137.133 9.39504 137.678 10.8531C137.894 11.4236 137.995 11.9561 138.021 12.5393C137.945 13.0211 137.894 13.5156 137.805 13.9974V14.01ZM68.4788 14.0734C68.4535 14.3143 68.4408 14.5425 68.4154 14.7581C68.1492 15.1765 67.7815 15.3413 67.3251 15.3413C67.0335 15.3413 66.7419 15.3413 66.4503 15.3413C63.0144 15.3413 59.5785 15.3159 56.1553 15.3413C54.6719 15.354 53.8351 14.5679 53.8985 13.0845C53.9365 12.1716 53.7844 11.2461 54.0126 10.3079C53.9619 10.1558 53.8985 9.96558 53.8351 9.7754H51.0205C51.0712 10.3206 51.1472 10.815 51.1599 11.2968C51.1726 13.1606 51.198 15.0116 51.1599 16.8754C51.1599 17.4459 50.9951 18.0038 50.881 18.5743C50.7542 19.1829 50.3612 19.6013 49.8414 19.8929C49.2201 20.2479 48.5608 20.4507 47.8255 20.4127C45.8349 20.3366 44.5417 18.8659 44.491 17.0529C44.491 16.7232 44.5798 16.3936 44.6558 16.064C44.7826 15.5188 44.9221 14.9736 45.1883 14.4791C45.4165 14.0608 45.7589 13.6424 45.5053 13.0084C44.7319 12.8309 44.0599 12.1463 43.1724 12.2731C42.7033 12.5393 42.716 13.0084 42.5131 13.3761C42.0187 14.2383 41.8539 15.2145 41.6257 16.1527C41.4989 16.6472 41.5749 17.2177 41.6257 17.7375C41.7017 18.6504 41.8919 19.5252 42.4117 20.3113C43.7683 22.3652 45.8223 23.0498 48.1551 23.1132C48.4087 23.1132 48.6496 22.9865 48.9031 22.9738C49.8794 22.9104 50.7796 22.6061 51.6544 22.175C52.4912 21.7566 53.1251 21.0847 53.4167 20.2225C53.721 19.335 54.076 18.4222 53.9238 17.4079C54.5705 17.3065 55.0269 17.6361 55.5467 17.877C59.6672 17.877 63.8131 17.877 67.9717 17.877C68.4281 17.877 68.8719 17.8897 69.3283 17.877C70.3553 17.8136 70.9258 17.2684 71.2047 16.3049C71.3442 15.8357 71.3569 15.3793 71.3695 14.9102C71.3695 13.3634 71.3695 11.8293 71.3695 10.2825C71.3695 10.0163 71.4456 9.76272 71.4456 9.49647C71.4456 8.87522 71.5978 8.24129 71.3062 7.69612H68.4788C68.4788 7.87362 68.4788 8.0004 68.4788 8.12719C68.5169 10.029 68.5422 11.9308 68.5803 13.8452C68.5549 13.9086 68.5295 13.9847 68.5042 14.0481L68.4788 14.0734ZM179.999 17.915C180.202 17.8897 180.405 17.8516 180.633 17.8263C180.633 17.1163 180.646 16.457 180.633 15.7977C180.633 15.6329 180.507 15.4807 180.443 15.3413C178.808 15.3413 177.235 15.3159 175.663 15.3413C174.903 15.354 174.345 15.0624 173.85 14.5299C172.925 13.5283 172.659 12.0449 173.292 10.9799C173.685 10.3206 174.256 9.87683 175.017 9.75004C175.93 9.61058 176.792 9.82611 177.54 10.384C177.831 10.5995 178.123 10.815 178.44 11.0559C178.985 10.4347 179.518 9.82611 180.114 9.16683C179.847 8.90058 179.644 8.64701 179.391 8.46951C178.554 7.88629 177.679 7.4679 176.614 7.2904C175.41 7.08755 174.256 7.12558 173.153 7.51862C171.543 8.10183 170.541 9.28094 170.059 10.9418C169.907 11.4997 169.958 12.0322 169.92 12.5774C169.869 13.3127 170.148 13.9593 170.541 14.5552C170.668 14.7581 170.795 14.9482 170.922 15.1511C171.124 15.2779 170.668 15.4047 170.554 15.3666C170.427 15.3666 170.288 15.3286 170.161 15.3286C167.422 15.3286 164.671 15.3032 161.932 15.3032C161.387 15.3032 160.956 15.1511 160.627 14.6186V1.15398H157.787C157.787 1.28077 157.761 1.3822 157.761 1.48362C157.761 6.18737 157.787 10.8911 157.787 15.5949C157.787 15.8738 157.863 16.102 157.977 16.3302C158.332 17.0909 158.953 17.5474 159.764 17.877C160.373 17.877 161.032 17.877 161.704 17.877C167.41 17.877 173.102 17.877 178.808 17.877C179.15 17.877 179.492 17.8897 179.847 17.9024C179.898 17.9024 179.961 17.9024 180.012 17.9024L179.999 17.915ZM119.218 1.15398H116.378C116.378 1.42023 116.378 1.66112 116.378 1.88934C116.378 6.55505 116.378 11.2334 116.378 15.8991C116.378 16.0893 116.442 16.3049 116.366 16.4443C116.125 16.9007 116.264 17.3572 116.239 17.7882C116.34 17.877 116.391 17.9657 116.454 17.9657C117.367 18.0672 118.28 18.0038 119.218 17.7756V1.15398ZM74.8688 17.9911H77.4806C77.4806 17.9911 77.5567 17.9277 77.5694 17.915C77.5947 17.9024 77.6074 17.877 77.6201 17.8516C77.6328 17.8263 77.6581 17.8136 77.6708 17.7882C77.6835 17.7375 77.7088 17.6868 77.7088 17.6361C77.7088 17.5854 77.7088 17.5347 77.7088 17.4713C77.7088 12.0575 77.6961 6.6438 77.6835 1.23005C77.6835 1.2047 77.6581 1.19202 77.6454 1.16666C77.6328 1.1413 77.6074 1.12863 77.582 1.11595H74.8561V17.9784L74.8688 17.9911ZM69.0494 2.43452C69.3156 2.18095 69.6326 1.88934 69.8861 1.64845C70.3806 1.52166 70.7863 1.59773 71.1667 1.83862C71.4583 2.01612 71.7753 2.15559 72.219 2.0288C72.3204 1.94005 72.4726 1.80059 72.5867 1.69916V1.00184C72.1683 0.73559 71.7372 0.443983 71.2681 0.190412C71.0653 0.0889839 70.8244 0.0382697 70.5961 0.0129125C69.3029 -0.0758373 68.5042 0.684876 67.8069 1.62309C67.7308 1.72452 67.6674 1.8513 67.6547 1.97809C67.604 2.54862 67.5913 3.10648 67.7181 3.66434C67.4138 3.90523 67.1095 4.14612 66.7799 4.41237C66.856 4.71666 66.9194 4.98291 66.9828 5.23648H72.7135V4.01934H70.6215C69.772 3.72773 69.1888 3.36005 69.0494 2.44719V2.43452ZM50.0696 8.25397C50.0442 7.44255 50.1203 6.61844 50.0062 5.7563H47.1281C47.0267 5.92112 46.9506 6.0479 46.8619 6.17469V8.03844C47.0648 8.25397 47.2169 8.39344 47.4198 8.60897C48.1931 8.5329 49.1314 8.82451 50.0569 8.25397H50.0696ZM100.999 5.24916C101.405 4.31094 101.19 3.37273 100.999 2.39648C100.137 2.39648 99.3004 2.39648 98.4509 2.39648C98.2988 2.39648 98.1467 2.53594 98.0452 2.58666V4.89416C98.2354 5.00826 98.4129 5.12237 98.5904 5.23648H101.012L100.999 5.24916ZM85.037 5.00826C85.0497 4.14612 85.037 3.28398 85.037 2.42184H82.0449V4.90683C82.159 5.02094 82.2985 5.14773 82.4126 5.24916H84.8342C84.8976 5.17308 85.0243 5.08433 85.0243 5.00826H85.037ZM130.135 22.7963C130.135 22.7963 130.223 22.6948 130.274 22.6441C130.223 22.6948 130.185 22.7456 130.135 22.7963ZM68.4915 14.0608L68.5676 13.8579C68.5422 13.9213 68.5169 13.9974 68.4915 14.0608ZM191.917 37.9471V15.1638C191.917 14.6313 191.486 14.2002 190.954 14.2002H184.335C183.803 14.2002 183.372 14.6313 183.372 15.1638C183.372 15.6963 183.803 16.1274 184.335 16.1274H189.99V36.9963H171.378C170.845 36.9963 170.414 37.4273 170.414 37.9598C170.414 38.4923 170.845 38.9234 171.378 38.9234H190.954C191.486 38.9234 191.917 38.4923 191.917 37.9598V37.9471ZM10.4744 36.3877C10.4744 35.8552 10.0434 35.4241 9.51087 35.4241H1.92909V16.4316H35.6541C36.1866 16.4316 36.6176 16.0006 36.6176 15.4681C36.6176 14.9356 36.1866 14.5045 35.6541 14.5045H0.965523C0.433024 14.5045 0.00195312 14.9356 0.00195312 15.4681V36.3877C0.00195312 36.9202 0.433024 37.3513 0.965523 37.3513H9.48551C10.018 37.3513 10.4491 36.9202 10.4491 36.3877H10.4744ZM24.2307 38.5811H21.4287C21.1244 39.7982 20.3764 40.5843 19.0451 40.5843C18.2844 40.5843 17.6885 40.3434 17.2701 39.8489C16.6869 39.2277 16.5728 38.5938 16.5728 35.8552C16.5728 33.1166 16.6869 32.47 17.2701 31.8614C17.6885 31.367 18.2844 31.1261 19.0451 31.1261C20.3764 31.1261 21.1371 31.9248 21.4287 33.1293H24.2307C23.7489 30.2513 21.7457 28.6538 19.0198 28.6538C17.511 28.6538 16.2305 29.1736 15.2035 30.2006C14.5823 30.8218 14.2146 31.5191 14.0498 32.3305C13.885 33.1293 13.8089 34.2957 13.8089 35.8552C13.8089 37.4146 13.885 38.5811 14.0498 39.3798C14.2146 40.1786 14.5823 40.8886 15.2035 41.5098C16.2432 42.5495 17.511 43.0566 19.0198 43.0566C21.7203 43.0566 23.7489 41.4718 24.2307 38.5811ZM35.8062 42.9425V40.4702H29.3782V28.7806H26.6142V42.9425H35.8062ZM47.5212 35.8679C47.5212 33.4209 47.5465 31.6459 46.1139 30.2259C45.1249 29.237 43.9078 28.6791 42.2976 28.6791C40.6874 28.6791 39.4576 29.237 38.456 30.2259C37.0233 31.6586 37.0614 33.4336 37.0614 35.8679C37.0614 38.3021 37.0233 40.0898 38.456 41.5098C39.4449 42.4987 40.6874 43.0566 42.2976 43.0566C43.9078 43.0566 45.1249 42.4987 46.1139 41.5098C47.5465 40.0771 47.5212 38.3021 47.5212 35.8679ZM44.7573 35.8679C44.7573 38.5938 44.5924 39.253 44.0599 39.8489C43.6669 40.3054 43.0456 40.6096 42.2849 40.6096C41.5242 40.6096 40.8903 40.3054 40.4973 39.8489C39.9648 39.253 39.8253 38.5938 39.8253 35.8679C39.8253 33.142 39.9648 32.4827 40.4973 31.8868C40.8903 31.4304 41.5369 31.1261 42.2849 31.1261C43.033 31.1261 43.6542 31.4304 44.0599 31.8868C44.5924 32.4827 44.7573 33.142 44.7573 35.8679ZM59.5024 38.7713C59.5024 37.5161 59.1601 36.4891 58.4121 35.7664C57.8162 35.2086 57.0047 34.8536 55.7115 34.6761L54.038 34.4352C53.4674 34.3591 52.9983 34.1309 52.7194 33.8773C52.4151 33.5984 52.301 33.218 52.301 32.863C52.301 31.8868 53.011 31.0754 54.4944 31.0754C55.4326 31.0754 56.4976 31.1895 57.3978 32.0516L59.1474 30.3273C57.9303 29.1482 56.523 28.6791 54.5705 28.6791C51.5022 28.6791 49.6385 30.4541 49.6385 32.9772C49.6385 34.1689 49.9808 35.0818 50.6528 35.7664C51.2867 36.3877 52.1869 36.7554 53.3913 36.9455L55.103 37.1864C55.7622 37.2879 56.0792 37.4273 56.3581 37.6809C56.6624 37.9598 56.7892 38.3782 56.7892 38.8727C56.7892 40.0011 55.9144 40.6223 54.2789 40.6223C52.9603 40.6223 51.7558 40.318 50.8556 39.4305L49.068 41.2182C50.4626 42.6255 52.0855 43.082 54.2408 43.082C57.2076 43.082 59.4897 41.5352 59.4897 38.7839L59.5024 38.7713ZM71.4329 42.9425V40.4702H64.8654V37.0343H70.4567V34.562H64.8654V31.2402H71.4329V28.7679H62.1015V42.9298H71.4329V42.9425ZM83.2494 31.2529V28.7806H73.0811V31.2529H76.7833V42.9425H79.5472V31.2529H83.2494ZM94.6474 38.7713C94.6474 37.5161 94.305 36.4891 93.557 35.7664C92.9611 35.2086 92.1497 34.8536 90.8565 34.6761L89.1829 34.4352C88.6124 34.3591 88.1433 34.1309 87.8643 33.8773C87.5601 33.5984 87.446 33.218 87.446 32.863C87.446 31.8868 88.1559 31.0754 89.6393 31.0754C90.5775 31.0754 91.6425 31.1895 92.5427 32.0516L94.2924 30.3273C93.0752 29.1482 91.6679 28.6791 89.7154 28.6791C86.6472 28.6791 84.7835 30.4541 84.7835 32.9772C84.7835 34.1689 85.1258 35.0818 85.7977 35.7664C86.4317 36.3877 87.3318 36.7554 88.5363 36.9455L90.2479 37.1864C90.9072 37.2879 91.2242 37.4273 91.5031 37.6809C91.8074 37.9598 91.9342 38.3782 91.9342 38.8727C91.9342 40.0011 91.0593 40.6223 89.4238 40.6223C88.1052 40.6223 86.9008 40.318 86.0006 39.4305L84.2129 41.2182C85.6076 42.6255 87.2304 43.082 89.3858 43.082C92.3525 43.082 94.6347 41.5352 94.6347 38.7839L94.6474 38.7713ZM117.735 28.7932H114.857L112.651 37.7189L110.064 28.7932H107.998L105.411 37.7189L103.218 28.7932H100.34L104.118 42.9552H106.426L109.025 34.3591L111.624 42.9552H113.931L117.735 28.7932ZM129.298 35.8679C129.298 33.4209 129.323 31.6459 127.891 30.2259C126.902 29.237 125.684 28.6791 124.074 28.6791C122.464 28.6791 121.234 29.237 120.233 30.2259C118.8 31.6586 118.838 33.4336 118.838 35.8679C118.838 38.3021 118.8 40.0898 120.233 41.5098C121.222 42.4987 122.464 43.0566 124.074 43.0566C125.684 43.0566 126.902 42.4987 127.891 41.5098C129.323 40.0771 129.298 38.3021 129.298 35.8679ZM126.534 35.8679C126.534 38.5938 126.369 39.253 125.837 39.8489C125.444 40.3054 124.822 40.6096 124.062 40.6096C123.301 40.6096 122.667 40.3054 122.274 39.8489C121.741 39.253 121.602 38.5938 121.602 35.8679C121.602 33.142 121.741 32.4827 122.274 31.8868C122.667 31.4304 123.314 31.1261 124.062 31.1261C124.81 31.1261 125.431 31.4304 125.837 31.8868C126.369 32.4827 126.534 33.142 126.534 35.8679ZM142.839 42.9425L139.682 36.8314C141.051 36.337 142.268 35.1072 142.268 33.1166C142.268 30.7457 140.556 28.7806 137.678 28.7806H132.125V42.9425H134.889V37.3005H136.88L139.644 42.9425H142.851H142.839ZM139.491 33.1166C139.491 34.207 138.693 34.9804 137.488 34.9804H134.889V31.2402H137.488C138.705 31.2402 139.491 32.0136 139.491 33.1039V33.1166ZM154.313 42.9425V40.4702H147.885V28.7806H145.121V42.9425H154.313ZM166.839 35.8045C166.839 33.6745 167.004 31.722 165.406 30.1372C164.468 29.1989 163.137 28.7806 161.666 28.7806H156.557V42.9425H161.666C163.137 42.9425 164.468 42.5241 165.406 41.5859C167.004 39.9884 166.839 37.9218 166.839 35.8045ZM164.075 35.8045C164.075 37.9471 163.999 38.9614 163.479 39.608C162.997 40.1786 162.364 40.4829 161.413 40.4829H159.321V31.2529H161.413C162.364 31.2529 162.997 31.5572 163.479 32.1277C163.999 32.7616 164.075 33.6618 164.075 35.8045Z" fill="white"/>
</g>
<defs>
<clipPath id="clip0_243_759">
<rect width="191.89" height="43.0691" fill="white"/>
</clipPath>
</defs>
</svg>
