<svg width="116" height="137" viewBox="0 0 116 137" fill="none" xmlns="http://www.w3.org/2000/svg">
<g clip-path="url(#clip0_243_782)">
<path d="M38.8598 55.1012V55.1265V55.1012ZM2.38357 130.602H3.46125C4.31071 130.602 4.94464 130.741 5.36303 131.02C5.78142 131.312 5.99696 131.743 5.99696 132.314C5.99696 132.884 5.80678 133.303 5.41374 133.594C5.02071 133.873 4.42482 134.025 3.65142 134.025H2.39625V130.602H2.38357ZM2.38357 125.581H3.23303C3.90499 125.581 4.39946 125.695 4.74178 125.924C5.07142 126.164 5.24892 126.519 5.24892 126.976C5.24892 127.432 5.0841 127.787 4.74178 128.028C4.39946 128.256 3.90499 128.383 3.23303 128.383H2.38357V125.581ZM0 136.244H3.63875C5.0841 136.244 6.22517 135.889 7.08731 135.179C7.96213 134.469 8.38053 133.518 8.38053 132.326C8.38053 131.223 7.93678 130.361 7.0366 129.702C6.77035 129.512 6.49142 129.347 6.17446 129.207L6.41535 129.043C7.2141 128.459 7.61981 127.673 7.61981 126.71C7.61981 125.683 7.2141 124.871 6.41535 124.263C5.6166 123.654 4.5516 123.35 3.22035 123.35H0V136.244ZM15.3284 136.244H17.7119V123.35H15.3284V136.244ZM27.8675 126.748L33.3446 136.244H35.9691V123.35H33.5855V132.77L28.2225 123.35H25.4839V136.244H27.8675V126.748ZM49.9915 136.244H52.3751V125.581H54.7714V123.35H47.5953V125.581H49.9915V136.244ZM66.4863 126.57L68.0838 130.691H64.9142L66.4863 126.57ZM60.1851 136.244H62.8222L64.0774 132.909H68.946L70.2265 136.244H72.8383L67.4372 123.35H65.5862L60.1851 136.244ZM85.9226 136.244V134.025H81.9795V123.35H79.596V136.244H85.9226ZM99.6281 136.244V134.025H95.0765V130.97H99.4126V128.751H95.0765V125.581H99.6281V123.35H92.6929V136.244H99.6281ZM109.327 130.602H110.405C111.254 130.602 111.888 130.741 112.307 131.02C112.725 131.312 112.941 131.743 112.941 132.314C112.941 132.884 112.75 133.303 112.357 133.594C111.964 133.873 111.381 134.025 110.595 134.025H109.34V130.602H109.327ZM109.327 125.581H110.177C110.849 125.581 111.343 125.695 111.685 125.924C112.015 126.164 112.18 126.519 112.18 126.976C112.18 127.432 112.015 127.787 111.685 128.028C111.356 128.256 110.849 128.383 110.177 128.383H109.327V125.581ZM106.944 136.244H110.582C112.015 136.244 113.181 135.889 114.031 135.179C114.893 134.469 115.324 133.518 115.324 132.326C115.324 131.223 114.88 130.361 113.993 129.702C113.727 129.512 113.448 129.347 113.131 129.207L113.372 129.043C114.17 128.459 114.576 127.673 114.576 126.71C114.576 125.683 114.17 124.871 113.372 124.263C112.586 123.654 111.508 123.35 110.177 123.35H106.944V136.244ZM13.0082 64.179C10.1302 64.179 7.80999 66.4992 7.80999 69.3773C7.80999 72.2553 10.1428 74.5755 13.0082 74.5755C15.8736 74.5755 18.2191 72.2553 18.2191 69.3773C18.2191 66.4992 15.8862 64.179 13.0082 64.179ZM30.3525 76.8322C30.3525 76.8322 30.4666 76.8322 30.5173 76.8322C32.026 76.8322 33.4841 75.7419 35.1957 74.474C36.6917 73.3583 38.3907 72.0778 39.6332 72.0778C40.3432 72.0778 41.3955 72.978 42.4224 73.8401C44.0073 75.1713 45.9598 76.8322 48.4448 76.8322C50.0423 76.8322 51.7919 75.5517 53.643 74.1951C54.8474 73.3203 56.4956 72.1031 57.2056 72.0905C58.1692 72.0905 59.1201 72.9272 60.2231 73.9035C61.6812 75.1967 63.4815 76.8069 66.144 76.9717C68.3628 77.1112 70.3026 75.4883 72.0015 74.043C73.0665 73.1428 74.2583 72.1158 74.9937 72.0905C75.6656 72.0271 76.6799 72.9653 77.6815 73.8274C79.3804 75.3108 81.5104 77.1492 84.4519 77.1492C84.604 77.1492 84.7435 77.1492 84.8829 77.1238C85.2379 76.1349 85.5676 75.1079 85.8592 74.0683C85.3901 74.2965 84.9336 74.4233 84.4392 74.4233C82.512 74.4233 80.9526 73.0667 79.4565 71.7608C77.9858 70.493 76.6292 69.3139 74.8669 69.3646C73.206 69.428 71.7606 70.6578 70.2392 71.9637C68.9713 73.0413 67.5387 74.2585 66.4103 74.2585H66.3088C64.5846 74.1444 63.3294 73.0414 62.0362 71.8749C60.6542 70.6451 59.2342 69.3773 57.231 69.3773H57.1676C55.5955 69.3899 53.8712 70.6705 52.0328 72.0017C50.8157 72.9019 49.1548 74.119 48.4448 74.119C46.9614 74.119 45.5414 72.9272 44.1721 71.7735C42.7774 70.5944 41.3321 69.3773 39.6332 69.3773C37.4905 69.3773 35.4112 70.924 33.5728 72.306C32.5332 73.0794 31.1259 74.1317 30.5173 74.1317C30.1623 74.1317 29.7946 74.043 29.4269 73.8908C29.7059 74.8924 30.0228 75.8813 30.3525 76.8322ZM74.8669 87.8119C73.1933 87.8753 71.7606 89.1051 70.2392 90.411C68.9713 91.4886 67.5387 92.7058 66.4103 92.7058C66.3722 92.7058 66.3342 92.7058 66.3088 92.7058C64.5846 92.6044 63.3294 91.4886 62.0362 90.3222C60.6542 89.0924 59.2342 87.8245 57.231 87.8245H57.1676C55.5955 87.8245 53.8712 89.1177 52.0328 90.449C50.8157 91.3492 49.1548 92.5663 48.4448 92.5663C46.9614 92.5663 45.5414 91.3745 44.1721 90.2208C42.7774 89.0417 41.3321 87.8245 39.6332 87.8245C38.6189 87.8245 37.63 88.1669 36.6664 88.674C37.2369 89.422 37.8328 90.1447 38.4541 90.8294C38.8725 90.6519 39.2782 90.5504 39.6332 90.5504C40.3432 90.5504 41.3955 91.4379 42.4224 92.3001C44.0073 93.6313 45.9598 95.2922 48.4448 95.2922C50.0423 95.2922 51.7919 93.999 53.643 92.6551C54.8474 91.7676 56.4956 90.5631 57.2056 90.5504C58.1692 90.5251 59.1201 91.3745 60.2231 92.3635C61.6812 93.6567 63.4815 95.2795 66.144 95.4317C68.3628 95.5711 70.3026 93.9356 72.0015 92.5029C73.0665 91.6027 74.2583 90.6392 74.9937 90.5504H75.019C75.3994 90.5504 75.9192 90.8547 76.4897 91.2858C77.0983 90.6392 77.6942 89.9419 78.2647 89.2319C77.2124 88.4078 76.1474 87.7992 74.8795 87.8499L74.8669 87.8119ZM62.0235 96.4586C60.6415 95.2288 59.2215 93.9483 57.2183 93.9483H57.1549C55.5828 93.9736 53.8585 95.2415 52.0201 96.5854C51.1326 97.2447 49.9915 98.0815 49.1674 98.4745C50.2831 98.9183 51.4242 99.2733 52.578 99.5395C52.9203 99.2986 53.2753 99.0451 53.6176 98.7788C54.8221 97.8913 56.4703 96.6869 57.1803 96.6742C58.1439 96.6488 59.0947 97.511 60.1978 98.4872C60.6542 98.9056 61.1487 99.3367 61.6939 99.7551C62.9871 99.5142 64.2549 99.1719 65.4847 98.7281C64.1535 98.3858 63.1012 97.4476 62.0108 96.4713L62.0235 96.4586ZM74.8669 75.5263C73.206 75.5897 71.7606 76.8322 70.2392 78.1255C68.9713 79.2031 67.5387 80.4203 66.4103 80.4203C66.3722 80.4203 66.3342 80.4203 66.3088 80.4203C64.5846 80.3188 63.3294 79.2031 62.0362 78.024C60.6542 76.7942 59.2342 75.5263 57.231 75.5263H57.1676C55.5955 75.5263 53.8712 76.8196 52.0328 78.1635C50.8157 79.051 49.1548 80.2808 48.4448 80.2808C46.9614 80.2808 45.5414 79.0763 44.1721 77.9353C42.7774 76.7562 41.3321 75.539 39.6332 75.539C37.4905 75.539 35.4112 77.0858 33.5728 78.4678C32.9389 78.9369 32.1782 79.4947 31.5442 79.8751C31.8992 80.7246 32.2923 81.536 32.698 82.3474C33.4967 81.9036 34.3082 81.3078 35.1957 80.6485C36.6917 79.5328 38.3907 78.2649 39.6332 78.2649C40.3432 78.2649 41.3955 79.1524 42.4224 80.0272C44.0073 81.3585 45.9598 83.0067 48.4448 83.0067C50.0423 83.0067 51.7919 81.7262 53.643 80.3696C54.8474 79.4821 56.4956 78.2649 57.2056 78.2649C58.1692 78.2649 59.1201 79.089 60.2231 80.0653C61.6812 81.3712 63.4815 82.9813 66.144 83.1462C68.3628 83.2729 70.3026 81.6501 72.0015 80.2047C73.0538 79.3172 74.2456 78.3029 74.981 78.2522H74.9937C75.6656 78.2269 76.6799 79.1271 77.6815 79.9892C78.9494 81.0922 80.4328 82.3728 82.3219 82.9687C82.7529 82.1699 83.146 81.3331 83.5263 80.4837C82.0049 80.1413 80.7117 79.0256 79.4565 77.9353C77.9858 76.6547 76.6292 75.4756 74.8669 75.539V75.5263ZM42.4224 86.1383C44.0073 87.4695 45.9598 89.1304 48.4448 89.1304C50.0423 89.1304 51.7919 87.8372 53.643 86.4806C54.8474 85.5931 56.4956 84.376 57.2056 84.376C58.1692 84.376 59.1201 85.2128 60.2231 86.189C61.6812 87.4822 63.4815 89.0924 66.144 89.2572C68.3628 89.384 70.3026 87.7611 72.0015 86.3285C73.0538 85.4283 74.2583 84.4394 74.981 84.376H75.0063C75.6783 84.3633 76.6926 85.2508 77.6815 86.1129C78.2267 86.5947 78.8226 87.1145 79.4819 87.5836C80.0017 86.8483 80.4961 86.1003 80.9779 85.3142C80.4581 84.9212 79.951 84.4901 79.4565 84.059C77.9858 82.7912 76.6292 81.5994 74.8669 81.6628C73.1933 81.7135 71.7606 82.956 70.2392 84.2492C68.9713 85.3269 67.5387 86.544 66.4103 86.544H66.3088C64.5846 86.4426 63.3294 85.3269 62.0362 84.1604C60.6542 82.9306 59.2342 81.6628 57.231 81.6628H57.1676C55.5955 81.6501 53.8712 82.9433 52.0328 84.2872C50.8157 85.1874 49.1548 86.4045 48.4448 86.4045C46.9614 86.4045 45.5414 85.2128 44.1721 84.059C42.7774 82.8799 41.3321 81.6628 39.6332 81.6628C37.5919 81.6628 35.5887 83.0701 33.8264 84.3886C34.2828 85.1874 34.7646 85.9481 35.2717 86.6961C36.7551 85.5804 38.416 84.3633 39.6458 84.3633C40.3558 84.3633 41.4082 85.2635 42.4351 86.1256L42.4224 86.1383ZM87.4313 33.8519C87.4313 33.8519 87.5074 33.8519 87.5454 33.8519H87.4313ZM101.872 76.0842C101.872 73.2062 99.5393 70.8733 96.674 70.8733C93.8086 70.8733 91.4631 73.2062 91.4631 76.0842C91.4631 78.9622 93.796 81.2824 96.674 81.2824C99.552 81.2824 101.872 78.9496 101.872 76.0842ZM115.337 69.3773C108.186 94.4935 85.0731 112.89 57.6621 112.89C30.251 112.89 7.1507 94.4935 0 69.3773H6.55481C6.55481 72.9399 9.44552 75.8306 13.0082 75.8306C16.5709 75.8306 19.4616 72.9399 19.4616 69.3773H26.0164C28.6535 88.1669 41.8266 102.443 57.6621 102.443C73.4976 102.443 86.6706 88.1669 89.3077 69.3773C101.961 62.8478 106.158 79.3046 115.337 69.3773ZM40.4573 43.7032C40.4573 43.7032 40.4699 43.7032 40.4826 43.7032H40.4573ZM66.106 20.5014C66.106 20.0577 65.9412 19.6139 65.5988 19.2716C65.2565 18.9293 64.8128 18.7645 64.369 18.7645H50.5367C50.1057 18.7645 49.6619 18.9293 49.3196 19.2589C48.9899 19.6012 48.8124 20.0323 48.8124 20.4761L66.106 20.4887V20.5014ZM59.6526 16.5203C59.6526 16.5203 56.5717 16.495 55.5194 16.5203C54.4544 16.5457 54.6446 17.7502 54.6446 17.7502H60.2231C60.3119 16.6345 59.6526 16.5203 59.6526 16.5203ZM68.984 16.7993C68.908 20.2098 66.4356 21.6171 67.7288 22.2891C69.022 22.9737 71.6845 18.663 69.656 14.2636C67.6274 9.85143 63.3421 10.9418 63.3421 10.9418C67.1329 10.9798 69.0601 13.3761 68.9713 16.7993H68.984ZM51.6651 10.5868C51.6651 10.5868 47.3798 9.48375 45.3512 13.8959C43.3226 18.308 45.9851 22.6187 47.2783 21.9341C48.5715 21.2495 46.1119 19.8548 46.0232 16.4316C45.9344 13.0211 47.8615 10.6121 51.6524 10.5741L51.6651 10.5868ZM46.974 8.38072C41.5349 9.59786 40.191 16.4316 41.4082 17.7628C42.6253 19.0941 41.573 15.9371 42.8028 12.8182C44.0199 9.71196 46.974 8.38072 46.974 8.38072ZM56.5844 14.8468C55.1517 11.208 52.223 8.01304 47.8615 9.76268C43.5001 11.5123 43.3099 16.5077 43.4367 18.5109C43.5635 20.5141 40.7108 20.4253 40.4573 16.9261C40.2037 13.4395 42.7394 7.51857 48.7998 7.42982C54.8728 7.35375 56.5717 14.8468 56.5717 14.8468H56.5844ZM49.9662 5.0209C49.9662 5.0209 48.1532 4.07001 45.9217 4.24751C43.6903 4.41233 43.0183 6.52965 44.1974 6.0859C45.3765 5.64215 46.7205 4.52644 49.9662 5.03358V5.0209ZM56.9521 14.4284C52.5526 1.48358 44.8821 8.59625 43.1198 7.10018C41.3574 5.60411 45.1483 1.85126 50.5114 4.51376C55.8871 7.17625 56.9521 14.4284 56.9521 14.4284ZM54.2008 4.80536C54.353 5.04626 54.4544 5.18572 54.4544 5.18572C54.429 5.09697 54.3403 4.95751 54.2008 4.80536C53.7698 4.15876 52.8442 2.87822 51.8933 2.05412C50.6001 0.925726 49.9662 1.72447 51.234 2.43447C52.2483 3.00501 53.6303 4.1334 54.2008 4.80536ZM57.0155 13.0211C55.2405 4.1334 49.6873 3.93054 49.4971 2.10483C49.3069 0.266441 51.5256 0.19037 54.1755 3.93054C56.8253 7.6834 57.0155 13.0211 57.0155 13.0211ZM72.0522 12.8309C73.2694 15.9371 72.217 19.1068 73.4342 17.7755C74.664 16.4443 73.3074 9.61054 67.8683 8.39339C67.8683 8.39339 70.8224 9.72464 72.0396 12.8309H72.0522ZM66.0426 7.4425C72.1029 7.53125 74.6386 13.4521 74.3851 16.9387C74.1315 20.438 71.2915 20.5268 71.4183 18.5236C71.5451 16.5203 71.3549 11.525 66.9935 9.77536C62.6321 8.02572 59.7033 11.2207 58.2706 14.8595C58.2706 14.8595 59.9822 7.36643 66.0426 7.4425ZM70.6576 6.0859C71.8367 6.52965 71.1647 4.42501 68.9333 4.24751C66.7019 4.08269 64.8888 5.0209 64.8888 5.0209C68.1346 4.52644 69.4785 5.62947 70.6576 6.07322V6.0859ZM64.331 4.52644C69.7067 1.86394 73.4976 5.60411 71.7226 7.11286C69.9476 8.60893 62.2897 1.49626 57.8903 14.4411C57.8903 14.4411 58.968 7.20161 64.331 4.52644ZM63.6083 2.44715C64.8762 1.73715 64.2422 0.951083 62.949 2.0668C61.9981 2.8909 61.0726 4.17144 60.6415 4.81804C60.5021 4.97019 60.4133 5.10965 60.388 5.1984C60.388 5.1984 60.4894 5.04626 60.6415 4.81804C61.2121 4.14608 62.594 3.01769 63.6083 2.44715ZM60.6669 3.94322C63.3294 0.19037 65.5355 0.279119 65.3453 2.11751C65.1551 3.94322 59.5892 4.14608 57.8269 13.0337C57.8269 13.0337 58.0171 7.69607 60.6669 3.94322ZM54.353 0.862333C56.6351 3.90519 57.269 9.66125 57.269 9.66125C56.7999 -0.240701 54.353 0.862333 54.353 0.862333ZM61.3769 0.36787C61.3769 0.36787 57.9156 2.8909 57.3958 15.037C57.3958 15.037 57.3958 5.12233 53.2246 0.456619C53.2246 0.456619 55.1771 -1.1282 58.5242 1.62305C58.5242 1.62305 59.7287 0.27912 61.3769 0.36787ZM111.356 47.2278H99.1083C97.422 47.2278 95.7231 47.8744 94.4299 49.155C93.1367 50.4482 92.4901 52.1471 92.4901 53.8333V60.7685H105.701C107.146 60.7685 108.592 60.2107 109.695 59.1203C110.798 58.0173 111.356 56.5719 111.356 55.1265V47.2405V47.2278ZM115.21 41.8141V56.7621C115.058 58.499 114.462 61.0221 112.383 63.1014C110.443 65.0412 107.223 65.7131 105.219 65.8906H64.9903C63.7478 65.8906 62.5053 65.4215 61.5544 64.4706C60.6162 63.5198 60.1597 62.2773 60.1344 61.0348C59.9569 50.5749 60.1344 35.6523 61.3389 25.2432C61.3769 24.2923 61.7699 23.3414 62.518 22.6314C63.266 21.9087 64.2169 21.5664 65.1805 21.5664H66.106C64.8888 32.6855 64.331 48.3055 64.7747 59.4246C64.7621 59.7542 64.8762 60.0965 65.1297 60.3501C65.3833 60.6164 65.713 60.7431 66.0553 60.7431H87.5201V33.8393V33.573C88.7752 33.5984 90.0051 34.0801 90.956 35.031C91.9322 36.02 92.4267 37.3005 92.4267 38.581V43.9314C92.4267 43.9314 94.5313 41.7887 97.5868 41.7887H115.197L115.21 41.8141ZM50.1817 59.4373C50.1817 59.7669 50.0803 60.1092 49.8267 60.3628C49.5732 60.629 49.2435 60.7558 48.9012 60.7558H37.2369C38.3019 59.0315 38.8471 57.079 38.8471 55.1139V42.0676C37.6807 42.0676 36.5016 42.5241 35.6014 43.4242C34.7012 44.3244 34.2448 45.5035 34.2448 46.6953V55.2914C34.2448 56.724 33.6996 58.1694 32.5966 59.2724C31.4935 60.3755 30.0609 60.9207 28.6155 60.9207H9.85124C8.51999 60.9207 7.18874 60.4135 6.16178 59.3992C5.14749 58.3723 4.64035 57.041 4.64035 55.7098V46.4798C4.64035 45.3514 4.20928 44.223 3.34714 43.3609C2.485 42.4987 1.35661 42.0676 0.228214 42.0676H0.0380357V55.6717C0.0380357 58.2835 1.03964 60.8953 3.03017 62.8858C4.38678 64.2424 6.03499 65.1426 7.77195 65.5737C8.95106 63.9508 10.8528 62.8985 13.0082 62.8985C15.2903 62.8985 17.3062 64.0903 18.4473 65.8906H28.0703C28.2859 65.8906 28.5014 65.8653 28.7169 65.8526V65.8906H49.9789C51.2214 65.8906 52.4639 65.4089 53.4021 64.4706C54.353 63.5198 54.8094 62.2773 54.8221 61.0348C54.9489 50.7398 54.7333 35.8298 53.6049 25.2432C53.5669 24.2923 53.1739 23.3414 52.4385 22.6314C51.6905 21.9087 50.7396 21.5664 49.7887 21.5664H48.8505C50.1183 32.6855 50.6635 48.3055 50.1817 59.4246V59.4373Z" fill="white"/>
</g>
<defs>
<clipPath id="clip0_243_782">
<rect width="115.349" height="136.256" fill="white"/>
</clipPath>
</defs>
</svg>
