<svg width="221" height="37" viewBox="0 0 221 37" fill="none" xmlns="http://www.w3.org/2000/svg">
<g clip-path="url(#clip0_243_894)">
<path d="M71.8347 7.9994H86.2693V11.2233H75.5025V16.7974H84.953V19.8406H75.5025V29.2865H71.8495V7.9994M100.733 29.2865V13.8899H97.391V22.8235C97.391 25.2038 96.4593 27.0267 93.6789 27.0267C91.8597 27.0267 90.7801 26.0474 90.7801 23.3357V13.8899H87.4525V23.6672C87.4525 27.6895 89.1533 29.7233 93.1021 29.7233C94.8768 29.6932 96.5037 28.714 97.4058 27.1623H97.465V29.3166H100.748M104.268 30.5369C104.268 32.0584 104.15 32.7966 102.922 32.7966C102.538 32.7816 102.153 32.7364 101.784 32.6761V35.3577C102.272 35.433 102.774 35.4782 103.277 35.4782C106.398 35.4782 107.611 33.7457 107.611 30.6724V13.8899H104.283V30.5218L104.268 30.5369ZM104.268 8.02953V11.2535H107.596V8.02953H104.268ZM111.367 13.8899V29.3015H114.71V13.8899H111.367ZM111.367 8.02953V11.2384H114.71V8.01446H111.367V8.02953ZM126.408 8.02953V29.3166H141.656V26.0926H130.076V19.8557H140.606V16.8125H130.076V11.2384H141.464V8.01446H126.423M143.919 29.3015H147.247V7.9994H143.919V29.2865V29.3015ZM163.589 22.4921C164.151 17.8671 161.223 13.4982 156.46 13.4982C151.95 13.4982 149.154 17.2494 149.154 21.6334C149.154 26.3638 151.817 29.7384 156.549 29.7384C159.788 29.9343 162.672 27.7046 163.397 24.4957H160.232C159.773 26.1378 158.22 27.2225 156.549 27.0568C153.769 27.0568 152.482 24.9025 152.482 22.4921H163.589ZM160.261 20.2474H152.482C152.482 20.157 152.482 20.0816 152.482 19.9913C152.556 17.8068 154.346 16.0894 156.505 16.1647C158.649 16.24 160.335 18.0629 160.261 20.2624M176.16 19.0723H179.503C179.177 15.2909 176.19 13.4982 172.685 13.4982C167.715 13.4982 165.231 17.1289 165.231 21.784C165.231 26.4391 167.834 29.7384 172.566 29.7384C176.456 29.7384 178.881 27.5389 179.503 23.5466H176.175C175.85 25.7461 174.504 27.0568 172.581 27.0568C169.682 27.0568 168.573 24.3451 168.573 21.784C168.573 17.0987 170.999 16.1798 172.729 16.1798C174.459 16.0291 175.997 17.3097 176.175 19.0723M180.346 13.92V16.4509H182.86V25.5352C182.919 28.0963 183.555 29.4672 187.045 29.4672C187.77 29.4672 188.48 29.3467 189.204 29.2865V26.6651C188.746 26.7555 188.273 26.8007 187.799 26.7856C186.306 26.7856 186.187 26.0776 186.187 24.6765V16.4509H189.204V13.92H186.187V9.295H182.86V13.92H180.346ZM201.657 13.8899V29.3015H204.985V13.8899H201.657ZM201.657 8.01446V11.2384H204.985V8.01446H201.657ZM217.733 19.0572H221.061C220.736 15.2759 217.763 13.4831 214.243 13.4831C209.274 13.4831 206.789 17.1138 206.789 21.7689C206.789 26.4241 209.392 29.7233 214.125 29.7233C218.014 29.7233 220.44 27.5238 221.046 23.5316H217.719C217.393 25.7311 216.047 27.0417 214.125 27.0417C211.226 27.0417 210.117 24.33 210.117 21.7689C210.117 17.0837 212.542 16.1647 214.273 16.1647C216.003 16.0141 217.526 17.2946 217.719 19.0572M199.912 13.5434C199.587 13.4982 199.247 13.4831 198.921 13.4831C196.895 13.5735 195.135 14.9294 194.499 16.8878H194.44V13.9049H191.319V29.3015H194.647V21.9648C194.647 18.5751 196.451 16.692 198.744 16.692C199.143 16.692 199.528 16.7372 199.912 16.8125V13.5434ZM61.4968 15.5922C61.4968 15.8483 61.482 16.2551 61.4525 16.8276V16.9933H33.3967L33.9291 14.4473H59.1009C58.953 10.8919 57.3706 7.56251 54.7232 5.24248C51.8097 2.83205 47.994 1.88295 44.3114 2.65127C35.9109 4.15779 29.0782 12.5792 29.0782 21.4074C28.9599 25.3544 30.5719 29.1509 33.5002 31.7571C36.4138 34.1676 40.2295 35.1167 43.9121 34.3483C49.8871 33.2787 55.3296 28.5935 57.7995 22.4017L57.8438 22.2962H60.3433L60.2545 22.5373C58.9678 26.0926 56.8233 29.2714 54.0429 31.7873C51.3068 34.3031 47.9496 36.0055 44.3262 36.6985C39.9633 37.6024 35.4377 36.4575 31.9917 33.58C28.9007 30.8683 27.0224 26.9965 26.8006 22.8536H13.6231L10.7835 36.3671H0.00195312C0.00195312 36.3671 5.48887 10.0935 6.39103 5.76976C6.98261 2.96764 9.39331 0.94891 12.2033 0.903714H34.0475L32.9087 6.41756C35.837 3.25388 39.6675 1.11463 43.8677 0.301108C48.2306 -0.602801 52.7562 0.542151 56.2022 3.41959C59.6629 6.46275 61.5856 10.9371 61.4525 15.5922H61.4968ZM15.3535 14.4322H27.9838C28.5458 12.8805 29.2704 11.4041 30.1578 10.0181H17.7346C16.8916 10.0181 16.1669 10.6358 15.9894 11.4644L15.3535 14.4322Z" fill="white"/>
</g>
<defs>
<clipPath id="clip0_243_894">
<rect width="221" height="37" fill="white"/>
</clipPath>
</defs>
</svg>
