<svg width="201" height="36" viewBox="0 0 201 36" fill="none" xmlns="http://www.w3.org/2000/svg">
<g clip-path="url(#clip0_243_797)">
<path d="M213.036 24.1903V5.45142C213.036 4.53856 212.288 3.79053 211.362 3.79053H186.145C185.764 3.79053 185.46 4.09481 185.46 4.47517V5.18517H181.796C181.416 5.18517 181.099 5.48945 181.099 5.86981V9.4832H177.523C177.13 9.4832 176.826 9.80016 176.826 10.1805V13.7939H172.984C172.604 13.7939 172.3 14.1109 172.3 14.4912V18.0539H170.043C169.65 18.0539 169.346 18.3709 169.346 18.7512V32.8625C169.346 33.788 170.094 34.5233 171.007 34.5233H211.362C212.288 34.5233 213.036 33.788 213.036 32.8625V26.295C212.643 26.9035 212.009 27.3346 211.223 27.5501C209.892 27.8925 208.332 27.5628 206.9 26.6373C205.847 27.791 202.995 28.07 200.776 26.7134C199.115 28.0446 196.44 28.0446 194.31 26.688C193.08 27.7023 190.417 28.4757 187.755 26.6753C186.208 28.0826 184.142 28.0953 181.619 26.726C179.856 28.1587 176.851 28.4376 174.975 26.5992C174.011 27.4487 172.972 27.8925 172.008 27.8925C171.628 27.8925 171.247 27.8164 170.905 27.6769C170.119 27.3473 169.612 26.7007 169.536 25.9019C169.523 25.8385 169.511 25.7625 169.511 25.6991C169.511 25.5976 169.574 25.5216 169.663 25.5216C178.88 24.596 185.929 21.68 187.476 19.943C188.059 19.2837 188.275 18.7005 188.072 18.3075C187.793 17.775 186.753 17.5468 185.295 17.7116C182.874 17.9905 177.79 20.0191 176.725 20.4501L176.877 20.7544C177.016 21.046 177.042 21.3884 176.915 21.7053C176.801 22.0223 176.572 22.2632 176.268 22.39L174.531 23.138C174.366 23.2141 174.202 23.2394 174.049 23.2394C173.644 23.2394 173.263 23.0493 173.022 22.6943L172.249 21.4898C171.907 20.97 172.008 20.2853 172.49 19.8923L174.113 18.561C174.379 18.3328 174.747 18.2314 175.102 18.3075C175.457 18.3709 175.761 18.5864 175.939 18.9034L176.141 19.271C177.092 18.4596 182.088 14.5166 188.617 14.5166C193.866 14.5166 194.994 16.5198 195.996 18.2821C196.389 18.9541 196.757 19.6007 197.34 20.0318C199.001 21.2743 201.587 20.6403 202.564 20.3994C202.931 20.3107 202.995 20.298 203.083 20.3868C207.255 24.7355 212.96 24.203 213.011 24.1903H213.036ZM201.625 28.9955H209.841C210.297 28.9955 210.678 29.3759 210.678 29.8323V30.8466C210.678 31.303 210.297 31.6833 209.841 31.6833H203.159V33.6105H201.625V28.9955ZM185.929 28.9955H187.451L191.597 31.7214L195.704 28.9955H197.239V33.6105H195.704V30.2126L191.584 32.9385L187.451 30.1873V33.6105H185.929V28.9955ZM173.631 31.5566C173.149 31.5566 172.769 31.1762 172.769 30.6944V29.8576C172.769 29.3759 173.149 28.9955 173.631 28.9955H181.454L182.088 29.7055H174.455V30.7451H181.238C181.707 30.7451 182.088 31.1255 182.088 31.6073V32.7483C182.088 33.2175 181.707 33.6105 181.238 33.6105H173.111L172.3 32.7991H180.439V31.5566H173.631ZM204.364 16.4437C204.364 17.851 203.629 19.1316 202.449 19.7909C201.815 20.1459 201.093 20.336 200.281 20.3614H200.066C199.254 20.336 198.532 20.1459 197.898 19.7909C196.719 19.1316 195.983 17.851 195.983 16.4437V14.4912C195.983 12.9952 197.099 11.7273 198.57 11.4484C198.481 11.2328 198.43 11.0046 198.43 10.7637C198.43 9.82552 199.128 9.02677 200.04 8.91266C200.117 8.73516 200.383 8.45624 201.245 8.45624C202.196 8.45624 202.475 8.11391 202.475 8.11391C202.538 8.03784 202.64 8.01249 202.716 8.07588C202.792 8.12659 202.817 8.22802 202.766 8.30409C202.728 8.35481 202.386 8.81123 201.245 8.81123C201.08 8.81123 200.941 8.82391 200.827 8.83659H200.814C200.712 8.86195 200.624 8.88731 200.56 8.91266H200.535C200.535 8.91266 200.472 8.9507 200.446 8.96338L200.598 8.91266C201.486 9.06481 202.158 9.8382 202.158 10.7637C202.158 11.03 202.107 11.2709 202.006 11.4991C203.362 11.8668 204.364 13.0712 204.364 14.4912V16.4437Z" fill="white"/>
<path d="M200.168 16.5069C198.203 16.5069 196.859 16.0378 196.326 15.8223V16.4435C196.326 17.724 196.998 18.8905 198.076 19.4864C198.659 19.816 199.344 19.9935 200.104 20.0189H200.244C201.005 19.9935 201.689 19.816 202.272 19.4864C203.35 18.8905 204.022 17.724 204.022 16.4435V15.9237L203.135 16.1773C202.437 16.3421 201.436 16.5069 200.168 16.5069Z" fill="white"/>
<path d="M201.841 11.8158C201.841 11.8158 201.727 11.7778 201.664 11.7778C201.6 11.7651 201.537 11.7524 201.461 11.7397C201.36 11.7271 201.245 11.7271 201.144 11.7271H199.115C199.052 11.7271 198.976 11.7397 198.913 11.7397C198.849 11.7524 198.786 11.7524 198.722 11.7778C197.366 11.9933 196.326 13.1344 196.326 14.491V15.4419C196.326 15.4419 196.466 15.5053 196.58 15.556H196.592C197.176 15.7715 198.431 16.1645 200.168 16.1645C201.905 16.1645 203.058 15.8729 203.667 15.6701H203.692C203.845 15.6194 203.959 15.5813 204.022 15.556V14.491C204.022 13.1978 203.097 12.1074 201.841 11.8158Z" fill="white"/>
<path d="M170.119 9.90146H173.77V6.57968C173.77 6.05986 174.189 5.65415 174.696 5.65415H178.068V2.21826C178.068 1.69844 178.487 1.29272 178.994 1.29272H182.43V-0.000488281H168.255C167.114 -0.000488281 166.176 0.925046 166.176 2.07879V14.339H169.168V10.8397C169.168 10.3199 169.586 9.91414 170.093 9.91414L170.119 9.90146Z" fill="white"/>
<path d="M76.1568 15.7592C82.2425 15.7592 88.3409 15.7592 94.4266 15.7592C100.474 15.7592 106.522 15.7592 112.57 15.7592C113.749 15.7592 114.154 15.4042 114.205 14.2504C114.319 11.7908 114.231 9.31848 114.256 6.85884C114.256 5.9967 114.281 5.13456 114.218 4.2851C114.192 3.94277 114.053 3.87938 113.749 3.95545C113.051 4.13295 112.608 4.64009 112.557 5.35009C112.532 5.67974 112.519 6.00938 112.519 6.33902C112.519 8.7733 112.532 11.2076 112.57 13.6545C112.57 14.0222 112.494 14.1617 112.101 14.149C111.378 14.1237 110.668 14.149 109.945 14.149C109.4 14.149 109.387 14.149 109.387 13.6038C109.387 11.702 109.387 9.78759 109.387 7.8858C109.387 6.69402 109.362 5.50224 109.387 4.31045C109.387 3.9301 109.222 3.8667 108.906 3.94277C108.132 4.12027 107.701 4.64009 107.663 5.43884C107.663 5.66706 107.663 5.89527 107.663 6.12349C107.663 8.63384 107.663 11.1442 107.676 13.6545C107.676 14.0349 107.574 14.149 107.194 14.149C106.18 14.149 105.153 14.1744 104.138 14.187C103.72 14.187 103.682 14.1363 103.885 13.7433C104.189 13.1474 104.405 12.5262 104.367 11.8542C104.278 10.1046 102.706 8.4817 100.931 8.31688C99.0796 8.13938 97.3934 9.3058 96.9116 11.0554C96.6707 11.9429 96.7468 12.8431 96.7468 13.7433C96.7468 14.0349 96.6834 14.1617 96.3664 14.1363C95.7452 14.111 95.1366 14.1363 94.5154 14.1363C93.8814 14.1363 93.8814 14.1363 93.8814 13.5151C93.8814 12.0951 93.8814 10.6751 93.8814 9.25509C93.8814 9.07759 93.9321 8.84937 93.6532 8.8367C92.9052 8.78598 92.1952 9.44527 92.1825 10.1933C92.1825 11.309 92.1698 12.4247 92.1952 13.5531C92.1952 13.9588 92.1445 14.1744 91.6754 14.1237C91.3964 14.0856 91.1048 14.1237 90.8132 14.149C90.4455 14.1744 90.3188 14.0476 90.3188 13.6545C90.3441 12.1965 90.3314 10.7258 90.3568 9.26777C90.3568 8.90009 90.2427 8.82402 89.9004 8.91277C89.0889 9.1283 88.6705 9.61009 88.6579 10.4342C88.6452 11.5119 88.6325 12.5895 88.6579 13.6545C88.6579 13.9969 88.5564 14.1237 88.2141 14.0983C87.8971 14.0856 87.5802 14.0983 87.2632 14.1237C86.8575 14.1744 86.7054 14.0222 86.718 13.6038C86.7307 12.1712 86.718 10.7385 86.718 9.3058C86.718 8.87473 86.6293 8.78598 86.2109 8.91277C85.5263 9.10295 84.8797 9.59741 84.8923 10.4976C84.9177 11.5626 84.8923 12.6149 84.9177 13.6799C84.9177 13.9842 84.8416 14.0983 84.512 14.0983C82.3439 14.0983 80.1759 14.111 78.0079 14.1363C77.6402 14.1363 77.5134 14.0349 77.5134 13.6419C77.5388 10.7638 77.5261 7.87313 77.5388 4.99509C77.5388 4.72884 77.5388 4.44992 77.5388 4.18367C77.5388 4.00617 77.4754 3.9301 77.2852 3.95545C76.4104 4.06956 75.8398 4.67813 75.8398 5.55295C75.8398 8.8367 75.8398 12.1204 75.8398 15.4042C75.8398 15.7085 75.9413 15.7845 76.2329 15.7845L76.1568 15.7592ZM98.4837 11.8035C98.6105 10.916 99.4473 10.0665 100.297 9.96509C101.045 9.87634 101.641 10.1679 102.072 10.7765C102.516 11.3851 102.706 12.019 102.363 12.7417C101.97 13.5785 101.336 14.0729 100.398 14.0983C100.145 14.0983 99.8784 14.0983 99.6248 14.0983V14.1237C99.3839 14.1237 99.1303 14.111 98.8895 14.1237C98.5725 14.149 98.433 14.0349 98.433 13.7179C98.433 13.0713 98.3823 12.4247 98.4837 11.7908V11.8035Z" fill="white"/>
<path d="M129.852 15.6707C134.797 15.6707 139.729 15.6707 144.673 15.6707C149.466 15.6707 154.271 15.6707 159.063 15.6707C159.38 15.6707 159.697 15.6707 160.002 15.6073C160.61 15.4551 160.851 15.2523 160.914 14.631C161.105 12.7419 160.99 10.8528 161.003 8.96373C161.003 8.81158 160.927 8.73551 160.762 8.73551C159.963 8.72283 159.292 9.34408 159.292 10.1428C159.292 11.3093 159.292 12.463 159.304 13.6294C159.304 13.9464 159.215 14.0732 158.898 14.0605C158.594 14.0478 158.29 14.0351 157.998 14.0605C157.567 14.1112 157.44 13.9591 157.453 13.5153C157.478 12.0573 157.453 10.5866 157.466 9.12855C157.466 8.77355 157.352 8.71015 157.022 8.7989C156.109 9.07783 155.767 9.53426 155.767 10.4978C155.767 11.5628 155.767 12.6151 155.767 13.6801C155.767 13.9591 155.678 14.0605 155.399 14.0478C154.993 14.0225 154.6 14.0351 154.195 14.0478C153.941 14.0478 153.827 13.9591 153.84 13.6928C153.852 13.2871 153.852 12.8941 153.852 12.4884C153.852 11.3727 153.852 10.2569 153.84 9.12855C153.84 8.9764 153.903 8.77355 153.612 8.76087C152.851 8.73551 152.052 9.47087 152.052 10.2189C152.052 11.2966 152.052 12.3743 152.052 13.4393C152.052 14.0225 152.052 14.0225 151.456 14.0225C150.074 14.0225 148.692 14.0225 147.323 14.0225C146.714 14.0225 146.702 14.0225 146.968 13.49C147.792 11.8544 147.399 10.3203 146.207 9.20462C145.028 8.10158 143.608 7.83533 142.087 8.46926C140.54 9.11587 139.881 10.3457 139.792 11.9559C139.767 12.5264 139.779 13.0969 139.792 13.6801C139.792 13.9337 139.729 14.0351 139.45 14.0351C138.778 14.0225 138.093 14.0225 137.421 14.0351C137.142 14.0351 137.079 13.921 137.091 13.6801C137.091 13.0969 137.091 12.501 137.091 11.9178C137.091 10.9669 137.091 10.0287 137.091 9.07783C137.091 8.92569 137.155 8.72283 136.876 8.69748C136.102 8.65944 135.405 9.28069 135.392 10.0541C135.392 11.2459 135.392 12.4376 135.405 13.6294C135.405 13.9591 135.304 14.0478 134.987 14.0351C133.858 14.0225 132.717 14.0098 131.589 14.0351C131.158 14.0351 131.069 13.9084 131.082 13.5026C131.107 10.4091 131.094 7.30283 131.107 4.20927C131.107 3.87962 131.006 3.7782 130.663 3.84159C129.776 4.01909 129.383 4.47552 129.383 5.38837C129.383 8.67212 129.383 11.9559 129.383 15.2396C129.383 15.62 129.548 15.658 129.852 15.658V15.6707ZM142.264 10.3964C142.924 9.76247 143.836 9.62301 144.546 10.0921C145.447 10.6753 145.814 11.6516 145.472 12.5264C145.117 13.4646 144.432 13.9337 143.456 14.0098C142.911 14.0478 142.366 14.0351 141.82 14.0478C141.58 14.0478 141.491 13.9464 141.491 13.7182C141.491 13.4139 141.491 13.1223 141.491 12.818C141.427 11.9178 141.554 11.081 142.252 10.4091L142.264 10.3964Z" fill="white"/>
<path d="M33.0005 15.7458C35.9799 15.7458 38.9467 15.7458 41.9262 15.7458C44.9056 15.7458 47.9358 15.7458 50.9279 15.7458C51.9042 15.7458 52.2846 15.3528 52.2846 14.3765C52.2846 12.1704 52.2846 9.96437 52.2972 7.74562C52.2972 6.54116 52.2972 5.33669 52.2972 4.13223C52.2972 3.76455 52.1704 3.68848 51.8408 3.81527C51.1942 4.05616 50.8138 4.49991 50.8138 5.19723C50.8012 7.66955 50.8138 10.1292 50.8138 12.6015C50.8138 13.0833 50.8138 13.5778 50.8392 14.0595C50.8392 14.2751 50.7631 14.3638 50.5349 14.3638C49.8503 14.3385 49.1529 14.3131 48.4683 14.3258C48.1133 14.3258 48.0246 14.1863 48.0372 13.8694C48.0626 13.489 48.0372 13.096 48.0372 12.7029C48.0372 10.9406 46.8708 9.58401 45.1338 9.2924C44.3858 9.16562 43.6378 9.25437 42.9024 9.22901C42.6996 9.22901 42.6615 9.33044 42.7122 9.50794C42.839 10.0151 43.118 10.3828 43.6251 10.5729C43.9294 10.687 44.2463 10.6617 44.5633 10.687C45.5776 10.7504 46.4144 11.5112 46.4397 12.4113C46.4524 12.9565 46.4397 13.5017 46.4397 14.0469C46.4397 14.3131 46.351 14.3892 46.0847 14.3765C44.0055 14.3385 41.9135 14.3258 39.8342 14.3765C39.5046 14.3765 39.3905 14.3004 39.568 13.9835C39.6187 13.8947 39.6567 13.806 39.6947 13.7045C40.5442 11.5872 39.2003 9.39383 36.9308 9.19098C35.8405 9.08955 34.7501 9.21633 33.6598 9.16562C33.3808 9.16562 33.3555 9.2924 33.4062 9.52062C33.5456 10.2433 33.9894 10.6237 34.7628 10.649C35.346 10.6744 35.9419 10.649 36.5251 10.6617C37.3746 10.6997 37.9831 11.1054 38.3508 11.8788C38.6551 12.5381 38.4142 13.0833 38.0212 13.5904C37.6535 14.0722 37.1464 14.2624 36.5505 14.2878C35.6376 14.3131 34.7121 14.3385 33.7992 14.3638C33.2414 14.3765 32.8483 14.6428 32.6074 15.1372C32.3665 15.6444 32.4046 15.7204 32.9624 15.7204L33.0005 15.7458Z" fill="white"/>
<path d="M66.7876 20.7287C66.8256 20.1709 66.5467 19.7652 65.9888 19.613C65.6465 19.5243 65.3042 19.537 64.9619 19.5243C63.9095 19.4736 62.8572 19.4862 61.8303 19.2707C61.0949 19.1186 60.6258 18.6241 60.5624 18.0282C60.461 17.0646 60.7399 16.4434 61.4879 16.0757C62.0078 15.8095 62.5783 15.7334 63.1615 15.7207C64.2265 15.7207 65.2915 15.7207 66.3565 15.7207C67.4088 15.7207 68.4485 15.7207 69.5008 15.7207C71.466 15.7207 72.924 14.4402 73.1649 12.4877C73.317 11.2832 73.2156 10.0788 73.2283 8.8743C73.2283 8.60805 73.0761 8.57001 72.8606 8.59537C72.1126 8.67144 71.5927 9.17858 71.504 9.92662C71.4152 10.7 71.5293 11.4734 71.4533 12.2468C71.3518 13.3372 70.5911 14.0725 69.5008 14.1105C68.8542 14.1359 68.2076 14.1105 67.561 14.1486C67.1806 14.1613 67.0411 14.0091 67.0411 13.6541C67.0411 13.1216 67.0411 12.5891 67.0285 12.0693C66.9524 10.3323 65.5324 8.84894 63.8081 8.68412C63.2122 8.63341 62.6036 8.58269 62.0078 8.60805C61.7795 8.60805 61.4372 8.48126 61.3231 8.72216C61.1963 9.00109 61.3865 9.30537 61.564 9.54626C61.7795 9.85055 62.0965 10.028 62.4515 10.1041C62.6924 10.1548 62.9333 10.1929 63.1742 10.2055C64.4928 10.2816 65.2915 11.0677 65.3549 12.3863C65.3803 12.7539 65.3803 13.1343 65.3803 13.502C65.3803 14.1613 65.3802 14.1486 64.7083 14.1359C63.4785 14.1359 62.236 14.1359 61.0442 14.5163C59.6242 14.9854 58.7874 16.2025 58.8381 17.6986C58.9015 19.3721 59.6115 20.2596 61.2344 20.6654C62.9713 21.0964 64.7463 20.9189 66.5086 20.957C66.6988 20.957 66.7369 20.8555 66.7622 20.6907L66.7876 20.7287Z" fill="white"/>
<path d="M16.1125 15.7337C18.0523 15.8858 19.9921 15.7717 22.2236 15.8224C23.7957 15.8224 25.6848 15.8351 27.5612 15.8224C29.5011 15.7971 30.7689 14.6433 31.0225 12.7415C31.1619 11.6512 31.0605 10.5608 31.0859 9.48315C31.0859 9.22958 30.9718 9.16619 30.7309 9.2169C29.9194 9.3944 29.5011 9.88887 29.4757 10.7257C29.463 11.2962 29.4757 11.8667 29.4757 12.4499C29.4503 13.4896 28.7784 14.2123 27.7641 14.3137C26.8639 14.4024 25.9511 14.339 25.0509 14.3771C24.6578 14.3898 24.5311 14.2883 24.5311 13.8826C24.5564 12.4119 24.5311 10.9285 24.5311 9.4578C24.5311 8.98869 24.4423 8.9253 23.9859 9.09012C23.3012 9.33101 22.9462 9.85083 22.9336 10.7003C22.9336 11.816 22.9336 12.9317 22.9716 14.0474C22.9716 14.2756 22.9462 14.3898 22.68 14.3898C21.8052 14.3771 20.9304 14.3771 20.0555 14.3898C19.802 14.3898 19.7005 14.301 19.7005 14.0348C19.7132 13.5149 19.7259 12.9951 19.7005 12.488C19.6118 11.0553 18.8891 9.9903 17.5705 9.47047C16.252 8.95065 14.9714 9.17887 13.9445 10.1932C12.9175 11.2074 12.778 12.4626 13.2852 13.7812C13.767 15.049 14.7813 15.6703 16.0998 15.7717L16.1125 15.7337ZM16.0745 10.6749C16.8859 10.5355 17.8241 11.2455 18.0143 12.0949C18.103 12.488 18.0904 12.8937 18.0904 13.2994C18.0904 14.0263 17.7354 14.3771 17.0254 14.3517C16.7338 14.3517 16.4548 14.3264 16.1632 14.301C15.3011 14.1996 14.553 13.3755 14.5404 12.5006C14.5404 11.6385 15.2123 10.8271 16.0745 10.6749Z" fill="white"/>
<path d="M72.7714 26.3203C72.4671 26.3076 72.3022 26.3964 72.2135 26.7133C71.643 28.6658 70.8569 30.5423 70.2103 32.4694C70.1596 32.6342 70.1342 32.8371 69.944 32.9512C69.7665 32.8117 69.7285 32.6089 69.6651 32.4314C69.1453 30.7578 68.4987 29.1349 67.9028 27.4994C67.4717 26.3076 67.4717 26.3203 66.2039 26.3457C65.8742 26.3457 65.7474 26.4471 65.7601 26.7894C65.7728 28.3108 65.7601 29.8323 65.7601 31.3537C65.7601 32.5581 65.7601 33.7626 65.7601 34.9671C65.7601 35.1065 65.6714 35.2967 65.9123 35.3601C66.6856 35.5883 67.2562 35.1826 67.2435 34.3839C67.2435 32.9258 67.2181 31.4551 67.2055 29.9971C67.2055 29.8956 67.1421 29.7308 67.2942 29.7055C67.4464 29.6801 67.4337 29.8576 67.4717 29.9464C68.0042 31.5312 68.5494 33.116 69.0692 34.7135C69.2848 35.3728 69.4876 35.4996 70.2103 35.0431C70.4385 34.9037 70.5526 34.6628 70.654 34.4219C71.1231 33.2301 71.5796 32.051 72.0487 30.8592C72.1755 30.5549 72.2262 30.2126 72.5305 29.959C72.5305 30.1619 72.5305 30.3521 72.5305 30.5549C72.5178 31.8355 72.4037 33.1033 72.5431 34.3839C72.5939 34.8022 72.7714 35.1192 73.1771 35.2714C73.773 35.5122 73.9885 35.3728 73.9885 34.7262C73.9885 32.3299 73.9885 29.9337 73.9885 27.5374C73.9885 26.0667 74.204 26.371 72.7587 26.3076L72.7714 26.3203Z" fill="white"/>
<path d="M36.5013 27.4863C36.5013 26.079 36.7422 26.3579 35.2841 26.3072C34.9925 26.3072 34.8023 26.3959 34.7263 26.7129C34.1938 28.6654 33.319 30.4911 32.7357 32.4309C32.685 32.6084 32.7104 32.9127 32.4822 32.9127C32.2666 32.9127 32.2413 32.6211 32.1779 32.4436C31.6327 30.77 30.9988 29.1218 30.4029 27.4736C29.9591 26.2311 29.9591 26.2311 28.6532 26.3326C28.6406 26.3326 28.6279 26.3326 28.6152 26.3326C28.3363 26.3326 28.2475 26.4593 28.2475 26.7256C28.2475 29.4768 28.2475 32.2281 28.2475 34.9793C28.2475 35.0934 28.2095 35.2456 28.3363 35.2836C28.704 35.3977 29.0843 35.3597 29.4393 35.2329C29.7182 35.1315 29.7436 34.8779 29.7436 34.6243C29.7436 33.61 29.7436 32.5831 29.7436 31.5688C29.7436 30.9729 29.7436 30.377 29.7436 29.6924C29.9972 29.9079 30.0225 30.0981 30.0859 30.2756C30.5804 31.759 31.0495 33.2424 31.62 34.7004C31.8863 35.3724 32.3047 35.4484 32.8372 34.954C33.002 34.7891 33.1288 34.599 33.2049 34.3834C33.6106 33.1536 34.1938 31.9999 34.5995 30.7827C34.7009 30.4784 34.7643 30.1361 35.0813 29.8572C35.0813 30.3897 35.0813 30.8715 35.0813 31.3406C35.0559 32.3168 35.0179 33.2931 35.0813 34.2566C35.1066 34.5863 35.17 34.8779 35.4236 35.1061C35.6898 35.347 36.0322 35.4484 36.3365 35.3343C36.6027 35.2329 36.5013 34.9033 36.5013 34.675C36.5013 32.2788 36.5013 29.8825 36.5013 27.499V27.4863Z" fill="white"/>
<path d="M44.1315 26.3331C43.878 26.3204 43.4469 26.1302 43.4089 26.6627C43.4089 26.7134 43.4089 26.7768 43.4089 26.8402C43.4089 27.2079 43.4089 27.5883 43.4089 27.9559C43.4089 29.4647 43.4089 30.9608 43.4089 32.5202C43.206 32.3681 43.1426 32.1906 43.0665 32.0258C42.2932 30.517 41.4564 29.0463 40.7844 27.4995C40.366 26.5486 39.8335 26.1683 38.8066 26.3077C38.4389 26.3584 38.3248 26.4345 38.3248 26.8149C38.3374 28.8815 38.3248 30.9481 38.3248 33.0147C38.3248 33.674 38.3248 34.3333 38.3248 34.9925C38.3248 35.132 38.2741 35.3349 38.5149 35.3602C39.4024 35.4236 39.7955 35.2715 39.7955 34.384C39.7955 32.8752 39.7955 31.3791 39.7955 29.8704C39.7955 29.7309 39.7321 29.5534 39.8715 29.414C40.0617 29.5534 40.1251 29.7563 40.2265 29.9465C40.9492 31.3284 41.6719 32.7231 42.3692 34.1177C42.8257 35.0179 43.5357 35.3983 44.5246 35.3856C44.7782 35.3856 44.8796 35.2968 44.8796 35.0306C44.8796 32.254 44.8796 29.4647 44.8796 26.6881C44.8796 26.1049 44.3978 26.3711 44.1315 26.3584V26.3331Z" fill="white"/>
<path d="M59.2195 26.3205C58.9659 26.3459 58.8771 26.46 58.8771 26.7009C58.8771 28.0575 58.8898 29.4267 58.9025 30.7833C58.9025 31.5314 58.9025 32.2667 58.9025 33.0401C58.7504 32.9894 58.725 32.8753 58.687 32.7866C57.8375 31.0242 56.8993 29.2873 56.1766 27.4616C55.7836 26.4853 55.2638 26.1937 54.3129 26.2951C53.9705 26.3332 53.8438 26.4219 53.8438 26.7769C53.8564 28.3871 53.8438 29.9846 53.8438 31.5948C53.8438 32.7105 53.8438 33.8262 53.8438 34.9546C53.8438 35.2462 53.9198 35.3603 54.2368 35.3603C55.0609 35.3603 55.3018 35.1701 55.3145 34.3333C55.3145 32.8246 55.3145 31.3285 55.3145 29.8198C55.3145 29.6803 55.2384 29.5028 55.4159 29.376C55.5554 29.4901 55.6187 29.655 55.6948 29.8071C56.4429 31.2525 57.2036 32.7105 57.9389 34.1558C58.3573 34.9799 59.042 35.3096 59.9295 35.3476C60.2971 35.3603 60.4239 35.2589 60.4239 34.8658C60.4112 32.3555 60.4239 29.8451 60.4239 27.3348C60.4239 26.181 60.4239 26.181 59.2448 26.2951L59.2195 26.3205Z" fill="white"/>
<path d="M113.724 26.3203C113.356 26.3076 113.217 26.4217 113.217 26.8021C113.229 28.184 113.217 29.5533 113.217 30.9353V33.0526C113.065 33.0019 113.027 32.9258 112.988 32.8497C112.126 31.0747 111.264 29.2997 110.427 27.4994C109.87 26.3203 109.895 26.3203 108.589 26.3456C108.234 26.3456 108.158 26.4851 108.171 26.8021C108.183 27.5501 108.171 28.2981 108.171 29.0335C108.171 30.986 108.171 32.9258 108.171 34.8783C108.171 35.0304 108.107 35.2206 108.247 35.3221C108.589 35.5756 109.489 35.1699 109.54 34.7262C109.705 33.0526 109.578 31.379 109.629 29.7055C109.629 29.6294 109.553 29.528 109.679 29.4899C109.806 29.5533 109.844 29.6801 109.908 29.7942C110.732 31.2396 111.48 32.7229 112.24 34.1937C112.633 34.9544 113.267 35.3221 114.117 35.3474C114.687 35.3601 114.7 35.3474 114.7 34.7896C114.7 32.2792 114.7 29.7688 114.7 27.2585C114.7 26.1428 114.802 26.3456 113.724 26.2949V26.3203Z" fill="white"/>
<path d="M82.016 26.9665C80.6214 26.0663 78.149 26.1423 76.8178 27.144C75.6514 28.0315 75.1949 29.2486 75.2456 30.6813C75.2456 30.9095 75.2203 31.1377 75.2456 31.3659C75.5119 33.4832 76.5135 34.8145 78.5167 35.2202C79.2014 35.3597 79.886 35.3216 80.5706 35.2202C81.978 35.03 82.8781 34.2186 83.4106 32.9507C83.791 32.0506 83.9178 31.0997 83.8163 30.1234C83.6896 28.8048 83.1571 27.7018 82.0033 26.9538L82.016 26.9665ZM81.3313 33.3311C80.9637 34.0918 80.3931 34.5356 79.5056 34.5356C78.6308 34.5356 78.0603 34.0791 77.7433 33.3311C77.0714 31.7336 77.0714 30.0854 77.6799 28.4752C77.9842 27.6638 78.5674 27.0932 79.5056 27.0932C80.4946 27.0932 81.0524 27.6765 81.3947 28.5132C81.7117 29.2486 81.7878 30.0347 81.7878 30.6052C81.7878 31.6829 81.699 32.545 81.3187 33.3311H81.3313Z" fill="white"/>
<path d="M143.835 26.3966C141.756 26.1557 139.981 26.8657 139.182 28.8816C138.815 29.8072 138.802 30.7834 138.941 31.7597C139.271 33.9657 140.983 35.3984 143.201 35.3097C143.468 35.297 143.747 35.2843 144.013 35.2589C145.458 35.1322 146.422 34.3588 147.018 33.0782C147.385 32.2795 147.461 31.43 147.461 30.5552C147.461 28.1716 146.194 26.6629 143.835 26.384V26.3966ZM144.85 33.5727C144.026 34.9293 142.251 34.9039 141.49 33.5093C140.945 32.5204 140.831 31.4427 140.919 30.3397C140.97 29.579 141.097 28.8309 141.49 28.159C141.87 27.487 142.415 27.0813 143.227 27.094C143.987 27.094 144.52 27.4997 144.888 28.1463C145.433 29.0972 145.458 30.1368 145.458 30.8848C145.42 32.0259 145.306 32.85 144.862 33.5854L144.85 33.5727Z" fill="white"/>
<path d="M133.403 26.358C131.958 26.2946 130.627 26.5989 129.663 27.8033C128.902 28.7542 128.699 29.8826 128.763 31.0744C128.915 33.7876 130.525 35.3344 133.162 35.309C134.608 35.2837 135.508 34.9794 136.218 34.1173C137.511 32.5324 137.714 30.694 137.055 28.8176C136.471 27.1694 135.115 26.4341 133.403 26.358ZM135.051 32.8748C134.722 33.9778 133.986 34.5483 132.972 34.5356C132.313 34.5356 131.818 34.2187 131.476 33.6735C130.931 32.824 130.791 31.8605 130.804 30.5165C130.829 29.8319 130.893 28.8049 131.514 27.9174C132.287 26.8017 133.758 26.7764 134.57 27.854C134.798 28.1583 134.963 28.488 135.064 28.843C135.444 30.1869 135.444 31.5308 135.051 32.8621V32.8748Z" fill="white"/>
<path d="M126.302 10.0794C125.833 10.1428 125.744 10.2822 125.921 10.7006C126.34 11.6388 126.492 12.6024 126.454 13.6294C126.39 15.1128 125.579 16.3172 124.21 16.8497C123.614 17.0779 122.993 17.154 122.346 17.1413C120.153 17.1287 118.58 15.3283 118.897 13.1476C118.961 12.6785 119.062 12.2221 119.151 11.753C119.316 10.9035 119.049 10.3076 118.403 10.0794C118.086 9.96528 117.883 10.0287 117.769 10.371C117.452 11.3472 117.211 12.3235 117.3 13.3631C117.3 13.566 117.3 13.7688 117.3 13.959C117.401 16.2665 118.809 18.0669 120.989 18.6374C122.384 19.0051 123.753 18.8022 125.072 18.2697C125.693 18.0162 126.264 17.6865 126.682 17.154C128.178 15.2396 128.381 13.1096 127.658 10.8528C127.43 10.1301 127.05 9.96528 126.289 10.0667L126.302 10.0794Z" fill="white"/>
<path d="M105.877 33.2175C105.522 32.6216 105.205 32.0131 104.698 31.5313C104.444 31.2904 104.482 31.189 104.787 31.0749C105.357 30.872 105.826 30.517 106.118 29.9845C106.879 28.6025 106.156 27.0684 104.546 26.612C103.443 26.295 102.327 26.3458 101.211 26.3458C100.451 26.3458 100.324 26.4852 100.311 27.2586C100.311 28.5265 100.311 29.7816 100.311 31.0495C100.311 32.254 100.311 33.4584 100.311 34.6629C100.311 35.449 100.159 35.3602 101.021 35.3602C101.871 35.3602 102.099 35.132 102.111 34.2825C102.124 33.5472 102.111 32.8245 102.111 32.0891C102.111 31.582 102.314 31.4552 102.783 31.6327C102.974 31.6961 103.088 31.8482 103.189 32.0004C103.76 32.8118 104.203 33.6993 104.66 34.5741C104.926 35.094 105.332 35.3348 105.89 35.3475C106.181 35.3475 106.46 35.3475 106.752 35.3475C106.993 35.3475 107.031 35.2715 106.917 35.0686C106.562 34.4473 106.219 33.8134 105.852 33.2049L105.877 33.2175ZM102.352 30.8086C102.137 30.7579 102.137 30.6057 102.137 30.4409C102.137 29.9084 102.137 29.3759 102.137 28.8561C102.137 28.349 102.137 27.8545 102.137 27.3474C102.137 27.0684 102.238 26.9543 102.505 26.9543C103.164 26.9543 103.823 26.9543 104.203 27.639C104.622 28.3743 104.799 29.1224 104.381 29.9211C104.077 30.4916 102.974 30.9734 102.365 30.8086H102.352Z" fill="white"/>
<path d="M88.7237 26.4089C87.8108 26.2187 86.898 26.244 85.9724 26.2567C85.3258 26.2567 85.0723 26.5356 85.0723 27.1823C85.0723 28.4628 85.0723 29.7306 85.0723 31.0112C85.0723 32.2917 85.0723 33.5596 85.0723 34.8401C85.0723 35.1697 85.123 35.3092 85.516 35.2965C86.4289 35.2585 87.3544 35.2458 88.2673 35.1951C89.9789 35.0937 91.3862 33.9272 91.7792 32.2664C91.9567 31.5437 91.9948 30.821 91.9567 30.0856C91.8426 28.1712 90.6255 26.7892 88.7364 26.3962L88.7237 26.4089ZM89.9408 32.6594C89.5858 33.9526 88.5082 34.7006 87.1642 34.6626C86.8346 34.6626 86.8599 34.4217 86.8599 34.2062C86.8599 33.6356 86.8599 33.0651 86.8599 32.4819C86.8599 31.8987 86.8599 31.3408 86.8599 30.7576C86.8599 29.6292 86.8599 28.4881 86.8599 27.3598C86.8599 27.0048 86.9867 26.8906 87.3417 26.9033C88.6983 26.954 89.6239 27.6387 89.9789 28.9573C90.3085 30.1871 90.2831 31.4296 89.9535 32.6467L89.9408 32.6594Z" fill="white"/>
<path d="M26.5219 33.4837C25.8373 31.1889 25.1653 28.8941 24.4807 26.6119C24.4426 26.4598 24.3919 26.333 24.2017 26.333C22.9212 26.3584 22.6169 26.1935 22.1478 27.5628C22.1098 27.6516 22.0971 27.753 22.0591 27.8544C21.2603 30.1239 20.7151 32.4694 19.9925 34.7642C19.8023 35.3601 19.8276 35.3855 20.4616 35.3601C21.3744 35.3348 21.5519 35.1953 21.7421 34.3205C21.7801 34.1557 21.8309 33.9909 21.8435 33.8134C21.8689 33.5471 21.9957 33.4457 22.2746 33.4584C22.6296 33.471 22.9973 33.4584 23.3523 33.4584C23.5551 33.4584 23.758 33.4584 23.9609 33.4584C24.5694 33.4584 24.9709 33.7415 25.1653 34.3078C25.495 35.2334 25.8373 35.4489 26.8008 35.3475C26.991 35.3221 27.0417 35.2841 26.991 35.0812C26.8262 34.5487 26.6867 34.0035 26.5219 33.471V33.4837ZM24.3159 32.368C23.6946 32.368 23.086 32.368 22.4648 32.368C22.2366 32.368 22.1478 32.2793 22.1985 32.051C22.5535 30.7071 22.9212 29.3759 23.2762 28.0446C23.2889 27.9939 23.3269 27.9432 23.4157 27.791C23.6566 28.6912 23.8721 29.4646 24.0623 30.2507C24.2144 30.8466 24.3412 31.4551 24.5441 32.0257C24.6328 32.2793 24.5694 32.368 24.3032 32.3553L24.3159 32.368Z" fill="white"/>
<path d="M50.4327 26.9287C50.2932 26.4469 50.103 26.1807 49.6466 26.3328C48.5689 26.3328 48.3788 26.485 48.0364 27.4232C47.9984 27.5119 47.973 27.6134 47.935 27.7021C47.4152 29.1475 47.0348 30.6309 46.6038 32.1016C46.3375 33.0271 46.0713 33.94 45.805 34.8655C45.7543 35.0176 45.6529 35.2205 45.8557 35.3219C46.4136 35.6262 47.3898 35.1571 47.5293 34.5359C47.58 34.295 47.6561 34.0668 47.6814 33.8259C47.7195 33.5089 47.8843 33.4455 48.1759 33.4455C48.7718 33.4709 49.3804 33.4455 49.9889 33.4455C50.8384 33.4455 50.7116 33.4202 50.9398 34.1175C51.3075 35.2205 51.485 35.3346 52.4993 35.3473C52.8416 35.3473 52.867 35.2459 52.7909 34.9543C52.0302 32.2664 51.2314 29.5912 50.4327 26.9161V26.9287ZM50.1791 32.3678C49.5579 32.3678 48.9493 32.3678 48.3281 32.3678C48.0998 32.3678 47.9604 32.3044 48.0491 32.0382C48.4422 30.745 48.7718 29.4264 49.1014 28.1078C49.1141 28.0444 49.1648 27.9937 49.2029 27.9303C49.2409 27.9303 49.2789 27.9303 49.3043 27.9303C49.5579 28.8686 49.8114 29.7941 50.0397 30.7323C50.1411 31.176 50.2552 31.6198 50.3947 32.0509C50.4707 32.2664 50.42 32.3678 50.1664 32.3678H50.1791Z" fill="white"/>
<path d="M159.709 30.5925C159.037 30.2502 158.34 29.9459 157.668 29.5909C157.3 29.4007 156.92 29.1345 156.971 28.6527C157.022 28.1582 157.389 27.892 157.833 27.7272C157.972 27.6765 158.112 27.6511 158.251 27.6131C158.936 27.4482 159.595 27.5497 160.229 27.7906C160.343 27.8286 160.457 27.9427 160.584 27.8159C160.774 27.6257 160.584 26.865 160.343 26.7636C159.659 26.4974 158.936 26.3833 158.302 26.3452C157.694 26.3452 157.199 26.434 156.73 26.6241C155.804 27.0172 155.247 27.6891 155.17 28.7034C155.094 29.6924 155.513 30.415 156.413 30.8588C156.819 31.0616 157.237 31.2645 157.643 31.4673C158.087 31.6829 158.581 31.835 158.961 32.19C159.469 32.6465 159.456 33.2423 158.898 33.6481C158.53 33.9143 158.125 34.0665 157.655 34.0918C156.857 34.1425 156.083 34.0411 155.335 33.7241C155.209 33.6734 154.968 33.5213 154.955 33.7495C154.93 34.0538 154.841 34.4341 155.221 34.6243C156.603 35.3343 158.049 35.6006 159.532 35.0173C160.774 34.5356 161.408 33.2677 161.053 32.0632C160.85 31.3532 160.331 30.8968 159.709 30.5799V30.5925Z" fill="white"/>
<path d="M17.6336 30.4911C17.0757 30.2249 16.5179 29.9713 15.96 29.6924C15.5163 29.4641 15.0599 29.1979 15.1106 28.6147C15.174 28.0188 15.6938 27.8032 16.2009 27.6511C16.2516 27.6384 16.315 27.6257 16.3657 27.6131C17.025 27.4482 17.6716 27.5497 18.3056 27.7652C18.4323 27.8032 18.5718 27.9174 18.6986 27.7906C18.8888 27.5877 18.6859 26.8524 18.4197 26.7509C17.7604 26.4974 17.0631 26.3833 16.3657 26.3452C15.7065 26.3706 15.0852 26.4974 14.4893 26.8016C13.0313 27.575 12.7397 29.9332 14.4259 30.8207C14.9965 31.125 15.5797 31.404 16.1756 31.6575C16.5052 31.797 16.8349 31.9491 17.1011 32.19C17.6209 32.6591 17.5956 33.2297 17.025 33.6354C16.6574 33.9016 16.2516 34.0538 15.7952 34.0918C14.9965 34.1425 14.2231 34.0538 13.475 33.7241C13.1961 33.5973 13.0693 33.6354 13.0566 33.9904C13.0566 34.3707 13.1707 34.599 13.5257 34.7638C14.6034 35.2456 15.7191 35.4357 16.8856 35.2456C18.2168 35.03 19.0536 34.2313 19.2311 33.0268C19.3959 31.9365 18.8634 31.0743 17.6209 30.4657L17.6336 30.4911Z" fill="white"/>
<path d="M98.4844 26.2441C97.0391 26.2441 95.581 26.2441 94.1357 26.2695C93.5271 26.2695 93.3496 26.4977 93.3496 27.1063C93.3496 28.3995 93.3496 29.68 93.3496 30.9732C93.3496 32.2665 93.3496 33.6104 93.3496 34.9289C93.3496 35.2332 93.4257 35.3093 93.73 35.3093C95.1626 35.2839 96.5953 35.2966 98.0407 35.2966C98.6619 35.2966 98.6366 35.2966 98.4591 34.7007C98.3323 34.257 98.1294 34.0415 97.6096 34.0922C96.925 34.1556 96.2276 34.1048 95.543 34.1175C95.2641 34.1175 95.1119 34.0415 95.1246 33.7372C95.1373 33.1159 95.15 32.5073 95.1373 31.8861C95.1373 31.6579 95.2134 31.5691 95.4289 31.5818C95.8219 31.5818 96.2023 31.5818 96.5953 31.5818C97.6476 31.5565 97.5462 31.8227 97.5462 30.5802C97.5462 30.3013 97.4321 30.1872 97.1659 30.1998C96.6334 30.2125 96.1009 30.1998 95.5684 30.2252C95.2387 30.2379 95.0992 30.1365 95.1246 29.7941C95.15 29.1222 95.1626 28.4502 95.15 27.7782C95.15 27.4232 95.3021 27.3345 95.6064 27.3345C96.1769 27.3345 96.7728 27.2584 97.3307 27.3599C98.066 27.4866 98.3576 27.0429 98.6746 26.5484C98.8014 26.3329 98.7253 26.2695 98.5098 26.2695L98.4844 26.2441Z" fill="white"/>
<path d="M125.908 26.5104C124.855 26.2568 123.79 26.3583 122.738 26.3456C121.99 26.3456 121.787 26.5485 121.787 27.2838C121.787 28.5136 121.787 29.7434 121.787 30.9859C121.787 32.1904 121.787 33.3949 121.787 34.5993C121.787 35.0304 121.998 35.2417 122.421 35.2333C122.522 35.2333 122.624 35.2333 122.725 35.2206C123.296 35.1572 123.486 34.9797 123.511 34.4092C123.537 33.8893 123.511 33.3822 123.511 32.8624C123.524 31.8608 123.334 31.9368 124.45 31.9242C125.21 31.9242 125.984 31.8861 126.656 31.4931C127.594 30.9479 128.101 29.7181 127.924 28.5897C127.746 27.4867 127.087 26.8274 125.895 26.5358L125.908 26.5104ZM126.161 29.5786C125.971 30.8211 125.045 31.5058 123.765 31.3663C123.473 31.3409 123.511 31.1508 123.511 30.9733C123.511 30.3774 123.511 29.7688 123.511 29.1729C123.511 28.539 123.511 27.9177 123.511 27.2838C123.511 27.0302 123.6 26.9034 123.854 26.9161C123.866 26.9161 123.879 26.9161 123.892 26.9161C125.667 26.8274 126.427 27.7402 126.149 29.5786H126.161Z" fill="white"/>
<path d="M153.815 34.0795C153.13 34.0795 152.433 34.0542 151.748 34.0795C151.342 34.1049 151.241 33.9654 151.241 33.5724C151.253 31.417 151.241 29.2744 151.241 27.119C151.241 26.4851 150.92 26.1892 150.277 26.2315C149.719 26.2695 149.542 26.4597 149.542 27.0176C149.542 28.3108 149.542 29.604 149.542 30.8845C149.542 32.2031 149.542 33.5217 149.542 34.8402C149.542 35.0304 149.491 35.2333 149.821 35.2333C151.317 35.2333 152.813 35.2333 154.296 35.2333C154.423 35.2333 154.525 35.2333 154.563 35.0811C154.664 34.6881 154.208 34.0542 153.802 34.0542L153.815 34.0795Z" fill="white"/>
<path d="M54.2259 15.7079C54.8471 15.5558 55.2148 15.0613 55.2275 14.326C55.2275 12.906 55.2275 11.486 55.2275 10.066C55.2275 8.11348 55.2275 6.16098 55.2275 4.22116C55.2275 3.82812 55.0753 3.75205 54.733 3.82812C54.0103 4.00562 53.6934 4.39866 53.6934 5.14669C53.6934 6.82026 53.6934 8.50651 53.6934 10.1801C53.6934 11.8917 53.6934 13.5906 53.6934 15.3022C53.6934 15.7586 53.7948 15.822 54.2385 15.7079H54.2259Z" fill="white"/>
<path d="M136.356 7.11191C136.952 7.12459 137.37 6.69352 137.383 6.03424C137.383 5.33692 137.053 4.98192 136.394 4.96924C135.722 4.96924 135.266 5.37495 135.266 5.98352C135.266 6.63013 135.722 7.08656 136.369 7.11191H136.356Z" fill="white"/>
<path d="M122.525 9.96496C123.095 9.96496 123.501 9.55924 123.501 8.95067C123.501 8.27871 123.095 7.84764 122.462 7.83496C121.853 7.83496 121.422 8.24067 121.422 8.84925C121.422 9.52121 121.84 9.95228 122.525 9.96496Z" fill="white"/>
<path d="M71.1627 16.9126C70.5541 16.9126 70.123 17.3183 70.123 17.9269C70.123 18.5608 70.5668 19.0046 71.2134 19.0046C71.7459 19.0046 72.1389 18.5608 72.1389 17.9776C72.1389 17.331 71.7586 16.9253 71.1627 16.9126Z" fill="white"/>
<path d="M17.406 8.25289C17.9258 8.25289 18.2808 7.87253 18.3061 7.31468C18.3188 6.75682 17.9765 6.37646 17.4313 6.37646C16.8481 6.37646 16.4678 6.71879 16.4551 7.27664C16.4551 7.8345 16.8608 8.25289 17.4186 8.26557L17.406 8.25289Z" fill="white"/>
<path d="M15.1484 8.2534C15.6809 8.26607 16.0866 7.87304 16.112 7.32786C16.1247 6.77001 15.7443 6.40233 15.1738 6.38965C14.6666 6.38965 14.2736 6.74465 14.2609 7.21375C14.2356 7.79697 14.6286 8.24072 15.1611 8.2534H15.1484Z" fill="white"/>
<path d="M21.5505 6.26269C22.083 6.26269 22.4887 5.85698 22.4887 5.34983C22.4887 4.7793 22.0957 4.41162 21.4871 4.41162C21.0307 4.41162 20.5996 4.84269 20.5996 5.29912C20.5996 5.81894 21.0434 6.26269 21.5505 6.26269Z" fill="white"/>
<path d="M20.4864 8.22804C21.0315 8.22804 21.4119 7.84768 21.4246 7.27715C21.4372 6.78268 21.0315 6.40233 20.4737 6.38965C19.9919 6.38965 19.5862 6.78268 19.5608 7.28983C19.5481 7.78429 19.9792 8.22804 20.4864 8.22804Z" fill="white"/>
<path d="M21.7812 7.27697C21.7812 7.86018 22.1362 8.24054 22.6941 8.24054C23.1886 8.24054 23.5816 7.86018 23.5943 7.34036C23.5943 6.76983 23.252 6.40215 22.6687 6.37679C22.1489 6.36412 21.7939 6.71911 21.7812 7.26429V7.27697Z" fill="white"/>
<path d="M29.1968 17.8762C29.2095 17.331 28.8038 16.8999 28.284 16.8999C27.7895 16.8999 27.3965 17.331 27.3965 17.8635C27.3965 18.4087 27.7388 18.7637 28.2586 18.7637C28.8165 18.7637 29.1842 18.4213 29.1968 17.8762Z" fill="white"/>
<path d="M26.1423 16.8999C25.6225 16.8999 25.1914 17.331 25.1914 17.8635C25.1914 18.3833 25.6098 18.789 26.1296 18.7763C26.6368 18.7763 27.0171 18.3706 27.0298 17.8254C27.0298 17.331 26.6241 16.8999 26.1423 16.8999Z" fill="white"/>
</g>
<defs>
<clipPath id="clip0_243_797">
<rect width="200.03" height="35.4366" fill="white"/>
</clipPath>
</defs>
</svg>
