<svg width="185" height="52" viewBox="0 0 185 52" fill="none" xmlns="http://www.w3.org/2000/svg">
<g clip-path="url(#clip0_243_762)">
<path d="M180.466 20.3494C181.442 20.2353 181.975 19.3098 181.949 18.2321C181.924 16.9262 181.404 16.3557 180.466 16.0641C180.098 15.95 179.68 15.9246 179.287 15.9246C178.095 15.9119 176.891 15.8485 175.712 15.95C173.975 16.0894 173.011 15.2907 172.377 13.6425C171.87 12.2985 172.821 10.3587 174.545 10.3968C176.13 10.4475 176.46 10.9546 177.043 12.4253C177.271 12.9959 177.474 13.6932 178.197 13.7312C179.236 13.7946 180.352 13.8707 180.961 12.7296C181.493 11.7153 181.379 10.6757 180.846 9.68676C180.58 9.20498 180.251 8.76123 179.896 8.34283C178.615 6.83409 177.018 5.84516 174.989 5.94659C172.669 6.0607 170.666 7.04962 169.258 8.90069C168.181 10.308 167.699 11.9943 168.041 13.82C168.181 14.53 168.32 15.24 168.447 15.8866H163.692L163.578 15.7344C163.578 13.4269 163.604 11.1194 163.591 8.81194C163.591 7.5948 163.071 6.91016 161.917 6.69462C160.383 6.40302 158.989 6.89748 158.989 8.8373C158.989 9.55998 159.001 10.2827 159.001 11.0053C159.001 12.6535 159.001 14.3018 159.001 16.026C157.771 16.026 156.694 15.988 155.629 16.0387C154.957 16.0768 154.817 15.8359 154.817 15.2019C154.817 12.9959 154.741 10.7898 154.703 8.57105C154.678 7.11302 153.588 6.54248 151.965 6.64391C150.836 6.71998 150.063 7.68355 150.076 8.95141C150.076 10.9293 150.076 12.9198 150.076 14.8976V15.9753H146.145C146.145 15.9753 146.069 15.8993 146.031 15.8739C146.031 13.541 146.069 11.2082 145.993 8.87533C145.955 7.69623 145.752 6.99891 144.282 6.68194C142.57 6.31427 141.226 7.27784 141.264 8.93873C141.315 11.056 141.264 13.186 141.264 15.3034C141.264 15.7851 141.163 16.0007 140.605 15.988C138.88 15.9373 137.143 15.9373 135.419 15.9753C134.836 15.9753 134.658 15.7978 134.658 15.2146C134.684 13.3509 134.684 11.4871 134.658 9.61069C134.633 8.10194 134.139 7.50605 132.693 7.12569C131.4 6.78337 130.082 7.67087 130.031 8.98944C129.967 10.7771 129.993 12.5775 129.967 14.3778C129.955 15.633 129.676 15.9373 128.471 15.95C126.899 15.9753 125.34 15.95 123.768 15.9626C122.272 15.9626 122.297 15.9626 122.259 14.5046C122.208 12.5902 122.221 10.6503 121.98 8.76123C121.828 7.53141 120.813 7.01159 119.254 7.17641C118.354 7.26516 117.517 8.24141 117.517 9.20498C117.517 11.0053 117.517 12.793 117.517 14.5934C117.517 15.6076 117.175 15.988 116.224 15.988C110.379 15.988 104.534 15.988 98.6894 15.9753C97.7132 15.9753 96.851 15.5316 96.496 14.606C95.9508 13.186 96.9778 11.8675 98.6007 11.8294C101.846 11.7534 105.105 11.8041 108.35 11.7787C108.807 11.7787 109.289 11.7407 109.732 11.6393C111.33 11.2589 112.091 9.06551 110.937 7.97516C110.48 7.54409 109.732 7.17641 109.124 7.16373C105.498 7.08766 101.872 6.97355 98.2583 7.18909C94.1632 7.42998 91.2598 10.625 91.9571 15.1005C92.4896 18.511 95.8241 20.6284 98.5119 20.6157C101.01 20.603 103.507 20.6157 106.005 20.6157C110.214 20.6157 114.411 20.6157 118.62 20.6157C120.015 20.6157 121.092 20.0325 121.752 18.7519C121.853 18.5617 122.018 18.3969 122.145 18.2194C122.284 18.5617 122.31 18.8407 122.284 19.1069C122.272 19.2844 122.195 19.4619 122.157 19.6394C122.005 20.4001 122.157 20.5903 122.893 20.603C125.695 20.603 128.497 20.6664 131.299 20.603C131.958 20.5903 132.693 20.2987 133.251 19.931C133.796 19.5634 134.164 18.9294 134.646 18.3716C134.62 18.8914 134.646 19.4239 134.532 19.931C134.418 20.4889 134.582 20.641 135.115 20.6284C136.446 20.5903 137.777 20.5776 139.109 20.5776C149.226 20.5776 159.356 20.5776 169.474 20.5776C172.136 20.5776 174.799 20.641 177.461 20.6157C178.45 20.6157 179.426 20.4762 180.415 20.3621L180.466 20.3494Z" fill="white"/>
<path d="M34.0019 0.190428C24.2902 -0.747785 13.3232 1.76257 5.72875 8.1272C4.60036 9.0781 3.5734 10.2318 2.64786 11.3856C2.30554 11.8167 0.315011 15.2906 -0.00195312 15.2906C0.365725 15.2906 0.695367 15.2906 1.02501 15.2906C3.34519 15.2906 5.65268 15.2906 7.97286 15.3286C8.56875 15.3286 8.89839 15.1258 9.20268 14.6313C11.1932 11.3222 15.2503 9.29363 18.813 8.03845C20.4612 7.46792 22.1728 7.04953 23.8971 6.80863C24.6325 6.70721 25.7736 6.4156 26.5089 6.5931C26.661 6.63113 26.7878 6.68185 26.8766 6.73256C27.295 6.99881 27.1175 7.45524 27.1048 8.22863C27.0541 10.4981 27.016 12.7802 26.9527 15.0497C26.94 15.5061 27.0414 15.7343 27.5739 15.7217C29.2348 15.6836 30.8957 15.6836 32.5439 15.6709C32.8609 15.6709 33.1778 15.6709 33.5709 15.6709C33.5709 14.1495 33.5709 12.7295 33.5709 11.3095C33.5709 9.88952 33.5455 8.46952 33.5709 7.03685C33.5709 6.85935 33.8118 6.50435 33.9005 6.51703C37.4505 7.01149 41.0892 7.6581 44.411 9.06542C46.8833 10.1051 49.1908 11.6772 50.6742 13.9086C51.0799 14.5172 51.3842 15.1004 52.0816 15.3033C52.7789 15.5061 53.9073 15.2906 54.6299 15.3033C56.4937 15.3033 58.3574 15.3033 60.2212 15.3033C59.9423 14.7708 59.7394 14.327 59.4858 13.9213C54.1862 5.43935 43.625 1.12864 34.0019 0.190428Z" fill="white"/>
<path d="M184.635 41.3572C184.28 39.9752 183.532 38.9483 182.036 38.289C183.342 37.617 183.989 36.6661 184.128 35.4109C184.204 34.739 184.255 34.0543 184.179 33.395C183.95 31.3918 183.291 30.2381 181.136 29.6168C180.223 29.3506 179.234 29.3125 178.27 29.2999C176.128 29.2492 173.972 29.2745 171.83 29.2872C170.93 29.2872 170.93 29.2872 171.006 30.2C171.018 30.3649 171.006 30.5297 171.006 30.6945C171.006 35.8674 171.006 41.0402 171.006 46.2131C171.006 46.7075 170.917 47.202 170.854 47.7472C171.196 47.7725 171.462 47.8106 171.741 47.8106C173.934 47.8106 176.128 47.8486 178.321 47.8106C179.221 47.7979 180.122 47.6838 180.996 47.4809C183.849 46.7836 185.206 43.614 184.622 41.3572H184.635ZM174.822 32.4442C176.267 32.5202 177.7 32.5456 179.12 32.685C179.944 32.7738 180.553 33.8515 180.4 34.7897C180.286 35.4743 180.261 36.2224 179.5 36.6027C179.297 36.7041 179.082 36.8436 178.866 36.8436C177.535 36.869 176.217 36.8436 174.822 36.8436V32.4315V32.4442ZM180.679 42.8406C180.515 44.1084 180.033 44.4634 178.664 44.5522C177.573 44.6156 176.47 44.6029 175.367 44.6156C175.316 44.6156 175.266 44.6156 175.215 44.6156C175.075 44.4761 174.822 44.3493 174.822 44.2098C174.797 42.8659 174.809 41.5093 174.809 40.0132C176.318 40.0893 177.814 40.064 179.259 40.2795C180.464 40.457 180.844 41.5854 180.667 42.8532L180.679 42.8406Z" fill="white"/>
<path d="M57.4453 40.4951C55.8352 40.4951 54.225 40.5205 52.6148 40.4951C52.0443 40.4824 51.6893 40.6599 51.3216 41.1037C49.0394 43.8422 46.0727 45.1101 42.5607 44.6537C39.9236 44.3113 37.8189 42.7646 36.1454 40.698C34.9282 39.2019 34.3577 37.4396 33.952 35.5885C33.9013 34.9039 33.8379 34.2192 33.8252 33.5346C33.8252 33.0148 33.9013 32.4823 33.9393 31.9624C34.0154 31.6962 34.1041 31.4299 34.1548 31.1637C34.5605 29.021 35.7016 27.284 37.1596 25.7246C40.6209 22.0224 46.3136 21.883 49.9903 25.0273C50.3327 25.3189 50.8652 25.4837 51.3089 25.4964C53.2741 25.5471 55.2393 25.5217 57.2044 25.509C57.3566 25.509 57.5087 25.4837 57.7369 25.4583C57.6228 25.1794 57.5721 24.9512 57.458 24.761C56.3676 22.6944 54.973 20.8814 53.1473 19.3599C50.675 17.2933 47.8857 16.0001 44.6907 15.7339C41.9268 15.5057 39.2389 15.9621 36.792 17.306C35.6763 17.9146 34.6366 18.6753 33.5589 19.3599C33.5082 19.2332 33.4068 19.1064 33.4068 18.9796C33.4321 18.3837 33.4448 17.7751 33.5462 17.1919C33.635 16.6214 33.3941 16.5326 32.8996 16.5326C31.4796 16.558 30.047 16.5326 28.627 16.5326C28.0818 16.5326 27.5239 16.5326 26.9027 16.5326C26.9661 17.8512 27.0168 19.0557 27.0802 20.501C26.573 20.0573 26.218 19.7657 25.8884 19.4487C23.302 16.9003 20.1957 15.6958 16.5697 15.6832C13.8438 15.6705 11.2954 16.241 9.0386 17.7751C3.97986 21.211 1.62165 26.181 1.16522 32.1019C1.01308 34.0164 1.24129 36.0069 1.58361 37.896C2.4204 42.4856 4.89272 46.099 8.65825 48.8122C10.129 49.8645 11.7391 50.7394 13.6029 50.9422C16.0118 51.5508 18.3954 51.4747 20.7536 50.6887C23.1752 50.004 25.1404 48.6347 26.8266 46.6569C26.928 46.8978 27.0422 47.0246 27.0422 47.164C27.0168 48.1149 26.9914 49.0531 26.9154 49.9913C26.8773 50.5619 27.1182 50.752 27.6507 50.6887C28.1072 50.6379 28.5636 50.5619 29.0327 50.5619C30.1738 50.5365 31.3148 50.5619 32.4686 50.5365C32.8236 50.5365 33.1659 50.4351 33.597 50.359C33.5209 49.7758 33.4321 49.2813 33.4195 48.7742C33.4195 48.4699 33.5082 48.1656 33.5589 47.8613C34.1548 48.2544 34.7507 48.6347 35.3466 49.0404C37.223 50.3337 39.3784 50.9549 41.5464 51.5001C42.2945 51.6903 43.1059 51.8678 43.8539 51.7537C45.1725 51.5635 46.4657 51.1958 47.7462 50.8281C50.5989 50.004 52.9318 48.3938 54.8462 46.1371C56.1268 44.6283 57.2171 43.0054 57.9651 41.1544C58.2314 40.4951 57.9651 40.4444 57.4453 40.4444V40.4951ZM23.1118 41.3192C18.8772 45.5919 12.8548 45.1354 9.19075 40.4317C7.45378 38.1876 6.55361 35.6265 6.75646 32.7739C7.07343 28.3237 9.97682 23.7848 14.8454 22.7958C15.4159 22.6817 15.9991 22.7071 16.5823 22.669C21.0452 22.4028 24.7347 26.3839 25.6602 30.048C25.9645 31.2651 26.2434 32.5456 26.1927 33.7755C26.0913 36.6281 25.153 39.2399 23.0991 41.3192H23.1118ZM33.6477 35.7406C33.6096 35.6772 33.5463 35.6139 33.5082 35.5631C33.5589 35.6265 33.6096 35.6899 33.6477 35.7406Z" fill="white"/>
<path d="M105.621 37.8456C105 35.1578 104.353 32.4699 103.681 29.7947C103.631 29.5919 103.314 29.3003 103.123 29.3003C101.019 29.2749 98.9141 29.3003 96.8094 29.2876C96.4544 29.2876 96.3023 29.4017 96.2262 29.7947C95.643 32.5967 95.0344 35.386 94.3878 38.1753C93.7919 40.7744 93.12 43.3481 92.5241 45.9345C92.3846 46.5558 92.3593 47.2024 92.2832 47.8363C92.3466 47.8363 92.3973 47.8363 92.4607 47.8363C93.3989 47.8363 94.3244 47.8236 95.2627 47.8363C95.7952 47.8363 96.0361 47.6715 96.1121 47.0883C96.2009 46.3529 96.4164 45.6176 96.6319 44.9076C96.6827 44.7301 96.9362 44.4765 97.101 44.4765C99.0155 44.4512 100.93 44.4512 102.844 44.4765C103.022 44.4765 103.276 44.7174 103.352 44.8949C103.466 45.2119 103.44 45.5795 103.529 45.9092C103.694 46.5304 103.897 47.1517 104.074 47.7729L104.226 47.8236H107.852C107.751 47.4433 107.65 47.1263 107.574 46.7967C106.902 43.8172 106.268 40.8251 105.583 37.8329L105.621 37.8456ZM97.4307 41.1547C97.6843 39.9503 97.9125 38.7965 98.1661 37.6428C98.4577 36.2481 98.7873 34.8535 99.0535 33.4462C99.1803 32.8122 99.3452 32.3431 100.131 32.5079C100.283 32.546 100.448 32.5079 100.651 32.5079C101.285 35.386 101.906 38.2387 102.54 41.142H97.4307V41.1547Z" fill="white"/>
<path d="M145.383 32.5586C147.551 32.5586 149.732 32.5333 151.9 32.5586C152.369 32.5586 152.521 32.4192 152.508 31.9627C152.483 31.2654 152.483 30.5681 152.508 29.8708C152.521 29.427 152.394 29.2622 151.925 29.2622C148.286 29.2876 144.635 29.2749 140.996 29.2622C140.502 29.2622 140.299 29.3763 140.299 29.9215C140.312 35.7029 140.299 41.4843 140.311 47.2658C140.311 47.4433 140.476 47.6334 140.565 47.8109C140.628 47.8109 140.679 47.8109 140.743 47.8109C144.457 47.8109 148.172 47.8109 151.887 47.8236C152.267 47.8236 152.496 47.7349 152.508 47.3545C152.521 46.429 152.508 45.5034 152.508 44.5145H144.14C144.14 43.0945 144.128 41.7506 144.166 40.4067C144.166 40.2926 144.521 40.1024 144.711 40.0897C145.991 40.0643 147.285 40.077 148.565 40.0643C149.301 40.0643 150.036 40.0643 150.797 40.0643V36.8313H144.178V32.5333C144.61 32.5333 145.003 32.5333 145.396 32.5333L145.383 32.5586Z" fill="white"/>
<path d="M159.368 44.5274C159.368 43.2216 159.394 41.9791 159.368 40.7492C159.356 40.1914 159.596 40.09 160.078 40.09C161.46 40.1026 162.842 40.09 164.211 40.09C164.833 40.09 165.454 40.09 166.113 40.09C166.113 39.2025 166.075 38.391 166.113 37.5796C166.151 37.0091 165.936 36.8569 165.391 36.8569C163.641 36.8823 161.879 36.8569 160.129 36.8569C159.875 36.8569 159.635 36.8316 159.381 36.8062V32.6603C159.381 32.6603 159.47 32.6096 159.52 32.5843H167.774C167.774 31.6207 167.736 30.8093 167.774 29.9978C167.812 29.4273 167.597 29.2751 167.051 29.2878C163.4 29.3132 159.761 29.3005 156.11 29.3005C155.983 29.3005 155.844 29.3512 155.742 29.3639V47.8239C158.81 47.8239 161.828 47.8239 164.845 47.8239C165.67 47.8239 166.481 47.8492 167.305 47.7985C167.495 47.7985 167.812 47.5576 167.825 47.4055C167.876 46.4673 167.85 45.5291 167.85 44.5148H159.356L159.368 44.5274Z" fill="white"/>
<path d="M135.927 38.6572C134.595 37.5415 132.972 37.1738 131.426 36.5779C130.513 36.2229 129.562 35.8933 128.725 35.3862C127.571 34.6762 127.698 33.2181 128.941 32.6476C129.448 32.4194 130.044 32.2292 130.589 32.2546C132.275 32.3306 133.949 32.4954 135.622 32.6476C136.129 32.6983 136.548 32.6476 136.611 32.0137C136.662 31.4178 136.713 30.8219 136.789 30.226C136.839 29.7822 136.611 29.6301 136.218 29.554C134.202 29.1863 132.174 28.9835 130.12 28.9962C126.912 29.0215 124.972 30.5303 124.288 33.6492C124.034 34.8029 124.25 35.8806 124.782 36.8822C125.581 38.391 127.077 38.9615 128.56 39.494C129.689 39.8997 130.855 40.2167 131.971 40.6478C132.694 40.9267 133.429 41.2817 133.442 42.2833C133.442 43.9061 132.554 44.8824 130.893 44.819C128.979 44.7429 127.077 44.5528 125.175 44.4386C125.036 44.4386 124.795 44.5781 124.769 44.6795C124.63 45.5417 124.541 46.4038 124.44 47.304C126.405 47.7985 129.6 48.3436 131.552 48.1788C132.82 48.0647 134.012 47.659 135.09 46.9617C137.106 45.6558 137.448 43.082 137.156 41.1042C137.03 40.1786 136.738 39.3292 135.939 38.6572H135.927Z" fill="white"/>
<path d="M118.683 37.4017C117.047 36.7804 115.411 36.1465 113.789 35.4999C113.193 35.259 112.901 34.7518 112.952 34.1306C112.99 33.484 113.281 32.9515 113.915 32.6472C114.993 32.1274 116.121 32.2034 117.25 32.3049C118.492 32.419 119.722 32.5458 120.965 32.6599C121.358 32.6979 121.497 32.5204 121.523 32.1401C121.548 31.5695 121.497 30.961 121.675 30.4285C121.916 29.7438 121.497 29.6551 121.066 29.5917C120.026 29.4268 118.987 29.2747 117.947 29.1606C116.033 28.9451 114.144 28.8436 112.28 29.5663C109.922 30.4792 108.464 33.3318 109.224 35.7534C109.744 37.389 110.847 38.5174 112.445 39.1133C114.004 39.6965 115.589 40.2163 117.148 40.8122C117.985 41.1292 118.467 41.5349 118.302 43.0436C118.226 43.7917 117.63 44.6158 116.831 44.6792C115.5 44.7933 114.156 44.7806 112.825 44.7425C111.798 44.7172 110.784 44.565 109.757 44.4763C109.605 45.4272 109.44 46.3654 109.275 47.3797C110.226 47.5318 111.151 47.6586 112.064 47.8108C113.624 48.0643 115.183 48.3686 116.793 48.1024C119.443 47.6586 121.801 46.264 122.08 43.0436C122.347 39.7979 121.256 38.4033 118.683 37.427V37.4017Z" fill="white"/>
<path d="M79.9985 8.406C79.9351 8.24117 79.7069 8.07635 79.5294 8.02564C78.8827 7.88617 78.832 8.26653 78.832 8.78635C78.832 18.8151 78.832 28.8565 78.8447 38.8852C78.8447 41.776 78.9208 44.6667 78.9842 47.5574C78.9842 47.7729 79.2251 48.1152 79.4279 48.1659C79.8463 48.2801 79.9604 47.9631 79.9731 47.5701C79.9985 46.784 80.0872 45.9979 80.0872 45.1992C80.0872 39.2529 80.0872 33.294 80.0872 27.3478C80.0872 21.3001 80.0872 15.2651 80.0872 9.21742C80.0872 8.93849 80.0872 8.64689 79.9985 8.39332V8.406Z" fill="white"/>
<path d="M131.03 25.5218C131.03 24.292 130.016 23.1002 128.951 23.1129C127.151 23.1256 125.984 24.0891 125.984 25.5725C125.984 26.7516 127.189 27.8927 128.431 27.8927C129.94 27.8927 131.03 26.8911 131.043 25.5218H131.03Z" fill="white"/>
<path d="M136.648 25.3444C136.648 24.0385 135.608 23.1256 134.175 23.1383C132.73 23.151 131.754 24.1272 131.716 25.4965C131.678 26.663 132.73 28.0196 134.328 27.9181C135.646 27.8294 136.66 26.7771 136.648 25.3444Z" fill="white"/>
<path d="M111.406 25.7753C111.406 24.051 110.582 23.1382 109.035 23.1382C107.615 23.1382 106.499 24.1525 106.486 25.471C106.474 26.6755 107.615 27.9053 108.743 27.9053C110.303 27.9053 111.406 27.0305 111.406 25.7753Z" fill="white"/>
<path d="M69.1969 12.1206C69.311 11.9051 69.3744 11.6642 69.3744 11.3726C69.3744 10.9288 69.235 10.5738 68.9433 10.3076C68.6644 10.0413 68.2714 9.91455 67.7896 9.91455H65.9766V14.4408H66.8641V12.8306H67.8276L68.7151 14.4408H69.7421L68.7024 12.6278C68.918 12.5137 69.0828 12.3488 69.1969 12.1333V12.1206ZM68.1953 11.829C68.0812 11.9304 67.9037 11.9812 67.6628 11.9812H66.8641V10.7767H67.6628C67.9037 10.7767 68.0812 10.8274 68.1953 10.9288C68.3094 11.0303 68.3728 11.1824 68.3728 11.3726C68.3728 11.5628 68.3094 11.7276 68.1953 11.829Z" fill="white"/>
<path d="M70.9222 8.93823C70.5165 8.53252 70.0347 8.21555 69.4769 7.98734C68.919 7.75913 68.3105 7.64502 67.6512 7.64502C66.9919 7.64502 66.4087 7.75913 65.8508 8.00002C65.293 8.22823 64.8112 8.55788 64.3928 8.96359C63.9871 9.3693 63.6574 9.86377 63.4292 10.4089C63.201 10.9668 63.0742 11.5627 63.0742 12.222C63.0742 12.8813 63.1883 13.4898 63.4165 14.0477C63.6448 14.6055 63.9617 15.0873 64.3674 15.493C64.7731 15.8988 65.2549 16.2157 65.8128 16.4439C66.3706 16.6721 66.9792 16.7863 67.6385 16.7863C68.2978 16.7863 68.9064 16.6721 69.4642 16.4439C70.0221 16.2157 70.5039 15.8988 70.9096 15.493C71.3153 15.0873 71.6322 14.6055 71.8605 14.0477C72.0887 13.4898 72.2028 12.8813 72.2028 12.222C72.2028 11.5627 72.0887 10.9541 71.8605 10.3963C71.6322 9.83841 71.3153 9.35662 70.9096 8.95091L70.9222 8.93823ZM70.9349 13.642C70.7574 14.073 70.5039 14.4534 70.1869 14.7704C69.8699 15.0873 69.4896 15.3409 69.0585 15.5184C68.6274 15.6959 68.1456 15.7847 67.6385 15.7847C67.1314 15.7847 66.6496 15.6959 66.2185 15.5184C65.7874 15.3409 65.4071 15.0873 65.0901 14.7704C64.7731 14.4534 64.5196 14.073 64.3421 13.642C64.1646 13.2109 64.0758 12.7291 64.0758 12.222C64.0758 11.7148 64.1646 11.2331 64.3421 10.802C64.5196 10.3709 64.7731 9.99055 65.0901 9.67359C65.4071 9.35662 65.7874 9.10305 66.2185 8.92555C66.6496 8.74805 67.1187 8.6593 67.6385 8.6593C68.1583 8.6593 68.6274 8.74805 69.0585 8.92555C69.4896 9.10305 69.8699 9.35662 70.1869 9.67359C70.5039 9.99055 70.7574 10.3709 70.9349 10.802C71.1124 11.2331 71.2012 11.7022 71.2012 12.222C71.2012 12.7418 71.1124 13.2109 70.9349 13.642Z" fill="white"/>
</g>
<defs>
<clipPath id="clip0_243_762">
<rect width="184.777" height="51.8299" fill="white"/>
</clipPath>
</defs>
</svg>
