<svg width="158" height="67" viewBox="0 0 158 67" fill="none" xmlns="http://www.w3.org/2000/svg">
<g clip-path="url(#clip0_243_891)">
<path d="M153.094 41.6866L152.789 42.2064C152.079 43.3855 151.775 43.8166 150.71 45.0845C149.366 45.262 148.834 45.3127 147.781 45.3127C144.383 45.3127 138.894 44.2603 134.481 42.7643L126.912 40.2032C121.778 38.4662 117.099 37.5154 113.701 37.5154C110.836 37.5154 105.841 38.4409 102.354 39.5946L92.9211 42.7643C88.471 44.2603 83.0065 45.3127 79.6847 45.3127C76.3629 45.3127 70.9238 44.2603 66.461 42.7643L57.0281 39.5946C53.5542 38.4409 48.5589 37.5154 45.7062 37.5154C42.3083 37.5154 37.6173 38.4662 32.4698 40.2032L24.9007 42.7643C20.5012 44.2603 14.9861 45.3127 11.6136 45.3127C10.5486 45.3127 10.0161 45.262 8.68481 45.0845C7.72124 43.9561 7.32821 43.4236 6.60553 42.2064L6.27588 41.6866C8.83695 42.105 10.2696 42.2445 11.6769 42.2445C15.0494 42.2445 19.8546 41.2809 24.888 39.5693L32.4571 37.0082C36.4382 35.6516 42.4224 34.5359 45.6935 34.5359C48.9392 34.5359 54.8981 35.6516 58.8792 37.0082L66.4483 39.5693C71.4944 41.2809 76.2995 42.2445 79.672 42.2445C83.0445 42.2445 87.8624 41.2809 92.9085 39.5693L100.465 37.0082C104.446 35.6516 110.43 34.5359 113.676 34.5359C116.922 34.5359 122.906 35.6516 126.9 37.0082L134.469 39.5693C139.515 41.2809 144.32 42.2445 147.692 42.2445C149.087 42.2445 150.52 42.105 153.081 41.6866M141.81 52.3239L130.792 48.9387C125.86 47.4173 123.933 46.8975 121.296 46.3016C118.506 45.6803 115.704 45.338 113.676 45.338C110.481 45.338 104.395 46.4791 100.465 47.7977L92.9085 50.3714C87.7863 52.0957 83.0826 53.0593 79.634 53.0593C76.1854 53.0593 71.5197 52.1084 66.3849 50.3714L58.8031 47.7977C54.8855 46.4791 48.7744 45.338 45.5921 45.338C43.5762 45.338 40.7489 45.6803 37.985 46.3016C35.3732 46.8848 33.3066 47.4553 28.476 48.9387L17.4837 52.3239C18.6502 53.4016 18.9671 53.6425 20.2857 54.53L26.3968 52.6662L31.4428 51.1828L33.4714 50.5743C38.8471 48.9894 42.4985 48.3048 45.6048 48.3048C48.4067 48.3048 53.5162 49.243 56.9267 50.3841L66.3849 53.5664C70.7971 55.0498 76.2869 56.1021 79.634 56.1021C82.9811 56.1021 88.509 55.0371 92.9085 53.5664L102.341 50.3841C105.739 49.243 110.874 48.3048 113.689 48.3048C116.795 48.3048 120.421 48.9894 125.809 50.5743L127.825 51.1828L132.884 52.6662L139.008 54.53C140.326 53.6298 140.631 53.3889 141.81 52.3239ZM129.486 59.4873L128.801 59.2337L126.9 58.6125C121.423 56.9516 117.023 56.1275 113.676 56.1275C110.874 56.1275 106.12 56.9389 102.341 58.0546L100.465 58.6125C99.5013 58.9294 98.8674 59.1323 98.5631 59.2337L96.674 59.893L94.7976 60.5396L92.9085 61.1735C87.1524 63.0373 83.0826 63.8614 79.672 63.8614C76.756 63.8614 72.4199 63.0753 68.3374 61.7694L66.4483 61.1735L64.5592 60.5396L62.6701 59.893L60.7937 59.2337L58.8665 58.6125C53.4021 56.9516 49.0026 56.1275 45.6808 56.1275C42.8535 56.1275 38.0991 56.9389 34.3335 58.0546L32.4444 58.6125C31.1005 59.0435 30.8342 59.1323 29.858 59.4873L33.6489 61.4651L34.511 61.2116C38.9358 59.8423 42.7648 59.1196 45.6682 59.1196C48.1151 59.1196 51.944 59.7535 55.0883 60.6537L56.9901 61.2116L58.8539 61.8075L60.781 62.4414L62.6574 63.1007L64.5465 63.7346L66.4356 64.3559C72.1156 66.1055 76.2869 66.9042 79.6594 66.9042C82.5628 66.9042 86.9876 66.1309 90.994 64.9264L92.8958 64.3559L94.7849 63.7346L96.6613 63.1007L98.5504 62.4414L100.452 61.8075L102.329 61.2116C107.159 59.7789 110.722 59.1196 113.676 59.1196C116.592 59.1196 120.396 59.8296 124.82 61.2116L125.67 61.4651L129.473 59.4873M21.5282 14.8207V23.0872C19.6518 23.8732 17.7627 24.2789 15.8736 24.2789C11.0303 24.2789 7.60713 20.5388 7.60713 15.2011C7.60713 9.47039 11.6896 5.47665 17.5344 5.47665C20.8182 5.47665 24.0512 6.3895 27.9689 8.39271V2.89022C22.9609 0.848975 20.4885 0.265761 16.7737 0.265761C6.52946 0.265761 0 6.05986 0 15.125C0 24.1902 6.35196 29.4771 15.8862 29.4771C20.1462 29.4771 25.1923 28.1332 28.8564 25.9652V14.8207H21.5282ZM34.9167 1.07719V28.6784H42.1308V6.2754H45.2371C49.3069 6.2754 51.1326 7.56861 51.1326 10.472C51.1326 13.3754 49.0914 15.1123 45.5033 15.1123L43.9185 15.0616H43.1198L53.1231 28.6657H62.3405L53.1612 17.5593C56.5717 16.0252 58.3847 13.2866 58.3847 9.72396C58.3847 3.86647 54.5939 1.06451 46.6951 1.06451H34.9294M101.974 1.06451V28.6657H109.188V16.862H121.917V28.6657H129.118V1.07719H121.917V11.2834H109.188V1.07719H101.974M136.802 1.07719V28.6784H157.531V23.2773H144.003V16.7098H153.943V11.5116H144.003V6.49093H155.959V1.07719H136.814M62.8856 14.8841C62.8856 6.28807 70.0617 -0.000488281 79.8749 -0.000488281C89.6881 -0.000488281 96.8515 6.27539 96.8515 14.8715C96.8515 23.4548 89.6754 29.7434 79.8749 29.7434C70.0744 29.7434 62.8856 23.4548 62.8856 14.8841ZM70.4674 14.8841C70.4674 20.5641 74.3597 24.5579 79.8749 24.5579C85.3901 24.5579 89.257 20.5768 89.257 14.8968C89.257 9.21682 85.4154 5.2104 79.8749 5.2104C74.3344 5.2104 70.4801 9.19146 70.4674 14.8841Z" fill="white"/>
</g>
<defs>
<clipPath id="clip0_243_891">
<rect width="157.518" height="66.8921" fill="white"/>
</clipPath>
</defs>
</svg>
