<svg width="87" height="110" viewBox="0 0 87 110" fill="none" xmlns="http://www.w3.org/2000/svg">
<g clip-path="url(#clip0_243_885)">
<path d="M14.903 0H0V110H87V0H14.903ZM14.7943 15.1784H27.756C41.1445 15.1784 48.2069 21.0622 48.2069 31.1452C48.2069 41.2282 41.6716 47.5934 27.756 47.5934H14.7943V15.1784ZM28.7099 40.5062C34.969 40.5062 38.0735 36.9461 38.0735 31.2531C38.0735 25.5602 34.718 22.2656 28.7099 22.2656H24.8858V40.5228H28.7099V40.5062ZM52.9598 29.1203H63.5032L75.4524 61.5353H65.3107L63.7543 56.722H52.6753L51.144 61.5353H40.9436L52.9598 29.1203ZM54.7672 50.083H61.6288L58.2566 39.4855H58.1478L54.7589 50.083H54.7672ZM40.9436 63.6349H68.5574V71.3278H51.0519V76.2822H66.5324V82.9627H51.0519V88.3817H68.7331V96.0747H40.9436V63.6432V63.6349ZM67.9967 16.4896C70.4652 16.4896 72.4735 18.473 72.4735 20.9295C72.4735 23.3859 70.4569 25.3361 67.9967 25.3361C65.5366 25.3361 63.52 23.3527 63.52 20.9295C63.5367 18.473 65.5366 16.4896 67.9967 16.4896ZM67.9967 24.7718C70.1473 24.7718 71.9129 23.0373 71.9129 20.9378C71.9129 18.8382 70.1473 17.0705 67.9967 17.0705C65.8462 17.0705 64.1141 18.805 64.1141 20.9378C64.1141 23.0705 65.8462 24.7718 67.9967 24.7718ZM66.1726 18.5975H68.39C69.6703 18.5975 70.1389 19.3112 70.1389 20.0498C70.1389 20.5726 69.8544 21.1452 69.0929 21.3776C69.2352 21.6266 70.0301 23.0373 70.1724 23.2531H69.3105L68.3314 21.4606H66.9591V23.2531H66.1642V18.5975H66.1809H66.1726ZM68.3063 20.8714C69.0845 20.8714 69.369 20.4398 69.369 20.0498C69.369 19.6349 69.1013 19.2116 68.3231 19.2116H66.9675V20.8714H68.3063ZM11.5894 76.0664L26.7853 58.0996H11.5476V50.1328H39.086V56.7054L24.0742 74.5809H39.7554V82.5311H11.5894V76.0664Z" fill="white"/>
</g>
<defs>
<clipPath id="clip0_243_885">
<rect width="87" height="110" fill="white"/>
</clipPath>
</defs>
</svg>
