<svg width="216" height="51" viewBox="0 0 216 51" fill="none" xmlns="http://www.w3.org/2000/svg">
<g clip-path="url(#clip0_243_876)">
<path d="M152.562 25.7214V5.61849H147.478V0.184515H164.124V5.61849H159.26V25.7306H152.562V25.7214ZM96.8549 0.166064H90.3753V25.7122H96.8549V0.166064ZM70.4253 25.7122H87.1902V20.0568H77.0692V15.8775H84.2333V9.77931H77.0692V5.60004H87.4001V0.166064H70.4162V25.7122H70.4253ZM67.2585 20.0291H58.7163V0.166064H51.9629V25.7122H67.2585V20.0291ZM137.658 25.7306H144.311V0.184515H137.658V9.77008H130.303V0.184515H123.659V25.7306H130.303V15.896H137.658V25.7306ZM166.315 21.9112C166.762 22.3632 166.981 22.8983 166.981 23.5349C166.981 24.1715 166.762 24.7158 166.315 25.1679C165.868 25.6199 165.329 25.8414 164.699 25.8414C164.07 25.8414 163.531 25.6199 163.093 25.1679C162.655 24.7158 162.436 24.1715 162.436 23.5349C162.436 22.8983 162.655 22.3632 163.102 21.9112C163.54 21.4591 164.079 21.2377 164.709 21.2377C165.338 21.2377 165.877 21.4591 166.324 21.9112H166.315ZM166.662 23.5349C166.662 22.9906 166.47 22.5201 166.087 22.1326C165.703 21.7451 165.238 21.5514 164.699 21.5514C164.161 21.5514 163.696 21.7451 163.312 22.1326C162.929 22.5201 162.746 22.9906 162.746 23.5349C162.746 24.0792 162.938 24.559 163.312 24.9465C163.696 25.3339 164.152 25.5277 164.699 25.5277C165.247 25.5277 165.703 25.3339 166.087 24.9465C166.47 24.559 166.662 24.0885 166.662 23.5349ZM165.722 24.7619L165.74 24.7988H165.329C165.329 24.7988 165.329 24.7804 165.329 24.7712C165.329 24.7712 165.329 24.7527 165.329 24.7435V24.6605L165.32 24.4575C165.32 24.1623 165.238 23.9685 165.083 23.8763C164.991 23.8209 164.827 23.7932 164.59 23.7932H164.243V24.7896H163.805V22.2618H164.681C164.991 22.2618 165.22 22.2894 165.366 22.354C165.621 22.4647 165.758 22.6769 165.758 22.9906C165.758 23.2212 165.676 23.3873 165.512 23.4888C165.42 23.5441 165.302 23.5903 165.147 23.6087C165.338 23.6364 165.484 23.7194 165.576 23.8578C165.667 23.987 165.712 24.1254 165.712 24.2453V24.4298C165.712 24.4852 165.712 24.5497 165.712 24.6236C165.712 24.6881 165.722 24.7343 165.731 24.7527L165.722 24.7619ZM165.302 23.0367C165.302 22.8522 165.247 22.7323 165.137 22.6677C165.028 22.6031 164.855 22.5754 164.608 22.5754H164.234V23.4888H164.636C164.818 23.4888 164.964 23.4703 165.055 23.4334C165.229 23.3596 165.311 23.2305 165.311 23.0367H165.302ZM115.199 19.042C114.441 19.3464 113.647 19.494 112.826 19.494C109.257 19.494 106.346 16.5602 106.346 12.9437C106.346 9.32724 109.257 6.39345 112.826 6.39345C113.665 6.39345 114.487 6.55029 115.253 6.86397C115.655 7.03003 116.047 7.24222 116.44 7.51899L120.957 2.95224C119.944 2.1127 118.822 1.43922 117.626 0.941028C116.102 0.313676 114.487 0 112.826 0C105.771 0 100.022 5.803 100.022 12.9437C100.022 20.0845 105.762 25.8875 112.826 25.8875C114.45 25.8875 116.029 25.583 117.526 24.9834C118.849 24.4575 120.072 23.7102 121.158 22.7784L116.659 18.2301C116.212 18.5622 115.719 18.8298 115.208 19.042H115.199ZM-0.00195312 43.195H2.23398V50.8708H3.42952V43.195H5.6837V42.2724H-0.00195312V43.195ZM14.0798 46.1657H10.7488V42.2724H9.56235V50.8708H10.7488V47.0791H14.0798V50.8708H15.2663V42.2724H14.0798V46.1657ZM20.9428 46.8761H23.8267V45.9627H20.9428V43.195H24.3104V42.2724H19.7564V50.8708H24.3377V49.9575H20.9428V46.8761ZM36.9867 42.2724L39.5147 50.8708H38.2827L37.6712 48.7028H35.1341L34.5226 50.8708H33.2906L35.8459 42.2724H36.9958H36.9867ZM37.4065 47.7433L36.4209 44.2467H36.3844L35.3896 47.7433H37.3974H37.4065ZM48.5223 50.1974C48.5679 50.428 48.6592 50.6033 48.787 50.7325V50.8708H47.564C47.4272 50.7417 47.345 50.5387 47.3085 50.2804C47.272 50.0128 47.2446 49.7361 47.2446 49.4593V48.7305C47.2446 48.2507 47.1351 47.8725 46.9161 47.5957C46.6971 47.3189 46.3868 47.1805 46.0035 47.1805H44.5341V50.8801H43.3477V42.2909H45.8574C46.6788 42.2909 47.3085 42.5031 47.7557 42.9182C48.2029 43.3426 48.4219 43.9423 48.4219 44.7357C48.4219 45.1878 48.3215 45.5753 48.1116 45.9166C47.9017 46.258 47.6006 46.5163 47.2172 46.7008C47.6553 46.8484 47.9656 47.0975 48.1572 47.4481C48.3489 47.7987 48.4493 48.223 48.4493 48.7397V49.487C48.4493 49.7453 48.4767 49.9944 48.5223 50.225V50.1974ZM47.2355 44.7449C47.2355 44.256 47.126 43.8685 46.8978 43.6009C46.6697 43.3334 46.3229 43.195 45.8574 43.195H44.5341V46.258H45.7936C46.2864 46.258 46.6514 46.1288 46.8796 45.8613C47.1077 45.5937 47.2264 45.2247 47.2264 44.7449H47.2355ZM54.2627 43.6655C54.5456 43.2688 54.9472 43.0751 55.4765 43.0751C56.0058 43.0751 56.4074 43.2227 56.6629 43.5087C56.9276 43.7947 57.0553 44.2467 57.0553 44.8649H58.1961V44.828C58.2235 43.9515 57.9862 43.2873 57.5025 42.8352C57.0188 42.3831 56.3344 42.1525 55.4674 42.1525C54.6004 42.1525 53.9159 42.4385 53.414 43.0105C52.9029 43.5825 52.6474 44.3759 52.6474 45.3907V47.7802C52.6474 48.8043 52.9029 49.5885 53.4231 50.1605C53.9433 50.7232 54.6369 51.0092 55.5039 51.0092C56.3709 51.0092 57.0097 50.7694 57.4934 50.3081C57.9771 49.8376 58.2052 49.1825 58.1961 48.3338V48.2969H57.0462C57.0462 48.9242 56.9184 49.3855 56.6629 49.6715C56.4074 49.9575 56.0241 50.0959 55.5039 50.0959C54.9837 50.0959 54.5547 49.8929 54.2627 49.4962C53.9707 49.0995 53.8246 48.5275 53.8246 47.7802V45.3815C53.8246 44.6435 53.9707 44.0715 54.2536 43.6747L54.2627 43.6655ZM66.8752 46.1657H63.5441V42.2724H62.3577V50.8708H63.5441V47.0791H66.8752V50.8708H68.0616V42.2724H66.8752V46.1657ZM72.6612 50.8708H73.8476V42.2724H72.6612V50.8708ZM77.8541 43.195H80.09V50.8708H81.2764V43.195H83.5306V42.2724H77.8449V43.195H77.8541ZM88.6139 46.8761H91.4978V45.9627H88.6139V43.195H91.9815V42.2724H87.4275V50.8708H92.0089V49.9575H88.6139V46.8761ZM97.4664 43.6563C97.7493 43.2596 98.1508 43.0658 98.6801 43.0658C99.2095 43.0658 99.6019 43.2135 99.8666 43.4995C100.131 43.7855 100.259 44.2375 100.259 44.8556H101.4V44.8187C101.427 43.9423 101.19 43.278 100.706 42.826C100.222 42.3739 99.538 42.1433 98.671 42.1433C97.804 42.1433 97.1196 42.4293 96.6176 43.0013C96.1066 43.5733 95.851 44.3667 95.851 45.3815V47.771C95.851 48.795 96.1065 49.5792 96.6267 50.1512C97.1469 50.714 97.8405 51 98.7075 51C99.5745 51 100.213 50.7601 100.697 50.2988C101.181 49.8283 101.409 49.1733 101.4 48.3245V48.2876H100.25C100.25 48.915 100.122 49.3763 99.8666 49.6623C99.611 49.9483 99.2277 50.0867 98.7075 50.0867C98.1873 50.0867 97.7584 49.8837 97.4664 49.487C97.1743 49.0903 97.0283 48.5183 97.0283 47.771V45.3723C97.0283 44.6342 97.1652 44.0622 97.4572 43.6655L97.4664 43.6563ZM104.968 43.1858H107.204V50.8616H108.39V43.1858H110.645V42.2632H104.959V43.1858H104.968ZM118.913 47.9463C118.913 48.6198 118.758 49.1364 118.457 49.5147C118.146 49.8929 117.745 50.0774 117.252 50.0774C116.759 50.0774 116.376 49.8929 116.084 49.5147C115.783 49.1364 115.637 48.6198 115.637 47.9555V42.2724H114.45V47.9555C114.45 48.9058 114.715 49.6438 115.235 50.1881C115.755 50.7232 116.431 50.9908 117.261 50.9908C118.092 50.9908 118.794 50.7232 119.324 50.1881C119.853 49.653 120.118 48.9058 120.118 47.9555V42.2724H118.931V47.9555L118.913 47.9463ZM129.655 50.1881C129.7 50.4188 129.792 50.5941 129.919 50.7232V50.8616H128.696C128.559 50.7325 128.477 50.5295 128.432 50.2712C128.395 50.0036 128.368 49.7268 128.368 49.4501V48.7212C128.368 48.2415 128.258 47.8632 128.039 47.5865C127.82 47.3097 127.519 47.1713 127.127 47.1713H125.657V50.8708H124.471V42.2817H126.981C127.802 42.2817 128.432 42.4939 128.879 42.909C129.326 43.3334 129.545 43.9331 129.545 44.7265C129.545 45.1785 129.445 45.566 129.235 45.9074C129.025 46.2487 128.724 46.5071 128.34 46.6916C128.779 46.8392 129.089 47.0883 129.28 47.4389C129.472 47.7894 129.572 48.2138 129.572 48.7305V49.4778C129.572 49.7361 129.6 49.9852 129.646 50.2158L129.655 50.1881ZM128.368 44.7357C128.368 44.2467 128.258 43.8593 128.03 43.5917C127.802 43.3242 127.455 43.1858 126.99 43.1858H125.666V46.2487H126.926C127.419 46.2487 127.775 46.1196 128.012 45.852C128.249 45.5937 128.359 45.2155 128.359 44.7357H128.368ZM137.083 42.2632L139.611 50.8616H138.379L137.768 48.6936H135.231L134.619 50.8616H133.387L135.943 42.2632H137.093H137.083ZM137.503 47.7341L136.527 44.2375H136.49L135.495 47.7341H137.503ZM144.64 42.2632H143.454V50.8616H148.081V49.9483H144.64V42.2632ZM163.084 42.2632H161.651L159.278 46.0273H158.776V42.2632H157.59V50.8616H158.776V46.996H159.361L161.797 50.8616H163.303L160.282 46.3041L163.084 42.2632ZM167.163 50.8616H168.35V42.2632H167.163V50.8616ZM172.356 43.1858H174.592V50.8616H175.779V43.1858H178.033V42.2632H172.347V43.1858H172.356ZM183.317 43.6563C183.6 43.2596 184.001 43.0658 184.531 43.0658C185.06 43.0658 185.452 43.2135 185.717 43.4995C185.982 43.7855 186.119 44.2375 186.119 44.8556H187.26V44.8187C187.287 43.9423 187.05 43.278 186.566 42.826C186.082 42.3739 185.398 42.1433 184.531 42.1433C183.664 42.1433 182.979 42.4293 182.477 43.0013C181.966 43.5733 181.711 44.3667 181.711 45.3815V47.771C181.711 48.795 181.966 49.5792 182.486 50.1512C183.007 50.714 183.7 51 184.567 51C185.434 51 186.073 50.7601 186.557 50.2988C187.04 49.8283 187.278 49.1733 187.26 48.3245V48.2876H186.11C186.11 48.915 185.982 49.3763 185.726 49.6623C185.471 49.9483 185.087 50.0867 184.567 50.0867C184.047 50.0867 183.618 49.8837 183.326 49.487C183.034 49.0903 182.888 48.5183 182.888 47.771V45.3723C182.888 44.6342 183.034 44.0622 183.317 43.6655V43.6563ZM195.929 46.1565H192.598V42.2632H191.412V50.8616H192.598V47.0698H195.929V50.8616H197.116V42.2632H195.929V46.1565ZM202.801 46.8669H205.685V45.9535H202.801V43.1858H206.169V42.2632H201.615V50.8616H206.206V49.9483H202.811V46.8669H202.801ZM214.775 42.2632V48.5829H214.739L211.444 42.2632H210.258V50.8616H211.444V44.5327H211.481L214.775 50.8616H215.971V42.2632H214.775Z" fill="white"/>
</g>
<defs>
<clipPath id="clip0_243_876">
<rect width="216" height="51" fill="white"/>
</clipPath>
</defs>
</svg>
