<svg width="159" height="90" viewBox="0 0 159 90" fill="none" xmlns="http://www.w3.org/2000/svg">
<g clip-path="url(#clip0_243_882)">
<path d="M0 89.7616V0H159.246V89.7616H0ZM26.2424 52.7008V48.3939C26.2424 46.4418 25.2837 45.3631 23.9398 44.5884L20.0245 42.4083C17.3904 40.8435 17.1485 40.8056 17.1306 38.3065V34.3566C17.1306 33.7109 17.7578 33.2476 18.5193 33.2476C19.2809 33.2476 19.908 33.7109 19.908 34.3566V38.8838C19.908 40.3878 21.3147 41.6107 23.0976 41.6107C24.8806 41.6107 26.332 40.3878 26.332 38.8838V37.0456C26.332 32.8222 23.2499 30.9992 18.4924 30.9992C13.7349 30.9992 10.9216 32.8298 10.9216 37.0456V40.8132C10.9216 42.545 11.5219 43.768 13.5557 44.915L18.4924 47.923C19.5497 48.5003 19.8901 48.8801 19.8901 49.6852V55.1999C19.8901 55.8456 19.2988 56.2937 18.5372 56.2937C17.7757 56.2937 17.1216 55.8456 17.1216 55.1999V50.5664C17.1216 49.0548 15.715 47.8318 13.932 47.8318C12.1491 47.8318 10.6977 49.0548 10.6977 50.5664V52.4046C10.6977 56.628 13.7797 58.7776 18.5372 58.7776C23.2947 58.7776 26.2335 56.947 26.2335 52.7312M35.7933 34.3642C35.7933 33.7185 36.3756 33.2552 37.1372 33.2552C37.8987 33.2552 38.5259 33.7185 38.5259 34.3642V38.8914C38.5259 40.3954 39.9325 41.6183 41.7155 41.6183C43.4984 41.6183 44.9499 40.3954 44.9499 38.8914V37.0531C44.9499 32.8298 41.8678 31.0068 37.1103 31.0068C32.3528 31.0068 29.3334 32.8374 29.3334 37.0531V52.7692C29.3334 56.9926 32.4334 58.8156 37.1909 58.8156C41.9484 58.8156 45.0305 56.985 45.0305 52.7692V50.5056C45.0305 48.994 43.5791 47.7711 41.7961 47.7711C40.0132 47.7711 38.6065 48.994 38.6065 50.5056V55.2455C38.6065 55.8912 37.9794 56.3545 37.2178 56.3545C36.4563 56.3545 35.7933 55.8912 35.7933 55.2455V34.3642ZM70.7085 58.77C72.4287 58.77 73.8533 57.7902 74.1041 56.5216C74.1041 56.5216 78.9512 33.7641 79.0767 33.0956C79.2021 32.4272 79.22 32.2981 79.22 32.2981C79.22 31.5765 78.5301 30.984 77.67 30.984C76.8099 30.984 76.2902 31.584 76.12 32.2981L72.4108 50.4448L68.7732 33.3159C68.2984 31.9031 67.1963 30.984 65.5747 30.984C63.7828 30.984 62.2686 31.9866 62.2686 33.4982C62.2686 33.6653 62.3492 34.0603 62.3851 34.2274L67.3128 56.514C67.5547 57.7901 68.9882 58.7624 70.7085 58.7624M106.582 56.1798V33.3387C106.582 32.017 105.131 30.946 103.375 30.946C101.619 30.946 100.194 32.017 100.194 33.3387C100.194 33.3387 100.185 55.1695 100.194 56.2937C100.212 58.018 101.923 58.77 103.438 58.77H109.593C110.435 58.77 111.116 58.1927 111.116 57.4787C111.116 56.7647 110.435 56.1798 109.593 56.1798H106.582ZM112.209 33.3387C112.209 33.3387 112.2 55.1695 112.209 56.2937C112.227 58.018 113.929 58.77 115.452 58.77C116.975 58.77 118.678 58.018 118.696 56.2937C118.705 55.1619 118.696 33.3387 118.696 33.3387C118.696 32.017 117.208 30.946 115.452 30.946C113.696 30.946 112.209 32.017 112.209 33.3387ZM141.793 33.3387C141.793 33.3387 141.775 55.1695 141.793 56.2937C141.811 58.018 143.513 58.77 145.037 58.77C146.56 58.77 148.262 58.018 148.28 56.2937C148.289 55.1619 148.28 33.3387 148.28 33.3387C148.28 32.017 146.793 30.946 145.037 30.946C143.281 30.946 141.793 32.017 141.793 33.3387ZM136.597 58.6561C137.815 58.2611 138.55 57.266 138.505 56.2178V32.0474C138.505 31.379 137.86 30.8396 137.072 30.8396C136.283 30.8396 135.647 31.379 135.647 32.0474V49.6701L127.834 32.5411C127.243 31.2346 125.523 30.5814 123.982 31.0827C122.763 31.4777 122.029 32.4728 122.073 33.521V57.6914C122.073 58.3598 122.718 58.8992 123.498 58.8992C124.286 58.8992 124.922 58.3598 124.922 57.6914V40.1751L132.726 57.1825C133.38 58.5421 135.047 59.1498 136.588 58.6485L136.597 58.6561ZM58.0576 33.24C57.8157 31.9638 56.3822 30.9916 54.662 30.9916C52.9418 30.9916 51.5172 31.9714 51.2663 33.24L46.2938 56.6659C46.1684 57.3344 46.1504 57.4635 46.1504 57.4635C46.1504 58.1851 46.8403 58.7776 47.7004 58.7776C48.5606 58.7776 49.0802 58.1775 49.2504 57.4635L49.7163 55.6633H56.3285L56.5972 56.4457C57.0721 57.8585 58.1741 58.77 59.7958 58.77C61.5877 58.77 63.1018 57.7674 63.1018 56.2558C63.1018 56.0886 63.0212 55.6937 62.9854 55.5266L58.0576 33.24ZM55.8984 53.3389H50.0926L52.879 39.7877L55.8894 53.3389H55.8984ZM96.485 37.0456C96.485 32.8222 93.3581 30.9992 88.6096 30.9992C83.861 30.9992 80.8238 32.8298 80.8238 37.0456V52.7616C80.8238 56.985 83.9238 58.808 88.6813 58.808C93.4388 58.808 96.485 56.9774 96.485 52.7616V37.0456ZM90.061 55.2379C90.061 55.8836 89.4697 56.3469 88.7081 56.3469C87.9466 56.3469 87.2836 55.8836 87.2836 55.2379V34.3566C87.2836 33.7109 87.8659 33.2476 88.6275 33.2476C89.3891 33.2476 90.061 33.7109 90.061 34.3566V55.2379ZM150.69 34.1971V32.3968H151.461V32.017H149.382V32.3968H150.17V34.1971H150.69ZM152.258 34.1971V32.4576L152.813 34.1971H153.279L153.835 32.4576V34.1971H154.328V32.017H153.521L153.055 33.5134L152.589 32.017H151.774V34.1971H152.267H152.258Z" fill="white"/>
</g>
<defs>
<clipPath id="clip0_243_882">
<rect width="159" height="90" fill="white"/>
</clipPath>
</defs>
</svg>
