<svg width="192" height="58" viewBox="0 0 192 58" fill="none" xmlns="http://www.w3.org/2000/svg">
<path fill-rule="evenodd" clip-rule="evenodd" d="M0 7.02634H192V57.9855H0V7.02634ZM159.535 48.1369H168.022V31.3785L178.253 47.5841L178.601 48.1369H186.943V15.231H178.558V32.2804L168.138 15.7838L167.789 15.231H159.535V48.1369ZM128.32 15.231V32.8041C128.32 34.5789 128.363 36.1209 128.465 37.4301C128.567 38.7249 128.712 39.8595 128.916 40.8051C129.032 41.4888 129.264 42.158 129.599 42.7981C129.947 43.4818 130.412 44.151 130.921 44.7765C131.415 45.373 131.996 45.9549 132.694 46.4786C133.391 47.0023 134.205 47.4387 135.135 47.7733C136.748 48.3988 139.219 48.7188 142.358 48.7188C145.017 48.7188 147.081 48.3988 148.752 47.8896L148.81 47.8605C149.682 47.5405 150.467 47.1332 151.164 46.6531C151.891 46.1585 152.516 45.5912 153.025 44.9656C153.533 44.3983 153.969 43.7291 154.332 43.0018C154.681 42.2598 154.957 41.4743 155.132 40.6451V40.7033C155.539 39.0449 155.742 36.31 155.742 32.615V15.231H147.255V33.386C147.255 34.5643 147.226 35.5972 147.183 36.47C147.139 37.2847 147.066 37.9102 146.994 38.3321L146.965 38.463C146.906 39.234 146.412 39.8595 145.773 40.4414C145.381 40.6596 144.901 40.8342 144.32 40.9651C143.709 41.1106 142.997 41.1833 142.183 41.1833C140.585 41.1833 139.35 40.8633 138.478 40.2378C138.056 39.9323 137.722 39.5977 137.46 39.2049C137.228 38.8412 137.068 38.4339 136.995 37.9829L136.966 37.8666C136.792 37.1828 136.705 35.6117 136.705 33.0805V15.2165H128.32V15.231ZM108.905 48.1369H117.29V22.8392H126.46V15.231H99.7348V22.8392H108.905V48.1224V48.1369ZM75.5531 31.6403C75.5531 29.9819 75.7275 28.5563 76.0908 27.3489C76.4251 26.1996 76.9337 25.225 77.6022 24.4249C78.3288 23.6975 79.1717 23.1302 80.1017 22.7519C81.0173 22.3737 82.0345 22.1701 83.168 22.1701C84.3015 22.1701 85.3333 22.3737 86.2343 22.7519C87.1499 23.1302 87.9637 23.6975 88.6467 24.4249C89.3297 25.1959 89.8674 26.1706 90.2307 27.3634C90.594 28.5709 90.7975 29.9965 90.7975 31.6549C90.7975 33.3133 90.594 34.7971 90.2162 36.0191C89.8529 37.1974 89.3152 38.1866 88.6322 39.0013L88.6612 38.9722C87.3388 40.4705 85.3915 41.2124 83.1971 41.2124C82.0781 41.2124 81.0463 41.0233 80.1308 40.616C79.2443 40.2378 78.4451 39.6559 77.733 38.8558H77.7039C77.0064 38.0993 76.4832 37.1538 76.1344 35.99C75.7711 34.768 75.5822 33.3278 75.5822 31.6258L75.5531 31.6403ZM67.0663 31.8294C67.0663 34.4334 67.4006 36.7901 68.1126 38.8703C68.8247 40.9942 69.9146 42.8272 71.3969 44.3692C72.8647 45.853 74.594 46.9441 76.5559 47.6569C78.5322 48.3842 80.7411 48.7334 83.1535 48.7334C85.5659 48.7334 87.7602 48.3842 89.7511 47.6569C91.713 46.9441 93.4423 45.853 94.9101 44.3837L94.9537 44.3401C96.3778 42.7545 97.4532 40.9069 98.1798 38.7976C98.8919 36.7028 99.2552 34.3607 99.2552 31.7422C99.2552 29.1237 98.8629 26.767 98.1217 24.6722C97.3515 22.5192 96.218 20.6571 94.7212 19.1151C93.2825 17.5877 91.5531 16.4093 89.5768 15.6238C87.6294 14.8528 85.4205 14.46 83.0372 14.46C81.7875 14.46 80.5958 14.5764 79.4332 14.8091C78.2125 15.0419 77.05 15.391 75.9746 15.8274C75.1462 16.162 74.376 16.5984 73.6639 17.1221C72.9519 17.6458 72.2834 18.2568 71.6585 18.9406L71.6876 18.8969C71.0045 19.5806 70.4087 20.308 69.871 21.079C69.3479 21.8209 68.8828 22.5919 68.4614 23.3775L68.3887 23.5229C67.9673 24.6867 67.6185 26.0251 67.386 27.4653C67.168 28.8327 67.0372 30.302 67.0372 31.8294H67.0663ZM51.5604 50.5809C53.4641 50.5809 54.99 50.3918 56.2689 50.1008C57.5622 49.7953 58.594 49.3735 59.5095 48.8934C60.614 48.3697 61.4714 47.5842 62.1544 46.6677C62.8229 45.7803 63.317 44.7765 63.6803 43.7582C63.9564 42.9872 64.1453 42.0125 64.2616 40.8633C64.3778 39.7577 64.436 38.4921 64.436 37.1101V15.3328H55.7602V37.5029C55.7602 38.7103 55.6585 39.6413 55.4696 40.3105C55.3097 40.8633 55.1208 41.2124 54.9028 41.4016L54.9464 41.3579C54.554 41.678 54.1617 41.9689 53.5223 42.158C52.7811 42.3762 51.6767 42.5071 49.8601 42.4635L48.2471 42.4199L48.7121 43.9764L50.4705 49.7371L50.7175 50.5663H51.5895L51.5604 50.5809ZM33.4096 26.0978L33.3224 19.8279V13.0926C28.5995 13.4853 20.5341 15.0128 19.4151 25.9814C16.9301 26.6361 14.7066 27.6253 12.8465 28.8618C9.35877 31.2039 7.19346 34.4334 7.19346 37.9829C7.19346 41.5325 9.34423 44.7911 12.8029 47.1186C14.663 48.3552 16.8865 49.3444 19.3715 49.999V50.6827H23.1353C24.1381 50.7991 25.1553 50.8573 26.2016 50.8573C27.248 50.8573 28.2652 50.7991 29.2679 50.6827H33.4242V49.8826C35.7348 49.2425 37.7984 48.297 39.5422 47.1186C42.9864 44.7911 45.1226 41.5616 45.1226 37.9829C45.1226 34.4043 42.9718 31.1894 39.5132 28.8618C37.7838 27.698 35.7203 26.7524 33.4242 26.0978H33.4096ZM0 0V5.39704H192V0H0ZM26.5068 17.5731C27.1898 17.5731 27.6839 18.0677 27.6839 18.6496C27.6839 19.3333 27.1898 19.8279 26.5068 19.8279C25.9255 19.8279 25.3297 19.3333 25.3297 18.6496C25.3297 18.0677 25.911 17.5731 26.5068 17.5731ZM26.5068 18.3587C26.6957 18.3587 26.7975 18.4605 26.7975 18.6496C26.7975 18.8387 26.6957 19.0424 26.5068 19.0424C26.3179 19.0424 26.1144 18.8533 26.1144 18.6496C26.1144 18.4459 26.3034 18.3587 26.5068 18.3587ZM12.0618 30.3747C10.0854 31.9895 8.71935 33.9388 8.19619 36.0627H12.8465C13.1953 33.9534 14.0672 32.0186 15.3461 30.3747H12.0618ZM8.05086 36.7901C7.99273 37.1828 7.96367 37.5902 7.96367 37.9829C7.96367 39.6122 8.45777 41.1688 9.3297 42.5944H13.5295C12.9773 41.1833 12.6866 39.6704 12.6866 38.0848C12.6866 37.6484 12.7157 37.2119 12.7593 36.7901H8.0654H8.05086ZM9.8238 43.3363C10.6957 44.5292 11.8583 45.6057 13.2389 46.5222C14.9537 47.6714 17.0027 48.5879 19.2698 49.2134C18.3252 48.6752 17.4532 48.0206 16.6685 47.2787C15.4768 46.144 14.5032 44.8056 13.8202 43.3218H9.80927L9.8238 43.3363ZM33.4242 48.2388C34.1508 47.7878 34.8193 47.2641 35.4296 46.6822C36.4614 45.7076 37.3043 44.5729 37.9437 43.3218H33.4242V48.2242V48.2388ZM19.386 43.3363H14.4886C15.1281 44.5874 15.9709 45.7221 17.0027 46.6968C17.7148 47.3805 18.5286 47.9769 19.386 48.4861V43.3363ZM33.4242 49.1262C35.5604 48.5006 37.4932 47.6278 39.1063 46.5367C40.4868 45.6057 41.6349 44.5292 42.5068 43.3363H38.5831C37.9001 44.8202 36.9264 46.1585 35.7348 47.2932C35.0372 47.9624 34.267 48.5443 33.4242 49.0534V49.1407V49.1262ZM43.0009 42.609C43.8728 41.1833 44.3524 39.6268 44.3524 37.9975C44.3524 37.5902 44.3233 37.1974 44.2652 36.8046H39.673C39.7166 37.2265 39.7457 37.6629 39.7457 38.0993C39.7457 39.685 39.4405 41.2124 38.9028 42.609H43.0154H43.0009ZM44.1199 36.0627C43.5967 33.9388 42.2452 31.9895 40.2979 30.3747H37.0718C38.3506 32.0186 39.2225 33.9534 39.5713 36.0627H44.1199ZM16.1308 30.3747C14.7357 31.9895 13.762 33.9388 13.3842 36.0627H19.3715V30.3747H16.1308ZM33.4096 36.0627H39.0045C38.6267 33.9388 37.653 31.9895 36.2579 30.3747H33.4096V36.0627ZM13.2679 36.7901C13.2243 37.2119 13.1953 37.6484 13.1953 38.0848C13.1953 39.6704 13.5295 41.1979 14.1253 42.5944H19.3715V36.7901H13.2825H13.2679ZM33.4096 42.5944H38.2634C38.8592 41.1979 39.1789 39.6704 39.1789 38.0848C39.1789 37.6484 39.1499 37.2119 39.1063 36.7901H33.3951V42.5944H33.4096ZM26.3906 26.6506C23.0772 26.6506 20.4469 31.9167 20.4469 38.3612C20.4469 44.8056 23.0772 49.9845 26.3906 49.9845C29.7039 49.9845 32.2471 44.7183 32.2471 38.3612C32.2471 32.004 29.6167 26.6506 26.3906 26.6506Z" fill="white"/>
</svg>
