<svg width="174" height="67" viewBox="0 0 174 67" fill="none" xmlns="http://www.w3.org/2000/svg">
<g clip-path="url(#clip0_243_779)">
<path d="M112.015 44.1341H114.056C115.007 44.1341 115.768 44.6159 115.768 45.1864C115.768 45.7569 115.007 46.2387 114.056 46.2387H111.216L110.874 46.2134L110.646 46.2387H110.291C109.543 46.2387 108.934 45.6428 108.934 44.8694V36.8946C108.934 36.1339 109.555 35.5254 110.291 35.5254H110.646C111.394 35.5254 112.015 36.1339 112.015 36.8946M98.0559 45.1864C98.0559 45.7696 98.6772 46.2514 99.4379 46.2514H103.749C104.522 46.2514 105.143 45.7696 105.143 45.1864C105.143 44.6032 104.522 44.1214 103.749 44.1214H101.111V41.7886H103.749C104.522 41.7886 105.143 41.3321 105.143 40.7489C105.143 40.1657 104.522 39.6839 103.749 39.6839H101.111V37.6427H103.749C104.522 37.6427 105.143 37.1862 105.143 36.5777C105.143 35.9691 104.522 35.538 103.749 35.538H99.4379C98.6645 35.538 98.0559 36.0071 97.9925 36.603L98.0686 45.0723V45.2118M87.5327 45.2118C87.5327 45.795 88.154 46.2768 88.9274 46.2768H93.2381C93.9988 46.2768 94.6327 45.795 94.6327 45.2118C94.6327 44.6286 93.9988 44.1468 93.2381 44.1468H90.6009V41.8139H93.2381C93.9988 41.8139 94.6327 41.3575 94.6327 40.7743C94.6327 40.1911 93.9988 39.7093 93.2381 39.7093H90.6009V37.668H93.2381C93.9988 37.668 94.6327 37.2116 94.6327 36.603C94.6327 35.9945 93.9988 35.5634 93.2381 35.5634H88.9274C88.154 35.5634 87.5327 36.0325 87.482 36.6284L87.5454 45.0977V45.2371M75.5388 36.6664C75.5388 37.2116 76.046 37.6807 76.6926 37.6807H78.4676V45.0216C78.4676 45.7062 79.0001 46.2387 79.634 46.2387H80.2933C80.9272 46.2387 81.4724 45.7062 81.4724 45.0216V37.6807H83.184C83.8179 37.6807 84.3504 37.2243 84.3504 36.6664C84.3504 36.0832 83.8179 35.6395 83.184 35.6395H76.6926C76.046 35.6395 75.5388 36.0959 75.5388 36.6664ZM64.1028 36.882V40.787C64.0901 41.6491 65.3199 41.8773 65.3199 41.8773H69.8208V44.1595H65.4721C64.1535 44.1595 63.8238 45.2625 64.3056 45.795C64.7747 46.3275 65.5481 46.2768 65.5481 46.2768H71.4944C72.6228 46.2768 72.889 45.4273 72.889 45.4273V40.9645C72.889 39.6332 71.3549 39.6586 71.3549 39.6586H67.0695V37.7187H71.2535C72.1536 37.7187 72.889 37.2243 72.889 36.603C72.889 35.9818 72.1536 35.4746 71.2535 35.4746H65.6749C64.7747 35.4746 64.0901 35.9691 64.0901 36.603M113.004 24.4697V25.9784H99.197V23.1638C99.197 21.8959 97.777 21.7564 97.777 21.7564H93.6184C93.124 21.7564 92.0843 21.8706 92.0843 23.1638C92.0843 24.457 93.4663 24.4443 93.4663 24.4443H96.5599V25.9911H92.9845C92.3506 25.9911 91.2476 26.3334 91.4251 27.5759C91.6026 28.8057 93.0859 28.717 93.0859 28.717H114.107C115.451 28.717 115.704 27.6013 115.704 27.6013V23.2525C115.704 21.9593 114.335 21.7691 114.335 21.7691H110.101C109.124 21.7691 108.326 22.2763 108.516 23.3286C108.731 24.3936 109.657 24.4823 109.657 24.4823H112.953M85.8718 24.14L85.8465 25.9911H71.2154V22.8975C71.2154 22.8975 70.8604 21.7564 69.8208 21.7564H65.3579C65.3579 21.7564 64.4578 21.7311 64.1662 22.6313C63.8492 23.5188 64.331 24.4823 65.5481 24.4823H68.4895V26.0291H64.7621C64.7621 26.0291 63.8365 25.953 63.4815 26.9927C63.1265 28.0577 64.0521 28.7043 64.6987 28.7043H87.2792C87.2792 28.7043 88.547 28.5014 88.547 27.2463V22.9863C88.547 22.9863 88.3695 21.7438 87.2158 21.7438C86.062 21.7438 85.8592 22.6566 85.8592 23.4681V24.1273M85.9986 31.8232C85.9986 32.5459 86.6072 33.1545 87.3426 33.1545C88.0779 33.1545 88.6738 32.5586 88.6738 31.8232C88.6738 31.0879 88.0779 30.492 87.3426 30.492C86.6072 30.492 85.9986 31.0752 85.9986 31.8232ZM82.9685 31.8232C82.9685 32.5459 83.5644 33.1545 84.3124 33.1545C85.0604 33.1545 85.6436 32.5586 85.6436 31.8232C85.6436 31.0879 85.0604 30.492 84.3124 30.492C83.5644 30.492 82.9685 31.0752 82.9685 31.8232ZM82.2331 18.2191H118.43V48.9266H82.3219C82.3219 48.9266 89.1049 59.9569 108.807 64.9269C128.523 69.8969 149.506 65.5862 163.896 53.4782C178.375 41.2687 178.501 15.1129 148.364 4.29807C118.228 -6.4787 97.0163 6.28861 92.2745 9.1286H102.696C102.696 9.1286 117.949 1.83843 136.89 6.00968C155.845 10.1809 163.706 19.7532 165.696 27.0561C167.674 34.3462 168.054 46.5811 150.342 56.5084C132.618 66.4483 106.474 62.2771 95.3047 53.5669H125.226V13.6295H86.1888C84.4645 14.872 83.146 16.3681 82.2204 18.1811M134.443 13.9845L134.228 14.0225C134.228 14.0225 134.443 15.1256 134.557 15.6073C134.684 16.1018 135.153 16.609 134.773 17.1541C134.405 17.6993 133.809 18.9038 133.809 18.9038C133.809 18.9038 133.86 19.1573 134.443 19.3602C135.001 19.5757 136.637 20.0956 136.637 20.0956C137.448 20.0322 138.539 19.6264 139.921 18.9164C139.921 18.9164 139.375 17.674 138.957 16.6216C138.526 15.5566 138.196 13.9465 136.269 13.9465C134.342 13.9465 134.241 13.9718 134.241 13.9718M139.616 14.91V15.4425C139.616 15.4425 140.567 17.7881 140.96 18.6882C141.328 19.5757 140.352 19.7025 139.756 19.88C139.173 20.0829 138.006 20.8182 138.006 20.8182L142.367 22.4918H142.761L145.322 21.4014C145.74 21.2366 145.664 21.1606 144.929 19.4236C144.181 17.6739 143.369 16.5582 142.532 15.8609C141.67 15.1763 139.667 14.8466 139.667 14.8466M145.41 18.1177L146.83 21.7057C146.83 21.7057 143.711 23.0623 143.065 23.113C142.444 23.1764 142.444 23.5188 142.621 23.5188C142.824 23.5188 144.041 24.2795 144.447 25.1543C144.852 26.0418 145.055 26.1686 145.334 26.2447C145.601 26.308 146.666 26.4729 147.464 26.4729C148.263 26.4729 148.948 26.7264 149.189 26.4729C149.442 26.2066 150.254 24.9134 150.621 24.4063C151.002 23.8991 151.078 23.6075 150.989 23.1384C150.9 22.6693 150.735 21.9339 148.643 20.1716C146.539 18.4093 145.372 17.7881 145.372 17.7881M151.838 24.8627L151.293 24.9261C151.166 25.0782 150.926 25.522 150.216 26.5616C149.493 27.6266 149.087 27.297 148.187 27.1829C147.274 27.0688 144.979 26.98 144.979 26.98L145.144 27.3604L146.666 32.1402C146.666 32.1402 149.493 33.408 150.063 33.6489C150.634 33.8898 150.748 33.7504 150.887 33.5855C151.027 33.4588 152.219 32.0388 152.65 31.4809C153.068 30.9357 153.601 30.8977 153.487 28.8438C153.36 26.7772 151.838 24.85 151.838 24.85M153.829 31.988L153.398 32.2036L151.965 33.6363L150.659 34.7393C150.368 34.7139 149.138 34.1561 148.479 33.763C147.819 33.3954 146.463 32.9643 146.463 32.9643C146.463 32.9643 146.12 33.8645 146.906 36.0198C147.692 38.1752 149.822 38.8598 150.089 38.8598C150.33 38.8598 150.748 38.7203 151.597 38.1118C152.46 37.5032 153.525 36.5523 153.766 35.4873C153.994 34.435 153.842 32.0007 153.842 32.0007M153.309 37.9596L152.865 37.9977L152.231 38.5429C151.851 38.8471 150.139 39.7853 149.379 39.7346C148.605 39.6712 147.274 38.2386 146.932 37.7568C146.602 37.3004 146.12 37.9596 145.715 38.7077C145.296 39.4304 145.195 40.3052 145.575 41.2561C145.93 42.1689 147.135 42.917 147.135 42.917C147.135 42.917 147.109 42.9423 148.618 42.5239C150.127 42.0675 152.054 40.5841 152.624 40.0136C153.22 39.4304 153.334 37.9596 153.334 37.9596M151.09 42.245L150.735 42.2703C150.456 42.5112 148.618 43.4241 147.718 43.7918C146.805 44.1595 146.082 43.5889 145.753 43.1198C145.423 42.638 144.574 41.0532 144.574 41.0532L141.81 43.7791C141.81 43.7791 141.81 44.0327 141.746 44.7553C141.683 45.478 141.455 46.8219 141.341 47.4559C141.239 48.1025 141.277 48.3941 141.594 48.3941C141.911 48.3941 143.876 48.8125 144.51 48.7364C145.157 48.673 146.501 47.8109 147.895 46.8346C149.277 45.8584 151.078 42.2703 151.078 42.2703M140.859 44.6286L140.377 44.7553C140.136 44.9836 138.551 45.9471 137.727 46.505C136.903 47.0121 136.675 48.1405 136.611 48.4575L136.409 50.3339V50.9805C136.51 51.12 136.662 51.0946 137.512 51.1453C138.374 51.2087 139.527 51.6018 139.73 51.513L143.547 49.8775L142.913 49.5985C142.596 49.5098 141.898 49.4084 140.808 49.2689C139.705 49.1168 140.377 48.0137 140.453 47.3798C140.529 46.7332 140.884 44.6286 140.884 44.6286M135.724 48.3814L135.141 48.5969L133.683 50.3593L133.378 52.5146L133.835 52.54C134.101 52.5907 135.052 52.5907 135.711 52.5907C136.371 52.5907 138.678 52.2737 138.678 52.2737L138.716 52.1216C138.716 52.1216 136.954 51.7285 136.142 51.5637C135.356 51.4116 135.508 50.5368 135.508 50.2959L135.749 49.0661V48.3687M46.3148 39.6586H41.8266V36.882C41.8266 36.1339 41.218 35.5254 40.4826 35.5254H40.1149C39.3796 35.5254 38.771 36.1339 38.771 36.882V44.8948C38.771 45.6428 39.3796 46.2387 40.1149 46.2387H40.4826C41.218 46.2387 41.8266 45.6428 41.8266 44.8948V41.7886H46.3148V44.8948C46.3148 45.6428 46.9106 46.2387 47.6587 46.2387H48.0137C48.7617 46.2387 49.3576 45.6428 49.3576 44.8948V36.882C49.3576 36.1339 48.7617 35.5254 48.0137 35.5254H47.6587C46.9106 35.5254 46.3148 36.1339 46.3148 36.882M53.7064 44.8948C53.7064 45.6428 54.3149 46.2387 55.0503 46.2387H55.4053C56.1533 46.2387 56.7492 45.6428 56.7492 44.8948V36.882C56.7492 36.1339 56.1533 35.5254 55.4053 35.5254H55.0503C54.3149 35.5254 53.7064 36.1339 53.7064 36.882V44.8948ZM31.4682 44.1341H29.9087C28.9578 44.1341 28.1971 44.6159 28.1971 45.1864C28.1971 45.7569 28.9578 46.2387 29.9087 46.2387H33.1798C33.9278 46.2387 34.5491 45.6428 34.5491 44.8694V36.882C34.5491 36.1213 33.9405 35.5127 33.1798 35.5127H32.8248C32.0641 35.5127 31.4682 36.1213 31.4682 36.882V44.1341ZM17.4964 39.7093H22.0353V37.63H17.4964V39.7093ZM14.4662 44.9202C14.4662 45.4653 14.7071 46.2387 15.9623 46.2387C17.2175 46.2387 17.5852 45.2752 17.5852 45.2752V41.8012H22.0353V45.1611C22.0353 45.6682 22.4791 46.2134 23.6709 46.2134C24.8626 46.2134 25.0275 45.3386 25.0275 45.3386V40.9771L25.0528 36.7805C25.0528 36.1086 24.5076 35.5887 23.8484 35.5887H15.7087C15.0368 35.5887 14.4916 36.1212 14.4916 36.7805V44.9202H14.4662ZM3.16964 39.6966H7.67053V37.6554H3.16964V39.6966ZM0.0253571 45.123C0.0253571 45.2752 0.152143 46.4036 1.72428 46.2134C3.29642 46.0232 3.09357 44.9836 3.09357 44.9836V42.4986C3.09357 42.4986 6.77035 45.123 7.34088 45.4653C7.91142 45.795 8.12695 46.1119 8.83695 46.15C9.54695 46.2134 10.3077 45.9725 10.5486 45.478C10.7768 44.9836 10.4471 44.6793 10.0161 44.337L6.64356 42.0421L6.41535 41.7505H9.21731C10.257 41.7505 10.6373 40.8884 10.6373 40.8884V37.0468C10.6373 35.6395 9.25534 35.5887 9.25534 35.5887H1.50875C0.152143 35.5887 0 36.5016 0 36.5016L0.0253571 45.123ZM1.87643 31.8105C1.87643 32.5079 2.485 33.0784 3.24571 33.0784C4.00642 33.0784 4.62767 32.5079 4.62767 31.8105C4.62767 31.1132 4.00642 30.5554 3.24571 30.5554C2.485 30.5554 1.87643 31.1132 1.87643 31.8105ZM4.93196 31.8105C4.93196 32.5079 5.54053 33.0784 6.31392 33.0784C7.08731 33.0784 7.69588 32.5079 7.69588 31.8105C7.69588 31.1132 7.07463 30.5554 6.31392 30.5554C5.55321 30.5554 4.93196 31.1132 4.93196 31.8105ZM27.2716 21.7311C27.2716 21.7311 26.0544 21.9466 26.0544 23.1257C26.0544 24.3048 27.2589 24.4316 27.2589 24.4316H30.4539V26.0164H23.5821V23.2145C23.5821 21.8832 22.403 21.7564 22.403 21.7564H18.9037C17.1541 21.7564 16.406 21.8072 16.406 23.1638C16.406 24.5204 17.9782 24.4316 17.9782 24.4316H20.945V26.0164H13.1984V23.037C13.1984 21.8325 11.8418 21.7184 11.8418 21.7184H8.05088C6.65624 21.7184 6.56749 22.8341 6.56749 22.8341V25.9404H2.86535V23.5695C2.86535 22.4411 2.16803 22.2129 1.35661 22.2129C0.545178 22.2129 0.215535 23.1891 0.215535 23.1891V27.0814C0.215535 28.4 1.28053 28.6029 1.28053 28.6029H7.75927C9.07784 28.6029 9.26802 27.4491 9.26802 27.4491V24.3809H10.5232V27.1068C10.5232 28.2098 11.5375 28.6536 11.5375 28.6536H31.5062C32.9135 28.6536 33.1925 27.3477 33.1925 27.3477V23.2145C33.1925 21.7564 31.8992 21.7184 31.8992 21.7184H27.2843M29.3001 31.7979C29.3001 32.4952 29.9087 33.0657 30.6821 33.0657C31.4555 33.0657 32.0387 32.4952 32.0387 31.7979C32.0387 31.1005 31.4301 30.5427 30.6821 30.5427C29.9341 30.5427 29.3001 31.1005 29.3001 31.7979ZM35.8042 26.3588C35.8042 27.3223 35.8042 28.6409 37.0975 28.6409C38.3907 28.6409 38.4414 27.2716 38.4414 27.2716V17.3316C38.4414 16.4695 37.8962 15.9243 36.9707 15.9243C36.0451 15.9243 35.8042 16.9259 35.8042 16.9259V26.3588ZM48.9392 25.915H43.741V24.3175C43.741 23.6836 43.4241 22.7961 42.3464 22.7961C41.2687 22.7961 41.0785 23.9372 41.0785 23.9372V30.2384H40.3178C39.4176 30.2384 38.9358 30.8596 38.9358 31.7979C38.9358 32.7361 40.0135 32.9643 40.0135 32.9643H42.4351C43.4494 32.9643 43.703 31.8232 43.703 31.8232V28.6916H50.0042C51.7412 28.6916 51.7158 27.335 51.7158 27.335V18.067C51.7158 16.2032 50.8917 15.5693 49.9155 15.8736C48.9392 16.1906 48.9899 17.1922 48.9899 17.1922L48.9139 25.915H48.9392ZM54.036 26.3588C54.036 27.3223 54.036 28.6409 55.3419 28.6409C56.6478 28.6409 56.6858 27.2716 56.6858 27.2716V17.3316C56.6858 16.4695 56.1406 15.9243 55.2151 15.9243C54.2896 15.9243 54.0487 16.9259 54.0487 16.9259L54.0233 26.3588H54.036Z" fill="white"/>
</g>
<defs>
<clipPath id="clip0_243_779">
<rect width="173.405" height="66.9047" fill="white"/>
</clipPath>
</defs>
</svg>
