<svg width="182" height="92" viewBox="0 0 182 92" fill="none" xmlns="http://www.w3.org/2000/svg">
<g clip-path="url(#clip0_243_756)">
<path d="M55.9397 91.2349V84.6167H53.6069V83.4883H59.3756V84.6167H57.0555V91.2349M63.737 83.5136H62.6213V91.1968H63.737V87.8497H66.9954V91.1968H68.1112V83.5136H66.9954V86.7594H63.737M72.6628 87.9131H76.1494V86.7847H72.6628V84.6167H76.2254V83.501H71.5344V91.1968H76.2381V90.0811H72.6628M91.4143 85.4408C91.2115 84.0335 89.9817 83.4122 88.7899 83.4122C87.9024 83.4122 86.9768 83.7672 86.457 84.4392C86.1274 84.8702 85.9879 85.3901 86.0386 85.8972C86.1527 87.4947 87.5601 87.761 88.7645 87.8751C89.5379 87.9511 90.324 88.0526 90.4634 88.6358C90.4888 88.7372 90.5015 88.826 90.5015 88.902C90.5015 89.6881 89.6013 90.1572 88.7772 90.1572C88.0672 90.1572 87.1924 89.7895 87.1163 89.0668V89.1176V88.9528L85.9879 88.9781V89.1936C86.1401 90.5629 87.5854 91.2729 88.7772 91.2729C90.1592 91.2729 91.6425 90.4108 91.6425 88.9274C91.6425 88.7752 91.6172 88.5851 91.5918 88.4202C91.3002 87.1904 89.9817 86.9115 88.9293 86.7847C88.1052 86.7086 87.2304 86.6072 87.1797 85.8211C87.1543 85.5549 87.2177 85.3013 87.3699 85.0985C87.6742 84.7054 88.2447 84.5279 88.7645 84.5153C89.4365 84.5153 90.1845 84.8069 90.3367 85.4915M98.0325 91.2349V84.6167H100.353V83.4883H94.584V84.6167H96.9168V91.2349M104.549 84.566C103.852 85.2886 103.408 86.2649 103.408 87.3552C103.408 88.4456 103.865 89.4218 104.549 90.1445C105.247 90.8672 106.248 91.311 107.326 91.311C108.404 91.311 109.393 90.8672 110.115 90.1445C110.813 89.4345 111.256 88.4456 111.256 87.3552C111.256 86.2649 110.813 85.2886 110.115 84.566C109.393 83.856 108.416 83.3995 107.326 83.3995C106.236 83.3995 105.259 83.8433 104.549 84.566ZM109.316 85.3647C109.811 85.8719 110.128 86.5692 110.128 87.3552C110.128 88.1413 109.811 88.8386 109.316 89.3458C108.797 89.8656 108.087 90.1826 107.326 90.1826C106.565 90.1826 105.868 89.8656 105.361 89.3458C104.854 88.8386 104.537 88.1413 104.537 87.3552C104.537 86.5692 104.854 85.8719 105.361 85.3647C105.868 84.8449 106.565 84.5279 107.326 84.5279C108.087 84.5279 108.797 84.8449 109.316 85.3647ZM116.214 87.8243L119.016 91.1968H120.461L118.027 88.3061C119.345 88.0779 120.017 87.0383 120.017 85.9479C120.017 84.7308 119.18 83.4883 117.507 83.4883H114.705V91.1968H115.808V84.6167H117.507C118.445 84.6167 118.901 85.2886 118.901 85.9479C118.901 86.6072 118.432 87.2918 117.507 87.2918H116.214M124.328 87.9131H127.814V86.7847H124.328V84.6167H127.891V83.501H123.199V91.1968H127.903V90.0811H124.328M63.2299 4.48821H66.7165V3.35982H63.2299V1.20446H66.7926V0.0887499H62.1015V7.78463H66.8053V6.66892H63.2299M75.3633 2.02857C75.1604 0.621249 73.9306 0 72.7388 0C71.8513 0 70.9258 0.355 70.406 1.02696C70.0763 1.45803 69.9369 1.97785 69.9876 2.485C70.1017 4.08249 71.509 4.34874 72.7135 4.46285C73.4869 4.53892 74.2729 4.64035 74.4124 5.22356C74.4378 5.32499 74.4504 5.41374 74.4504 5.48981C74.4504 6.27588 73.5503 6.74499 72.7262 6.74499C72.0162 6.74499 71.1413 6.37731 71.0653 5.65464V5.70535V5.54053L69.9369 5.56589V5.78142C70.089 7.15071 71.5344 7.8607 72.7262 7.8607C74.1081 7.8607 75.5915 6.99856 75.5915 5.51517C75.5915 5.36303 75.5661 5.17285 75.5408 5.00803C75.2492 3.77821 73.9306 3.49928 72.8783 3.3725C72.0542 3.29642 71.1794 3.195 71.1286 2.40893C71.1033 2.14268 71.1667 1.8891 71.3188 1.68625C71.6231 1.29321 72.1936 1.11571 72.7135 1.10303C73.3854 1.10303 74.1335 1.39464 74.2856 2.07928M81.411 7.82267V1.20446H83.7311V0.0760713H77.9624V1.20446H80.2952V7.82267M87.6868 7.1507C87.6868 6.74499 87.3952 6.46606 86.9895 6.46606C86.6218 6.46606 86.3302 6.74499 86.3302 7.1507C86.3302 7.48035 86.6345 7.82267 86.9895 7.82267C87.3952 7.82267 87.6868 7.48035 87.6868 7.1507ZM93.2147 7.78463V0.0507142H92.3272L90.2479 2.97946L91.0847 3.58803L92.1243 2.18071V7.79731M101.722 4.24732C102.026 3.77821 102.204 3.23303 102.204 2.70053C102.166 1.33125 101.202 0 99.3258 0C97.4493 0 96.4984 1.33125 96.4984 2.67517C96.4984 3.56267 96.9295 4.47553 97.7916 4.96999C98.3241 5.2616 99.0975 5.29964 99.6808 5.09678L97.7916 7.78463H99.1609M101.037 2.67517C101.037 3.44857 100.479 4.22196 99.3384 4.22196C98.1974 4.22196 97.6268 3.43589 97.6268 2.67517C97.6268 1.91446 98.1847 1.12839 99.3384 1.12839C100.492 1.12839 101.037 1.8891 101.037 2.67517ZM105.297 6.03499C105.741 7.17606 106.641 7.78463 107.922 7.78463C109.798 7.78463 110.749 6.44071 110.736 5.09678C110.724 4.09517 110.179 3.14428 109.114 2.71321C108.264 2.37089 107.351 2.39625 106.502 2.6625V1.12839H110.28V0.0507142H105.373V3.71482L105.995 4.00642C106.908 3.46125 107.795 3.38517 108.708 3.75285C109.291 4.00642 109.595 4.56428 109.595 5.10946C109.608 5.89553 109.05 6.66892 107.896 6.66892C107.136 6.66892 106.603 6.25053 106.286 5.62928M114.299 3.61339C114.008 4.06982 113.83 4.61499 113.83 5.16017C113.83 6.47874 114.781 7.79731 116.645 7.79731C118.508 7.79731 119.447 6.47874 119.447 5.16017C119.447 4.27267 119.016 3.35982 118.166 2.87803C117.621 2.58643 116.86 2.54839 116.29 2.73857L118.179 0.0887499H116.809M114.946 5.14749C114.946 4.3741 115.504 3.60071 116.645 3.60071C117.786 3.60071 118.331 4.3741 118.331 5.14749C118.331 5.92089 117.786 6.66892 116.645 6.66892C115.504 6.66892 114.946 5.92089 114.946 5.14749ZM81.1827 74.6513H100.657V74.1315H81.1827V74.6513ZM81.1827 18.7769H100.657V18.2698H81.1827V18.7769ZM0.00195312 59.323H2.43624C2.89266 59.323 3.32373 59.323 3.72945 59.3483C4.13516 59.361 4.5282 59.3864 4.90855 59.4117C5.28891 59.4371 5.64391 59.4624 5.98623 59.4751C6.32855 59.4878 6.68355 59.5005 7.03855 59.5005C8.78819 59.5005 10.3223 59.3103 11.6409 58.9172C12.9594 58.5242 14.0498 57.979 14.9119 57.2944C15.7741 56.6097 16.4207 55.7983 16.8518 54.8474C17.2828 53.8965 17.4984 52.8442 17.4984 51.7031C17.4984 50.5621 17.2575 49.6492 16.7757 48.8124C16.2939 47.9757 15.66 47.2657 14.8993 46.7078C14.1259 46.1373 13.2637 45.6935 12.3128 45.3765C11.3619 45.0596 10.4237 44.8694 9.51087 44.7933V44.7173C10.3984 44.6158 11.2478 44.4003 12.0593 44.0707C12.8707 43.741 13.5807 43.3099 14.2019 42.7774C14.8232 42.2449 15.3176 41.6237 15.6853 40.9137C16.053 40.2037 16.2432 39.4303 16.2432 38.5935C16.2432 37.985 16.1164 37.313 15.8628 36.5523C15.6093 35.8042 15.1401 35.1069 14.4555 34.4603C13.7709 33.8137 12.8327 33.2685 11.6409 32.8248C10.4491 32.381 8.92766 32.1655 7.07659 32.1655C6.72159 32.1655 6.35391 32.1655 5.97355 32.1908C5.5932 32.1908 5.20016 32.2035 4.79445 32.2035C4.38873 32.2289 3.9957 32.2542 3.60266 32.2669C3.20963 32.2669 2.81659 32.2923 2.43624 32.2923H0.00195312M3.80552 32.8248C4.13516 32.7741 4.5282 32.7487 4.9973 32.736C5.46641 32.7234 5.93552 32.7107 6.37927 32.7107C7.03855 32.7107 7.71051 32.7741 8.3698 32.9009C9.04176 33.0276 9.65033 33.2939 10.1955 33.6996C10.7407 34.1053 11.1844 34.7139 11.5268 35.5126C11.8691 36.3114 12.0339 37.3764 12.0339 38.695C12.0339 39.8614 11.9198 40.8249 11.6916 41.5857C11.4634 42.3464 11.1464 42.9549 10.7153 43.386C10.2969 43.8298 9.80248 44.1467 9.21926 44.3116C8.63605 44.4891 7.98944 44.5778 7.27944 44.5778H3.78016V32.8248H3.80552ZM3.80552 45.1103H7.98944C9.68837 45.1103 10.9689 45.6935 11.831 46.8599C12.6932 48.0264 13.1243 49.6239 13.1243 51.6524C13.1243 53.0724 12.9975 54.2515 12.7439 55.1898C12.4903 56.128 12.0846 56.8887 11.5521 57.4592C11.0069 58.0297 10.3096 58.4228 9.46016 58.651C8.61069 58.8792 7.58373 58.9933 6.39194 58.9933C5.7073 58.9933 5.18748 58.9806 4.8198 58.9426C4.45213 58.9046 4.10981 58.8792 3.80552 58.8539V45.123V45.1103ZM36.5796 59.3737H38.8237C39.204 59.3737 39.6098 59.3737 40.0155 59.399C40.4339 59.4117 40.8523 59.4371 41.296 59.4624C41.7271 59.4878 42.1581 59.5131 42.5892 59.5258C43.0203 59.5385 43.426 59.5512 43.8064 59.5512C44.6939 59.5512 45.4799 59.5512 46.1646 59.5131C46.8492 59.4878 47.4705 59.4371 48.041 59.361C48.6115 59.2849 49.1694 59.1708 49.7146 59.0187C50.2597 58.8665 50.8303 58.651 51.4389 58.3721C52.5292 57.9156 53.5435 57.3071 54.5071 56.559C55.458 55.811 56.2821 54.9235 57.0047 53.8965C57.7147 52.8696 58.2726 51.6905 58.6783 50.3592C59.084 49.028 59.2869 47.5319 59.2869 45.8583C59.2869 44.413 59.1094 43.031 58.7797 41.7124C58.4374 40.3939 57.9049 39.1767 57.1822 38.061C56.4596 36.9453 55.534 35.9691 54.4056 35.1196C53.2772 34.2701 51.946 33.5855 50.3865 33.0784C49.854 32.9009 49.3469 32.7487 48.8905 32.6346C48.4214 32.5205 47.9269 32.4317 47.4071 32.3684C46.8872 32.305 46.3294 32.2542 45.7335 32.2289C45.1376 32.2035 44.4656 32.1908 43.7049 32.1908C43.3499 32.1908 42.9949 32.1909 42.6399 32.2162C42.2849 32.2162 41.9299 32.2289 41.5749 32.2289C41.2199 32.2542 40.8649 32.2796 40.5099 32.2923C40.1549 32.2923 39.7999 32.3176 39.4449 32.3176H36.5923M40.3958 32.8501C40.8776 32.8248 41.3848 32.7994 41.8919 32.7741C42.4117 32.7487 42.9823 32.736 43.6289 32.736C45.7589 32.736 47.5465 33.053 48.9919 33.6869C50.4372 34.3209 51.6037 35.2083 52.4658 36.3621C53.3406 37.5158 53.9746 38.9105 54.3549 40.546C54.7353 42.1816 54.9255 44.0073 54.9255 46.0105C54.9255 47.7094 54.7606 49.2689 54.4563 50.7015C54.1394 52.1342 53.5689 53.5289 52.7574 54.9108C52.2249 55.7983 51.6164 56.521 50.9444 57.0535C50.2724 57.5987 49.5497 58.0171 48.7764 58.3087C48.003 58.6003 47.1915 58.7905 46.3421 58.8792C45.4926 58.968 44.6305 59.006 43.7683 59.006C43.0837 59.006 42.4498 59.006 41.8792 58.968C41.3087 58.9426 40.8015 58.9046 40.3832 58.8539V32.8375L40.3958 32.8501ZM67.5913 59.399H86.5711V58.8919L71.3949 58.8665V45.1357H79.8388V44.6032H71.3949V32.8501H85.1258V32.3176H67.5913M119.852 59.399H123.656V32.3176H119.852V59.399ZM155.111 39.9501C154.959 39.088 154.718 38.2512 154.363 37.4525C153.894 36.3621 153.273 35.3858 152.487 34.4857C151.625 33.4967 150.56 32.8755 149.355 32.381C148.899 32.1909 148.366 32.0134 147.745 31.8739C147.124 31.7217 146.325 31.6457 145.362 31.6457C143.485 31.6457 141.812 32.0007 140.341 32.7107C138.87 33.4207 137.564 34.3462 136.423 35.4873C136.094 35.8169 135.688 36.2733 135.193 36.8566C134.699 37.4398 134.217 38.1625 133.748 39.0246C133.279 39.8867 132.873 40.901 132.556 42.0421C132.227 43.1958 132.062 44.4891 132.062 45.9471C132.062 48.1024 132.48 50.0423 133.317 51.7665C134.154 53.4908 135.206 54.9869 136.474 56.2547C137.742 57.5226 139.111 58.4989 140.506 59.0821C141.9 59.678 143.498 59.9822 145.298 59.9822C146.49 59.9822 147.504 59.8681 148.341 59.6272C149.178 59.3864 149.913 59.1201 150.534 58.8031C151.156 58.4989 151.701 58.2199 152.17 57.9917C152.639 57.7508 153.108 57.624 153.565 57.624C153.945 57.624 154.224 57.6747 154.401 57.7762C154.579 57.8776 154.807 58.0678 155.086 58.3467H155.542V49.1801H146.984V49.7126H151.891V52.9076C151.891 54.0233 151.701 54.9869 151.308 55.811C150.915 56.6351 150.408 57.3071 149.786 57.8396C149.165 58.3721 148.455 58.7778 147.682 59.044C146.896 59.3103 146.11 59.4497 145.324 59.4497C144.03 59.4497 142.978 59.3103 142.167 59.044C141.355 58.7778 140.569 58.296 139.808 57.624C139.124 57.0155 138.566 56.2801 138.135 55.418C137.704 54.5558 137.361 53.6176 137.121 52.6033C136.88 51.589 136.715 50.5114 136.613 49.3703C136.512 48.2292 136.461 47.0882 136.461 45.9471C136.461 44.2735 136.575 42.6126 136.791 40.9644C137.006 39.3162 137.438 37.8328 138.084 36.5396C138.731 35.2337 139.631 34.1814 140.785 33.3826C141.938 32.5839 143.472 32.1908 145.374 32.1908C146.972 32.1908 148.278 32.4698 149.317 33.0276C150.344 33.5855 151.168 34.2701 151.79 35.0816C152.411 35.893 152.867 36.7425 153.159 37.63C153.451 38.5175 153.653 39.2908 153.755 39.9501H154.173M164.481 59.4244H165.051V34.435H165.127L181.14 59.9569H181.901V32.343H181.331V53.0724H181.255L168.399 32.343H164.481M101.57 59.9949C103.066 59.9949 104.41 59.754 105.602 59.2596C106.793 58.7651 107.808 58.1058 108.644 57.2817C109.481 56.4576 110.128 55.5067 110.559 54.429C111.003 53.3514 111.231 52.223 111.231 51.0312C111.231 49.738 110.977 48.673 110.496 47.8362C110.001 46.9994 109.405 46.3401 108.708 45.8203C108.011 45.3132 107.288 44.9328 106.565 44.6792C105.83 44.4257 105.221 44.2228 104.74 44.0707L100.137 42.6253C99.4779 42.4224 98.8313 42.1816 98.172 41.9153C97.5254 41.6491 96.9422 41.3194 96.4224 40.9264C95.9025 40.5333 95.4842 40.0516 95.1545 39.481C94.8249 38.9105 94.66 38.2258 94.66 37.4017C94.66 36.3875 94.8756 35.5507 95.294 34.8914C95.7124 34.2321 96.2449 33.6996 96.8788 33.2939C97.5127 32.8882 98.1974 32.5966 98.9327 32.4317C99.6681 32.2669 100.34 32.1782 100.949 32.1782C102.039 32.1782 103.003 32.381 103.814 32.7741C104.638 33.1671 105.335 33.6869 105.919 34.3335C106.502 34.9801 106.984 35.7282 107.351 36.5776C107.719 37.4271 107.973 38.3146 108.125 39.2275H109.494C109.431 38.4794 109.266 37.7441 108.999 37.0594C108.619 36.0578 108.061 35.1576 107.377 34.3335C106.641 33.4587 105.754 32.8628 104.714 32.4064C104.283 32.2162 103.763 32.0387 103.167 31.8992C102.571 31.7471 101.823 31.671 100.949 31.671C99.7315 31.671 98.6031 31.8739 97.5888 32.2796C96.5618 32.6853 95.6743 33.2432 94.939 33.9532C94.2036 34.6632 93.6331 35.5126 93.2274 36.4889C92.8217 37.4651 92.6188 38.5175 92.6188 39.6585C92.6188 41.4082 93.1513 42.8028 94.2036 43.8424C95.2559 44.8821 96.8154 45.7189 98.8693 46.3528L103.243 47.684C103.776 47.8362 104.334 48.0517 104.93 48.3307C105.526 48.6096 106.083 48.9773 106.591 49.421C107.098 49.8648 107.516 50.3973 107.846 51.0312C108.175 51.6651 108.34 52.4258 108.34 53.3133C108.34 53.9219 108.239 54.5812 108.036 55.3039C107.833 56.0265 107.478 56.6985 106.971 57.3197C106.464 57.941 105.779 58.4481 104.917 58.8539C104.055 59.2596 102.952 59.4624 101.608 59.4624C101.608 59.4624 93.6331 60.1471 92.4793 51.2467H90.9833C90.9833 51.2467 91.5158 59.9949 101.608 59.9949" fill="white"/>
</g>
<defs>
<clipPath id="clip0_243_756">
<rect width="181.849" height="91.2983" fill="white"/>
</clipPath>
</defs>
</svg>
