<svg width="212" height="66" viewBox="0 0 212 66" fill="none" xmlns="http://www.w3.org/2000/svg">
<g clip-path="url(#clip0_243_785)">
<path d="M87.2305 29.2202C89.6208 29.2202 91.7286 27.9096 92.9179 25.9553C94.1425 27.9096 96.2973 29.2202 98.7583 29.2202C102.574 29.2202 105.67 26.0957 105.67 22.2457V1.05319C105.67 0.468085 105.199 0 104.611 0C104.022 0 103.551 0.468085 103.551 1.05319V22.2457C103.551 24.9372 101.396 27.1255 98.7466 27.1255C96.0972 27.1255 93.9423 24.9372 93.9423 22.2457V19.7883C93.9423 19.6479 93.9188 19.5074 93.8599 19.3787C93.3771 16.0202 90.5864 13.434 87.2069 13.434C84.2513 13.434 81.7315 15.4234 80.8365 18.1851C80.6128 18.3723 80.4833 18.6532 80.4833 18.9691V22.2106C80.4833 24.9021 78.458 27.0904 75.9734 27.0904C73.4888 27.0904 71.4635 24.9021 71.4635 22.2106V14.1011C71.4635 13.516 70.9925 13.0479 70.4037 13.0479C69.815 13.0479 69.344 13.516 69.344 14.1011V22.2106C69.344 24.9021 67.142 27.0904 64.4337 27.0904C61.7255 27.0904 59.5235 24.9021 59.5235 22.2106V14.1011C59.5235 13.516 59.0525 13.0479 58.4637 13.0479C57.875 13.0479 57.404 13.516 57.404 14.1011V22.2106C57.404 24.9021 55.4022 27.0904 52.9412 27.0904C50.4802 27.0904 48.4902 24.9021 48.4902 22.2106V17.4479C48.4902 14.6511 46.6061 12.2638 43.8979 11.6436C43.2267 11.4915 42.5084 11.4096 41.7548 11.4213L47.8779 5.78085C48.3018 5.38298 48.3253 4.72766 47.9367 4.29468C47.5364 3.8734 46.8652 3.85 46.4413 4.23617L37.4451 12.5213C36.1263 13.317 35.5964 14.2649 35.561 14.3351C35.3138 14.7915 35.4315 15.3532 35.8437 15.6574C36.2558 15.9734 36.8328 15.95 37.2096 15.5989L38.7286 14.2064C39.4115 13.8319 40.4242 13.516 41.8254 13.516C42.3789 13.516 42.9205 13.5745 43.4151 13.6915C45.1578 14.0894 46.3706 15.6457 46.3706 17.4479V22.2106C46.3706 22.9947 46.5002 23.7436 46.7239 24.4574C45.5582 26.5521 43.2973 27.0202 42.9087 27.0904H34.4306C32.2758 27.0904 30.7097 25.2883 30.2269 24.6447V14.8383C30.2269 14.2532 29.7559 13.7851 29.1671 13.7851C28.5784 13.7851 28.1074 14.2532 28.1074 14.8383V36.5223C28.1074 37.9617 26.9299 39.1202 25.4933 39.1202H23.8094C23.2207 39.1202 22.7497 39.5883 22.7497 40.1734C22.7497 40.7585 23.2207 41.2266 23.8094 41.2266H25.4933C28.1074 41.2266 30.2269 39.1202 30.2269 36.5223V27.6287C31.2631 28.4479 32.6879 29.1968 34.4306 29.1968H42.9912C42.9912 29.1968 43.0854 29.1968 43.1325 29.1968C43.2738 29.1734 45.9585 28.7989 47.819 26.5872C49.0201 28.1787 50.8688 29.2085 52.9412 29.2085C55.2727 29.2085 57.3215 27.9096 58.4873 25.9553C59.7355 27.9096 61.9256 29.2085 64.4102 29.2085C66.8948 29.2085 69.0967 27.8979 70.3449 25.9436C71.5224 27.8979 73.583 29.2085 75.9499 29.2085C78.3167 29.2085 80.342 27.933 81.5195 26.0021C82.7088 27.9447 84.8048 29.2436 87.1951 29.2436L87.2305 29.2202ZM87.2305 15.5404C89.7739 15.5404 91.8463 17.7287 91.8463 20.4202V22.2457C91.8463 24.9372 89.7739 27.1255 87.2305 27.1255C84.687 27.1255 82.6146 24.9372 82.6146 22.2457V20.4202C82.6146 17.7287 84.687 15.5404 87.2305 15.5404ZM121.826 22.2457V14.8266C121.826 14.2415 122.297 13.7734 122.886 13.7734C123.474 13.7734 123.945 14.2415 123.945 14.8266V22.2457C123.945 25.85 126.053 27.1255 132.023 27.1255C137.993 27.1255 140.101 25.85 140.101 22.2457V14.8266C140.101 14.2415 140.572 13.7734 141.161 13.7734C141.749 13.7734 142.22 14.2415 142.22 14.8266V22.2457C142.22 24.9372 144.564 27.1255 147.449 27.1255C150.334 27.1255 152.689 24.9372 152.689 22.2457V15.1894C152.689 14.6043 153.16 14.1362 153.748 14.1362C154.337 14.1362 154.808 14.6043 154.808 15.1894V28.167C154.808 28.7521 154.337 29.2202 153.748 29.2202C153.16 29.2202 152.689 28.7521 152.689 28.167V27.1255C151.358 28.4128 149.498 29.2085 147.449 29.2085C144.858 29.2085 142.574 27.9213 141.267 25.9904C139.265 29.2085 134.578 29.2085 132.023 29.2085C128.714 29.2085 121.838 29.2085 121.838 22.234L121.826 22.2457ZM172.259 34.2404C172.259 41.2149 168.585 41.2149 165.347 41.2149C164.758 41.2149 164.287 40.7468 164.287 40.1617C164.287 39.5766 164.758 39.1085 165.347 39.1085C168.55 39.1085 170.151 39.1085 170.151 34.2287V28.1202V14.6043C170.151 14.0191 170.622 13.5511 171.211 13.5511C171.8 13.5511 172.271 14.0191 172.271 14.6043V27.067C174.225 27.0436 179.312 27.0319 192.736 27.067C195.585 26.6926 197.787 24.2585 197.787 21.333C197.787 18.1383 195.173 15.5404 191.959 15.5404H181.467C180.878 15.5404 180.407 15.0723 180.407 14.4872C180.407 13.9021 180.878 13.434 181.467 13.434H191.959C196.339 13.434 199.895 16.9798 199.895 21.3213C199.895 23.5915 198.93 25.6277 197.375 27.067C198.035 27.067 198.718 27.067 199.424 27.067C201.791 26.7745 203.64 24.7149 203.64 22.234V1.05319C203.64 0.468085 204.111 0 204.699 0C205.288 0 205.759 0.468085 205.759 1.05319V22.2457C205.759 25.5809 203.428 28.366 200.319 29.0564C200.166 29.1383 200.001 29.1851 199.825 29.1851C199.742 29.1851 199.648 29.1851 199.565 29.1851C199.33 29.2085 199.083 29.2202 198.835 29.2202C198.741 29.2202 198.647 29.1968 198.553 29.1734C196.751 29.1734 194.832 29.1734 192.865 29.1617C192.559 29.1968 192.265 29.2202 191.947 29.2202H191.523C191.405 29.2202 191.288 29.1968 191.182 29.1617C183.198 29.15 175.014 29.1383 172.259 29.1617V34.2404ZM111.169 1.05319V27.933C111.169 28.5181 110.698 28.9862 110.11 28.9862C109.521 28.9862 109.05 28.5181 109.05 27.933V1.05319C109.05 0.468085 109.521 0 110.11 0C110.698 0 111.169 0.468085 111.169 1.05319ZM161.061 27.933V1.05319C161.061 0.468085 161.532 0 162.12 0C162.709 0 163.18 0.468085 163.18 1.05319V27.933C163.18 28.5181 162.709 28.9862 162.12 28.9862C161.532 28.9862 161.061 28.5181 161.061 27.933ZM212 1.05319V27.933C212 28.5181 211.529 28.9862 210.94 28.9862C210.352 28.9862 209.881 28.5181 209.881 27.933V1.05319C209.881 0.468085 210.352 0 210.94 0C211.529 0 212 0.468085 212 1.05319ZM24.3158 19.5309C24.3158 16.3596 21.7135 13.7734 18.5224 13.7734H16.2262C13.0352 13.7734 10.4328 16.3596 10.4328 19.5309V23.4277C10.4328 26.5989 13.0352 29.1851 16.2262 29.1851H18.5224C21.7135 29.1851 24.3158 26.5989 24.3158 23.4277V19.5309ZM22.208 23.4277C22.208 25.4404 20.5595 27.0787 18.5342 27.0787H16.238C14.2127 27.0787 12.5642 25.4404 12.5642 23.4277V19.5309C12.5642 17.5181 14.2127 15.8798 16.238 15.8798H18.5342C20.5595 15.8798 22.208 17.5181 22.208 19.5309V23.4277ZM55.3198 8.55426C55.3198 7.55957 56.1323 6.75213 57.1331 6.75213C58.134 6.75213 58.9465 7.55957 58.9465 8.55426C58.9465 9.54894 58.134 10.3564 57.1331 10.3564C56.1323 10.3564 55.3198 9.54894 55.3198 8.55426ZM59.2527 8.55426C59.2527 7.55957 60.0652 6.75213 61.066 6.75213C62.0669 6.75213 62.8794 7.55957 62.8794 8.55426C62.8794 9.54894 62.0669 10.3564 61.066 10.3564C60.0652 10.3564 59.2527 9.54894 59.2527 8.55426ZM14.6719 8.55426C14.6719 7.55957 15.4844 6.75213 16.4853 6.75213C17.4862 6.75213 18.2987 7.55957 18.2987 8.55426C18.2987 9.54894 17.4862 10.3564 16.4853 10.3564C15.4844 10.3564 14.6719 9.54894 14.6719 8.55426ZM18.6048 8.55426C18.6048 7.55957 19.4173 6.75213 20.4182 6.75213C21.4191 6.75213 22.2316 7.55957 22.2316 8.55426C22.2316 9.54894 21.4191 10.3564 20.4182 10.3564C19.4173 10.3564 18.6048 9.54894 18.6048 8.55426ZM130.222 8.55426C130.222 7.55957 131.034 6.75213 132.035 6.75213C133.036 6.75213 133.848 7.55957 133.848 8.55426C133.848 9.54894 133.036 10.3564 132.035 10.3564C131.034 10.3564 130.222 9.54894 130.222 8.55426ZM169.398 8.55426C169.398 7.55957 170.21 6.75213 171.211 6.75213C172.212 6.75213 173.024 7.55957 173.024 8.55426C173.024 9.54894 172.212 10.3564 171.211 10.3564C170.21 10.3564 169.398 9.54894 169.398 8.55426ZM184.54 8.55426C184.54 7.55957 185.353 6.75213 186.354 6.75213C187.355 6.75213 188.167 7.55957 188.167 8.55426C188.167 9.54894 187.355 10.3564 186.354 10.3564C185.353 10.3564 184.54 9.54894 184.54 8.55426ZM68.6021 33.4798C68.6021 32.4851 69.4146 31.6777 70.4155 31.6777C71.4164 31.6777 72.2289 32.4851 72.2289 33.4798C72.2289 34.4745 71.4164 35.2819 70.4155 35.2819C69.4146 35.2819 68.6021 34.4745 68.6021 33.4798ZM79.5177 46.6213C79.5177 47.616 78.7052 48.4234 77.7044 48.4234C76.7035 48.4234 75.891 47.616 75.891 46.6213C75.891 45.6266 76.7035 44.8191 77.7044 44.8191C78.7052 44.8191 79.5177 45.6266 79.5177 46.6213ZM146.907 10.3564C146.907 9.77128 147.378 9.30319 147.967 9.30319H149.203V9.09255C149.203 7.22021 150.734 5.68723 152.63 5.68723H153.737C154.325 5.68723 154.796 6.15532 154.796 6.74043C154.796 7.32553 154.325 7.79362 153.737 7.79362H152.63C151.911 7.79362 151.323 8.37872 151.323 9.09255V9.30319H154.113C154.702 9.30319 155.173 9.77128 155.173 10.3564C155.173 10.9415 154.702 11.4096 154.113 11.4096H147.979C147.39 11.4096 146.919 10.9415 146.919 10.3564H146.907ZM7.35953 3.3234C6.98273 2.94894 6.5235 2.64468 6.00539 2.43404C5.48728 2.2234 4.9103 2.11808 4.28622 2.11808C3.66213 2.11808 3.12047 2.2234 2.59059 2.44574C2.07248 2.66808 1.61325 2.96064 1.22467 3.34681C0.836093 3.73298 0.541714 4.17766 0.317986 4.69255C0.0942577 5.20745 -0.0117188 5.76915 -0.0117188 6.37766C-0.0117188 6.98617 0.0942577 7.55957 0.306211 8.08617C0.518164 8.61277 0.812543 9.05745 1.20112 9.43192C1.5897 9.80638 2.03716 10.1106 2.55527 10.3213C3.07337 10.5319 3.65036 10.6372 4.27444 10.6372C4.89852 10.6372 5.46373 10.5319 5.99361 10.3213C6.5235 10.1106 6.97095 9.81809 7.34776 9.43192C7.72456 9.04574 8.03072 8.60106 8.24267 8.08617C8.45462 7.57128 8.5606 6.99787 8.5606 6.37766C8.5606 5.75745 8.45462 5.19574 8.24267 4.66915C8.03072 4.14255 7.73634 3.69787 7.34776 3.3234H7.35953ZM7.35953 7.7C7.19468 8.09787 6.95918 8.44894 6.6648 8.74149C6.37042 9.03404 6.01716 9.26809 5.61681 9.43192C5.21645 9.59575 4.769 9.67766 4.28622 9.67766C3.80343 9.67766 3.35598 9.59575 2.95562 9.43192C2.55527 9.26809 2.20201 9.03404 1.90763 8.74149C1.61325 8.44894 1.37775 8.09787 1.2129 7.7C1.04805 7.30213 0.96562 6.85745 0.96562 6.37766C0.96562 5.89787 1.04805 5.45319 1.2129 5.05532C1.37775 4.65745 1.61325 4.30638 1.90763 4.01383C2.20201 3.72128 2.55527 3.48723 2.95562 3.3234C3.35598 3.15957 3.80343 3.07766 4.28622 3.07766C4.769 3.07766 5.21645 3.15957 5.61681 3.3234C6.01716 3.48723 6.37042 3.72128 6.6648 4.01383C6.95918 4.30638 7.19468 4.65745 7.35953 5.05532C7.52439 5.45319 7.60681 5.89787 7.60681 6.37766C7.60681 6.85745 7.52439 7.30213 7.35953 7.7ZM5.73456 6.28404C5.84054 6.08511 5.89941 5.85106 5.89941 5.58191C5.89941 5.16064 5.76989 4.83298 5.49906 4.58723C5.22823 4.34149 4.87497 4.22447 4.42752 4.22447H2.72012V8.43723H3.55616V6.93936H4.46284L5.29888 8.43723H6.26444L5.2871 6.74043C5.48728 6.63511 5.64036 6.47128 5.74634 6.28404H5.73456ZM4.80432 6.01489C4.69835 6.10851 4.52172 6.15532 4.30977 6.15532H3.55616V5.03192H4.30977C4.53349 5.03192 4.69835 5.07872 4.80432 5.17234C4.9103 5.26596 4.96917 5.40638 4.96917 5.58191C4.96917 5.75745 4.9103 5.90957 4.80432 6.00319V6.01489ZM32.5937 51.2202C32.5937 51.8053 32.1227 52.2734 31.5339 52.2734C27.3184 52.2734 26.6826 55.234 26.6237 55.5734C26.5766 55.8191 26.4471 56.0415 26.2704 56.1936V64.9585C26.2704 65.5436 25.7994 66.0117 25.2107 66.0117C24.6219 66.0117 24.1509 65.5436 24.1509 64.9585V51.2202C24.1509 50.6351 24.6219 50.167 25.2107 50.167C25.7994 50.167 26.2704 50.6351 26.2704 51.2202V52.0745C27.3655 51.0213 29.0612 50.1787 31.5339 50.1787C32.1227 50.1787 32.5937 50.6468 32.5937 51.2319V51.2202ZM56.3442 50.167C52.953 50.167 51.2338 51.1149 51.0454 51.2202C50.5508 51.5128 50.386 52.1447 50.6686 52.6479C50.9512 53.1511 51.5988 53.3149 52.1051 53.034C52.1169 53.034 53.5182 52.2617 56.3442 52.2617C60.1123 52.2617 60.595 53.9351 60.595 55.3979V57.2936C59.394 56.2638 57.6866 55.6202 55.7908 55.6202C52.1758 55.6202 49.2438 57.9489 49.2438 60.8043C49.2438 63.6596 52.1758 65.9883 55.7908 65.9883C57.6866 65.9883 59.394 65.3447 60.595 64.3149V64.9351C60.595 65.5202 61.066 65.9883 61.6548 65.9883C62.2436 65.9883 62.7146 65.5202 62.7146 64.9351V55.3862C62.7146 53.4319 61.8903 50.1553 56.3442 50.1553V50.167ZM55.7908 63.9053C53.3886 63.9053 51.3515 62.4894 51.3515 60.816C51.3515 59.1426 53.3769 57.7266 55.7908 57.7266C58.2047 57.7266 60.23 59.1426 60.23 60.816C60.23 62.4894 58.2047 63.9053 55.7908 63.9053ZM40.6008 50.167C36.7857 50.167 33.6888 53.2447 33.6888 57.0362V59.1308C33.6888 62.9223 36.7857 66 40.6008 66C42.6968 66 44.6632 65.0638 45.9821 63.4255C46.3471 62.9692 46.2764 62.3138 45.829 61.9511C45.3698 61.5883 44.7103 61.6585 44.3453 62.1149C43.4269 63.25 42.0609 63.9053 40.6008 63.9053C37.9514 63.9053 35.7966 61.7638 35.7966 59.1308V58.6628H45.9703C46.2882 58.6628 46.5826 58.5223 46.7828 58.2883L47.2656 57.7149C47.4304 57.5277 47.5128 57.2819 47.5128 57.0362C47.5128 53.2447 44.416 50.167 40.6008 50.167ZM35.8201 56.5564C36.0674 54.1457 38.1163 52.2617 40.6008 52.2617C43.0854 52.2617 45.1343 54.1457 45.3815 56.5564H35.8319H35.8201ZM104.257 50.167C100.442 50.167 97.3453 53.2447 97.3453 57.0362V59.1308C97.3453 62.9223 100.442 66 104.257 66C106.353 66 108.32 65.0638 109.639 63.4255C110.004 62.9692 109.933 62.3138 109.474 61.9511C109.015 61.5883 108.355 61.6585 107.99 62.1149C107.072 63.25 105.706 63.9053 104.257 63.9053C101.608 63.9053 99.4531 61.7638 99.4531 59.1308V58.6628H109.627C109.945 58.6628 110.239 58.5223 110.439 58.2883L110.922 57.7149C111.087 57.5277 111.169 57.2819 111.169 57.0362C111.169 53.2447 108.073 50.167 104.257 50.167ZM99.4766 56.5564C99.7239 54.1457 101.773 52.2617 104.257 52.2617C106.742 52.2617 108.791 54.1457 109.038 56.5564H99.4884H99.4766ZM178.888 50.167C175.073 50.167 171.976 53.2447 171.976 57.0362V59.1308C171.976 62.9223 175.073 66 178.888 66C180.984 66 182.951 65.0638 184.27 63.4255C184.635 62.9692 184.564 62.3138 184.105 61.9511C183.645 61.5883 182.986 61.6585 182.621 62.1149C181.703 63.25 180.337 63.9053 178.888 63.9053C176.239 63.9053 174.084 61.7638 174.084 59.1308V58.6628H184.258C184.576 58.6628 184.87 58.5223 185.07 58.2883L185.553 57.7149C185.718 57.5277 185.8 57.2819 185.8 57.0362C185.8 53.2447 182.703 50.167 178.888 50.167ZM174.108 56.5564C174.355 54.1457 176.404 52.2617 178.888 52.2617C181.373 52.2617 183.422 54.1457 183.669 56.5564H174.119H174.108ZM21.7606 63.4372C20.43 65.0755 18.4753 66.0117 16.3793 66.0117C12.5642 66.0117 9.46729 62.934 9.46729 59.1426V57.0479C9.46729 53.2564 12.5642 50.1787 16.3793 50.1787C18.4282 50.1787 20.3593 51.0798 21.6781 52.6479C22.0549 53.0926 21.9961 53.7596 21.5486 54.1223C21.1011 54.4968 20.43 54.4383 20.0649 53.9936C19.1465 52.9053 17.8041 52.2734 16.3911 52.2734C13.7417 52.2734 11.5868 54.4149 11.5868 57.0479V59.1426C11.5868 61.7755 13.7417 63.917 16.3911 63.917C17.8394 63.917 19.2053 63.2617 20.1238 62.1266C20.4888 61.6819 21.16 61.6 21.6075 61.9628C22.0549 62.3255 22.1374 62.9925 21.7723 63.4372H21.7606ZM134.131 63.4372C132.8 65.0755 130.846 66.0117 128.75 66.0117C124.935 66.0117 121.838 62.934 121.838 59.1426V57.0479C121.838 53.2564 124.935 50.1787 128.75 50.1787C130.799 50.1787 132.73 51.0798 134.049 52.6479C134.425 53.0926 134.366 53.7596 133.919 54.1223C133.472 54.4968 132.8 54.4383 132.435 53.9936C131.517 52.9053 130.174 52.2734 128.761 52.2734C126.112 52.2734 123.957 54.4149 123.957 57.0479V59.1426C123.957 61.7755 126.112 63.917 128.761 63.917C130.21 63.917 131.576 63.2617 132.506 62.1266C132.871 61.6702 133.542 61.6 133.99 61.9628C134.449 62.3255 134.52 62.9925 134.143 63.4372H134.131ZM68.7788 52.2734V62.4308C68.7788 63.0511 69.2851 63.5543 69.9092 63.5543H74.0894C74.6781 63.5543 75.1491 64.0223 75.1491 64.6074C75.1491 65.1926 74.6781 65.6606 74.0894 65.6606H69.9092C68.1194 65.6606 66.671 64.2213 66.671 62.4426V52.2851H64.8105C64.2218 52.2851 63.7508 51.817 63.7508 51.2319C63.7508 50.6468 64.2218 50.1787 64.8105 50.1787H66.671V47.4638C66.671 46.8787 67.142 46.4106 67.7308 46.4106C68.3195 46.4106 68.7906 46.8787 68.7906 47.4638V50.1787H74.1012C74.6899 50.1787 75.1609 50.6468 75.1609 51.2319C75.1609 51.817 74.6899 52.2851 74.1012 52.2851H68.7906L68.7788 52.2734ZM191.5 52.2734V62.4308C191.5 63.0511 192.006 63.5543 192.63 63.5543H196.81C197.399 63.5543 197.87 64.0223 197.87 64.6074C197.87 65.1926 197.399 65.6606 196.81 65.6606H192.63C190.84 65.6606 189.392 64.2213 189.392 62.4426V52.2851H187.531C186.943 52.2851 186.472 51.817 186.472 51.2319C186.472 50.6468 186.943 50.1787 187.531 50.1787H189.392V47.4638C189.392 46.8787 189.863 46.4106 190.452 46.4106C191.04 46.4106 191.511 46.8787 191.511 47.4638V50.1787H196.822C197.411 50.1787 197.882 50.6468 197.882 51.2319C197.882 51.817 197.411 52.2851 196.822 52.2851H191.511L191.5 52.2734ZM78.7759 51.2202V64.5957C78.7759 65.1808 78.3049 65.6489 77.7161 65.6489C77.1274 65.6489 76.6564 65.1808 76.6564 64.5957V51.2202C76.6564 50.6351 77.1274 50.167 77.7161 50.167C78.3049 50.167 78.7759 50.6351 78.7759 51.2202ZM95.9205 51.6532L89.9034 65.0287C89.7386 65.4032 89.3618 65.6489 88.9496 65.6489C88.5375 65.6489 88.1607 65.4149 87.9958 65.0404L81.8021 51.6649C81.5548 51.1383 81.7903 50.5181 82.3202 50.2723C82.8501 50.0266 83.4742 50.2606 83.7215 50.7872L88.9379 62.0564L94.0012 50.7989C94.2367 50.2723 94.8608 50.0266 95.4024 50.2723C95.9323 50.5064 96.1678 51.1266 95.9323 51.6649L95.9205 51.6532ZM142.209 64.5957C142.209 65.1808 141.738 65.6489 141.149 65.6489H140.254C138.193 65.6489 136.51 63.9755 136.51 61.9277V44.8309C136.51 44.2457 136.981 43.7777 137.569 43.7777C138.158 43.7777 138.629 44.2457 138.629 44.8309V61.9277C138.629 62.8287 139.359 63.5543 140.266 63.5543H141.161C141.749 63.5543 142.22 64.0223 142.22 64.6074L142.209 64.5957ZM149.721 50.167H148.391C144.858 50.167 141.985 53.0223 141.985 56.533V59.283C141.985 62.7936 144.858 65.6489 148.391 65.6489H149.721C153.254 65.6489 156.127 62.7936 156.127 59.283V56.533C156.127 53.0223 153.254 50.167 149.721 50.167ZM154.007 59.283C154.007 61.6351 152.088 63.5426 149.721 63.5426H148.391C146.024 63.5426 144.104 61.6351 144.104 59.283V56.533C144.104 54.1809 146.024 52.2734 148.391 52.2734H149.721C152.088 52.2734 154.007 54.1809 154.007 56.533V59.283ZM170.446 61.6936C170.446 64.3734 167.007 65.9766 163.687 65.9766C160.366 65.9766 157.917 63.4723 157.823 63.367C157.434 62.934 157.458 62.2787 157.893 61.8809C158.329 61.4947 158.988 61.5181 159.389 61.9511C159.4 61.9628 161.214 63.8702 163.698 63.8702C166.312 63.8702 168.35 62.7 168.35 61.6819C168.35 60.6638 168.196 60.2777 164.311 59.084C160.837 58.0074 158.082 57.1649 158.082 54.7074C158.082 52.5191 159.589 50.167 163.828 50.167C168.067 50.167 169.362 51.7936 169.515 51.9808C169.88 52.4372 169.81 53.0926 169.35 53.4553C168.903 53.8064 168.255 53.7479 167.89 53.3149C167.831 53.2564 166.807 52.2617 163.828 52.2617C161.485 52.2617 160.201 53.1277 160.201 54.6957C160.201 55.4681 161.732 56.0766 164.935 57.0713C168.361 58.1245 170.457 58.9202 170.457 61.6819L170.446 61.6936ZM211.67 61.6936C211.67 64.3734 208.232 65.9766 204.911 65.9766C201.591 65.9766 199.142 63.4723 199.047 63.367C198.659 62.934 198.682 62.2787 199.118 61.8809C199.554 61.4947 200.213 61.5181 200.613 61.9511C200.625 61.9628 202.439 63.8702 204.923 63.8702C207.537 63.8702 209.574 62.7 209.574 61.6819C209.574 60.6638 209.421 60.2777 205.536 59.084C202.062 58.0074 199.306 57.1649 199.306 54.7074C199.306 52.5191 200.814 50.167 205.053 50.167C209.292 50.167 210.587 51.7936 210.74 51.9808C211.105 52.4372 211.035 53.0926 210.575 53.4553C210.128 53.8064 209.48 53.7479 209.115 53.3149C209.056 53.2564 208.032 52.2617 205.053 52.2617C202.709 52.2617 201.426 53.1277 201.426 54.6957C201.426 55.4681 202.957 56.0766 206.16 57.0713C209.586 58.1245 211.682 58.9202 211.682 61.6819L211.67 61.6936Z" fill="white"/>
</g>
<defs>
<clipPath id="clip0_243_785">
<rect width="212" height="66" fill="white"/>
</clipPath>
</defs>
</svg>
