<svg width="187" height="63" viewBox="0 0 187 63" fill="none" xmlns="http://www.w3.org/2000/svg">
<g clip-path="url(#clip0_243_791)">
<path d="M21.9593 33.3695V61.2243H18.1557V33.3695C18.1557 30.5041 16.8498 27.905 14.6564 26.447C13.5407 25.7116 12.3489 25.3313 11.0937 25.3313C6.99856 25.3313 4.53892 28.577 3.80357 29.7054V61.2243H0V22.0475H3.80357V24.1395C5.56589 22.7448 8.00017 21.515 11.0937 21.515C13.1096 21.515 15.0241 22.1109 16.7737 23.2773C20.0194 25.4454 21.9593 29.2109 21.9593 33.3568V33.3695ZM48.7364 32.3425V51.2843C48.7364 57.2559 43.8805 62.0991 37.9216 62.0991C31.9626 62.0991 27.1068 57.2432 27.1068 51.2843V32.3425C27.1068 26.3709 31.9626 21.5277 37.9216 21.5277C43.8805 21.5277 48.7364 26.3836 48.7364 32.3425ZM44.9328 32.3425C44.9328 28.4755 41.7885 25.3313 37.9216 25.3313C34.0546 25.3313 30.9103 28.4755 30.9103 32.3425V51.2843C30.9103 55.1512 34.0546 58.2955 37.9216 58.2955C41.7885 58.2955 44.9328 55.1512 44.9328 51.2843V32.3425ZM75.1585 32.3425V51.2843C75.1585 57.2559 70.3026 62.0991 64.3437 62.0991C61.6685 62.0991 59.2215 61.1228 57.3324 59.5V61.2243H53.5289V-0.000488281H57.3324V24.1268C59.2215 22.5166 61.6685 21.5277 64.3437 21.5277C70.3153 21.5277 75.1585 26.3836 75.1585 32.3425ZM71.3549 32.3425C71.3549 28.4755 68.2106 25.3313 64.3437 25.3313C60.4767 25.3313 57.3324 28.4755 57.3324 32.3425V51.2843C57.3324 55.1512 60.4767 58.2955 64.3437 58.2955C68.2106 58.2955 71.3549 55.1512 71.3549 51.2843V32.3425ZM93.9861 51.4871C94.1002 55.2653 97.1938 58.2955 100.997 58.2955C104.801 58.2955 108.009 55.1512 108.009 51.2843V49.598H111.812V51.2843C111.812 57.2559 106.956 62.0991 100.997 62.0991C95.0385 62.0991 90.1826 57.2432 90.1826 51.2843V32.3425C90.1826 26.3709 95.0385 21.5277 100.997 21.5277C106.956 21.5277 111.812 26.3836 111.812 32.3425C111.812 35.322 110.735 38.1873 108.782 40.3934C104.94 44.7421 99.3111 50.1178 93.9861 51.4871ZM105.942 37.883C107.286 36.3616 108.021 34.3964 108.021 32.3425C108.021 28.4755 104.877 25.3313 101.01 25.3313C97.1431 25.3313 93.9988 28.4755 93.9988 32.3425V47.5061C97.2952 46.2762 101.555 42.853 105.955 37.883H105.942ZM186.387 32.3425V62.2005H182.584V59.5C180.695 61.1101 178.248 62.0991 175.573 62.0991C169.601 62.0991 164.758 57.2432 164.758 51.2843C164.758 48.3048 165.835 45.4395 167.788 43.2334C171.63 38.8846 177.259 33.5089 182.584 32.1396C182.47 28.3614 179.376 25.3313 175.573 25.3313C171.769 25.3313 168.561 28.4755 168.561 32.3425V33.7625H164.758V32.3425C164.758 26.3709 169.614 21.5277 175.573 21.5277C181.532 21.5277 186.387 26.3836 186.387 32.3425ZM182.584 36.1207C179.287 37.3505 175.027 40.7737 170.628 45.7437C169.284 47.2652 168.549 49.2303 168.549 51.2843C168.549 55.1512 171.693 58.2955 175.56 58.2955C179.427 58.2955 182.571 55.1512 182.571 51.2843V36.1207H182.584ZM80.5469 61.2243H84.3504V-0.000488281H80.5469V61.2243ZM150.013 20.8304C143.864 20.8304 138.868 25.8004 138.805 32.0382V32.1523C138.856 34.8275 140.719 40.2286 147.604 42.2698C147.705 42.2952 157.417 44.7802 157.417 50.8786C157.417 54.9611 154.095 58.2828 150.013 58.2828C145.93 58.2828 142.608 54.9611 142.608 50.8786V49.6107H138.805V50.8786C138.805 57.0657 143.838 62.0864 150.013 62.0864C156.187 62.0864 161.157 57.1164 161.221 50.8786V50.7644C161.119 41.7754 149.036 38.7071 148.605 38.6057C142.773 36.8814 142.621 32.2157 142.608 32.0382C142.608 27.9557 145.93 24.6339 150.013 24.6339C154.095 24.6339 157.417 27.9557 157.417 32.0382V33.3061H161.221V32.0382C161.221 25.8511 156.187 20.8304 150.013 20.8304ZM125.568 20.8304C119.419 20.8304 114.424 25.8004 114.361 32.0382V32.1523C114.411 34.8275 116.275 40.2286 123.159 42.2698C123.261 42.2952 132.973 44.7802 132.973 50.8786C132.973 54.9611 129.651 58.2828 125.568 58.2828C121.486 58.2828 118.164 54.9611 118.164 50.8786V49.6107H114.361V50.8786C114.361 57.0657 119.394 62.0864 125.568 62.0864C131.743 62.0864 136.713 57.1164 136.776 50.8786V50.7644C136.675 41.7754 124.592 38.7071 124.161 38.6057C118.329 36.8814 118.177 32.2157 118.164 32.0382C118.164 27.9557 121.486 24.6339 125.568 24.6339C129.651 24.6339 132.973 27.9557 132.973 32.0382V33.3061H136.776V32.0382C136.776 25.8511 131.743 20.8304 125.568 20.8304Z" fill="white"/>
</g>
<defs>
<clipPath id="clip0_243_791">
<rect width="186.375" height="62.201" fill="white"/>
</clipPath>
</defs>
</svg>
