<svg width="155" height="79" viewBox="0 0 155 79" fill="none" xmlns="http://www.w3.org/2000/svg">
<g clip-path="url(#clip0_243_794)">
<path d="M70.8123 72.7754C70.8123 75.8943 68.2766 78.43 65.1576 78.43H46.0764C45.0241 78.43 44.1746 77.5806 44.1746 76.5283C44.1746 75.4759 45.0241 74.6265 46.0764 74.6265H65.1576C66.1719 74.6265 67.0087 73.8024 67.0087 72.7754C67.0087 71.7484 66.1846 70.9243 65.1576 70.9243H52.0734C51.4268 70.9243 50.8182 70.5947 50.4759 70.0495C50.1209 69.5043 50.0828 68.8197 50.3491 68.2238C54.2794 59.7038 67.9089 59.8433 68.4921 59.8559C69.5444 59.8686 70.3812 60.7435 70.3559 61.7958C70.3432 62.8354 69.4937 63.6595 68.4541 63.6595C68.4414 63.6595 68.4921 63.6595 68.3526 63.6595C67.5539 63.6595 60.1369 63.7483 55.9657 67.1208H65.1703C68.2892 67.1208 70.825 69.6565 70.825 72.7754H70.8123ZM94.6226 54.8986C93.5703 54.8986 92.7208 55.7481 92.7208 56.8004L92.7715 74.6138H77.1896C78.9519 68.6929 82.933 66.0558 85.456 64.94V68.097C85.456 69.1493 86.3055 69.9988 87.3578 69.9988C88.4101 69.9988 89.2596 69.1493 89.2596 68.097V62.3283C89.2596 61.7704 89.006 61.2379 88.5749 60.8702C88.1439 60.5026 87.5733 60.3504 87.0155 60.4518C86.5971 60.5279 76.5937 62.4297 73.4114 73.9545C73.1198 75.0068 73.3353 76.1225 74.0073 77.01C74.6919 77.8975 75.7189 78.4174 76.8346 78.4174H92.7589C94.8255 78.4174 96.5117 76.7311 96.5117 74.6645V56.8004C96.5117 55.7481 95.6623 54.8986 94.6099 54.8986H94.6226ZM126.915 74.6138H112.816C115.251 68.2491 120.981 65.6881 124.138 64.7245V68.097C124.138 69.1493 124.988 69.9988 126.04 69.9988C127.092 69.9988 127.942 69.1493 127.942 68.097V62.3283C127.942 61.7831 127.701 61.2506 127.283 60.8956C126.864 60.5406 126.319 60.3758 125.774 60.4518C125.254 60.5279 113.019 62.379 109.051 73.8531C108.708 74.842 108.861 75.907 109.482 76.7818C110.217 77.8088 111.46 78.4174 112.829 78.4174H126.915C127.967 78.4174 128.817 77.5679 128.817 76.5156C128.817 75.4632 127.967 74.6138 126.915 74.6138ZM107.25 60.9336H104.132V56.1031C104.132 54.4295 104.575 53.2251 105.475 52.401C107.174 50.8415 110.065 51.0697 110.128 51.0824C111.181 51.1838 112.094 50.4231 112.208 49.3835C112.309 48.3438 111.548 47.4056 110.509 47.3042C110.319 47.2788 105.932 46.8858 102.952 49.5736C101.228 51.1331 100.353 53.3392 100.353 56.1158V76.5283C100.353 77.5806 101.203 78.43 102.255 78.43C103.307 78.43 104.157 77.5806 104.157 76.5283V64.7499H107.276C108.328 64.7499 109.178 63.9004 109.178 62.8481C109.178 61.7958 108.328 60.9463 107.276 60.9463L107.25 60.9336ZM153.946 71.7484V76.5029C153.946 77.5552 153.096 78.4047 152.044 78.4047H133.901C132.848 78.4047 131.999 77.5552 131.999 76.5029V62.3156C131.999 61.2886 132.81 60.4518 133.837 60.4138L141.977 60.1602C145.159 60.0334 148.139 61.2126 150.408 63.4186C152.678 65.6247 153.933 68.5788 153.933 71.7484H153.946ZM150.142 71.7484C150.142 69.6184 149.305 67.6406 147.771 66.1572C146.237 64.6738 144.221 63.9131 142.104 63.9638L135.803 64.1667V74.6138H150.142V71.7611V71.7484ZM84.3657 16.7742V26.841C84.3657 29.9726 81.8173 32.521 78.6857 32.521H16.8397V36.8951C16.8397 42.106 12.5924 46.3533 7.38147 46.3533H5.59379C4.54147 46.3533 3.69201 45.5038 3.69201 44.4515C3.69201 43.3992 4.54147 42.5497 5.59379 42.5497H7.38147C10.5004 42.5497 13.0361 40.014 13.0361 36.8951V19.0564C10.1327 19.8171 5.08665 22.0739 3.99629 28.5526H7.08986C8.14218 28.5526 8.99164 29.4021 8.99164 30.4544C8.99164 31.5067 8.14218 32.3562 7.08986 32.3562H1.90433C1.38451 32.3562 0.890047 32.1406 0.535048 31.7729C0.180048 31.4053 -0.01013 30.8981 0.0025486 30.3783C0.420941 18.9549 9.85379 15.2401 14.7984 14.8724C15.3309 14.8344 15.8507 15.0119 16.2311 15.3796C16.6241 15.7346 16.8397 16.2417 16.8397 16.7742V28.7174H56.2827V20.413C56.2827 19.4494 55.4966 18.6633 54.533 18.6633H29.4675C28.6688 18.6633 27.9588 18.1689 27.6925 17.4335C27.4263 16.6981 27.6291 15.8487 28.225 15.3289L45.2903 0.469595C46.0764 -0.215047 47.2809 -0.138976 47.9782 0.659773C48.6628 1.44584 48.5868 2.65031 47.788 3.34763L34.5516 14.8724H54.533C57.6012 14.8724 60.0862 17.3701 60.0862 20.4256V28.7301H68.3273C68.6189 24.1785 70.115 20.6539 72.7775 18.2196C76.9487 14.416 82.4005 14.8724 82.6287 14.8978C83.6049 14.9865 84.353 15.8106 84.353 16.7869L84.3657 16.7742ZM80.5621 18.7394C79.1167 18.9169 77.0248 19.4621 75.3132 21.0342C73.4621 22.7331 72.3971 25.3069 72.1435 28.7047H78.6857C79.7126 28.7047 80.5621 27.868 80.5621 26.8283V18.7267V18.7394ZM79.9789 10.828C80.3846 10.828 80.803 10.7012 81.158 10.4223L82.7682 9.1544C83.5923 8.5078 83.7444 7.31601 83.0851 6.47923C82.4258 5.64245 81.234 5.50298 80.4099 6.16227L78.7998 7.43012C77.9757 8.07673 77.8235 9.26851 78.4828 10.1053C78.8632 10.5871 79.421 10.828 79.9789 10.828ZM152.627 15.3289C151.575 15.3289 150.725 16.1783 150.725 17.2306V28.4385C150.725 28.4385 150.675 28.5399 150.624 28.5399H140.57V16.7742C140.57 15.7219 139.72 14.8724 138.668 14.8724C137.616 14.8724 136.766 15.7219 136.766 16.7742V28.5399H125V16.7742C125 15.7219 124.151 14.8724 123.099 14.8724C122.046 14.8724 121.197 15.7219 121.197 16.7742V28.5399H97.881C97.881 28.5399 97.7796 28.4892 97.7796 28.4385V1.90227C97.7923 0.849952 96.9428 0.000488281 95.8905 0.000488281C94.8381 0.000488281 93.9887 0.849952 93.9887 1.90227V28.4512C93.9887 30.6065 95.7383 32.3562 97.8937 32.3562H150.624C152.779 32.3562 154.529 30.6065 154.529 28.4512V17.2433C154.529 16.191 153.679 15.3415 152.627 15.3415V15.3289Z" fill="white"/>
</g>
<defs>
<clipPath id="clip0_243_794">
<rect width="154.539" height="78.4169" fill="white"/>
</clipPath>
</defs>
</svg>
