<svg width="135" height="90" viewBox="0 0 135 90" fill="none" xmlns="http://www.w3.org/2000/svg">
<g clip-path="url(#clip0_243_879)">
<path d="M97.6736 53.8319V55.9256H135V53.7729C123.086 53.7877 118.024 47.6393 84.8794 16.9266H81.1526C81.1526 16.9266 62.9589 34.2218 55.6814 41.1517C55.6814 41.1517 46.9367 34.0891 41.9188 29.9164C41.9188 29.9164 60.8168 15.4079 69.0186 9.27425C75.0636 4.74771 79.9788 2.32962 87.5497 2.31488V0L53.0698 0.0442333V2.37385C60.3472 2.24115 64.6169 3.73034 59.2028 8.90564C51.3971 16.3516 27.2905 33.1897 27.2905 33.1897C27.2905 25.2277 27.2612 14.1547 27.2612 8.8614C27.2612 2.90465 34.2012 2.40334 38.6469 2.3886H39.85V0.0589777L1.07108 0.117955V2.44758H2.40626C8.9061 2.44758 13.3371 4.14318 13.3371 8.87615C13.3371 12.6212 13.4105 57.695 13.4105 61.44C13.4105 65.2736 9.81578 65.7307 4.03489 65.7454H2.83176V68.0898L40.1728 68.0308V65.7159C40.1728 65.7159 39.4979 65.7159 38.6029 65.7159C34.8614 65.7159 27.3199 65.8339 27.3199 60.4669C27.3199 58.8008 27.3199 49.0105 27.3199 38.4387L30.9292 35.7847L47.3036 48.4944C42.8578 51.4581 37.121 54.2742 31.0906 54.289V55.9109L58.8653 55.8814C73.2149 65.539 56.6938 65.7012 56.6938 65.7012V68.0308L98.8327 67.9718V65.6422C90 65.6422 79.8027 60.0541 59.9658 44.5429L61.2569 43.2749L99.1262 43.3044C108.575 52.5197 111.92 53.8172 97.6883 53.8319M63.7512 40.96L80.2136 25.1687L96.808 40.9158L63.7512 40.96ZM4.78318 89.7936H0V89.4839C1.2178 89.4102 1.56994 89.0269 2.0688 87.3165L4.0789 80.3129C4.25497 79.6789 4.34301 79.2955 4.34301 79.0744C4.34301 78.632 4.04956 78.3077 3.59472 78.2192C3.40398 78.2045 3.21324 78.1897 2.90512 78.1897L2.99315 77.8653H8.0551L7.96707 78.175C6.71992 78.2192 6.32377 78.6026 5.83958 80.3277L3.8148 87.346C3.63873 87.9948 3.5507 88.3781 3.5507 88.5845C3.5507 89.0269 3.85882 89.366 4.31366 89.4545C4.46038 89.4692 4.63645 89.4839 4.85654 89.4839L4.7685 89.8083L4.78318 89.7936ZM12.7062 85.8126C14.4376 83.0849 15.9341 81.6841 17.0933 81.6841C17.6655 81.6841 18.0616 82.1265 18.0616 82.7605C18.0616 83.1438 18.0029 83.4535 17.7975 84.1465L16.6971 87.98C16.5797 88.3634 16.5357 88.555 16.5357 88.7467C16.5357 88.9237 16.6237 89.0564 16.7705 89.0564C17.0052 89.0564 17.6361 88.4666 18.047 87.8621L18.2964 88.0685C17.5481 89.1743 16.4917 90 15.8021 90C15.3913 90 15.1272 89.6609 15.1272 89.1596C15.1272 88.9089 15.2005 88.5698 15.3326 88.0685L16.521 83.9253C16.6531 83.5124 16.6824 83.365 16.6824 83.1733C16.6824 82.8637 16.521 82.672 16.2716 82.672C15.626 82.672 14.5843 83.7041 13.2638 85.5619C12.6475 86.4613 12.2367 87.3313 12.002 88.2159C11.9873 88.3191 11.9726 88.3929 11.9726 88.4223L11.5618 89.8083H10.2266L11.9139 83.9105C11.9139 83.9105 11.9579 83.8368 11.9726 83.7484C12.1047 83.365 12.1487 83.0996 12.1487 82.9227C12.1487 82.5983 11.9433 82.4361 11.5618 82.4361C11.464 82.4361 11.2683 82.4558 10.9749 82.4951H10.8869V82.1707L13.7626 81.7284H13.9094L12.7356 85.8273L12.7062 85.8126ZM26.5422 81.8906H27.76L27.672 82.4361H26.3808L24.8256 88.1127L24.7962 88.2602C24.7082 88.5845 24.6642 88.7467 24.6642 88.9237C24.6642 89.1006 24.7522 89.2185 24.9136 89.2185C25.2511 89.2185 25.6912 88.8499 26.3955 87.9948H26.7183C25.9407 89.248 24.987 89.9853 24.136 89.9853C23.6518 89.9853 23.329 89.6314 23.329 89.1006C23.329 88.7615 23.373 88.5403 23.5491 88.0095L25.0897 82.4508H23.7692L23.8865 82.0527C24.9576 81.8906 25.8966 81.1533 26.8357 79.7379H27.1731L26.5275 81.9053L26.5422 81.8906ZM37.121 88.1275C35.8591 89.3512 34.6413 89.9558 33.4822 89.9558C32.147 89.9558 31.12 88.8647 31.12 87.4492C31.12 85.9895 31.9563 84.2054 33.2181 83.0259C34.1572 82.1412 35.1989 81.6841 36.2406 81.6841C37.253 81.6841 38.0013 82.2444 38.0013 83.0111C38.0013 84.0433 36.8275 85.2523 35.2869 85.7683C34.6413 86.0043 33.6143 86.1664 32.7193 86.1959C32.6459 86.5056 32.6166 86.712 32.6166 87.0511C32.6166 88.3044 33.3502 89.0858 34.4946 89.0858C35.2576 89.0858 36.0499 88.6877 36.8715 87.8915L37.1063 88.1127L37.121 88.1275ZM34.9201 85.3702C35.9765 84.8542 36.8128 83.7336 36.8128 82.8342C36.8128 82.3476 36.446 82.0085 35.9618 82.0085C34.7881 82.0085 33.2915 83.8516 32.8513 85.8421C33.8197 85.7536 34.3919 85.6209 34.9348 85.3555M44.4278 86.2402C44.5158 86.137 44.5158 86.0927 44.6185 85.8568C44.9413 85.1048 45.4402 84.1022 45.8216 83.4682C46.5993 82.2002 47.2008 81.6252 47.7877 81.6252C48.1252 81.6252 48.36 81.8906 48.36 82.2887C48.36 83.1733 47.9932 83.7926 47.4796 83.7926C47.2595 83.7926 47.0981 83.6304 47.0541 83.365C46.9808 83.0554 46.9221 82.9669 46.79 82.9669C46.2618 82.9669 44.4571 86.594 43.9876 88.5993L43.7235 89.7346H42.403L43.9142 83.483C43.9729 83.247 43.9876 83.0849 43.9876 82.9669C43.9876 82.5835 43.8262 82.4656 43.4007 82.4656C43.21 82.4656 43.0633 82.4803 42.8285 82.5098L42.9019 82.2002L45.4842 81.6547H45.5575L44.4571 86.2402H44.4278ZM54.405 85.7389C56.1363 83.0111 57.6329 81.6104 58.792 81.6104C59.3642 81.6104 59.7603 82.0527 59.7603 82.6868C59.7603 83.0701 59.7017 83.3798 59.4962 84.0727L58.3958 87.9063C58.2784 88.2896 58.2344 88.4813 58.2344 88.673C58.2344 88.8499 58.3225 88.9826 58.4692 88.9826C58.7039 88.9826 59.3349 88.3929 59.7457 87.7883L59.9951 87.9948C59.2468 89.1006 58.1904 89.9263 57.5008 89.9263C57.09 89.9263 56.8259 89.5872 56.8259 89.0858C56.8259 88.8352 56.8992 88.4961 57.0313 87.9948L58.2198 83.8516C58.3518 83.4387 58.3812 83.2913 58.3812 83.0996C58.3812 82.79 58.2198 82.5983 57.9703 82.5983C57.3247 82.5983 56.283 83.6304 54.9625 85.4882C54.3463 86.3876 53.9354 87.2723 53.7007 88.1422C53.686 88.2454 53.6713 88.3191 53.6713 88.3486L53.2605 89.7346H51.9253L53.6126 83.8368C53.6126 83.8368 53.6567 83.7631 53.6713 83.6746C53.8034 83.2913 53.8474 83.0259 53.8474 82.8489C53.8474 82.5246 53.642 82.3624 53.2605 82.3624C53.1627 82.3624 52.9671 82.382 52.6736 82.4214H52.5856V82.097L55.4614 81.6399H55.6081L54.4343 85.7536L54.405 85.7389ZM70.6619 87.9948C70.5738 88.3339 70.5152 88.555 70.5152 88.6877C70.5152 88.8794 70.6032 89.0121 70.7499 89.0121C71.1021 89.0121 71.6009 88.5256 72.0117 87.8178L72.2758 87.9948C71.7183 89.0416 70.6032 89.8968 69.7962 89.8968C69.4001 89.8968 69.1506 89.5872 69.1506 89.1153C69.1506 88.6877 69.1946 88.4371 69.4734 87.5082L69.5468 87.287C68.0502 89.1301 66.9938 89.9115 65.9081 89.9115C65.0571 89.9115 64.4115 89.0416 64.4115 87.8768C64.4115 85.1196 67.1992 81.6399 69.4294 81.6399C70.1483 81.6399 70.6912 82.1412 70.8086 82.8784L71.1167 81.8463L72.5106 81.6399L70.6619 88.0242V87.9948ZM70.3391 84.5298C70.4565 84.0727 70.5298 83.6304 70.5298 83.2618C70.5298 82.4803 70.119 81.9495 69.4881 81.9495C68.5931 81.9495 67.7127 82.7752 66.8177 84.4413C66.1428 85.7094 65.82 86.6825 65.82 87.5229C65.82 88.3634 66.2162 88.8647 66.8617 88.8647C67.5073 88.8647 68.1089 88.4666 68.8425 87.5967C69.5468 86.7562 69.8549 86.2107 70.0897 85.3702L70.3391 84.5298ZM80.2429 81.7874H81.4607L81.3727 82.3329H80.0815L78.5262 88.0095L78.4969 88.1569C78.4089 88.4813 78.3648 88.6435 78.3648 88.8204C78.3648 88.9974 78.4529 89.1153 78.6143 89.1153C78.9517 89.1153 79.3919 88.7467 80.0962 87.8915H80.419C79.6413 89.1448 78.6876 89.882 77.8366 89.882C77.3525 89.882 77.0297 89.5282 77.0297 88.9974C77.0297 88.6583 77.0737 88.4371 77.2498 87.9063L78.7903 82.3476H77.4698L77.5872 81.9495C78.6583 81.7874 79.5973 81.0501 80.551 79.6347H80.8885L80.2429 81.8021V81.7874ZM88.5181 81.5809H88.6648L86.7868 88.098C86.6987 88.3929 86.6694 88.555 86.6694 88.673C86.6694 88.8647 86.8014 89.0121 86.9775 89.0121C87.2709 89.0121 87.8578 88.4518 88.3274 87.6999L88.6208 87.8915C87.9019 89.0269 86.8014 89.8526 85.9945 89.8526C85.5983 89.8526 85.3489 89.5282 85.3489 88.9974C85.3489 88.673 85.4076 88.3044 85.5249 87.9063L86.7868 83.4977C86.8895 83.1438 86.9041 83.0406 86.9041 82.9079C86.9041 82.5246 86.6547 82.2887 86.2586 82.2887C86.1265 82.2887 86.1118 82.2887 85.8331 82.3476L85.5983 82.3771L85.6717 82.0675L88.5181 81.5662V81.5809ZM89.4278 78.8974C89.4278 79.384 89.017 79.7969 88.5621 79.7969C88.0779 79.7969 87.6524 79.3693 87.6524 78.868C87.6524 78.4109 88.0632 78.0128 88.5328 78.0128C89.0023 78.0128 89.4424 78.4256 89.4424 78.9122M100.535 84.3824C100.535 85.7831 99.7864 87.3755 98.6567 88.4371C97.6443 89.3512 96.5145 89.882 95.5021 89.882C94.1082 89.882 93.0812 88.7025 93.0812 87.0806C93.0812 84.5151 95.7515 81.5809 98.0991 81.5809C99.5223 81.5809 100.549 82.7457 100.549 84.3971M95.6195 83.8073C94.9592 85.0311 94.5044 86.6973 94.5044 87.8178C94.5044 88.7615 95.0619 89.4397 95.8249 89.4397C96.7493 89.4397 97.4976 88.7615 98.1725 87.2723C98.7887 85.8863 99.1408 84.6035 99.1408 83.6451C99.1408 82.5541 98.6713 81.9495 97.835 81.9495C97.0134 81.9495 96.2798 82.5541 95.6048 83.7926M107.181 85.6799C108.913 82.9522 110.409 81.5514 111.568 81.5514C112.141 81.5514 112.537 81.9938 112.537 82.6278C112.537 83.0111 112.478 83.3208 112.273 84.0138L111.172 87.8473C111.055 88.2307 111.011 88.4223 111.011 88.614C111.011 88.791 111.099 88.9237 111.246 88.9237C111.48 88.9237 112.111 88.3339 112.522 87.7294L112.771 87.9358C112.023 89.0416 110.967 89.8673 110.277 89.8673C109.866 89.8673 109.602 89.5282 109.602 89.0269C109.602 88.7762 109.676 88.4371 109.808 87.9358L110.996 83.7926C111.128 83.3798 111.157 83.2323 111.157 83.0406C111.157 82.731 110.996 82.5393 110.747 82.5393C110.101 82.5393 109.059 83.5714 107.739 85.4292C107.123 86.3286 106.712 87.1986 106.477 88.0832C106.462 88.1864 106.448 88.2602 106.448 88.2896L106.037 89.6756H104.702L106.389 83.7778C106.389 83.7778 106.433 83.7041 106.448 83.6157C106.58 83.2323 106.624 82.9669 106.624 82.79C106.624 82.4656 106.418 82.3034 106.037 82.3034C105.939 82.3034 105.743 82.3231 105.45 82.3624H105.362V82.038L108.238 81.5957H108.384L107.211 85.6946L107.181 85.6799ZM123.453 87.9358C123.365 88.2749 123.306 88.4961 123.306 88.6288C123.306 88.8204 123.394 88.9531 123.541 88.9531C123.893 88.9531 124.392 88.4666 124.803 87.7588L125.067 87.9358C124.509 88.9826 123.394 89.8378 122.587 89.8378C122.191 89.8378 121.942 89.5282 121.942 89.0564C121.942 88.6288 121.986 88.3781 122.264 87.4492L122.338 87.228C120.841 89.0711 119.785 89.8526 118.699 89.8526C117.848 89.8526 117.202 88.9826 117.202 87.8178C117.202 85.0606 119.99 81.5809 122.22 81.5809C122.925 81.5809 123.482 82.0822 123.6 82.8195L123.908 81.7874L125.302 81.5809L123.453 87.9653V87.9358ZM123.13 84.4708C123.247 84.0138 123.321 83.5714 123.321 83.2028C123.321 82.4214 122.91 81.8906 122.279 81.8906C121.384 81.8906 120.504 82.7162 119.609 84.3824C118.934 85.6504 118.611 86.6235 118.611 87.464C118.611 88.3044 119.007 88.8057 119.653 88.8057C120.298 88.8057 120.9 88.4076 121.634 87.5377C122.338 86.6972 122.646 86.1517 122.881 85.3113L123.13 84.4708ZM131.303 87.5229C131.112 88.2454 131.053 88.4666 131.053 88.7467C131.053 88.8942 131.126 88.9974 131.215 88.9974C131.449 88.9974 131.992 88.5108 132.608 87.7588L132.872 87.921C132.11 89.0564 131.097 89.8231 130.378 89.8231C129.953 89.8231 129.689 89.5429 129.689 89.0711C129.689 88.7615 129.806 88.1422 129.997 87.5082L132.535 78.691C132.652 78.2929 132.652 78.2634 132.652 78.116C132.652 77.7916 132.432 77.6147 132.066 77.6147C131.919 77.6147 131.743 77.6294 131.449 77.6737V77.3345L134.208 76.9217H134.354L131.303 87.5377V87.5229Z" fill="white"/>
</g>
<defs>
<clipPath id="clip0_243_879">
<rect width="135" height="90" fill="white"/>
</clipPath>
</defs>
</svg>
