<svg width="212" height="64" viewBox="0 0 212 64" fill="none" xmlns="http://www.w3.org/2000/svg">
<g clip-path="url(#clip0_243_888)">
<path d="M124.635 26.4778C124.635 27.5524 123.571 28.4156 122.241 28.4156C120.912 28.4156 119.866 27.5524 119.866 26.4778C119.866 25.4032 120.912 24.5224 122.241 24.5224C123.571 24.5224 124.635 25.3856 124.635 26.4778ZM110.682 26.4778C110.682 25.3856 109.619 24.5224 108.307 24.5224C106.995 24.5224 105.931 25.3856 105.931 26.4778C105.931 27.57 106.977 28.4156 108.307 28.4156C109.636 28.4156 110.682 27.5524 110.682 26.4778ZM104.832 26.3368C104.832 25.2623 103.768 24.3814 102.438 24.3814C101.109 24.3814 100.063 25.2446 100.063 26.3368C100.063 27.4291 101.127 28.2746 102.438 28.2746C103.75 28.2746 104.832 27.4114 104.832 26.3368ZM209.13 1.60357L194.858 6.94131C189.593 9.47806 192.554 15.8375 195.479 15.9961L205.354 16.8769C205.726 16.8769 207.392 17.2821 206.276 18.5152L176.243 18.5857H167.645L167.574 0.106186H162.947V22.3556H205.761C212.427 22.3908 214.821 14.8158 207.517 13.1775L196.986 11.9796C195.337 10.9578 196.702 10.2884 196.702 10.2884L209.041 5.99003L209.112 1.6388L209.13 1.60357ZM140.963 21.9328H145.856V0.000488281H140.963V21.9152V21.9328ZM158.78 9.00241H154.401V25.1037C154.437 25.5441 153.816 26.6011 152.54 26.5659H149.349V29.8777H154.277C156.582 29.772 158.479 28.1866 158.816 26.4425M158.656 5.51439C158.656 4.42218 157.592 3.55898 156.263 3.55898C154.933 3.55898 153.887 4.42218 153.887 5.51439C153.887 6.6066 154.933 7.45218 156.263 7.45218C157.592 7.45218 158.656 6.58898 158.656 5.51439ZM129.315 20.5235C129.315 21.4924 129.209 22.4613 127.471 22.4613L95.5243 22.426V27.2C95.5243 28.6446 93.8755 30.8466 91.9608 30.8466H85.8798V27.3057H89.5851C91.358 27.3586 91.7303 26.8125 91.7303 25.8084V22.567H85.9153L85.8444 13.3184C85.7203 10.8697 88.291 8.43869 89.9752 8.40346H93.1841H95.6661V11.8739V14.7277V16.0489V18.6561H108.909L108.945 9.17858H112.562V18.6033L125.238 18.5857V9.07288H129.351V20.5411L129.315 20.5235ZM91.3935 11.9796H90.5248C89.8688 11.9796 89.6561 12.4376 89.6561 12.8252V18.6561H91.3758V11.9796H91.3935ZM95.8257 59.8078C94.4074 60.4596 92.2267 60.8824 90.0461 60.8824C83.451 60.8824 79.6039 56.8483 79.6039 50.4888C79.6039 43.6889 83.8588 39.8133 90.2411 39.8133C92.5104 39.8133 94.4074 40.2713 95.7016 40.8879L96.588 38.1574C95.6661 37.6994 93.4677 37.0123 90.117 37.0123C81.6604 37.0123 75.8809 42.4558 75.8809 50.5945C75.8809 58.7332 81.625 63.7186 89.3015 63.7186C92.6168 63.7186 95.2406 63.1021 96.4994 62.4855L95.8079 59.7902L95.8257 59.8078ZM114.352 51.8981C114.352 48.1811 112.898 44.3055 106.871 44.3055C104.406 44.3055 102.013 44.9573 100.4 45.9086L101.215 48.1811C102.598 47.3002 104.495 46.807 106.357 46.807C110.363 46.7718 110.806 49.5727 110.806 51.1054V51.4929C103.236 51.4577 99.0346 53.9064 99.0346 58.3985C99.0346 61.0762 101.056 63.7362 105.027 63.7362C107.81 63.7362 109.955 62.4326 111.019 60.9705H111.143L111.462 63.3134H114.654C114.459 62.0451 114.37 60.4772 114.37 58.8565V51.9157L114.352 51.8981ZM110.877 57.0421C110.877 57.3944 110.842 57.7643 110.718 58.1166C110.15 59.6845 108.484 61.2171 105.913 61.2171C104.14 61.2171 102.598 60.213 102.598 57.9933C102.598 54.382 107.012 53.7302 110.895 53.8183V57.0421H110.877ZM118.731 62.415C120.114 63.1725 122.082 63.7186 124.227 63.7186C128.801 63.7186 131.514 61.4109 131.514 58.1166C131.514 55.3157 129.741 53.695 126.372 52.5147C123.819 51.5986 122.702 50.9116 122.702 49.3261C122.702 47.952 123.837 46.7894 125.929 46.7894C127.755 46.7894 129.173 47.4412 129.936 47.864L130.787 45.4505C129.741 44.7987 128.003 44.3055 126.018 44.3055C121.851 44.3055 119.263 46.7541 119.263 49.7489C119.263 51.9686 120.93 53.783 124.475 54.9986C127.064 55.9146 128.074 56.7954 128.074 58.4161C128.074 60.0368 126.869 61.1819 124.316 61.1819C122.543 61.1819 120.681 60.4948 119.582 59.8783L118.731 62.415ZM149.863 51.8981C149.863 48.1811 148.409 44.3055 142.381 44.3055C139.917 44.3055 137.524 44.9573 135.91 45.9086L136.726 48.1811C138.109 47.3002 140.006 46.807 141.867 46.807C145.874 46.7718 146.317 49.5727 146.317 51.1054V51.4929C138.747 51.4577 134.545 53.9064 134.545 58.3985C134.545 61.0762 136.566 63.7362 140.537 63.7362C143.321 63.7362 145.466 62.4326 146.53 60.9705H146.654L146.973 63.3134H150.164C149.969 62.0451 149.881 60.4772 149.881 58.8565V51.9157L149.863 51.8981ZM146.388 57.0421C146.388 57.3944 146.353 57.7643 146.228 58.1166C145.661 59.6845 143.995 61.2171 141.424 61.2171C139.651 61.2171 138.109 60.213 138.109 57.9933C138.109 54.382 142.523 53.7302 146.406 53.8183V57.0421H146.388ZM164.258 63.2958H167.787V52.9375C168.602 53.1312 169.559 53.1665 170.623 53.1665C174.062 53.1665 177.094 52.2152 178.956 50.3302C180.374 48.9914 181.101 47.1417 181.101 44.7987C181.101 42.4558 180.179 40.6237 178.672 39.3905C177.059 38.0165 174.506 37.2413 171.031 37.2413C168.194 37.2413 165.978 37.4703 164.276 37.7874V63.2958H164.258ZM167.787 40.1656C168.389 40.0423 169.559 39.9014 171.102 39.9014C174.984 39.9014 177.537 41.5573 177.537 45.0101C177.537 48.4629 174.984 50.4888 170.694 50.4888C169.559 50.4888 168.549 50.4183 167.787 50.2245V40.1656ZM187.199 41.3107C188.618 41.3107 189.504 40.3242 189.504 39.1263C189.504 37.9284 188.618 36.9771 187.235 36.9771C185.852 36.9771 184.93 37.9284 184.93 39.1263C184.93 40.3242 185.817 41.3107 187.146 41.3107H187.182H187.199ZM185.462 63.2958H189.026V44.7283H185.462V63.2958ZM211.311 44.7283H207.747V56.0908C207.747 56.7426 207.623 57.3591 207.428 57.8172C206.79 59.3498 205.123 60.9176 202.748 60.9176C199.556 60.9176 198.386 58.5042 198.386 54.9633V44.7283H194.823V55.5799C194.823 62.0627 198.51 63.7186 201.577 63.7186C205.052 63.7186 207.162 61.7632 208.048 60.2658H208.137L208.35 63.2958H211.506C211.381 61.8337 211.346 60.1425 211.346 58.24V44.7283H211.311ZM54.5 54.3644V30.4414C54.5 30.4414 54.8191 24.0996 46.8412 24.0996H26.7369C26.7369 24.0996 24.3789 24.0643 24.3789 22.0032V8.91433H8.58265V32.8373C8.58265 32.8373 8.26353 39.1791 16.2415 39.1791H36.3458C36.3458 39.1791 38.7037 39.232 38.7037 41.2755V54.3644H54.4646H54.5ZM58.4358 2.27299C59.8364 2.27299 60.9887 3.34758 60.9887 4.68642V59.2969C60.9887 60.6358 59.8541 61.7104 58.4358 61.7104H4.94826C3.5477 61.7104 2.39533 60.6358 2.39533 59.2969V4.70404C2.39533 3.3652 3.52997 2.29061 4.94826 2.29061H58.4003L58.4358 2.27299ZM58.4358 64.0005C61.166 64.0005 63.3821 61.9041 63.3821 59.3145V4.70404C63.3821 2.11444 61.166 0.000488281 58.4358 0.000488281H4.94826C2.21804 0.000488281 0.00195312 2.11444 0.00195312 4.70404V59.3145C0.00195312 61.9041 2.21804 64.0005 4.94826 64.0005H58.4003" fill="white"/>
</g>
<defs>
<clipPath id="clip0_243_888">
<rect width="212" height="64" fill="white"/>
</clipPath>
</defs>
</svg>
