<?xml version="1.0" encoding="UTF-8"?><svg id="Layer_2" xmlns="http://www.w3.org/2000/svg" viewBox="0 0 36.49 35.61"><defs><style>.cls-1{fill:#b39362;stroke-width:0px;}</style></defs><g id="Layer_1-2"><path class="cls-1" d="m19.28,10.81c.73,0,1.33.6,1.33,1.33s-.6,1.33-1.33,1.33-1.33-.6-1.33-1.33.6-1.33,1.33-1.33m0,3.76c1.34,0,2.43-1.09,2.43-2.43s-1.09-2.43-2.43-2.43-2.43,1.09-2.43,2.43,1.09,2.43,2.43,2.43m6.95-3.76c.73,0,1.33.6,1.33,1.33s-.6,1.33-1.33,1.33-1.33-.6-1.33-1.33.6-1.33,1.33-1.33m0,3.76c1.34,0,2.43-1.09,2.43-2.43s-1.09-2.43-2.43-2.43-2.43,1.09-2.43,2.43,1.09,2.43,2.43,2.43m-3.47-9.96c4.15,0,7.53,3.38,7.53,7.53s-3.38,7.53-7.53,7.53-7.53-3.38-7.53-7.53,3.38-7.53,7.53-7.53m0,16.16c4.76,0,8.63-3.87,8.63-8.63s-3.87-8.63-8.63-8.63-8.63,3.87-8.63,8.63,3.87,8.63,8.63,8.63M33.75,0H11.95c-1.51,0-2.74,1.23-2.74,2.74v6.23c0,.3.25.55.55.55s.55-.25.55-.55V2.74c0-.9.74-1.64,1.64-1.64h21.8c.9,0,1.64.74,1.64,1.64v18.73c0,.9-.74,1.64-1.64,1.64H15.59c-.3,0-.55.25-.55.55s.25.55.55.55h18.16c1.51,0,2.74-1.23,2.74-2.74V2.74c0-1.51-1.23-2.74-2.74-2.74M1.1,23.02v-5.6h10.86v5.6c0,1.66-1.35,3.01-3.01,3.01h-4.84c-1.66,0-3.01-1.35-3.01-3.01m1.42-10.04c0-.55.45-1,1-1s1,.45,1,1v3.34h-2.01v-3.34Zm6.02,0c0-.55.45-1,1-1s1.01.45,1.01,1v3.34h-2.01v-3.34Zm12.04,13.05c-.3,0-.55.25-.55.55v1.46c0,3.57-2.9,6.47-6.47,6.47s-6.47-2.9-6.47-6.47v-.91h1.87c2.27,0,4.11-1.84,4.11-4.11v-5.69c0-.56-.45-1.01-1.01-1.01h-.41v-3.34c0-1.16-.94-2.1-2.1-2.1s-2.1.94-2.1,2.1v3.34h-1.81v-3.34c0-1.16-.94-2.1-2.1-2.1s-2.1.94-2.1,2.1v3.34h-.4c-.56,0-1.01.45-1.01,1.01v5.69c0,2.27,1.84,4.11,4.11,4.11h1.87v.91c0,4.17,3.4,7.57,7.57,7.57s7.57-3.4,7.57-7.57v-1.46c0-.3-.25-.55-.55-.55"/></g></svg>