<?xml version="1.0" encoding="UTF-8"?><svg id="Layer_2" xmlns="http://www.w3.org/2000/svg" viewBox="0 0 37.65 32.49"><defs><style>.cls-1{fill:#bb9962;stroke-width:0px;}</style></defs><g id="Layer_1-2"><path class="cls-1" d="m15.99,4.03c-.87-.07-1.79-.11-2.73-.11-4.39,0-7.09.77-7.52,1.24.42.47,3.12,1.24,7.52,1.24.85,0,1.69-.03,2.49-.09.35-.02.61.22.64.55.02.33-.22.61-.55.63-.83.06-1.7.09-2.58.09s-8.73-.07-8.73-2.42,7.84-2.42,8.73-2.42c.97,0,1.92.04,2.83.11.33.03.57.31.54.64-.03.33-.32.57-.64.54m-5.99,6.14c-2.08-.2-4.07-.58-5.72-1.15v8.32c0,.62.51,1.13,1.13,1.13s1.13-.51,1.13-1.13v-3.73c0-.28.19-.51.46-.58.27-.06.54.07.67.31.26.53.82,1.25,1.19,1.25.62,0,1.13-.51,1.13-1.13v-3.3Zm10.99,20.17c.32-.09.64.09.73.4.09.31-.09.64-.41.73-2.32.67-5.1,1.02-8.06,1.02-6.43,0-13.26-1.81-13.26-5.16V5.16C0,1.81,6.83,0,13.26,0,14.61,0,15.94.08,17.22.22c.33.04.56.33.52.66-.04.33-.33.55-.66.52-1.23-.14-2.52-.22-3.82-.22C6.14,1.18,1.18,3.28,1.18,5.16c0,.84,1,1.72,2.73,2.44,0,0,0,0,0,0,1.62.68,3.89,1.2,6.61,1.42.02,0,.04-.01.06-.01.06,0,.1.02.15.03.8.06,1.64.09,2.51.09,1.08,0,2.15-.05,3.19-.15.35-.03.62.21.65.53.03.32-.21.61-.53.64-1.07.1-2.18.15-3.3.15-.69,0-1.38-.02-2.07-.07v3.21c0,1.27-1.04,2.31-2.32,2.31-.43,0-.81-.19-1.14-.44v2c0,1.27-1.04,2.31-2.32,2.31s-2.32-1.04-2.32-2.31v-8.79c-.75-.34-1.41-.72-1.91-1.15v19.93c0,1.88,4.96,3.98,12.07,3.98,2.81,0,5.55-.35,7.73-.97m10.9-22.19c0-3.79.98-5.75,2.68-6.97h-2.19c-.41.49-1.53,1.99-2.02,4.37-.05.25-.26.43-.51.47-.24.03-.49-.1-.61-.33-.7-1.42-.6-3.45-.48-4.51h-5.18c-.14.46-.39,1.31-.71,2.5-.06.2-.21.36-.42.42-.21.06-.42,0-.57-.15-.09-.09-.24-.25-1-2.36-.81.75-2.14,2.29-2.14,4.41,0,2.56,1.23,4.07,1.66,4.52h11.49v-2.36m-.94,6.16c.81-.18,1.33-.95,1.18-1.76l-.15-.85h-11.33l-.15.85c-.15.81.37,1.59,1.18,1.76l1.92.42c.53.12.98.43,1.27.89.29.46.38,1,.26,1.52-.05.14-2.05,5.14-2.05,8.66,0,2.73,2.4,4.47,3.23,4.99.83-.52,3.23-2.27,3.23-4.99,0-3.51-2-8.52-2.02-8.57-.15-.61-.06-1.15.23-1.61.29-.46.74-.77,1.27-.89l1.92-.42M37.05,0c.29,0,.54.21.58.49.05.28-.11.56-.38.66-2.71.98-4.19,2.38-4.19,7.01v2.95s0,0,0,0l.22,1.23c.26,1.44-.66,2.81-2.09,3.13l-1.92.42c-.22.05-.4.18-.52.36-.12.19-.16.41-.11.63.06.13,2.07,5.18,2.07,8.92,0,3.99-3.97,6.11-4.14,6.2-.09.05-.18.07-.28.07s-.19-.02-.28-.07c-.17-.09-4.14-2.21-4.14-6.2,0-3.74,2.02-8.8,2.1-9.01.02-.13-.02-.35-.14-.54-.12-.19-.31-.32-.52-.36l-1.92-.42c-1.44-.31-2.36-1.69-2.1-3.13l.19-1.04c-.57-.61-1.96-2.37-1.96-5.31,0-3.67,3.14-5.8,3.28-5.89.15-.1.35-.13.52-.07.18.06.31.19.37.37.15.43.32.9.47,1.32.24-.85.39-1.3.39-1.3.08-.24.31-.41.57-.41h6.3c.18,0,.34.08.46.21.11.13.16.31.13.48,0,.02-.21,1.16-.16,2.4.78-1.87,1.76-2.87,1.82-2.93.11-.11.26-.17.42-.17h4.95"/></g></svg>