<?xml version="1.0" encoding="UTF-8"?><svg id="Layer_2" xmlns="http://www.w3.org/2000/svg" viewBox="0 0 38.14 40.35"><defs><style>.cls-1{fill:#ba9961;stroke-width:0px;}</style></defs><g id="Layer_1-2"><path class="cls-1" d="m36.6,39.25h-2.17V.55c0-.3-.25-.55-.55-.55H3.03c-.3,0-.55.25-.55.55v38.7H.55c-.3,0-.55.25-.55.55s.25.55.55.55h2.48c.3,0,.55-.25.55-.55V1.1h29.75v38.7c0,.3.25.55.55.55h2.72c.3,0,.55-.25.55-.55s-.25-.55-.55-.55Z"/><path class="cls-1" d="m6.25,40.35h24.54V6.43H6.25v33.91ZM19.07,7.54h10.62v31.71h-10.62V7.54Zm-11.72,0h10.62v31.72H7.35V7.53Z"/><path class="cls-1" d="m11.68,3.74c0-.52-.42-.94-.94-.94s-.94.42-.94.94.42.94.94.94.94-.42.94-.94Z"/><path class="cls-1" d="m14.81,3.74c0-.52-.42-.94-.94-.94s-.94.42-.94.94.42.94.94.94.94-.42.94-.94Z"/><path class="cls-1" d="m17.95,3.74c0-.52-.42-.94-.94-.94s-.94.42-.94.94.42.94.94.94.94-.42.94-.94Z"/><path class="cls-1" d="m21.08,3.74c0-.52-.42-.94-.94-.94s-.94.42-.94.94.42.94.94.94.94-.42.94-.94Z"/><path class="cls-1" d="m24.22,3.74c0-.52-.42-.94-.94-.94s-.94.42-.94.94.42.94.94.94.94-.42.94-.94Z"/><path class="cls-1" d="m27.35,3.74c0-.52-.42-.94-.94-.94s-.94.42-.94.94.42.94.94.94.94-.42.94-.94Z"/><path class="cls-1" d="m37.2,22.05c.52,0,.94-.42.94-.94s-.42-.94-.94-.94-.94.42-.94.94.42.94.94.94Z"/><path class="cls-1" d="m37.2,24.4c-.52,0-.94.42-.94.94s.42.94.94.94.94-.42.94-.94-.42-.94-.94-.94Z"/><path class="cls-1" d="m13.16,18.16c-.1-.17-.28-.27-.48-.27s-.38.1-.48.27l-2.86,4.96c-.1.17-.1.38,0,.55.1.17.28.28.48.28h5.72c.2,0,.38-.11.48-.28.1-.17.1-.38,0-.55l-2.86-4.96Zm-2.39,4.68l1.91-3.3,1.91,3.3h-3.82Z"/><path class="cls-1" d="m27.27,17.89h-5.72c-.2,0-.38.1-.48.28-.1.17-.1.38,0,.55l2.86,4.95c.1.17.28.28.48.28s.38-.1.48-.28l2.86-4.95c.1-.17.1-.38,0-.55-.1-.17-.28-.28-.48-.28Zm-2.86,4.4l-1.91-3.3h3.82l-1.91,3.3Z"/></g></svg>