<?xml version="1.0" encoding="UTF-8"?><svg id="Layer_2" xmlns="http://www.w3.org/2000/svg" viewBox="0 0 40.31 35.43"><defs><style>.cls-1{fill:#bb9962;stroke-width:0px;}</style></defs><g id="Layer_1-2"><path class="cls-1" d="m7.11,11.55c-.29,0-.53-.24-.53-.53s.24-.53.53-.53h6.62c.25,0,.47.18.52.42l2.11,10.25c.03.16,0,.32-.11.44-.1.12-.25.2-.41.2h-2.81c-.29,0-.53-.24-.53-.53s.24-.53.53-.53h2.16l-1.89-9.19h-6.19m5.07,15.75c-.19-.23-.52-.26-.75-.07-.23.19-.26.52-.07.75.09.11,2.25,2.69,5.36,2.75h0c.29,0,.53-.23.53-.52,0-.29-.23-.54-.52-.54-2.61-.04-4.53-2.33-4.55-2.36m26.98-2.94l-1.27-9.23h-2.86s-.05-.01-.07-.01c-.02,0-.04.01-.07.01h-2.86l-1.27,9.23h4.1s.07.01.1.02c.04,0,.07-.02.11-.02h4.1Zm-2.18,1.06h-1.91s-.07-.01-.11-.02c-.03,0-.07.02-.1.02h-1.91v2.11c0,.74.6,1.34,1.34,1.34h1.35c.74,0,1.34-.6,1.34-1.34v-2.11ZM13.56,3c.61.46,2.85,1.92,6.59,1.92s5.98-1.46,6.59-1.92v-1.94h-13.18v1.94ZM3.33,27.53c0,.74.6,1.34,1.35,1.34h1.35c.74,0,1.34-.6,1.34-1.34v-2.11h-1.91s-.07-.01-.11-.02c-.04,0-.07.02-.11.02h-1.91v2.11m-2.19-3.17h4.1s.07.01.11.02c.04,0,.07-.02.11-.02h4.1l-1.28-9.23h-2.86s-.05-.01-.07-.01c-.03,0-.05.01-.07.01h-2.86l-1.28,9.23Zm39.16.46c.02.15-.02.31-.13.42-.1.12-.25.18-.4.18h-1.73v2.11c0,1.33-1.08,2.41-2.41,2.41h-.24c-.3,3.07-2.87,5.49-6.02,5.49h-3.67c-2.48,0-4.6-1.49-5.55-3.62-.95,2.13-3.08,3.62-5.55,3.62h-3.67c-3.15,0-5.72-2.42-6.03-5.49h-.24c-1.33,0-2.41-1.08-2.41-2.41v-2.11H.53c-.15,0-.3-.07-.4-.18-.1-.11-.15-.27-.13-.42l1.42-10.3c.04-.26.26-.46.53-.46h3.32s.05.01.07.01c.02,0,.05-.01.07-.01h3.32c.27,0,.49.2.53.46l1.42,10.3c.02.15-.03.31-.12.42-.1.12-.25.18-.4.18h-1.73v2.11c0,1.33-1.08,2.41-2.41,2.41h-.05c.3,2.49,2.39,4.43,4.96,4.43h3.67c2.77,0,5.02-2.25,5.02-5.02V5.96c-4.5-.16-6.85-2.22-6.95-2.31l-.17-.16V0h15.31v3.49l-.17.16c-.1.09-2.45,2.15-6.95,2.31v23.39c0,2.77,2.25,5.02,5.02,5.02h3.67c2.57,0,4.66-1.94,4.96-4.43h-.05c-1.33,0-2.41-1.08-2.41-2.41v-2.11h-1.73c-.15,0-.3-.07-.4-.18-.1-.11-.15-.27-.13-.42l1.42-10.3c.04-.26.26-.46.53-.46h3.32s.05.01.07.01c.03,0,.05-.01.07-.01h3.32c.26,0,.49.2.53.46l1.42,10.3Zm-14.25-13.91l-2.11,10.25c-.03.16,0,.32.11.44.1.12.25.2.41.2h2.81c.29,0,.53-.24.53-.53s-.24-.53-.53-.53h-2.16l1.89-9.19h6.19c.29,0,.53-.24.53-.53s-.24-.53-.53-.53h-6.62c-.25,0-.47.18-.52.42m2.07,16.39s-1.95,2.32-4.55,2.36c-.29,0-.53.25-.52.54,0,.29.24.52.53.52h0c3.1-.05,5.26-2.64,5.36-2.75.19-.23.16-.56-.07-.75-.23-.18-.56-.15-.75.07"/></g></svg>