<?xml version="1.0" encoding="UTF-8"?><svg id="Layer_2" xmlns="http://www.w3.org/2000/svg" viewBox="0 0 32.79 38.63"><defs><style>.cls-1{fill:#bb9962;stroke-width:0px;}</style></defs><g id="Layer_1-2"><path class="cls-1" d="m31.73,37.57H1.06V1.06h30.66v36.5Zm.53-37.57H.53C.24,0,0,.24,0,.53v37.57c0,.29.24.53.53.53h31.73c.29,0,.53-.24.53-.53V.53c0-.29-.24-.53-.53-.53M15.8,22.35c0-.29-.24-.53-.53-.53s-.53.24-.53.53v12.23H4.39V4.05h10.35v10.13c0,.29.24.53.53.53s.53-.24.53-.53V2.99H3.33v32.65h12.47v-13.3Zm12.59,12.23h-10.34V4.05h10.34v30.53Zm1.06-31.59h-12.47v32.65h12.47V2.99Zm-14.56,15.27l-4.1,3.12c-.13.1-.3.15-.46.12-.17-.02-.31-.11-.41-.24-.1-.13-.14-.3-.12-.46.02-.17.11-.31.24-.41l4.11-3.12c.11-.09.24-.13.38-.13.19,0,.38.09.5.25.21.28.15.67-.12.88m-1.4-1.84l-4.11,3.11c-.36.27-.59.67-.65,1.12-.06.45.06.89.33,1.25.27.36.67.59,1.12.65.08.01.15.01.23.01.36,0,.72-.12,1.02-.34l4.1-3.12c.74-.56.89-1.62.32-2.37-.56-.74-1.63-.89-2.37-.32m7.57,8.52c.14,0,.27-.05.38-.16l4.41-4.46c.21-.21.21-.55,0-.75-.21-.21-.55-.21-.75,0l-4.41,4.46c-.2.21-.2.55,0,.75.1.1.24.15.37.15m0,4.14c.14,0,.27-.05.38-.16l4.41-4.46c.21-.21.21-.55,0-.75-.21-.21-.55-.21-.75,0l-4.41,4.46c-.2.21-.2.55,0,.75.1.1.24.15.37.15"/></g></svg>