<?xml version="1.0" encoding="UTF-8"?><svg id="Layer_2" xmlns="http://www.w3.org/2000/svg" viewBox="0 0 39 33.63"><defs><style>.cls-1{fill:#bb9962;stroke-width:0px;}</style></defs><g id="Layer_1-2"><path class="cls-1" d="m11.45,17.43c-.23.06-.39.27-.39.51v14.63h-5.46v-14.63c0-.24-.16-.45-.39-.51-.17-.05-4.14-1.19-4.14-5.85,0-3.53,2.25-4.86,3.38-5.3v4.69c0,1.21.98,2.19,2.19,2.19h3.39c1.2,0,2.19-.98,2.19-2.19v-4.69c1.13.44,3.38,1.76,3.38,5.3,0,4.66-3.97,5.8-4.14,5.85m5.21-5.85c0-5.52-4.83-6.53-4.88-6.54-.15-.03-.31.01-.44.11-.12.1-.2.25-.2.41v5.41c0,.62-.5,1.12-1.12,1.12h-3.39c-.62,0-1.12-.5-1.12-1.12v-5.41c0-.16-.07-.31-.19-.41-.12-.1-.28-.14-.44-.11-.05.01-4.88,1.02-4.88,6.54,0,4.56,3.37,6.28,4.53,6.74v14.78c0,.29.24.53.53.53h6.53c.29,0,.53-.24.53-.53v-14.78c1.17-.46,4.53-2.18,4.53-6.74m1.44,6.13h7.52v7.53h-7.52v-7.53Zm8.06,8.59c.29,0,.53-.24.53-.53v-8.59c0-.29-.24-.53-.53-.53h-8.59c-.29,0-.53.24-.53.53v8.59c0,.29.24.53.53.53h8.59Zm12.19-13.1L22.19.12c-.2-.16-.47-.16-.67,0l-5.35,4.32c-.23.19-.26.52-.08.75.18.23.52.26.75.08l5.02-4.05,15.82,12.81c.36.29.26.67.22.78-.04.11-.2.47-.66.47h-2.85c-.29,0-.53.24-.53.53v15.59c0,.65-.53,1.17-1.17,1.17H15.07c-.29,0-.53.24-.53.53s.24.53.53.53h17.61c1.24,0,2.24-1,2.24-2.24v-15.05h2.32c.76,0,1.41-.46,1.66-1.18.25-.72.04-1.49-.55-1.96"/></g></svg>