<?xml version="1.0" encoding="UTF-8"?><svg id="Layer_2" xmlns="http://www.w3.org/2000/svg" viewBox="0 0 32.79 38.99"><defs><style>.cls-1{fill:#bb9962;stroke-width:0px;}</style></defs><g id="Layer_1-2"><path class="cls-1" d="m18.68,8.69c-.22-.11-.49-.07-.66.12l-4.21,4.56c-.12.13-.17.31-.15.49.03.18.13.33.28.42l1.16.67-.6,3.61c-.04.25.08.5.3.61.08.04.17.06.25.06.15,0,.3-.06.41-.18l4.08-4.43c.11-.12.16-.27.15-.43,0-.16-.08-.31-.2-.41l-1.08-.93.57-3.55c.04-.25-.08-.5-.31-.61Zm-2.75,8.18l.35-2.13c.04-.24-.07-.48-.28-.6l-.88-.5,2.45-2.65-.32,2.02c-.03.2.04.41.2.54l.87.74-2.39,2.59Zm-9.15,1.49v-9.4c0-1.62,1.28-2.93,2.85-2.93h1.71c.31,0,.56.26.56.58s-.25.58-.56.58h-1.71c-.95,0-1.72.79-1.72,1.77v9.4c0,.98.77,1.77,1.72,1.77h14.14c.95,0,1.72-.79,1.72-1.77v-9.4c0-.98-.77-1.77-1.72-1.77h-9.95c-.31,0-.56-.26-.56-.58s.25-.58.56-.58h9.95c1.57,0,2.85,1.32,2.85,2.93v9.4c0,1.62-1.28,2.93-2.85,2.93h-14.14c-1.57,0-2.85-1.32-2.85-2.93ZM29.54,0H3.87C2.08,0,.62,1.5.62,3.34v2.87c-.37.35-.62.83-.62,1.39v4.87c0,.56.24,1.04.62,1.39v8.07c-.37.35-.62.83-.62,1.39v4.87c0,.56.24,1.04.62,1.39v3.01c0,1.84,1.46,3.34,3.25,3.34h5.62v2.48c0,.32.25.58.57.58s.56-.26.56-.58v-2.48h1.27v2.48c0,.32.25.58.56.58s.56-.26.56-.58v-2.48h1.27v2.48c0,.32.25.58.56.58s.56-.26.56-.58v-2.48h1.27v2.48c0,.32.25.58.56.58s.56-.26.56-.58v-2.48h1.27v2.48c0,.32.25.58.57.58s.56-.26.56-.58v-2.48h4.81v2.48c0,.32.25.58.56.58s.56-.26.56-.58v-2.48h3.4c1.79,0,3.25-1.5,3.25-3.34V3.34c0-1.84-1.46-3.34-3.25-3.34ZM1.13,7.6c0-.4.32-.73.71-.73h1.05c.39,0,.7.33.7.73v4.87c0,.4-.32.73-.7.73h-1.05c-.39,0-.71-.33-.71-.73v-4.87Zm1.89,6.73v7.13s-.08-.03-.13-.03h-1.05s-.06.02-.09.02v-7.11s.06.02.09.02h1.05s.08-.02.13-.03Zm-1.89,13.86v-4.87c0-.4.32-.73.71-.73h1.05c.39,0,.7.33.7.73v4.87c0,.4-.32.73-.7.73h-1.05c-.39,0-.71-.33-.71-.73Zm30.53,4.4c0,1.2-.95,2.18-2.12,2.18H3.87c-1.17,0-2.12-.98-2.12-2.18v-2.53s.06.02.09.02h1.05s.08-.02.13-.03v1.78c0,.78.62,1.42,1.38,1.42h24.62c.76,0,1.38-.64,1.38-1.42V4.1c0-.78-.62-1.42-1.38-1.42H4.39c-.76,0-1.38.64-1.38,1.42v1.64s-.08-.03-.13-.03h-1.05s-.06.02-.09.02v-2.39c0-1.2.95-2.18,2.12-2.18h25.67c1.17,0,2.12.98,2.12,2.18v29.24ZM4.14,21.96v-8.13c.35-.34.58-.82.58-1.36v-4.87c0-.54-.22-1.02-.58-1.36v-2.14c0-.14.11-.26.25-.26h24.62c.14,0,.25.11.25.26v27.72c0,.14-.11.26-.25.26H4.39c-.14,0-.25-.11-.25-.26v-2.28c.35-.34.58-.82.58-1.36v-4.87c0-.54-.22-1.02-.58-1.36Z"/></g></svg>