<?xml version="1.0" encoding="UTF-8"?><svg id="Layer_2" xmlns="http://www.w3.org/2000/svg" viewBox="0 0 37.65 38.48"><defs><style>.cls-1{fill:#bb9962;stroke-width:0px;}</style></defs><g id="Layer_1-2"><path class="cls-1" d="m29.77,19.63c-.3,0-1.04-1.38-1.04-3.94s.74-3.94,1.04-3.94,1.04,1.38,1.04,3.94-.74,3.94-1.04,3.94m-4.9-3.94c0-2.56.74-3.94,1.04-3.94h2.51c-.51.98-.75,2.49-.75,3.94s.24,2.96.75,3.94h-2.51c-.3,0-1.04-1.38-1.04-3.94m-4.28,7.02v1.36c-2.34,1.16-4.66.45-5.61.06v-1.84c0-5.04,4.08-9.14,9.11-9.2-.19.8-.28,1.71-.28,2.6,0,1.06.14,2.15.41,3.05-2.03.2-3.62,1.89-3.62,3.97m-9.18,14.7c-5.06,0-9.18-4.12-9.18-9.18v-5.37c.69.27,1.76.58,3.04.58.86,0,1.82-.16,2.79-.56v5.67c0,1.91,1.55,3.46,3.46,3.46,1.8,0,3.27-1.39,3.43-3.16.69.25,1.7.53,2.88.53.85,0,1.77-.15,2.73-.53-.32,4.77-4.29,8.55-9.14,8.55M5,8.07c1.07,0,2.16-.14,3.06-.41v10.45c-2.52,1.27-5.02.36-5.83,0V7.75c.84.21,1.82.32,2.77.32m-3.94-2.1v-2.51c.98.51,2.48.75,3.94.75s2.96-.24,3.94-.75v2.51c0,.3-1.38,1.04-3.94,1.04s-3.94-.74-3.94-1.04M5,1.06c2.56,0,3.94.74,3.94,1.04s-1.38,1.04-3.94,1.04-3.94-.74-3.94-1.04,1.38-1.04,3.94-1.04m3.06,20.66c-2.52,1.27-5.02.36-5.83,0v-2.45c.69.27,1.76.58,3.04.58.86,0,1.82-.16,2.79-.56v2.43Zm12.53,5.95c-2.35,1.16-4.67.45-5.61.06v-2.46c.69.25,1.69.51,2.85.51.85,0,1.8-.15,2.76-.55v2.43Zm9.18-16.98h-3.86c-.65,0-1.13.54-1.48,1.34h-.26c-5.66,0-10.26,4.6-10.26,10.26v6.27c0,1.32-1.07,2.39-2.39,2.39s-2.39-1.07-2.39-2.39V7.22c.54-.32.88-.74.88-1.26v-3.86c0-1.45-2.59-2.1-5-2.1S0,.66,0,2.1v3.86c0,.6.47,1.06,1.17,1.4v20.87c0,5.65,4.59,10.24,10.24,10.24s10.24-4.59,10.24-10.24v-5.52c0-1.62,1.32-2.95,2.95-2.95h.03c.33.57.75.93,1.29.93h3.86c1.45,0,2.1-2.59,2.1-5s-.66-5-2.1-5m6.28,12.26c-.4.13-.9-.02-1.04-.3-.14-.3-.27-.74-.41-1.2-.16-.54-.32-1.08-.53-1.54,1,.19,2.27.65,2.48,1.75.09.49.08,1.11-.5,1.3m1.54-1.5c-.52-2.72-4.6-2.75-4.77-2.75-.26,0-.48.19-.52.44-.04.26.1.51.35.59.38.13.72,1.27.94,2.01.15.5.29.98.47,1.35.28.6.97.96,1.69.96.21,0,.43-.03.64-.1.77-.25,1.49-1.04,1.21-2.51"/></g></svg>