<?xml version="1.0" encoding="UTF-8"?><svg id="Layer_2" xmlns="http://www.w3.org/2000/svg" viewBox="0 0 38.14 42.68"><defs><style>.cls-1{fill:#ba9961;stroke-width:0px;}</style></defs><g id="Layer_1-2"><path class="cls-1" d="m31.31,22.52c1.77-.41,4.85-2.3,6.18-5.2.97-2.13.85-4.47-.37-6.77-3.18-6.02-13.36-6.22-13.79-6.22-.3-.02-.5.22-.51.49,0,.28.22.5.49.51.1,0,10.02.2,12.91,5.69,1.08,2.05,1.19,4.03.34,5.89-1.18,2.59-3.93,4.27-5.49,4.64-.27.06-.44.33-.38.6.05.23.26.39.49.39.04,0,.08,0,.11-.01m-2.56-2.09c.23-.15.3-.46.15-.69-.15-.23-.46-.3-.69-.15-1.57,1.01-6.45,1.71-11.89,1.71s-10.32-.7-11.89-1.71c-.23-.15-.54-.08-.69.15-.15.23-.08.54.15.69,1.74,1.12,6.74,1.87,12.43,1.87s10.69-.75,12.43-1.87m0,2.88c.23-.15.3-.46.15-.69-.15-.23-.46-.3-.69-.15-1.57,1.01-6.45,1.71-11.89,1.71s-10.32-.7-11.89-1.71c-.23-.15-.54-.08-.69.15-.15.23-.08.54.15.69,1.74,1.12,6.74,1.86,12.43,1.86s10.69-.75,12.43-1.86m0,2.87c.23-.15.3-.46.15-.69-.15-.23-.46-.3-.69-.15-1.57,1.01-6.45,1.71-11.89,1.71s-10.32-.7-11.89-1.71c-.23-.15-.54-.08-.69.15-.15.23-.08.54.15.69,1.74,1.12,6.74,1.87,12.43,1.87s10.69-.75,12.43-1.87m0,2.88c.23-.15.3-.46.15-.69-.15-.23-.46-.3-.69-.15-1.57,1.01-6.45,1.71-11.89,1.71s-10.32-.7-11.89-1.71c-.23-.15-.54-.08-.69.15-.15.23-.08.54.15.69,1.74,1.12,6.74,1.87,12.43,1.87s10.69-.75,12.43-1.87m0,2.87c.23-.15.3-.46.15-.69-.15-.23-.46-.3-.69-.15-1.57,1.01-6.45,1.71-11.89,1.71s-10.33-.7-11.89-1.71c-.23-.15-.54-.08-.69.15-.15.23-.08.54.15.69,1.74,1.12,6.73,1.87,12.43,1.87s10.69-.75,12.43-1.87m0,2.88c.23-.15.3-.46.15-.69-.15-.23-.46-.3-.69-.15-1.57,1.01-6.45,1.71-11.89,1.71s-10.32-.7-11.89-1.71c-.23-.15-.54-.08-.69.15-.15.23-.08.54.15.69,1.74,1.12,6.74,1.87,12.43,1.87s10.69-.75,12.43-1.87m0,2.88c.23-.15.3-.46.15-.69-.15-.23-.46-.3-.69-.15-1.57,1-6.45,1.71-11.89,1.71s-10.32-.7-11.89-1.71c-.23-.15-.54-.08-.69.15-.15.23-.08.54.15.69,1.74,1.12,6.74,1.87,12.43,1.87s10.69-.75,12.43-1.87m-12.43-23.92c-3.01,0-4.63.79-4.63,1.12s1.62,1.12,4.63,1.12,4.63-.79,4.63-1.12-1.62-1.12-4.63-1.12m0,3.24c-2.71,0-5.63-.66-5.63-2.12s2.92-2.12,5.63-2.12,5.63.66,5.63,2.12-2.92,2.12-5.63,2.12m16.33,20.19c0-.97-.64-1.86-1.9-2.66-.23-.15-.54-.08-.69.16-.15.23-.08.54.16.69.65.41,1.43,1.06,1.43,1.81,0,2.13-6.29,4.5-15.32,4.5s-15.32-2.37-15.32-4.5c0-.71.71-1.33,1.3-1.73.23-.15.29-.46.14-.69-.15-.23-.46-.29-.7-.14-1.16.77-1.75,1.63-1.75,2.56,0,3.57,8.41,5.5,16.32,5.5s16.33-1.93,16.33-5.5m0-22.31c0-3.03-6.28-4.87-12.5-5.35-.28-.02-.52.18-.54.46s.18.52.46.54c7.52.58,11.58,2.68,11.58,4.35,0,2.13-6.29,4.5-15.32,4.5S1,17,1,14.88c0-1.63,3.92-3.7,11.2-4.32.27-.02.48-.27.46-.54-.02-.27-.26-.48-.54-.46-5.59.48-12.11,2.16-12.11,5.32,0,3.57,8.41,5.5,16.32,5.5s16.33-1.93,16.33-5.5M18.35.05c-.2-.1-.44-.06-.6.11l-3.84,4.16c-.11.12-.16.28-.14.44.02.16.12.3.26.38l1.06.61-.55,3.29c-.04.23.07.46.28.56.07.04.15.06.23.06.14,0,.27-.06.37-.17l3.72-4.03c.1-.1.15-.25.14-.39,0-.15-.08-.28-.18-.38l-.99-.85.52-3.24c.04-.23-.08-.46-.28-.56m-2.51,7.45l.32-1.94c.04-.22-.06-.44-.25-.55l-.8-.46,2.23-2.42-.3,1.84c-.03.18.04.37.18.49l.79.68-2.18,2.36Z"/></g></svg>