<?xml version="1.0" encoding="UTF-8"?><svg id="Layer_2" xmlns="http://www.w3.org/2000/svg" viewBox="0 0 43.02 37.6"><defs><style>.cls-1{fill:#b39362;stroke-width:0px;}</style></defs><g id="Layer_1-2"><path class="cls-1" d="m9.09,14.32c0,.97-.79,1.76-1.76,1.76s-1.76-.79-1.76-1.76.79-1.76,1.76-1.76,1.76.79,1.76,1.76m-4.76,0c0,1.66,1.35,3,3,3s3-1.35,3-3-1.35-3-3-3-3,1.35-3,3m34.34-7.04c-.34,0-.62.28-.62.62s.28.62.62.62c1.72,0,3.12,1.4,3.12,3.12v15.41c0,1.72-1.4,3.12-3.12,3.12h-5.48c-.34,0-.62.28-.62.62s.28.62.62.62h5.48c2.4,0,4.36-1.96,4.36-4.36v-15.41c0-2.4-1.96-4.36-4.36-4.36M9.85,30.17h-5.49c-1.72,0-3.12-1.4-3.12-3.12v-15.41c0-1.72,1.4-3.12,3.12-3.12h16.66c.34,0,.62-.28.62-.62s-.28-.62-.62-.62H4.36c-2.4,0-4.36,1.96-4.36,4.36v15.41c0,2.4,1.96,4.36,4.36,4.36h5.49c.34,0,.62-.28.62-.62s-.28-.62-.62-.62m0-4.07h-2.87c-.78,0-1.41-.63-1.41-1.41s.63-1.41,1.41-1.41h29.07c.78,0,1.41.64,1.41,1.41s-.63,1.41-1.41,1.41h-2.86c-.34,0-.62.28-.62.62s.28.62.62.62h2.86c1.46,0,2.66-1.19,2.66-2.66s-1.19-2.66-2.66-2.66H6.98c-1.46,0-2.66,1.19-2.66,2.66s1.19,2.66,2.66,2.66h2.87c.34,0,.62-.28.62-.62s-.28-.62-.62-.62m3.2,2.54c0-1.68.82-2.11.87-2.14.31-.14.45-.49.32-.81-.13-.32-.5-.47-.81-.34-.07.03-1.63.71-1.63,3.28,0,1.23.63,2.02,1.24,2.79.65.81,1.25,1.58,1.25,2.98,0,1.54-.86,2-.89,2.01-.31.14-.45.51-.3.83.11.23.33.36.56.36.09,0,.18-.02.26-.06.07-.03,1.61-.78,1.61-3.14,0-1.83-.85-2.89-1.52-3.75-.54-.68-.97-1.22-.97-2.01m5.23,0c0-1.68.82-2.11.87-2.14.31-.14.45-.49.32-.81-.13-.32-.5-.47-.81-.34-.07.03-1.63.71-1.63,3.28,0,1.23.63,2.02,1.24,2.79.65.81,1.25,1.58,1.25,2.98,0,1.54-.86,2-.89,2.01-.31.14-.45.51-.3.83.1.23.33.36.56.36.09,0,.18-.02.26-.06.07-.03,1.61-.78,1.61-3.14,0-1.83-.85-2.89-1.52-3.75-.54-.68-.97-1.22-.97-2.01m5.23,0c0-1.68.82-2.11.87-2.14.31-.14.45-.49.32-.81-.13-.32-.5-.47-.81-.34-.07.03-1.63.71-1.63,3.28,0,1.23.63,2.02,1.24,2.79.65.81,1.26,1.58,1.26,2.98,0,1.54-.86,2-.89,2.01-.31.14-.45.51-.3.83.11.23.33.36.56.36.09,0,.18-.02.26-.06.07-.03,1.61-.78,1.61-3.14,0-1.83-.85-2.89-1.53-3.75-.54-.68-.97-1.22-.97-2.01m5.23,0c0-1.68.82-2.11.87-2.14.31-.14.45-.49.32-.81-.13-.32-.5-.47-.81-.34-.07.03-1.63.71-1.63,3.28,0,1.23.63,2.02,1.24,2.79.65.81,1.25,1.58,1.25,2.98,0,1.54-.86,2-.89,2.01-.31.14-.45.51-.3.83.11.23.33.36.56.36.09,0,.18-.02.26-.06.07-.03,1.61-.78,1.61-3.14,0-1.83-.85-2.89-1.52-3.75-.54-.68-.97-1.22-.97-2.01m-5.04-20.16c-.33-.11-.68.07-.78.4s.07.68.4.78l1.5.49-1.47.85c-.3.17-.4.55-.23.85.11.2.32.31.54.31.11,0,.21-.03.31-.08l1.47-.85-.32,1.54c-.07.34.14.67.48.74.04,0,.09.01.13.01.29,0,.55-.2.61-.49l.55-2.63,2.46-1.42v2.84l-2.01,1.8c-.25.23-.28.62-.05.88.12.14.29.21.46.21.15,0,.3-.05.42-.16l1.17-1.05v1.7c0,.34.28.62.62.62s.62-.28.62-.62v-1.7l1.17,1.05c.12.11.27.16.42.16.17,0,.34-.07.46-.21.23-.25.21-.65-.05-.88l-2-1.8v-2.84l2.46,1.42.55,2.63c.06.29.32.49.61.49.04,0,.09,0,.13-.01.34-.07.55-.4.48-.74l-.32-1.54,1.47.85c.1.06.21.08.31.08.21,0,.42-.11.54-.31.17-.3.07-.68-.23-.85l-1.47-.85,1.5-.49c.33-.11.51-.46.4-.78-.11-.33-.46-.51-.78-.4l-2.56.84-2.46-1.42,2.46-1.42,2.56.84c.06.02.13.03.19.03.26,0,.51-.17.59-.43.11-.33-.07-.68-.4-.78l-1.5-.49,1.47-.85c.3-.17.4-.55.23-.85-.17-.3-.55-.4-.85-.23l-1.47.85.32-1.54c.07-.34-.14-.67-.48-.74-.33-.07-.67.14-.74.48l-.55,2.64-2.46,1.42v-2.84l2-1.8c.26-.23.28-.62.05-.88-.23-.26-.62-.28-.88-.05l-1.17,1.05V.62c0-.34-.28-.62-.62-.62s-.62.28-.62.62v1.7l-1.17-1.05c-.25-.23-.65-.21-.88.05-.23.26-.21.65.05.88l2.01,1.8v2.84l-2.46-1.42-.55-2.64c-.07-.34-.4-.55-.74-.48-.34.07-.55.4-.48.74l.32,1.54-1.47-.85c-.29-.17-.68-.07-.85.23-.17.3-.07.68.23.85l1.47.85-1.5.49c-.33.11-.51.46-.4.78.09.26.33.43.59.43.07,0,.13,0,.19-.03l2.56-.84,2.46,1.42-2.46,1.42-2.56-.84Z"/></g></svg>