<?xml version="1.0" encoding="UTF-8"?><svg id="Layer_2" xmlns="http://www.w3.org/2000/svg" viewBox="0 0 26.84 39.03"><defs><style>.cls-1{fill:#bb9962;stroke-width:0px;}</style></defs><g id="Layer_1-2"><path class="cls-1" d="m24.54,17.69c-.3,0-.55.25-.55.55v7.66c0,1.81-1.17,3.38-2.91,3.91-2.16.66-4.74.99-7.67.99s-5.51-.33-7.67-.99c-1.74-.53-2.91-2.1-2.91-3.91v-7.66c0-.3-.25-.55-.55-.55-.66,0-1.2-.54-1.2-1.27,0-.66.54-1.2,1.2-1.2.3,0,.55-.25.55-.55V6.4c0-.51.2-.96.61-1.37,2.27-2.25,9.46-2.29,9.93-2.29h.03c.09,0,7.62-.02,9.95,2.29.41.41.61.86.61,1.37v8.26c0,.3.25.55.55.55.66,0,1.2.54,1.2,1.27,0,.66-.54,1.2-1.2,1.2m-10.6,15.31h-1.05v-1.12c.18,0,.34.01.52.01s.35-.01.52-.01v1.12Zm.62,4.93h-2.28v-3.83h2.28v3.83ZM11.82,1.1h3.19v.59c-.9-.04-1.51-.04-1.6-.04-.1,0-.7,0-1.59.05v-.59Zm15.01,15.32c0-1.08-.74-1.98-1.75-2.23v-7.78c0-.8-.32-1.53-.94-2.15-1.69-1.68-5.45-2.28-8.04-2.49V.55c0-.3-.25-.55-.55-.55h-4.29c-.3,0-.55.25-.55.55v1.21c-2.59.21-6.34.81-8.04,2.49-.62.62-.94,1.34-.94,2.15v7.78c-1,.25-1.75,1.17-1.75,2.31,0,1.08.75,1.98,1.75,2.22v7.18c0,2.3,1.48,4.29,3.69,4.96,1.85.56,3.99.89,6.36.99v1.15h-.07c-.3,0-.55.25-.55.55v.09h-6.73c-.3,0-.55.25-.55.55s.25.55.55.55h6.73v2.57h-6.73c-.3,0-.55.25-.55.55s.25.55.55.55h6.73v.07c0,.3.25.55.55.55h3.38c.3,0,.55-.25.55-.55v-.07h6.73c.3,0,.55-.25.55-.55s-.25-.55-.55-.55h-6.73v-2.57h6.73c.3,0,.55-.25.55-.55s-.25-.55-.55-.55h-6.73v-.09c0-.3-.25-.55-.55-.55h-.07v-1.15c2.38-.11,4.52-.43,6.36-.99,2.2-.67,3.69-2.67,3.69-4.96v-7.18c1-.25,1.75-1.16,1.75-2.3m-13.42,5.34c-2.17,0-3.94-1.77-3.94-3.94,0-1.67,2.57-4.61,3.94-6,1.37,1.39,3.94,4.33,3.94,6,0,2.17-1.77,3.94-3.94,3.94m.38-11.11c-.21-.2-.55-.2-.76,0-.48.46-4.66,4.53-4.66,7.17,0,2.78,2.26,5.04,5.04,5.04s5.04-2.26,5.04-5.04-4.18-6.71-4.66-7.17m-2.17,7.17c0-.3-.25-.55-.55-.55s-.55.25-.55.55c0,1.59,1.29,2.88,2.89,2.88.3,0,.55-.25.55-.55s-.25-.55-.55-.55c-.98,0-1.78-.8-1.78-1.79"/></g></svg>