<?xml version="1.0" encoding="UTF-8"?><svg id="Layer_2" xmlns="http://www.w3.org/2000/svg" viewBox="0 0 39.43 36.93"><defs><style>.cls-1{fill:#bb9962;stroke-width:0px;}</style></defs><g id="Layer_1-2"><path class="cls-1" d="m38.33,35.83h-5.59v-1.77c0-.3-.25-.55-.55-.55s-.55.25-.55.55v1.77h-5.23v-1.77c0-.3-.25-.55-.55-.55s-.55.25-.55.55v1.77h-5.23v-1.77c0-.3-.25-.55-.55-.55s-.55.25-.55.55v1.77h-5.23v-1.77c0-.3-.25-.55-.55-.55s-.55.25-.55.55v1.77h-5.23v-1.77c0-.3-.25-.55-.55-.55s-.55.25-.55.55v1.77H1.1v-4.87h37.23v4.87Zm.55-5.97H.55c-.3,0-.55.25-.55.55v5.97c0,.3.25.55.55.55h38.33c.3,0,.55-.25.55-.55v-5.97c0-.3-.25-.55-.55-.55m0-7.67H13.58c-4.75,0-8.61-3.86-8.61-8.61s3.86-8.61,8.61-8.61,8.61,3.86,8.61,8.61c0,2.24-.81,4.31-2.29,5.84-.21.22-.2.57.01.78.22.21.57.2.78-.01,1.68-1.74,2.6-4.08,2.6-6.61,0-5.35-4.35-9.71-9.71-9.71S3.87,8.23,3.87,13.58s4.36,9.71,9.71,9.71h24.75v2.77H13.58c-6.88,0-12.48-5.6-12.48-12.48S6.7,1.1,13.58,1.1s12.48,5.6,12.48,12.48c0,2.08-.53,4.14-1.52,5.96-.14.27-.05.6.22.75.26.14.6.05.75-.22,1.08-1.98,1.65-4.22,1.65-6.49C27.16,6.09,21.07,0,13.58,0S0,6.09,0,13.58s6.09,13.58,13.58,13.58h25.3c.3,0,.55-.25.55-.55v-3.87c0-.3-.25-.55-.55-.55m-20.56-8.61c0,2.61-2.12,4.74-4.74,4.74s-4.74-2.12-4.74-4.74,2.13-4.74,4.74-4.74,4.74,2.12,4.74,4.74m-10.57,0c0,3.22,2.62,5.84,5.84,5.84s5.84-2.62,5.84-5.84-2.62-5.84-5.84-5.84-5.84,2.62-5.84,5.84m6.7,0c0,.48-.39.87-.87.87s-.87-.39-.87-.87.39-.87.87-.87.87.39.87.87m-2.83,0c0,1.08.88,1.97,1.97,1.97s1.97-.88,1.97-1.97-.88-1.97-1.97-1.97-1.97.88-1.97,1.97"/></g></svg>