<?xml version="1.0" encoding="UTF-8"?><svg id="Layer_2" xmlns="http://www.w3.org/2000/svg" viewBox="0 0 23.92 38.63"><defs><style>.cls-1{fill:#bb9962;stroke-width:0px;}</style></defs><g id="Layer_1-2"><path class="cls-1" d="m0,0v38.63h23.92V0H0Zm22.86,37.57H1.06V1.06h21.8v36.5Z"/><path class="cls-1" d="m3.47,26.11c.71,0,1.28-.58,1.28-1.28s-.57-1.28-1.28-1.28-1.28.58-1.28,1.28.57,1.28,1.28,1.28Zm0-1.5c.12,0,.22.1.22.22,0,.24-.43.24-.43,0,0-.12.1-.22.22-.22Z"/><path class="cls-1" d="m20.23,10.82c0-4.56-3.71-8.27-8.27-8.27S3.69,6.26,3.69,10.82v11.64h16.53v-11.64Zm-8.8,10.58h-6.67v-4.88h6.67v4.88Zm0-5.95h-6.67v-4.1h6.67v4.1Zm0-5.16h-6.62c.26-3.54,3.08-6.35,6.62-6.62v6.62Zm1.06-6.62c3.54.26,6.35,3.08,6.62,6.62h-6.62V3.67Zm6.67,17.73h-6.67v-4.88h6.67v4.88Zm0-5.95h-6.67v-4.1h6.67v4.1Z"/><path class="cls-1" d="m11.96,25.86c-5.49,0-8.27,2-8.27,5.95v3.72h16.53v-3.72c0-3.95-2.78-5.95-8.27-5.95Zm7.2,8.61H4.76v-2.66c0-3.33,2.29-4.89,7.2-4.89s7.2,1.55,7.2,4.89v2.66Z"/></g></svg>