<?xml version="1.0" encoding="UTF-8"?><svg id="Layer_2" xmlns="http://www.w3.org/2000/svg" viewBox="0 0 32.05 38.85"><defs><style>.cls-1{fill:#b39362;stroke-width:0px;}</style></defs><g id="Layer_1-2"><path class="cls-1" d="m15.8,17.91c-.3,0-.55-.25-.55-.55s.25-.55.55-.55h14.73c.3,0,.55.25.55.55s-.25.55-.55.55h-14.73m4.98,12.78c7.51,0,9.61-6.83,10.16-9.77.04-.22-.06-.39-.12-.46-.11-.13-.27-.21-.45-.21H5.04v1.63c0,.77.37,1.52.98,1.99l2.88,2.2c.64.49,1.02,1.26,1.02,2.07v.83c0,.78-.34,1.5-.93,2l-1.97,1.64v5.16h16.17v-.39c0-.65-.25-1.26-.71-1.72l-1.42-1.44c-.54-.55-.83-1.27-.83-2.04v-.4c-3.15-.22-6.07-2.22-6.2-2.31-.25-.17-.31-.51-.14-.76.17-.25.51-.31.76-.14.03.02,3.12,2.14,6.12,2.14m-18.75,5.97h3.88v-2.81h-3.88v2.81Zm0-18.76c0,.68.56,1.24,1.24,1.24h9.9V5.87H2.03v12.02m-.93-13.13h12.7v-2.51c0-.64-.52-1.17-1.16-1.17H2.26c-.64,0-1.16.52-1.16,1.17v2.51Zm30.57,14.97c.32.38.45.88.35,1.37-.59,3.14-2.81,10.34-10.69,10.66v.39c0,.48.18.93.52,1.27l1.42,1.44c.66.67,1.02,1.55,1.02,2.49v.94c0,.3-.25.55-.55.55H6.46c-.3,0-.55-.25-.55-.55v-.55H1.48c-.3,0-.55-.25-.55-.55v-3.91c0-.3.25-.55.55-.55h4.43v-.41c0-.16.07-.32.2-.42l2.17-1.81c.34-.29.54-.71.54-1.15v-.83c0-.46-.22-.91-.59-1.19l-2.88-2.2c-.88-.68-1.41-1.75-1.41-2.86v-1.63h-.67c-1.29,0-2.34-1.05-2.34-2.34V5.87h-.38c-.3,0-.55-.25-.55-.55v-3.06C0,1.02,1.02,0,2.26,0h10.37c1.25,0,2.26,1.02,2.26,2.26v3.06c0,.3-.25.55-.55.55h-.07v13.27h16.1c.5,0,.97.22,1.29.61m-3.3,1.97c-.32-.03-.57.19-.6.49,0,.03-.39,3.48-4,5.19-3.75,1.77-6.52-.38-6.63-.48-.23-.19-.58-.15-.77.08-.19.24-.15.58.08.77.1.08,1.79,1.42,4.36,1.42,1.02,0,2.18-.21,3.44-.81,4.17-1.97,4.61-5.9,4.63-6.07.03-.3-.19-.57-.49-.6"/></g></svg>